<?xml version="1.0" encoding="UTF-8" standalone="no"?>
<svg width="124px" height="124px" viewBox="0 0 124 124" version="1.1" xmlns="http://www.w3.org/2000/svg" xmlns:xlink="http://www.w3.org/1999/xlink">
    <!-- Generator: Sketch 50 (54983) - http://www.bohemiancoding.com/sketch -->
    <title>Group 3</title>
    <desc>Created with Sketch.</desc>
    <defs></defs>
    <g id="Claim-Forms" stroke="none" stroke-width="1" fill="none" fill-rule="evenodd">
        <g id="Claim-forms---Desktop---V2" transform="translate(-251.000000, -604.000000)">
            <g id="Group-3" transform="translate(251.000000, 604.000000)">
                <polygon id="Fill-4" fill="#F4F4F1" points="56 0 56 83 124 83 124 21.6538826 102.32967 0"></polygon>
                <polyline id="Fill-5" fill="#CCCCCC" points="101 23 124 23 101 0 101 23"></polyline>
                <polygon id="Fill-6" fill="#2F424F" points="65 13 93 13 93 10 65 10"></polygon>
                <polygon id="Fill-7" fill="#A6ACAE" points="65 21 93 21 93 18 65 18"></polygon>
                <polygon id="Fill-8" fill="#D8D8D2" points="65 42 115 42 115 32 65 32"></polygon>
                <polygon id="Fill-9" fill="#D8D8D2" points="65 58 80 58 80 48 65 48"></polygon>
                <polygon id="Fill-10" fill="#D8D8D2" points="82 58 97 58 97 48 82 48"></polygon>
                <polygon id="Fill-11" fill="#D8D8D2" points="100 58 115 58 115 48 100 48"></polygon>
                <polygon id="Fill-12" fill="#D8D8D2" points="65 75 91 75 91 65 65 65"></polygon>
                <polygon id="Fill-13" fill="#D8D8D2" points="94 69 117 69 117 67 94 67"></polygon>
                <polygon id="Fill-14" fill="#D8D8D2" points="94 73 117 73 117 71 94 71"></polygon>
                <path d="M0.63255814,124 C0.276744186,124 0,123.723381 0,123.367728 L0,88.6322722 C0,88.2766191 0.276744186,88 0.63255814,88 L84.3674419,88 C84.7232558,88 85,88.2766191 85,88.6322722 L85,123.367728 C84.9604651,123.723381 84.6837209,124 84.3674419,124 L0.63255814,124 Z" id="Fill-15" fill="#9FA0A3"></path>
                <polygon id="Fill-16" fill="#4F7ABA" points="5 94 12 94 12 91 5 91"></polygon>
                <polygon id="Fill-17" fill="#4F7ABA" points="16 94 23 94 23 91 16 91"></polygon>
                <polygon id="Fill-18" fill="#4F7ABA" points="27 94 34 94 34 91 27 91"></polygon>
                <polygon id="Fill-19" fill="#4F7ABA" points="38 94 45 94 45 91 38 91"></polygon>
                <polygon id="Fill-20" fill="#4F7ABA" points="50 94 57 94 57 91 50 91"></polygon>
                <polygon id="Fill-21" fill="#4F7ABA" points="62 94 69 94 69 91 62 91"></polygon>
                <polygon id="Fill-22" fill="#4F7ABA" points="73 94 80 94 80 91 73 91"></polygon>
                <polygon id="Fill-23" fill="#F6F7F9" points="5 104 12 104 12 98 5 98"></polygon>
                <polygon id="Fill-24" fill="#F6F7F9" points="14 104 21 104 21 98 14 98"></polygon>
                <polygon id="Fill-25" fill="#F6F7F9" points="24 104 31 104 31 98 24 98"></polygon>
                <polygon id="Fill-26" fill="#F6F7F9" points="34 104 41 104 41 98 34 98"></polygon>
                <polygon id="Fill-27" fill="#F6F7F9" points="44 104 51 104 51 98 44 98"></polygon>
                <polygon id="Fill-28" fill="#F6F7F9" points="54 104 61 104 61 98 54 98"></polygon>
                <polygon id="Fill-29" fill="#F6F7F9" points="63 104 70 104 70 98 63 98"></polygon>
                <polygon id="Fill-30" fill="#F6F7F9" points="74 104 81 104 81 98 74 98"></polygon>
                <polygon id="Fill-31" fill="#F6F7F9" points="5 112 12 112 12 106 5 106"></polygon>
                <polygon id="Fill-32" fill="#F6F7F9" points="14 112 21 112 21 106 14 106"></polygon>
                <polygon id="Fill-33" fill="#F6F7F9" points="24 112 31 112 31 106 24 106"></polygon>
                <polygon id="Fill-34" fill="#F6F7F9" points="34 112 41 112 41 106 34 106"></polygon>
                <polygon id="Fill-35" fill="#F6F7F9" points="44 112 51 112 51 106 44 106"></polygon>
                <polygon id="Fill-36" fill="#F6F7F9" points="54 112 61 112 61 106 54 106"></polygon>
                <polygon id="Fill-37" fill="#F6F7F9" points="63 112 70 112 70 106 63 106"></polygon>
                <polygon id="Fill-38" fill="#F6F7F9" points="74 112 81 112 81 106 74 106"></polygon>
                <polygon id="Fill-39" fill="#24D2AA" points="5 121 12 121 12 115 5 115"></polygon>
                <polygon id="Fill-40" fill="#F6F7F9" points="14 121 21 121 21 115 14 115"></polygon>
                <polygon id="Fill-41" fill="#F6F7F9" points="24 121 60 121 60 115 24 115"></polygon>
                <polygon id="Fill-42" fill="#F6F7F9" points="63 121 70 121 70 115 63 115"></polygon>
                <polygon id="Fill-43" fill="#24D2AA" points="74 121 81 121 81 115 74 115"></polygon>
                <path d="M44.7215719,87 L40.0844482,87 L40.0844482,82.3564155 C40.0844482,80.1507128 38.2767559,78.3706721 36.0367893,78.3706721 L18.8637124,78.3706721 C13.4013378,78.3706721 9,73.9979633 9,68.6578411 C9,63.2790224 13.4406355,58.9450102 18.8637124,58.9450102 L40.9489967,58.9450102 C43.1889632,58.9450102 44.9966555,57.1649695 44.9966555,54.9592668 C44.9966555,52.7535642 43.1889632,50.9735234 40.9489967,50.9735234 L19.9640468,50.9735234 C14.1086957,50.9735234 9.31438127,46.2912424 9.31438127,40.4867617 C9.31438127,34.6822811 14.069398,30 19.9640468,30 L56,30 L56,34.5661914 L19.9640468,34.5661914 C16.6630435,34.5661914 13.951505,37.197556 13.951505,40.4867617 C13.951505,43.7759674 16.6237458,46.407332 19.9640468,46.407332 L40.9489967,46.407332 C45.743311,46.407332 49.6337793,50.2382892 49.6337793,54.9592668 C49.6337793,59.6802444 45.743311,63.5112016 40.9489967,63.5112016 L18.8637124,63.5112016 C15.9949833,63.5112016 13.6371237,65.8329939 13.6371237,68.6578411 C13.6371237,71.4826884 15.9949833,73.8044807 18.8637124,73.8044807 L36.0367893,73.8044807 C40.8311037,73.8044807 44.7215719,77.6354379 44.7215719,82.3564155 L44.7215719,87" id="Fill-44" fill="#8CD0E9"></path>
            </g>
        </g>
    </g>
</svg>