<?xml version="1.0" encoding="UTF-8" standalone="no"?>
<svg width="71px" height="71px" viewBox="0 0 71 71" version="1.1" xmlns="http://www.w3.org/2000/svg" xmlns:xlink="http://www.w3.org/1999/xlink">
    <!-- Generator: Sketch 50 (54983) - http://www.bohemiancoding.com/sketch -->
    <title>e-sign-documents-graphic</title>
    <desc>Created with Sketch.</desc>
    <defs></defs>
    <g id="My-Claims" stroke="none" stroke-width="1" fill="none" fill-rule="evenodd">
        <g id="Dashboard-New---Standard---state-1" transform="translate(-499.000000, -605.000000)">
            <g id="Canvas-Area" transform="translate(21.000000, 160.000000)">
                <g id="Message-Banner-2" transform="translate(200.000000, 182.000000)">
                    <g id="Process---style-1" transform="translate(0.000000, 175.000000)">
                        <g id="e-sign-documents-graphic" transform="translate(278.000000, 88.000000)">
                            <path d="M38.6232205,0 L1.78983731,0 C0.847918382,0 0,0.754371708 0,1.79148318 L0,69.2085168 C0,70.1513019 0.753678652,71 1.78983731,71 L50.2101627,71 C51.1520816,71 52,70.2456283 52,69.2085168 L52,13.3890803 C52,12.9176878 51.8115205,12.4462953 51.4348008,12.1633161 L39.9420983,0.47139254 C39.5651394,0.188652779 39.0941799,0 38.6232205,0" id="Fill-4" fill="#F4F4F1"></path>
                            <path d="M59,6 L59,1.78124256 C59,0.843846703 59.9846875,0 61.3384375,0 L64.6615625,0 C65.8925,0 67,0.75005951 67,1.78124256 L67,6 L59,6 Z" id="Fill-5" fill-opacity="0.8" fill="#245AAA"></path>
                            <polyline id="Fill-6" fill="#888A8D" points="71 32 69.3001143 32 69.3001143 12.1136255 67 12.1136255 67 10 71 10 71 32"></polyline>
                            <path d="M68,48.9498365 L68,7.32740734 C68,6.56885447 67.5146182,6 66.9321106,6 L59.0678894,6 C58.4853818,6 58,6.56885447 58,7.32740734 L58,48.9498365 C58,52.363204 58.3885027,55.6814816 58.9710102,59 L67.0292363,59 C67.6117438,55.6814816 68,52.363204 68,48.9498365" id="Fill-7" fill="#2F424F"></path>
                            <path d="M62.9522428,71 C63.3333333,70.3332628 63.6189094,69.6667372 64,69 L62,69 C62.2855761,69.6667372 62.571394,70.3332628 62.9522428,71" id="Fill-8" fill="#27333F"></path>
                            <path d="M59,59 C59.6747224,62.4286889 60.6384717,65.8571359 61.9879164,69 L64.0120836,69 C65.3615283,65.8571359 66.3252776,62.4286889 67,59 L59,59" id="Fill-9" fill="#E6E9E9"></path>
                            <polygon id="Fill-10" fill="#A6ACAE" points="59 51 61 51 61 15 59 15"></polygon>
                            <path d="M51.7613964,13 C51.9608723,13 52.0606103,12.7020337 51.9608723,12.6026275 L39.3986987,0.0822399486 C39.1992228,-0.116320152 39,0.0822399486 39,0.281052349 L39,11.1120391 C39,12.1058488 39.7973974,13 40.8942619,13 L51.7613964,13 Z" id="Fill-11" fill="#C7C6C1"></path>
                            <polygon id="Fill-12" fill-opacity="0.5" fill="#888A8D" points="5 11 31 11 31 7 5 7"></polygon>
                            <polygon id="Fill-13" fill="#D8D8D2" points="5 21 49 21 49 19 5 19"></polygon>
                            <polygon id="Fill-14" fill="#D8D8D2" points="5 25 49 25 49 23 5 23"></polygon>
                            <polygon id="Fill-15" fill="#D8D8D2" points="5 31 37 31 37 29 5 29"></polygon>
                            <polygon id="Fill-16" fill="#D8D8D2" points="5 36 44 36 44 34 5 34"></polygon>
                            <polygon id="Fill-17" fill="#D8D8D2" points="5 41 47 41 47 39 5 39"></polygon>
                            <polygon id="Fill-18" fill="#D8D8D2" points="5 47 37 47 37 45 5 45"></polygon>
                            <polygon id="Fill-19" fill="#D8D8D2" points="5 51 49 51 49 49 5 49"></polygon>
                            <polygon id="Fill-20" fill="#24D2AA" points="15.7658289 61.2658289 16.4304011 59.4620589 14.8163367 58.89246 14.8163367 57.1836633 13.0125667 57.1836633 12.2530211 55.5695989 10.7341711 56.2341711 9.5 55 8.26582889 56.3291444 6.46205888 55.6645722 5.89245999 57.1836633 4.27839558 57.1836633 4.27839558 59.0824066 2.56959889 59.8419522 3.23417111 61.3608022 2 62.5 3.32914444 63.8291444 2.66457222 65.5379411 4.27839558 66.2025133 4.27839558 67.8165777 6.08216558 67.8165777 6.84171113 69.5253744 8.36080221 68.8608022 9.5 70 10.8291444 68.6708556 12.5379411 69.4304011 13.2025133 67.8165777 14.8163367 67.8165777 14.8163367 66.0128077 16.5251334 65.2532622 15.8608022 63.7341711 17 62.5"></polygon>
                            <path d="M9.5,57 C12.5376045,57 15,59.4623955 15,62.5 C15,65.5376045 12.5376045,68 9.5,68 C6.46239548,68 4,65.5376045 4,62.5 C4,59.4623955 6.46239548,57 9.5,57" id="Fill-21" fill="#91E8D4"></path>
                            <path d="M29.1343535,66.4339849 C28.848432,65.962106 29.0389656,65.2075788 29.5156628,64.8300757 C29.6110506,64.7356999 29.8018263,64.6415637 29.8972141,64.5471879 C29.992602,64.5471879 29.992602,64.4528121 30.0879898,64.4528121 C30.5646869,64.0755485 30.7552205,63.4151576 30.9459962,62.7547667 C31.3275476,61.0564817 31.613469,59.3584363 31.8042447,57.3772636 C31.8042447,57.1887516 31.9947783,57 32.185554,57 C32.3763297,57 32.5671054,57.0943758 32.6622511,57.3772636 C33.0438025,58.9811728 33.3297239,60.5848424 33.6158875,62.1887516 C33.8066632,62 33.9971967,61.9056242 34.2833603,61.7168727 C34.4738939,61.5283606 34.7600574,61.6227364 34.8554452,61.7168727 C34.8554452,61.7168727 34.8554452,61.7168727 34.8554452,61.8112484 L36.2857787,60.9623455 C36.3809245,60.8679697 36.5717002,60.8679697 36.7624758,60.9623455 C36.8578637,61.0564817 36.9530094,61.1508575 36.9530094,61.3396091 C36.9530094,61.5283606 36.9530094,61.6227364 36.9530094,61.8112484 C37.0483973,61.8112484 37.1437851,61.8112484 37.1437851,61.9056242 C37.239173,62 37.3345608,62.1887516 37.3345608,62.2828878 C37.3345608,62.3772636 37.3345608,62.4716394 37.239173,62.6603909 C38.0020336,62.0943758 38.6695064,61.5283606 39.3369792,60.9623455 C40.8624585,59.6415637 42.4835676,58.3207818 44.3903561,57.3772636 C44.5811318,57.2831273 44.8672953,57.3772636 44.9626832,57.5660151 C45.0578289,57.7547667 44.9626832,58.0376545 44.7719075,58.1320303 C43.0556526,59.0755485 41.4345434,60.3960908 39.9090642,61.6224969 C38.7648943,62.5660151 37.6204822,63.5092939 36.2857787,64.3584363 C35.9996152,64.6415637 35.6183059,64.9244515 35.2367545,65.2075788 C34.4738939,65.6792182 33.5204996,65.962106 32.4717175,66.0564817 C32.2809418,66.0564817 32.0901662,66.0564817 31.9947783,66.0564817 C31.7088569,66.0564817 31.5180812,65.8679697 31.5180812,65.5848424 C31.5180812,65.3017151 31.7088569,65.113203 31.8996326,65.113203 C32.0901662,65.113203 32.185554,65.113203 32.3763297,65.113203 C32.8530268,65.0188272 33.3297239,64.8300757 33.9971967,64.5471879 C34.3787481,64.3584363 34.6646696,64.1696848 35.0462209,63.9811728 C34.9508331,63.886797 34.9508331,63.7924212 35.0462209,63.6980454 C35.1413667,63.1320303 35.4275302,62.6603909 35.9042273,62.2828878 C35.9042273,62.1887516 35.9042273,62.1887516 35.9042273,62.0943758 L35.1413667,62.5660151 C35.0462209,62.6603909 34.7600574,62.7547667 34.4738939,62.7547667 C34.3787481,62.7547667 34.3787481,62.7547667 34.2833603,62.6603909 C33.8066632,63.0376545 33.2343361,63.4151576 32.6622511,63.7924212 C32.4717175,63.886797 32.185554,63.886797 32.0901662,63.6980454 C31.9947783,63.6036696 31.8996326,63.4151576 31.9947783,63.2264061 C31.9947783,63.0376545 32.185554,62.7547667 32.3763297,62.6603909 C32.4717175,62.6603909 32.4717175,62.5660151 32.5671054,62.5660151 L32.6622511,62.4716394 L32.6622511,62.3772636 C32.5671054,61.7168727 32.4717175,61.0564817 32.2809418,60.3019546 C32.185554,61.2452333 31.9947783,62.1887516 31.7088569,63.0376545 C31.5180812,63.886797 31.2321598,64.7356999 30.4692991,65.2075788 C30.3739113,65.3019546 30.2785234,65.3019546 30.1831356,65.3960908 C30.0879898,65.4904666 29.992602,65.4904666 29.8972141,65.5848424 C29.7064384,65.7735939 29.7064384,65.962106 29.7064384,66.1508575 C29.7064384,66.1508575 29.8018263,66.2452333 29.8972141,66.2452333 C29.992602,66.0564817 30.3739113,65.962106 30.5646869,66.1508575 C30.7554626,66.2452333 30.8506084,66.5283606 30.7554626,66.7168727 C30.7552205,66.9056242 30.4692991,67 30.0879898,67 C29.6110506,67 29.3251292,66.8112484 29.1343535,66.4339849 Z" id="Fill-22" fill-opacity="0.8" fill="#000000"></path>
                        </g>
                    </g>
                </g>
            </g>
        </g>
    </g>
</svg>