<?xml version="1.0" encoding="UTF-8"?>
<svg width="339px" height="279px" viewBox="0 0 339 279" version="1.1" xmlns="http://www.w3.org/2000/svg" xmlns:xlink="http://www.w3.org/1999/xlink">
    <!-- Generator: Sketch 51.3 (57544) - http://www.bohemiancoding.com/sketch -->
    <title>Group 14</title>
    <desc>Created with Sketch.</desc>
    <defs>
        <rect id="path-1" x="0" y="0" width="160" height="40" rx="5"></rect>
        <filter x="-3.1%" y="-10.0%" width="106.2%" height="125.0%" filterUnits="objectBoundingBox" id="filter-2">
            <feOffset dx="0" dy="1" in="SourceAlpha" result="shadowOffsetOuter1"></feOffset>
            <feGaussianBlur stdDeviation="1.5" in="shadowOffsetOuter1" result="shadowBlurOuter1"></feGaussianBlur>
            <feColorMatrix values="0 0 0 0 0   0 0 0 0 0   0 0 0 0 0  0 0 0 0.2 0" type="matrix" in="shadowBlurOuter1"></feColorMatrix>
        </filter>
        <polygon id="path-3" points="0 0 11 0 11 10 0 10"></polygon>
        <rect id="path-5" x="0" y="0" width="160" height="40" rx="5"></rect>
        <filter x="-3.1%" y="-10.0%" width="106.2%" height="125.0%" filterUnits="objectBoundingBox" id="filter-6">
            <feOffset dx="0" dy="1" in="SourceAlpha" result="shadowOffsetOuter1"></feOffset>
            <feGaussianBlur stdDeviation="1.5" in="shadowOffsetOuter1" result="shadowBlurOuter1"></feGaussianBlur>
            <feColorMatrix values="0 0 0 0 0   0 0 0 0 0   0 0 0 0 0  0 0 0 0.2 0" type="matrix" in="shadowBlurOuter1"></feColorMatrix>
        </filter>
    </defs>
    <g id="---▶︎--Graphics" stroke="none" stroke-width="1" fill="none" fill-rule="evenodd">
        <g id="Artboard-6" transform="translate(-1218.000000, -1382.000000)">
            <g id="Group-14" transform="translate(1217.000000, 1384.000000)">
                <ellipse id="Oval" fill="#F5F5F9" cx="170.5" cy="241" rx="169.5" ry="36"></ellipse>
                <g id="Group-22" transform="translate(215.000000, 233.000000)">
                    <g id="Group-342" transform="translate(10.000000, 0.000000)">
                        <path d="M1.95577273,35.9423226 C1.95577273,35.9423226 -2.01411364,25.7338065 1.95577273,15.2450323 C5.92681818,4.75625806 15.9761364,-4.39509677 16.6715909,2.76774194 C17.3709091,9.93058065 1.95577273,35.9423226 1.95577273,35.9423226" id="Clip-341"></path>
                        <path d="M1.95577273,35.9423226 C1.95577273,35.9423226 -2.01411364,25.7338065 1.95577273,15.2450323 C5.92681818,4.75625806 15.9761364,-4.39509677 16.6715909,2.76774194 C17.3709091,9.93058065 1.95577273,35.9423226 1.95577273,35.9423226" id="Fill-340" fill="#3F408E"></path>
                    </g>
                    <g id="Group-345" transform="translate(12.000000, 8.000000)">
                        <path d="M0.398625,27.6935556 L0.381,27.6923889 C0.306375,27.6826667 0.25425,27.6118889 0.263625,27.5352778 C0.2745,27.4477778 1.3575,18.7448333 2.83275,12.5564444 C4.3125,6.34822222 8.64,0.411833333 8.68125,0.352333333 C8.72625,0.290111111 8.8125,0.278833333 8.8725,0.325888889 C8.9325,0.372944444 8.94375,0.461222222 8.89875,0.522666667 C8.85375,0.581777778 4.56375,6.47344444 3.095625,12.6241111 C1.6245,18.7965556 0.543,27.4839444 0.5325,27.5706667 C0.523875,27.6414444 0.465375,27.6935556 0.398625,27.6935556" id="Clip-344"></path>
                        <path d="M0.398625,27.6935556 L0.381,27.6923889 C0.306375,27.6826667 0.25425,27.6118889 0.263625,27.5352778 C0.2745,27.4477778 1.3575,18.7448333 2.83275,12.5564444 C4.3125,6.34822222 8.64,0.411833333 8.68125,0.352333333 C8.72625,0.290111111 8.8125,0.278833333 8.8725,0.325888889 C8.9325,0.372944444 8.94375,0.461222222 8.89875,0.522666667 C8.85375,0.581777778 4.56375,6.47344444 3.095625,12.6241111 C1.6245,18.7965556 0.543,27.4839444 0.5325,27.5706667 C0.523875,27.6414444 0.465375,27.6935556 0.398625,27.6935556" id="Fill-343" fill="#24D2AA"></path>
                    </g>
                    <g id="Group-348" transform="translate(0.000000, 5.000000)">
                        <path d="M10.7383939,28.9468961 C10.7383939,28.9468961 14.5288788,21.1048442 11.7854848,12.6575584 C9.04169697,4.21064935 1.21569697,-3.47887013 0.277727273,2.12453247 C-0.660242424,7.72831169 10.7383939,28.9468961 10.7383939,28.9468961" id="Clip-347"></path>
                        <path d="M10.7383939,28.9468961 C10.7383939,28.9468961 14.5288788,21.1048442 11.7854848,12.6575584 C9.04169697,4.21064935 1.21569697,-3.47887013 0.277727273,2.12453247 C-0.660242424,7.72831169 10.7383939,28.9468961 10.7383939,28.9468961" id="Fill-346" fill="#3F408E"></path>
                    </g>
                    <g id="Group-351" transform="translate(5.000000, 12.000000)">
                        <path d="M5.72175,22.7013833 C5.650875,22.7013833 5.591625,22.6450333 5.58675,22.5722 C5.582625,22.5016667 5.12475,15.52155 4.23,10.5267167 C3.33975,5.55143333 0.153,0.6417 0.12075,0.592633333 C0.0795,0.529 0.096,0.44275 0.15825,0.4002 C0.2205,0.358033333 0.304875,0.3749 0.3465,0.438533333 C0.37875,0.4876 3.596625,5.44601667 4.497,10.4768833 C5.394,15.4878167 5.852625,22.4832667 5.857125,22.5534167 C5.862375,22.6297 5.805375,22.6960167 5.731125,22.701 L5.72175,22.7013833" id="Clip-350"></path>
                        <path d="M5.72175,22.7013833 C5.650875,22.7013833 5.591625,22.6450333 5.58675,22.5722 C5.582625,22.5016667 5.12475,15.52155 4.23,10.5267167 C3.33975,5.55143333 0.153,0.6417 0.12075,0.592633333 C0.0795,0.529 0.096,0.44275 0.15825,0.4002 C0.2205,0.358033333 0.304875,0.3749 0.3465,0.438533333 C0.37875,0.4876 3.596625,5.44601667 4.497,10.4768833 C5.394,15.4878167 5.852625,22.4832667 5.857125,22.5534167 C5.862375,22.6297 5.805375,22.6960167 5.731125,22.701 L5.72175,22.7013833" id="Fill-349" fill="#24D2AA"></path>
                    </g>
                </g>
                <path d="M315.763127,227 C318.822358,223.048622 315.420469,219.334944 301.890087,216.673938 C287.121812,213.769058 272.85672,214.321634 261.058153,216.158407 C289.190111,205.289031 322.131637,189.640957 292.894528,185.896409 C283.778576,184.726431 269.525832,188.041884 253.581405,193.595422 C271.646611,181.33689 281.753495,170.989219 271.279256,168.343648 C261.555162,165.880211 241.035781,175.511695 219.06859,188.59446 C231.765478,177.295989 239.27927,167.223062 234.059129,161.956616 C229.79905,157.659493 220.090391,161.737438 208.773398,169.680325 C209.609979,162.163446 206.427268,157.406358 198.647992,157.866323 C191.328682,158.301592 185.021913,166.692096 180.326565,176.925547 C174.096971,160.261846 156.112027,149.241206 137.275068,153.087625 C115.144265,157.60084 130.891123,197.596192 139.809507,216.695547 L315.763127,227" id="Fill-1781" fill="#AEE1D8"></path>
                <g id="Flowers" transform="translate(252.000000, 137.000000)">
                    <path d="M67.0079845,10.8723267 C66.9882152,10.8888011 31.9306868,36.0518034 3.95715147,106.895029 L4.26357535,107.016939 C18.2371635,71.6266281 33.9768076,47.6530776 46.2205835,32.5295762 C52.3424715,24.9678255 57.5912161,19.6202344 61.3078413,16.1606099 C63.1661539,14.4340925 64.6389655,13.1754482 65.6504938,12.3517281 C66.1546105,11.939868 66.5434064,11.636739 66.8037019,11.4357513 C66.9354972,11.3369049 67.0343436,11.2611226 67.1002412,11.2149943 C67.1694337,11.1655711 67.2023825,11.139212 67.2023825,11.139212 L67.0079845,10.8723267" id="Fill-1938" fill="#3F408E"></path>
                    <path d="M32.421624,20.1507102 C32.4150343,20.1605948 7.30145517,55.2181232 0,98.5721607 L0.322898288,98.6281737 C3.96703611,76.9972833 12.0592626,57.4223983 19.2421021,43.2577071 C22.8335218,36.173714 26.1942999,30.4439168 28.6621654,26.4834705 C29.8944507,24.5065422 30.9026841,22.967833 31.6011988,21.9266508 C31.9504561,21.4060597 32.2239312,21.010674 32.4084445,20.7437887 C32.5929578,20.4769034 32.6918042,20.3418133 32.6918042,20.3418133 L32.421624,20.1507102" id="Fill-1939" fill="#3F408E"></path>
                    <path d="M53.017922,54.6052755 C53.0047424,54.6118652 45.4561712,57.0303075 37.0476362,64.4207244 C28.6423961,71.8078465 19.380487,84.173533 15.9538113,104.041662 L16.2800045,104.097675 C19.6935007,84.3053282 28.9059865,72.015424 37.2650983,64.6678405 C41.4463017,60.9940487 45.4133378,58.5558372 48.3326019,57.0368973 C49.792234,56.2757799 50.9915705,55.748599 51.8251752,55.4092263 C52.2403302,55.2378925 52.5665233,55.1159819 52.7872803,55.0369048 C52.8960114,54.9973662 52.9816783,54.9677123 53.0376912,54.947943 C53.0937042,54.9281738 53.1200633,54.921584 53.1200633,54.921584 L53.0212168,54.6052755" id="Fill-1940" fill="#3F408E"></path>
                    <path d="M71.6468468,5.60381282 C77.2352936,10.3056073 80.2204553,15.9497376 78.3189798,18.2133205 C76.4148683,20.4769034 70.3391087,18.5032699 64.7509914,13.8047704 C59.1628741,9.10627078 56.1777124,3.45884562 58.0821533,1.19526273 C59.9865942,-1.06832017 66.0590589,0.905313245 71.6468468,5.60381282" id="Fill-1941" fill="#FFDB98"></path>
                    <path d="M71.4132397,12.407741 C70.8069817,13.126025 68.8794766,12.4999977 67.1068309,11.0074168 C65.3308904,9.51483597 64.3819648,7.72242098 64.9882228,7.00413703 C65.5911859,6.28585309 67.5219859,6.91188038 69.2946316,8.40446124 C71.0672773,9.8970421 72.0162029,11.6861622 71.4132397,12.407741 Z" id="Fill-1942" fill="#5073A6"></path>
                    <path d="M34.4479755,17.9958583 C36.7741611,19.9530174 38.019626,22.3022671 37.2255598,23.244603 C36.4314936,24.1869388 33.9043202,23.3665135 31.5781346,21.4093545 C29.251949,19.4521955 28.0064842,17.1029457 28.8005504,16.1606099 C29.5913217,15.2182741 32.1217899,16.0386993 34.4479755,17.9958583" id="Fill-1943" fill="#FFDB98"></path>
                    <path d="M33.469396,19.1589512 C34.2074492,19.7816836 34.6028349,20.5296214 34.352424,20.8261607 C34.0987182,21.1259948 33.2947674,20.8656993 32.5567141,20.2462617 C31.8186609,19.6235293 31.4232752,18.8755914 31.6736861,18.5790522 C31.9273919,18.2792181 32.7313428,18.5395136 33.469396,19.1589512" id="Fill-1944" fill="#245AAA"></path>
                    <path d="M55.1002864,52.7930912 C57.3375103,56.0088946 58.0953328,59.3531983 56.7905601,60.2592904 C55.4890823,61.1653825 52.6159465,59.2938904 50.3787227,56.0747922 C48.1414988,52.8556939 47.3836763,49.5146851 48.688449,48.608593 C49.9932217,47.7025008 52.8630626,49.573993 55.1002864,52.7930912" id="Fill-1945" fill="#FFDB98"></path>
                    <path d="M53.8185779,54.2428386 C54.5302721,55.2642516 54.7707984,56.3252031 54.3556434,56.6118577 C53.9437834,56.9018072 53.0311015,56.3054338 52.3194073,55.2840209 C51.611008,54.2626079 51.3704817,53.2016564 51.7823418,52.9117069 C52.1974967,52.6250523 53.1068837,53.2214257 53.8185779,54.2428386" id="Fill-1946" fill="#5073A6"></path>
                </g>
                <g id="Group-22" transform="translate(281.000000, 221.000000)">
                    <g id="Group-342" transform="translate(10.000000, 0.000000)">
                        <path d="M1.95577273,35.9423226 C1.95577273,35.9423226 -2.01411364,25.7338065 1.95577273,15.2450323 C5.92681818,4.75625806 15.9761364,-4.39509677 16.6715909,2.76774194 C17.3709091,9.93058065 1.95577273,35.9423226 1.95577273,35.9423226" id="Clip-341"></path>
                        <path d="M1.95577273,35.9423226 C1.95577273,35.9423226 -2.01411364,25.7338065 1.95577273,15.2450323 C5.92681818,4.75625806 15.9761364,-4.39509677 16.6715909,2.76774194 C17.3709091,9.93058065 1.95577273,35.9423226 1.95577273,35.9423226" id="Fill-340" fill="#3F408E"></path>
                    </g>
                    <g id="Group-345" transform="translate(12.000000, 8.000000)">
                        <path d="M0.398625,27.6935556 L0.381,27.6923889 C0.306375,27.6826667 0.25425,27.6118889 0.263625,27.5352778 C0.2745,27.4477778 1.3575,18.7448333 2.83275,12.5564444 C4.3125,6.34822222 8.64,0.411833333 8.68125,0.352333333 C8.72625,0.290111111 8.8125,0.278833333 8.8725,0.325888889 C8.9325,0.372944444 8.94375,0.461222222 8.89875,0.522666667 C8.85375,0.581777778 4.56375,6.47344444 3.095625,12.6241111 C1.6245,18.7965556 0.543,27.4839444 0.5325,27.5706667 C0.523875,27.6414444 0.465375,27.6935556 0.398625,27.6935556" id="Clip-344"></path>
                        <path d="M0.398625,27.6935556 L0.381,27.6923889 C0.306375,27.6826667 0.25425,27.6118889 0.263625,27.5352778 C0.2745,27.4477778 1.3575,18.7448333 2.83275,12.5564444 C4.3125,6.34822222 8.64,0.411833333 8.68125,0.352333333 C8.72625,0.290111111 8.8125,0.278833333 8.8725,0.325888889 C8.9325,0.372944444 8.94375,0.461222222 8.89875,0.522666667 C8.85375,0.581777778 4.56375,6.47344444 3.095625,12.6241111 C1.6245,18.7965556 0.543,27.4839444 0.5325,27.5706667 C0.523875,27.6414444 0.465375,27.6935556 0.398625,27.6935556" id="Fill-343" fill="#24D2AA"></path>
                    </g>
                    <g id="Group-348" transform="translate(0.000000, 5.000000)">
                        <path d="M10.7383939,28.9468961 C10.7383939,28.9468961 14.5288788,21.1048442 11.7854848,12.6575584 C9.04169697,4.21064935 1.21569697,-3.47887013 0.277727273,2.12453247 C-0.660242424,7.72831169 10.7383939,28.9468961 10.7383939,28.9468961" id="Clip-347"></path>
                        <path d="M10.7383939,28.9468961 C10.7383939,28.9468961 14.5288788,21.1048442 11.7854848,12.6575584 C9.04169697,4.21064935 1.21569697,-3.47887013 0.277727273,2.12453247 C-0.660242424,7.72831169 10.7383939,28.9468961 10.7383939,28.9468961" id="Fill-346" fill="#3F408E"></path>
                    </g>
                    <g id="Group-351" transform="translate(5.000000, 12.000000)">
                        <path d="M5.72175,22.7013833 C5.650875,22.7013833 5.591625,22.6450333 5.58675,22.5722 C5.582625,22.5016667 5.12475,15.52155 4.23,10.5267167 C3.33975,5.55143333 0.153,0.6417 0.12075,0.592633333 C0.0795,0.529 0.096,0.44275 0.15825,0.4002 C0.2205,0.358033333 0.304875,0.3749 0.3465,0.438533333 C0.37875,0.4876 3.596625,5.44601667 4.497,10.4768833 C5.394,15.4878167 5.852625,22.4832667 5.857125,22.5534167 C5.862375,22.6297 5.805375,22.6960167 5.731125,22.701 L5.72175,22.7013833" id="Clip-350"></path>
                        <path d="M5.72175,22.7013833 C5.650875,22.7013833 5.591625,22.6450333 5.58675,22.5722 C5.582625,22.5016667 5.12475,15.52155 4.23,10.5267167 C3.33975,5.55143333 0.153,0.6417 0.12075,0.592633333 C0.0795,0.529 0.096,0.44275 0.15825,0.4002 C0.2205,0.358033333 0.304875,0.3749 0.3465,0.438533333 C0.37875,0.4876 3.596625,5.44601667 4.497,10.4768833 C5.394,15.4878167 5.852625,22.4832667 5.857125,22.5534167 C5.862375,22.6297 5.805375,22.6960167 5.731125,22.701 L5.72175,22.7013833" id="Fill-349" fill="#24D2AA"></path>
                    </g>
                </g>
                <g id="Group" transform="translate(0.000000, 5.000000)">
                    <g id="Group-448" transform="translate(111.000000, 0.000000)">
                        <path d="M3.442,35.849 C3.442,35.849 7.255,24.41 9.543,22.886 C11.83,21.36 20.219,17.548 19.456,16.785 C18.693,16.022 13.355,18.311 12.593,17.548 C11.83,16.785 14.881,3.822 13.355,0.771 C11.83,-2.278 10.306,6.109 9.543,6.872 C8.78,7.635 3.442,18.311 2.68,22.886 C1.917,27.461 0.393,32.799 0.393,32.799 L3.442,35.849" id="Clip-447"></path>
                        <path d="M3.442,35.849 C3.442,35.849 7.255,24.41 9.543,22.886 C11.83,21.36 20.219,17.548 19.456,16.785 C18.693,16.022 13.355,18.311 12.593,17.548 C11.83,16.785 14.881,3.822 13.355,0.771 C11.83,-2.278 10.306,6.109 9.543,6.872 C8.78,7.635 3.442,18.311 2.68,22.886 C1.917,27.461 0.393,32.799 0.393,32.799 L3.442,35.849" id="Fill-446" fill="#F1BA8E"></path>
                    </g>
                    <g id="Group-451" transform="translate(81.000000, 27.000000)">
                        <path d="M2.415,19.287 C2.415,19.287 19.954,15.475 22.242,13.187 C24.529,10.899 30.63,0.986 31.393,0.986 C32.155,0.986 33.68,0.986 34.442,2.511 C35.205,4.036 37.493,15.475 35.205,19.287 C32.917,23.1 13.091,29.963 7.753,29.963 C2.415,29.963 -1.397,20.813 2.415,19.287" id="Clip-450"></path>
                        <path d="M2.415,19.287 C2.415,19.287 19.954,15.475 22.242,13.187 C24.529,10.899 30.63,0.986 31.393,0.986 C32.155,0.986 33.68,0.986 34.442,2.511 C35.205,4.036 37.493,15.475 35.205,19.287 C32.917,23.1 13.091,29.963 7.753,29.963 C2.415,29.963 -1.397,20.813 2.415,19.287" id="Fill-449" fill="#747CB9"></path>
                    </g>
                    <g id="Group-457" transform="translate(0.000000, 182.000000)">
                        <path d="M13.261,55.687 C5.636,54.924 0.298,34.335 1.061,31.285 C1.594,29.157 3.989,29.63 7.199,27.243 C8.587,26.222 10.127,24.658 11.736,22.135 C17.074,13.746 26.987,0.783 26.987,0.783 L33.087,9.934 C33.087,9.934 16.312,27.473 14.786,30.522 C13.398,33.298 12.011,41.13 11.774,46.536 C11.751,47.069 11.736,47.581 11.736,48.062 C11.736,53.398 20.887,56.449 13.261,55.687" id="Clip-456"></path>
                        <path d="M13.261,55.687 C5.636,54.924 0.298,34.335 1.061,31.285 C1.594,29.157 3.989,29.63 7.199,27.243 C8.587,26.222 10.127,24.658 11.736,22.135 C17.074,13.746 26.987,0.783 26.987,0.783 L33.087,9.934 C33.087,9.934 16.312,27.473 14.786,30.522 C13.398,33.298 12.011,41.13 11.774,46.536 C11.751,47.069 11.736,47.581 11.736,48.062 C11.736,53.398 20.887,56.449 13.261,55.687" id="Fill-455" fill="#F1BA8E"></path>
                    </g>
                    <g id="Group-460" transform="translate(59.000000, 198.000000)">
                        <path d="M30.516,41.975 C29.753,42.736 12.978,41.975 5.352,41.975 C-0.848,41.975 0.006,36.423 0.548,30.666 C0.67,29.339 0.776,28.004 0.776,26.724 C0.776,19.86 3.064,0.797 3.064,0.797 L15.265,0.797 C15.265,0.797 8.402,29.773 12.215,32.062 C13.45,32.801 15.891,34.028 18.59,35.363 C24.232,38.153 31.034,41.456 30.516,41.975" id="Clip-459"></path>
                        <path d="M30.516,41.975 C29.753,42.736 12.978,41.975 5.352,41.975 C-0.848,41.975 0.006,36.423 0.548,30.666 C0.67,29.339 0.776,28.004 0.776,26.724 C0.776,19.86 3.064,0.797 3.064,0.797 L15.265,0.797 C15.265,0.797 8.402,29.773 12.215,32.062 C13.45,32.801 15.891,34.028 18.59,35.363 C24.232,38.153 31.034,41.456 30.516,41.975" id="Fill-458" fill="#F1BA8E"></path>
                    </g>
                    <g id="Group-463" transform="translate(0.000000, 209.000000)">
                        <path d="M13.261,28.687 C5.636,27.924 0.298,7.335 1.061,4.285 C1.594,2.157 3.989,2.63 7.199,0.243 C8.022,2.059 8.686,3.889 8.686,5.048 C8.686,8.098 9.448,19.536 9.448,19.536 L11.774,19.536 C11.751,20.069 11.736,20.581 11.736,21.062 C11.736,26.398 20.887,29.449 13.261,28.687" id="Clip-462"></path>
                        <path d="M13.261,28.687 C5.636,27.924 0.298,7.335 1.061,4.285 C1.594,2.157 3.989,2.63 7.199,0.243 C8.022,2.059 8.686,3.889 8.686,5.048 C8.686,8.098 9.448,19.536 9.448,19.536 L11.774,19.536 C11.751,20.069 11.736,20.581 11.736,21.062 C11.736,26.398 20.887,29.449 13.261,28.687" id="Fill-461" fill="#170F47"></path>
                    </g>
                    <g id="Group-466" transform="translate(59.000000, 228.000000)">
                        <path d="M30.516,11.975 C29.753,12.736 12.978,11.975 5.352,11.975 C-0.848,11.975 0.006,6.423 0.548,0.666 C0.548,0.666 4.589,5.111 11.452,6.637 C15.25,7.482 17.415,6.453 18.59,5.363 C24.232,8.153 31.034,11.456 30.516,11.975" id="Clip-465"></path>
                        <path d="M30.516,11.975 C29.753,12.736 12.978,11.975 5.352,11.975 C-0.848,11.975 0.006,6.423 0.548,0.666 C0.548,0.666 4.589,5.111 11.452,6.637 C15.25,7.482 17.415,6.453 18.59,5.363 C24.232,8.153 31.034,11.456 30.516,11.975" id="Fill-464"></path>
                    </g>
                    <g id="Group-466" transform="translate(59.000000, 228.000000)">
                        <path d="M30.516,11.975 C29.753,12.736 12.978,11.975 5.352,11.975 C-0.848,11.975 0.006,6.423 0.548,0.666 C0.548,0.666 4.589,5.111 11.452,6.637 C15.25,7.482 17.415,6.453 18.59,5.363 C24.232,8.153 31.034,11.456 30.516,11.975" id="Clip-465"></path>
                        <path d="M30.516,11.975 C29.753,12.736 12.978,11.975 5.352,11.975 C-0.848,11.975 0.006,6.423 0.548,0.666 C0.548,0.666 4.589,5.111 11.452,6.637 C15.25,7.482 17.415,6.453 18.59,5.363 C24.232,8.153 31.034,11.456 30.516,11.975" id="Fill-464" fill="#170F47"></path>
                    </g>
                    <g id="Group-454" transform="translate(74.000000, 35.000000)">
                        <path d="M1.84,0.611 C1.84,0.611 8.703,2.137 11.753,3.661 C14.804,5.187 11.753,10.524 11.753,10.524 L0.315,8.237 L1.84,0.611" id="Clip-453"></path>
                        <path d="M1.84,0.611 C1.84,0.611 8.703,2.137 11.753,3.661 C14.804,5.187 11.753,10.524 11.753,10.524 L0.315,8.237 L1.84,0.611" id="Fill-452" fill="#F1BA8E"></path>
                    </g>
                    <g id="Group-445" transform="translate(76.000000, 14.000000)">
                        <path d="M19.091,1.022 C19.091,1.022 19.854,9.41 19.091,13.224 C18.329,17.036 16.041,20.849 12.229,20.086 L8.415,29.999 L0.027,26.187 L5.365,0.26 L19.091,1.022" id="Clip-444"></path>
                        <path d="M19.091,1.022 C19.091,1.022 19.854,9.41 19.091,13.224 C18.329,17.036 16.041,20.849 12.229,20.086 L8.415,29.999 L0.027,26.187 L5.365,0.26 L19.091,1.022" id="Fill-443" fill="#F1BA8E"></path>
                    </g>
                    <g id="Group-472" transform="translate(53.000000, 93.000000)">
                        <path d="M13.64,0.565 C13.64,0.565 -0.086,14.291 0.676,21.916 C1.438,29.542 9.827,40.218 9.827,50.131 C9.827,60.044 1.438,119.522 2.964,120.285 C4.489,121.048 19.31,125.032 31.178,120.285 C38.804,117.234 30.415,105.034 31.178,89.021 C31.94,73.007 34.229,5.141 34.229,5.141 L13.64,0.565" id="Clip-471"></path>
                        <path d="M13.64,0.565 C13.64,0.565 -0.086,14.291 0.676,21.916 C1.438,29.542 9.827,40.218 9.827,50.131 C9.827,60.044 1.438,119.522 2.964,120.285 C4.489,121.048 19.31,125.032 31.178,120.285 C38.804,117.234 30.415,105.034 31.178,89.021 C31.94,73.007 34.229,5.141 34.229,5.141 L13.64,0.565" id="Fill-470" fill="#464B50"></path>
                    </g>
                    <path d="M65.5467768,94 C65.5467768,94 51.8207768,107.727 51.8207768,113.065 C51.8207768,118.402 54.1087768,130.603 51.8207768,135.941 C49.5327768,141.278 42.6707768,160.342 38.8577768,164.155 C35.0447768,167.968 20.5557768,182.456 18.2687768,185.506 C15.9807768,188.557 28.9447768,211.433 32.7577768,209.146 C36.5697768,206.858 72.4097768,147.379 76.9847768,138.99 C81.5597768,130.603 87.6607768,100.101 87.6607768,100.101 L65.5467768,94" id="Fill-467" fill="#6B6F73"></path>
                    <g id="Group-475" transform="translate(60.000000, 39.000000)">
                        <path d="M11.978,0.424 C11.978,0.424 27.991,3.475 29.516,8.813 C31.041,14.15 34.091,26.351 36.379,29.401 C38.666,32.451 36.379,38.552 34.091,40.076 C31.804,41.602 34.091,61.428 30.278,61.428 C26.466,61.428 6.865,55.187 2.939,56.782 C-0.986,58.378 4.352,49.989 4.352,45.414 C4.352,40.839 -1.749,17.2 1.302,11.862 C4.352,6.524 11.978,0.424 11.978,0.424" id="Clip-474"></path>
                        <path d="M11.978,0.424 C11.978,0.424 27.991,3.475 29.516,8.813 C31.041,14.15 34.091,26.351 36.379,29.401 C38.666,32.451 36.379,38.552 34.091,40.076 C31.804,41.602 34.091,61.428 30.278,61.428 C26.466,61.428 6.865,55.187 2.939,56.782 C-0.986,58.378 4.352,49.989 4.352,45.414 C4.352,40.839 -1.749,17.2 1.302,11.862 C4.352,6.524 11.978,0.424 11.978,0.424" id="Fill-473" fill="#515BA8"></path>
                    </g>
                    <g id="Group-481" transform="translate(100.000000, 76.000000)">
                        <path d="M4.242,6.89 C4.242,6.89 8.055,0.026 9.579,0.789 C11.104,1.552 14.917,0.026 16.442,1.552 C17.968,3.076 21.78,9.177 19.493,10.702 C17.205,12.228 5.004,16.04 2.717,15.277 C0.429,14.515 0.429,6.89 0.429,6.89 L4.242,6.89" id="Clip-480"></path>
                        <path d="M4.242,6.89 C4.242,6.89 8.055,0.026 9.579,0.789 C11.104,1.552 14.917,0.026 16.442,1.552 C17.968,3.076 21.78,9.177 19.493,10.702 C17.205,12.228 5.004,16.04 2.717,15.277 C0.429,14.515 0.429,6.89 0.429,6.89 L4.242,6.89" id="Fill-479" fill="#F1BA8E"></path>
                    </g>
                    <g id="Group-484" transform="translate(69.000000, 45.000000)">
                        <path d="M32.717,35.602 C32.717,35.602 35.004,37.89 35.767,40.939 C36.529,43.989 35.767,48.565 34.242,48.565 C32.717,48.565 8.315,49.327 6.027,47.803 C3.74,46.277 -0.835,35.602 1.452,23.401 C3.74,11.2 2.215,-0.238 9.84,0.524 C17.466,1.287 18.991,5.862 17.466,12.726 C15.94,19.588 12.891,33.314 16.703,34.839 C20.516,36.364 31.191,33.314 32.717,35.602" id="Clip-483"></path>
                        <path d="M32.717,35.602 C32.717,35.602 35.004,37.89 35.767,40.939 C36.529,43.989 35.767,48.565 34.242,48.565 C32.717,48.565 8.315,49.327 6.027,47.803 C3.74,46.277 -0.835,35.602 1.452,23.401 C3.74,11.2 2.215,-0.238 9.84,0.524 C17.466,1.287 18.991,5.862 17.466,12.726 C15.94,19.588 12.891,33.314 16.703,34.839 C20.516,36.364 31.191,33.314 32.717,35.602" id="Fill-482" fill="#747CB9"></path>
                    </g>
                    <g id="Group-487" transform="translate(51.000000, 3.000000)">
                        <path d="M48.429,11.26 C47.666,16.598 37.753,17.36 36.229,20.41 C34.703,23.461 29.365,41.762 24.79,45.574 C20.215,49.388 16.402,53.2 11.827,51.675 C7.251,50.15 4.201,52.438 1.151,49.388 C-1.899,46.337 3.438,48.625 7.251,44.05 C11.064,39.475 14.877,29.562 15.64,23.461 C16.402,17.36 13.352,6.685 22.502,2.109 C28.61,-0.948 34.04,1.438 36.976,3.36 C38.439,4.321 39.278,5.159 39.278,5.159 C39.278,5.159 40.193,5.229 41.437,5.479 C44.312,6.044 48.963,7.539 48.429,11.26" id="Clip-486"></path>
                        <path d="M48.429,11.26 C47.666,16.598 37.753,17.36 36.229,20.41 C34.703,23.461 29.365,41.762 24.79,45.574 C20.215,49.388 16.402,53.2 11.827,51.675 C7.251,50.15 4.201,52.438 1.151,49.388 C-1.899,46.337 3.438,48.625 7.251,44.05 C11.064,39.475 14.877,29.562 15.64,23.461 C16.402,17.36 13.352,6.685 22.502,2.109 C28.61,-0.948 34.04,1.438 36.976,3.36 C38.439,4.321 39.278,5.159 39.278,5.159 C39.278,5.159 40.193,5.229 41.437,5.479 C44.312,6.044 48.963,7.539 48.429,11.26" id="Fill-485" fill="#233770"></path>
                    </g>
                </g>
                <g id="Claim-Row-Graphic" transform="translate(141.000000, 0.000000)">
                    <g id="Email-Verification">
                        <g id="Rectangle">
                            <use fill="black" fill-opacity="1" filter="url(#filter-2)" xlink:href="#path-1"></use>
                            <use fill="#F6F7F9" fill-rule="evenodd" xlink:href="#path-1"></use>
                        </g>
                        <rect id="Rectangle-2" fill-opacity="0.2" fill="#888A8D" x="41" y="14" width="105" height="5"></rect>
                        <rect id="Rectangle-2" fill-opacity="0.2" fill="#888A8D" x="41" y="24" width="105" height="5"></rect>
                        <g id="Check-circle" transform="translate(11.000000, 13.000000)">
                            <circle id="Oval-2" fill="#24D2AA" cx="8.75" cy="8.75" r="8.75"></circle>
                            <g id="checkmark" transform="translate(3.000000, 4.000000)">
                                <mask id="mask-4" fill="white">
                                    <use xlink:href="#path-3"></use>
                                </mask>
                                <g id="Clip-2"></g>
                                <polyline id="Fill-1" fill="#FFFFFF" mask="url(#mask-4)" points="4.35325 10 0 5.796339 1.51490625 4.07213894 4.1243125 6.59123667 9.26921875 0 11 1.48457769 4.35325 10"></polyline>
                            </g>
                        </g>
                    </g>
                </g>
                <g id="Claim-Row-Graphic" transform="translate(141.000000, 55.000000)">
                    <g id="Email-Verification">
                        <g id="Rectangle">
                            <use fill="black" fill-opacity="1" filter="url(#filter-6)" xlink:href="#path-5"></use>
                            <use fill="#F6F7F9" fill-rule="evenodd" xlink:href="#path-5"></use>
                        </g>
                        <rect id="Rectangle-2" fill-opacity="0.2" fill="#888A8D" x="41" y="14" width="105" height="5"></rect>
                        <rect id="Rectangle-2" fill-opacity="0.2" fill="#888A8D" x="41" y="24" width="105" height="5"></rect>
                        <g id="Exit-Icon" transform="translate(11.000000, 12.000000)">
                            <circle id="Oval-2" fill="#DF817F" cx="9" cy="9" r="9"></circle>
                            <path d="M9,8.29409976 L12.4411496,4.85295012 L12.7940998,4.5 L13.5,5.20590024 L13.1470499,5.55885035 L9.70590024,9 L13.1470499,12.4411496 L13.5,12.7940998 L12.7940998,13.5 L12.4411496,13.1470499 L9,9.70590024 L5.55885035,13.1470499 L5.20590024,13.5 L4.5,12.7940998 L4.85295012,12.4411496 L8.29409976,9 L4.85295012,5.55885035 L4.5,5.20590024 L5.20590024,4.5 L5.55885035,4.85295012 L9,8.29409976 Z" id="Combined-Shape" stroke="#FFFFFF" stroke-width="0.5" fill="#FFFFFF" stroke-linecap="square"></path>
                        </g>
                    </g>
                </g>
            </g>
        </g>
    </g>
</svg>