<?xml version="1.0" encoding="UTF-8"?>
<svg width="106px" height="89px" viewBox="0 0 106 89" version="1.1" xmlns="http://www.w3.org/2000/svg" xmlns:xlink="http://www.w3.org/1999/xlink">
    <!-- Generator: Sketch 51.2 (57519) - http://www.bohemiancoding.com/sketch -->
    <title>Group 8</title>
    <desc>Created with Sketch.</desc>
    <defs></defs>
    <g id="Pick-Claims" stroke="none" stroke-width="1" fill="none" fill-rule="evenodd">
        <g id="pick-claims---dekstop---state-1" transform="translate(-914.000000, -194.000000)">
            <g id="Group-8" transform="translate(914.000000, 194.000000)">
                <g id="e-sign-documents-graphic" transform="translate(22.000000, 0.000000)">
                    <path d="M2.20287669,0 C1.04359185,0 0,0.93499592 0,2.22042985 L0,85.7795701 C0,86.9480925 0.927604495,88 2.20287669,88 L61.7971233,88 C62.9564081,88 64,87.0650041 64,85.7795701 L64,16.5949165 C64,16.0106553 63.7680253,15.4263941 63.3043702,15.0756594 L49.1595056,0.584261176 C48.6955562,0.233823162 48.1159138,0 47.5362713,0 L2.20287669,0 Z" id="Fill-4" fill="#F4F4F1"></path>
                    <path d="M63.706334,16 C63.9518428,16 64.0745973,15.6332722 63.9518428,15.5109262 L48.4907061,0.101218398 C48.2451973,-0.143163264 48,0.101218398 48,0.345910584 L48,13.6763558 C48,14.8995062 48.9814122,16 50.3313992,16 L63.706334,16 Z" id="Fill-11" fill="#C7C6C1"></path>
                    <polygon id="Fill-12" fill-opacity="0.5" fill="#888A8D" points="6 13 39 13 39 8 6 8"></polygon>
                    <polygon id="Fill-13" fill="#D8D8D2" points="6 25 61 25 61 23 6 23"></polygon>
                    <polygon id="Fill-14" fill="#D8D8D2" points="6 31 61 31 61 29 6 29"></polygon>
                    <polygon id="Fill-15" fill="#D8D8D2" points="6 38 46 38 46 36 6 36"></polygon>
                    <polygon id="Fill-16" fill="#D8D8D2" points="6 44 54 44 54 42 6 42"></polygon>
                    <polygon id="Fill-17" fill="#D8D8D2" points="6 51 57 51 57 49 6 49"></polygon>
                    <polygon id="Fill-18" fill="#D8D8D2" points="6 58 46 58 46 56 6 56"></polygon>
                    <polygon id="Fill-19" fill="#D8D8D2" points="6 62 61 62 61 60 6 60"></polygon>
                    <polygon id="Fill-20" fill="#24D2AA" points="19.4367166 75.9367166 20.2785081 73.6519412 18.2340265 72.9304493 18.2340265 70.7659735 15.9492511 70.7659735 14.9871601 68.7214919 13.0632834 69.5632834 11.5 68 9.93671659 69.683583 7.65194125 68.8417915 6.93044932 70.7659735 4.88596773 70.7659735 4.88596773 73.1710484 2.72149193 74.1331394 3.56328341 76.0570161 2 77.5 3.68358295 79.183583 2.84179148 81.3480588 4.88596773 82.1898502 4.88596773 84.2343318 7.17074307 84.2343318 8.13283409 86.3988076 10.0570161 85.5570161 11.5 87 13.183583 85.316417 15.3480588 86.2785081 16.1898502 84.2343318 18.2340265 84.2343318 18.2340265 81.9495565 20.3985023 80.9874654 19.5570161 79.0632834 21 77.5"></polygon>
                    <path d="M12,71 C15.8660421,71 19,74.1339579 19,78 C19,81.8660421 15.8660421,85 12,85 C8.13395789,85 5,81.8660421 5,78 C5,74.1339579 8.13395789,71 12,71" id="Fill-21" fill="#91E8D4"></path>
                    <path d="M36.1679418,83.2641803 C35.8105401,82.6507378 36.048707,81.6698524 36.6445784,81.1790984 C36.7638132,81.0564099 37.0022829,80.9340328 37.1215177,80.8113443 C37.2407525,80.8113443 37.2407525,80.6886557 37.3599873,80.6886557 C37.9558587,80.1982131 38.1940257,79.3397049 38.4324953,78.4811967 C38.9094345,76.2734263 39.2668363,74.0659672 39.5053059,71.4904427 C39.5053059,71.245377 39.7434729,71 39.9819425,71 C40.2204121,71 40.4588817,71.1226885 40.5778139,71.4904427 C41.0547531,73.5755246 41.4121549,75.6602951 41.7698593,77.745377 C42.0083289,77.5 42.2464959,77.3773115 42.6042004,77.1319345 C42.8423673,76.8868688 43.2000718,77.0095573 43.3193066,77.1319345 C43.3193066,77.1319345 43.3193066,77.1319345 43.3193066,77.254623 L45.1072234,76.1510492 C45.2261556,76.0283606 45.4646252,76.0283606 45.7030948,76.1510492 C45.8223296,76.2734263 45.9412618,76.3961148 45.9412618,76.6414918 C45.9412618,76.8868688 45.9412618,77.0095573 45.9412618,77.254623 C46.0604966,77.254623 46.1797314,77.254623 46.1797314,77.3773115 C46.2989662,77.5 46.418201,77.745377 46.418201,77.8677541 C46.418201,77.9904427 46.418201,78.1131312 46.2989662,78.3585082 C47.252542,77.6226885 48.086883,76.8868688 48.9212241,76.1510492 C50.8280731,74.4340328 52.8544595,72.7170164 55.2379451,71.4904427 C55.4764147,71.3680655 55.8341192,71.4904427 55.953354,71.7358197 C56.0722861,71.9811967 55.953354,72.3489508 55.7148844,72.4716394 C53.5695657,73.6982131 51.5431793,75.4149181 49.6363303,77.009246 C48.2061178,78.2358197 46.7756028,79.462082 45.1072234,80.5659672 C44.749519,80.9340328 44.2728824,81.3017869 43.7959432,81.6698524 C42.8423673,82.2829836 41.6506245,82.6507378 40.3396469,82.7734263 C40.1011773,82.7734263 39.8627077,82.7734263 39.7434729,82.7734263 C39.3860711,82.7734263 39.1476015,82.5283606 39.1476015,82.1602951 C39.1476015,81.7922296 39.3860711,81.5471639 39.6245407,81.5471639 C39.8627077,81.5471639 39.9819425,81.5471639 40.2204121,81.5471639 C40.8162835,81.4244754 41.4121549,81.1790984 42.2464959,80.8113443 C42.7234352,80.5659672 43.0808369,80.3205902 43.5577762,80.0755246 C43.4385414,79.9528361 43.4385414,79.8301476 43.5577762,79.707459 C43.6767084,78.9716394 44.0344128,78.3585082 44.6302842,77.8677541 C44.6302842,77.745377 44.6302842,77.745377 44.6302842,77.6226885 L43.6767084,78.2358197 C43.5577762,78.3585082 43.2000718,78.4811967 42.8423673,78.4811967 C42.7234352,78.4811967 42.7234352,78.4811967 42.6042004,78.3585082 C42.0083289,78.8489508 41.2929201,79.3397049 40.5778139,79.8301476 C40.3396469,79.9528361 39.9819425,79.9528361 39.8627077,79.707459 C39.7434729,79.5847705 39.6245407,79.3397049 39.7434729,79.0943279 C39.7434729,78.8489508 39.9819425,78.4811967 40.2204121,78.3585082 C40.3396469,78.3585082 40.3396469,78.2358197 40.4588817,78.2358197 L40.5778139,78.1131312 L40.5778139,77.9904427 C40.4588817,77.1319345 40.3396469,76.2734263 40.1011773,75.292541 C39.9819425,76.5188033 39.7434729,77.745377 39.3860711,78.8489508 C39.1476015,79.9528361 38.7901997,81.0564099 37.8366239,81.6698524 C37.7173891,81.792541 37.5981543,81.792541 37.4789195,81.9149181 C37.3599873,82.0376066 37.2407525,82.0376066 37.1215177,82.1602951 C36.8830481,82.4056721 36.8830481,82.6507378 36.8830481,82.8961148 C36.8830481,82.8961148 37.0022829,83.0188033 37.1215177,83.0188033 C37.2407525,82.7734263 37.7173891,82.6507378 37.9558587,82.8961148 C38.1943283,83.0188033 38.3132605,83.3868688 38.1943283,83.6319345 C38.1940257,83.8773115 37.8366239,84 37.3599873,84 C36.7638132,84 36.4064115,83.754623 36.1679418,83.2641803 Z" id="Fill-22" fill-opacity="0.8" fill="#000000"></path>
                </g>
                <g id="Group-9" transform="translate(0.000000, 49.000000)">
                    <path d="M44,5.05263158 L44,10.2105263 C44,12.8421053 37.7388193,15 30.0250447,15 C28.4221825,15 26.9194991,14.8947368 25.4669052,14.7368421 C23.1627907,11.8421053 19.8067979,9.89473684 16,9.52631579 L16,5 C16,7.63157895 22.2611807,9.78947368 29.9749553,9.78947368 C37.7388193,9.84210526 44,7.68421053 44,5.05263158" id="Fill-4" fill="#F0AF50"></path>
                    <path d="M44,14 L44,19.7037037 C44,19.7619048 44,19.8201058 44,19.8201058 L44,19.7037037 C44,22.6137566 37.6305732,25 29.7834395,25 C29.3248408,25 28.9171975,25 28.5095541,25 C28.5095541,24.6507937 28.5605096,24.2433862 28.5605096,23.8941799 C28.5605096,22.3227513 28.3566879,20.7513228 28,19.3544974 C28.611465,19.3544974 29.2229299,19.4126984 29.8343949,19.4126984 C36.2547771,19.4126984 41.656051,17.8412698 43.4394904,15.6878307 C43.6433121,15.4550265 43.7961783,15.1640212 43.9490446,14.8730159 C43.9490446,14.5238095 44,14.2910053 44,14" id="Fill-5" fill="#F0AF50"></path>
                    <path d="M44,25 L44,30.212766 C44,30.2659574 44,30.3191489 44,30.3191489 L44,30.1595745 C44,32.8191489 37.6548223,35 29.8375635,35 C27.7563452,35 25.7766497,34.8404255 24,34.5744681 C25.3705584,33.2446809 26.5380711,31.5957447 27.2994924,29.787234 C28.1116751,29.8404255 28.9746193,29.8404255 29.8375635,29.8404255 C37.6548223,29.8404255 44,27.712766 44,25" id="Fill-6" fill="#F0AF50"></path>
                    <path d="M44,9.68305085 C44,12.3101695 37.626883,14.4644068 29.7752028,14.4644068 C28.1436848,14.4644068 26.6141367,14.359322 25.1355736,14.2016949 C22.5353418,10.9966102 18.6095017,9 14.2757822,9 C6.37311703,9 0,15.5677966 0,23.659322 C0,31.7508475 6.37311703,38.3186441 14.2247972,38.3186441 C15.4484357,38.3186441 16.6720742,38.1610169 17.7937428,37.8457627 C20.3429896,39.159322 24.7276941,40 29.7242178,40 C37.575898,40 43.9490151,37.8457627 43.9490151,35.2186441 L43.9490151,30.0694915 C43.9490151,32.6966102 37.575898,34.8508475 29.7242178,34.8508475 C27.6338355,34.8508475 25.6454229,34.6932203 23.8609502,34.4305085 C25.2375435,33.1169492 26.410197,31.4881356 27.174971,29.7016949 C27.99073,29.7542373 28.8574739,29.7542373 29.7242178,29.7542373 C37.575898,29.7542373 43.9490151,27.6 43.9490151,24.9728814 L43.9490151,19.9288136 C43.9490151,22.5559322 37.575898,24.7101695 29.7242178,24.7101695 C29.2653534,24.7101695 28.8574739,24.7101695 28.3986095,24.7101695 C28.3986095,24.3949153 28.4495944,24.079661 28.4495944,23.7118644 C28.4495944,22.2932203 28.2456547,20.8745763 27.8887601,19.5610169 C28.5005794,19.5610169 29.1123986,19.6135593 29.7242178,19.6135593 C37.626883,19.6135593 44,17.459322 44,14.8322034 L44,9.68305085 Z" id="Fill-7" fill="#FACB5F"></path>
                    <path d="M14,12 C20.075081,12 25,17.1487789 25,23.5 C25,29.8512211 20.075081,35 14,35 C7.92491898,35 3,29.8512211 3,23.5 C3,17.1487789 7.92491898,12 14,12" id="Fill-8" fill="#F0AF50"></path>
                    <path d="M19,26.5942857 C19,24.1514286 17,22.1971429 14.5,22.1971429 C13.4444444,22.1971429 12.5555556,21.3285714 12.5555556,20.2971429 C12.5555556,19.2657143 13.4444444,18.3971429 14.5,18.3971429 C15.0555556,18.3971429 15.5555556,18.6142857 15.8888889,18.9942857 C16.3888889,19.4828571 17.1666667,19.5371429 17.7222222,19.0485714 C18.2222222,18.56 18.2777778,17.8 17.7777778,17.2571429 C17.2222222,16.7142857 16.5555556,16.28 15.7777778,16.0628571 L15.7777778,15.2485714 C15.7777778,14.5428571 15.2222222,14 14.5,14 C13.7777778,14 13.2222222,14.5428571 13.2222222,15.2485714 L13.2222222,16.1171429 C11.3333333,16.66 10,18.3428571 10,20.3514286 C10,22.7942857 12,24.7485714 14.5,24.7485714 C15.5555556,24.7485714 16.4444444,25.6171429 16.4444444,26.6485714 C16.4444444,27.68 15.5555556,28.5485714 14.5,28.5485714 C13.9444444,28.5485714 13.4444444,28.3314286 13.1111111,27.9514286 C12.6111111,27.4628571 11.8333333,27.4085714 11.2777778,27.8971429 C10.7777778,28.3857143 10.7222222,29.1457143 11.2222222,29.6885714 C11.7777778,30.2314286 12.4444444,30.6657143 13.2222222,30.8828571 L13.2222222,31.7514286 C13.2222222,32.4571429 13.7777778,33 14.5,33 C15.2222222,33 15.7777778,32.4571429 15.7777778,31.7514286 L15.7777778,30.8828571 C17.6666667,30.2857143 19,28.6028571 19,26.5942857" id="Fill-9" fill="#FACB5F"></path>
                    <path d="M30,0 C37.7319892,0 44,2.2385989 44,5 C44,7.7614011 37.7319892,10 30,10 C22.2680108,10 16,7.7614011 16,5 C16,2.2385989 22.2680108,0 30,0" id="Fill-10" fill="#FACB5F"></path>
                    <path d="M30,1 C36.075081,1 41,2.567 41,4.5 C41,6.433 36.075081,8 30,8 C23.924919,8 19,6.433 19,4.5 C19,2.567 23.924919,1 30,1" id="Fill-11" fill="#F0AF50"></path>
                    <path d="M27.0171429,7 C29.3314286,7 31.1828571,6.11111111 31.1828571,5.07407407 C31.1828571,4.62962963 32.0057143,4.25925926 32.9828571,4.25925926 C33.96,4.25925926 34.7828571,4.62962963 34.7828571,5.07407407 C34.7828571,5.2962963 34.5771429,5.51851852 34.2171429,5.66666667 C33.7542857,5.88888889 33.7028571,6.25925926 34.1657143,6.48148148 C34.6285714,6.7037037 35.3485714,6.7037037 35.8628571,6.48148148 C36.3771429,6.25925926 36.7885714,5.96296296 36.9942857,5.59259259 L37.8171429,5.59259259 C38.4857143,5.59259259 39,5.37037037 39,5 C39,4.7037037 38.4857143,4.40740741 37.8171429,4.40740741 L36.9942857,4.40740741 C36.48,3.59259259 34.8857143,3 32.9828571,3 C30.6685714,3 28.8171429,3.88888889 28.8171429,4.92592593 C28.8171429,5.37037037 27.9942857,5.74074074 27.0171429,5.74074074 C26.04,5.74074074 25.2171429,5.37037037 25.2171429,4.92592593 C25.2171429,4.7037037 25.4228571,4.48148148 25.7828571,4.33333333 C26.2457143,4.11111111 26.2971429,3.74074074 25.8342857,3.51851852 C25.3714286,3.2962963 24.6514286,3.2962963 24.1371429,3.51851852 C23.6228571,3.74074074 23.2114286,4.03703704 23.0057143,4.40740741 L22.1828571,4.40740741 C21.5142857,4.40740741 21,4.62962963 21,5 C21,5.2962963 21.5142857,5.59259259 22.1828571,5.59259259 L23.0057143,5.59259259 C23.52,6.40740741 25.1142857,7 27.0171429,7" id="Fill-12" fill="#FACB5F"></path>
                </g>
                <g id="Group-7" transform="translate(57.000000, 50.000000)">
                    <path d="M49,33 L49,36.5 C49,37.3333333 48.3408072,38 47.5168161,38 L1.48318386,38 C0.659192825,38 0,37.3333333 0,36.5 L0,33 C0,33.8333333 0.659192825,34.5 1.48318386,34.5 L47.5168161,34.5 C48.3408072,34.4444444 49,33.8333333 49,33" id="Fill-4" fill="#319079"></path>
                    <path d="M49,29 L49,32.5 C49,33.3333333 48.3408072,34 47.5168161,34 L1.48318386,34 C0.659192825,34 0,33.3333333 0,32.5 L0,29 C0,29.8333333 0.659192825,30.5 1.48318386,30.5 L47.5168161,30.5 C48.3408072,30.4444444 49,29.7777778 49,29" id="Fill-5" fill="#FFFFFE"></path>
                    <path d="M49,25 L49,29.3469388 C49,30.2653061 48.3408072,31 47.5168161,31 L1.48318386,31 C0.659192825,31 0,30.2653061 0,29.3469388 L0,25 C0,25.9183673 0.659192825,26.6530612 1.48318386,26.6530612 L47.5168161,26.6530612 C48.3408072,26.6530612 49,25.9183673 49,25" id="Fill-6" fill="#319079"></path>
                    <path d="M47.5670349,27 L1.48475138,27 C0.659889501,27 0,26.3207547 0,25.4716981 L0,1.52830189 C0,0.679245283 0.659889501,0 1.48475138,0 L47.5120441,0 C48.336906,0 48.9967955,0.679245283 48.9967955,1.52830189 L48.9967955,25.4150943 C49.0517862,26.3207547 48.3918967,27 47.5670349,27" id="Fill-7" fill="#65BEAC"></path>
                    <path d="M3,20.2519685 L3,6.7480315 C5.10050251,6.7480315 6.75879397,5.03937008 6.75879397,3 L43.241206,3 C43.241206,5.09448819 44.9547739,6.7480315 47,6.7480315 L47,20.2519685 C44.8994975,20.2519685 43.241206,21.9606299 43.241206,24 L6.81407035,24 C6.81407035,21.9606299 5.10050251,20.2519685 3,20.2519685" id="Fill-8" fill="#FFFFFE"></path>
                    <path d="M24.5,5 C29.1944792,5 33,9.029375 33,14 C33,18.970625 29.1944792,23 24.5,23 C19.8055208,23 16,18.970625 16,14 C16,9.029375 19.8055208,5 24.5,5" id="Fill-9" fill="#319079"></path>
                    <path d="M39,10 C40.6567925,10 42,11.3432075 42,13 C42,14.6567925 40.6567925,16 39,16 C37.3432075,16 36,14.6567925 36,13 C36,11.3432075 37.3432075,10 39,10" id="Fill-10" fill="#319079"></path>
                    <path d="M10,10 C11.6567925,10 13,11.3432075 13,13 C13,14.6567925 11.6567925,16 10,16 C8.34320755,16 7,14.6567925 7,13 C7,11.3432075 8.34320755,10 10,10" id="Fill-11" fill="#319079"></path>
                    <path d="M27,16.295082 C27,14.5163934 25.6071429,13.0245902 23.9464286,13.0245902 C23.25,13.0245902 22.6607143,12.3934426 22.6607143,11.647541 C22.6607143,10.9016393 23.1964286,10.3278689 23.8928571,10.2704918 C23.9464286,10.2704918 23.9464286,10.2704918 24,10.2704918 C24.0535714,10.2704918 24.0535714,10.2704918 24.1071429,10.2704918 C24.4285714,10.2704918 24.75,10.442623 24.9642857,10.7295082 C25.2857143,11.1311475 25.875,11.1311475 26.1964286,10.7868852 C26.5714286,10.442623 26.5714286,9.81147541 26.25,9.46721311 C25.875,9.06557377 25.3928571,8.72131148 24.9107143,8.54918033 L24.9107143,7.91803279 C24.9107143,7.40163934 24.5357143,7 24.0535714,7 C23.5714286,7 23.1964286,7.40163934 23.1964286,7.91803279 L23.1964286,8.54918033 C21.9107143,8.95081967 21,10.2131148 21,11.704918 C21,13.4836066 22.3928571,14.9754098 24.0535714,14.9754098 C24.75,14.9754098 25.3392857,15.6065574 25.3392857,16.352459 C25.3392857,17.0983607 24.8035714,17.6721311 24.1071429,17.7295082 C24.0535714,17.7295082 24.0535714,17.7295082 24,17.7295082 C23.9464286,17.7295082 23.9464286,17.7295082 23.8928571,17.7295082 C23.5714286,17.7295082 23.25,17.557377 23.0357143,17.2704918 C22.7142857,16.8688525 22.125,16.8688525 21.8035714,17.2131148 C21.4285714,17.557377 21.4285714,18.1885246 21.75,18.5327869 C22.125,18.9344262 22.6071429,19.2786885 23.0892857,19.4508197 L23.0892857,20.0819672 C23.0892857,20.5983607 23.4642857,21 23.9464286,21 C24.4285714,21 24.8035714,20.5983607 24.8035714,20.0819672 L24.8035714,19.4508197 C26.0892857,19.0491803 27,17.7868852 27,16.295082" id="Fill-12" fill="#FFFFFE"></path>
                </g>
            </g>
        </g>
    </g>
</svg>