<?xml version="1.0" encoding="UTF-8" standalone="no"?>
<svg width="170px" height="80px" viewBox="0 0 170 80" version="1.1" xmlns="http://www.w3.org/2000/svg" xmlns:xlink="http://www.w3.org/1999/xlink">
    <!-- Generator: Sketch 49.3 (51167) - http://www.bohemiancoding.com/sketch -->
    <title>Page 1</title>
    <desc>Created with Sketch.</desc>
    <defs>
        <polygon id="path-1" points="0.0610338346 0.0543336143 100.934505 0.0543336143 100.934505 35.4453782 0.0610338346 35.4453782"></polygon>
        <polygon id="path-3" points="0 0.152472892 34.0376492 0.152472892 34.0376492 36.3575768 0 36.3575768"></polygon>
    </defs>
    <g id="HomePage" stroke="none" stroke-width="1" fill="none" fill-rule="evenodd">
        <g id="Home-page-desktop-2" transform="translate(-223.000000, -1150.000000)">
            <g id="Group-33" transform="translate(160.000000, 1082.000000)">
                <g id="Page-1" transform="translate(63.000000, 68.000000)">
                    <polygon id="Fill-1" fill="#F1706F" points="30.177812 15.9356832 59.5806222 65.765658 105.10675 30.555305 91.0485169 7.70309496 51.5685733 0.000111764708"></polygon>
                    <polygon id="Fill-2" fill="#F0575A" points="30.177844 15.9356672 49.5621579 19.7177849 59.5806541 65.765642"></polygon>
                    <polygon id="Fill-3" fill="#C02026" points="105.10675 30.5553529 85.7224361 26.7732353 59.1064117 65.6729412"></polygon>
                    <polygon id="Fill-4" fill="#E13C39" points="49.5621898 19.7178647 85.7225 26.7730916 59.1064756 65.6729571"></polygon>
                    <polygon id="Fill-5" fill="#F05756" points="71.2858252 3.84705294 49.5622538 19.7178008 85.7224041 26.7731874"></polygon>
                    <polygon id="Fill-6" fill="#EC4F4F" points="91.048469 7.70315882 85.7225479 26.7730916 105.106702 30.5553689"></polygon>
                    <polygon id="Fill-7" fill="#E33E3A" points="49.5622218 19.7178008 71.2857932 3.84705294 51.5686692 0.000111764708"></polygon>
                    <polygon id="Fill-8" fill="#E33E3A" points="91.048469 7.70315882 85.7225479 26.7730916 71.2858092 3.84711681"></polygon>
                    <g id="Group-92" transform="translate(0.000000, 15.004891)">
                        <path d="M52.5790348,5.01172101 C50.0330291,4.51500672 50.3080009,0.488922689 50.3383581,0.122015126 L50.3409145,0.108763025 C50.3409145,0.108763025 50.3389972,0.114670588 50.3388374,0.11514958 C50.3399558,0.103494118 50.3415536,0.0857714286 50.3415536,0.0857714286 L50.3302096,0.143410084 C50.2202848,0.494989916 48.9595047,4.32867899 46.4134991,3.83180504 C46.4134991,3.83180504 49.283687,5.2742084 48.6891664,8.54252773 L48.6805385,8.58659496 C48.6819765,8.57893109 48.6845329,8.57238487 48.6861306,8.56488067 C48.6832547,8.58036807 48.6830949,8.59409916 48.6800592,8.60958655 L48.6973148,8.52097311 C49.3768355,5.26909916 52.5790348,5.01172101 52.5790348,5.01172101" id="Fill-9" fill="#FEFEFE"></path>
                        <path d="M95.7531551,37.4939613 L100.680119,36.1053647 L100.07761,35.2153983 L103.043503,34.5108017 C103.140486,30.710163 102.773804,27.6564319 102.149725,25.2138941 C100.844048,25.2550874 95.8050818,25.4048521 96.5360498,25.2383227 C97.1574126,25.0967008 100.160693,24.1114151 101.676633,23.6097513 C99.4284464,16.9407513 95.2321306,15.6984067 95.2321306,15.6984067 L66.8144897,28.5165412 L56.7918393,30.6450202 L38.9404013,32.5164403 L33.5678261,42.2468353 L37.0280611,48.2679193 L59.7240197,48.7082723 L100.881914,46.2068185 L102.710054,39.2804403 C102.796971,38.5008017 102.866313,37.7470286 102.919837,37.017205 L95.7531551,37.4939613 Z" id="Fill-11" fill="#D9BC9B"></path>
                        <path d="M56.7917594,30.6451 C56.7917594,30.6451 61.7351805,33.1898227 60.6723609,40.5517639 L72.6802086,42.5513941 C72.6802086,42.5513941 73.1322105,31.3025958 66.8144098,28.516621 L56.7917594,30.6451 Z" id="Fill-13" fill="#AA845F"></path>
                        <path d="M96.3985,46.3927151 L101.533331,43.6522445 L102.71007,39.1937908 C102.796987,38.4141521 102.866169,37.6605387 102.919853,36.9303958 L95.7531711,37.4074714 L100.679976,36.0185555 L100.67694,36.0142445 L60.8053891,38.4607739 L40.1852199,32.3930681 L40.1308966,32.398816 L40.7893271,33.6552109 L48.3278045,40.5389588 L58.205859,48.4619588 L66.0555771,48.2369924 L96.3985,46.3927151 Z" id="Fill-15" fill="#AA845F"></path>
                        <path d="M55.6587509,50.084479 C55.3483092,55.8089076 58.0548882,60.6096807 61.7039765,60.8073445 L62.8279897,40.0772269 C59.1789013,39.8797227 55.9690329,44.3600504 55.6587509,50.084479" id="Fill-17" fill="#8E6A4D"></path>
                        <polyline id="Fill-19" fill="#8E6A4D" points="62.8280056 40.0772748 66.4882782 40.6247622 66.217141 41.8072328 62.588344 41.0785269 62.8296034 40.1751487"></polyline>
                        <g id="Group-23" transform="translate(15.977444, 25.546218)">
                            <mask id="mask-2" fill="white">
                                <use xlink:href="#path-1"></use>
                            </mask>
                            <g id="Clip-22"></g>
                            <path d="M7.17259398,0.0543336143 L44.6948214,15.0055773 L50.2396335,16.2610143 L55.7473778,16.3135437 L95.0025188,12.5264765 C95.0025188,12.5264765 99.1740695,15.1023336 100.520808,21.387342 C100.539662,21.4759555 100.494126,21.6313084 100.327801,21.7318966 C98.9213064,22.5825857 97.0656861,23.703905 97.0656861,23.703905 C97.0656861,23.703905 98.4405451,24.1726782 100.558994,25.1150143 C100.692086,25.1742496 100.934145,25.2965521 100.934464,25.3950647 C100.939897,28.2085017 100.395865,31.5405269 98.9663628,35.4454261 L0.0610338346,35.0564849" id="Fill-21" fill="#EED2B0" mask="url(#mask-2)"></path>
                        </g>
                        <g id="Group-26" transform="translate(0.000000, 24.268908)">
                            <mask id="mask-4" fill="white">
                                <use xlink:href="#path-3"></use>
                            </mask>
                            <g id="Clip-25"></g>
                            <path d="M17.9990216,0.176268908 C10.9198957,-0.20692437 4.60401222,4.07286555 1.69579793,10.4849664 L5.95857989,12.8564538 L0.925525376,12.4869916 C0.432781015,14.0184874 0.120581767,15.6424286 0.0287114662,17.3351849 C-0.288440789,23.1831933 2.04170959,28.520916 5.91016823,32.0448571 L17.8536269,31.3565462 L8.02382425,32.5979328 L9.65655921,33.0411597 L8.01759305,33.685084 C10.3586081,35.2231261 13.0888336,36.174084 16.0384295,36.3337479 C25.4218224,36.841958 33.4674239,29.1595714 34.0088994,19.1749916 C34.5502152,9.19041176 27.3824145,0.684478992 17.9990216,0.176268908" id="Fill-24" fill="#B19178" mask="url(#mask-4)"></path>
                        </g>
                        <path d="M68.4642566,40.8830664 L63.8868788,40.2712345 L63.8865592,40.2712345 C66.9853844,41.2410328 69.1527246,45.6452008 68.8732791,50.7999487 C68.5628374,56.524537 65.3532885,61.0048647 61.7038806,60.8073605 L61.7053186,60.8073605 L61.7022829,60.8378563 L67.3656476,60.7567471 C71.0148957,60.9542513 74.2188524,56.9664866 74.5222641,51.3713857 C74.825516,45.7764445 72.1135047,41.0805706 68.4642566,40.8830664" id="Fill-33" fill="#C3996B"></path>
                        <path d="M32.4478393,34.7921454 L23.0703581,32.7672882 L28.9583656,46.0015067 L33.6387979,46.2548933 C33.8241363,45.3422546 33.9471626,44.4037504 33.9990893,43.4435319 C34.1666927,40.3532378 33.5943806,37.4056832 32.4478393,34.7921454" id="Fill-37" fill="#7A5841"></path>
                        <path d="M33.6022256,46.3121008 C33.9930338,39.1061513 28.4641992,32.9482353 21.2532594,32.5578571 C14.0424793,32.1673193 7.88029887,37.6923277 7.4894906,44.8982773 L33.6354586,46.3138571" id="Fill-39" fill="#987555"></path>
                        <path d="M115.973361,57.7595689 L69.1155132,56.9470395 L31.9880883,51.0142496 C29.4860207,55.8525437 25.0343853,60.073737 17.4796109,60.6475689 L114.935626,60.9914849 C115.38619,59.8337622 115.691359,58.7889218 115.973361,57.7595689" id="Fill-41" fill="#AA845F"></path>
                        <path d="M69.5662209,39.9358445 C69.3059483,39.9358445 69.0923299,39.7276429 69.0870573,39.4664328 C69.005093,35.3664244 65.8559389,31.6671723 65.8241438,31.6302899 C65.6514276,31.4300714 65.6737961,31.1275084 65.8741532,30.9549118 C66.0745103,30.7819958 66.3769633,30.8045084 66.5498393,31.0044076 C66.688843,31.1651891 69.9565498,34.9963235 70.0455442,39.4472731 C70.0509765,39.7118361 69.8405536,39.930416 69.5759671,39.9356849 C69.5727716,39.9358445 69.5694164,39.9358445 69.5662209,39.9358445" id="Fill-43" fill="#C3996B"></path>
                        <path d="M70.4327256,55.9550958 C70.371532,55.9550958 70.3093797,55.9432807 70.2493045,55.9185328 C70.0046898,55.8171462 69.8886936,55.5369361 69.9901504,55.2924908 C72.0945395,50.2202891 69.6335338,44.8215748 69.6082895,44.7677681 C69.4967669,44.5277933 69.6007801,44.2429529 69.8407613,44.1313479 C70.0807425,44.0197429 70.3660996,44.123684 70.4776222,44.3634992 C70.5873872,44.5994824 73.1397838,50.2022471 70.8756203,55.6593983 C70.7990883,55.8438101 70.6207801,55.9550958 70.4327256,55.9550958" id="Fill-45" fill="#A87B4F"></path>
                        <polygon id="Fill-47" fill="#81A260" points="166.290613 23.3401588 166.358996 56.525016 92.7964492 56.6763773 92.7280658 23.4915202"></polygon>
                        <polygon id="Fill-49" fill="#8BB167" points="168.692837 24.6252613 168.761221 57.8101185 89.6867754 57.972816 89.6183919 24.7881185"></polygon>
                        <polygon id="Fill-51" fill="#99C577" points="169.853774 27.9130303 169.922158 61.0978874 88.0815376 61.2661731 88.0131541 28.0816353"></polygon>
                        <polygon id="Fill-53" fill="#DFC3A5" points="134.025763 29.0982563 133.220979 23.2819454 120.141045 23.3089286 120.141205 23.3860462 119.360227 29.1282731"></polygon>
                        <path d="M99.1585874,36.4768706 C95.8165855,36.4837361 93.1034558,39.2063244 93.1104859,42.5460134 C93.1138412,44.1637277 93.747187,45.6832487 94.8943675,46.8248454 C96.0383524,47.9632487 97.5565291,48.5897697 99.1705705,48.5897697 L99.1835122,48.5897697 C100.802347,48.5865765 102.32308,47.9535092 103.465467,46.8071227 C104.607695,45.6607361 105.235129,44.1386605 105.231773,42.5207866 C105.224743,39.1857277 102.50714,36.4768706 99.1710498,36.4768706 L99.1585874,36.4768706 Z M99.1705705,49.5477529 C97.3010498,49.5477529 95.5428919,48.8222403 94.2178825,47.5035765 C92.8893581,46.1814 92.1555141,44.4215849 92.1518393,42.5477697 C92.1436908,38.6800723 95.2861344,35.5268706 99.1565103,35.5188874 C99.1549126,35.5198454 99.1662566,35.5188874 99.1710498,35.5188874 C103.035035,35.5188874 106.182272,38.655963 106.19042,42.5190303 C106.194255,44.3925261 105.46776,46.1555345 104.144668,47.4832992 C102.821576,48.8107445 101.060383,49.5440807 99.1854295,49.5477529 L99.1705705,49.5477529 Z" id="Fill-55" fill="#7FA260"></path>
                        <path d="M159.405725,36.3529235 C157.78689,36.3562765 156.266157,36.9893437 155.12377,38.1357303 C153.981383,39.2821168 153.354268,40.8041924 153.357623,42.4220664 C153.360978,44.0397807 153.994324,45.5593017 155.141505,46.7008983 C156.28549,47.8393017 157.803666,48.4658227 159.417708,48.4658227 L159.430649,48.4658227 C161.049484,48.4626294 162.570217,47.8295622 163.712604,46.6831756 C164.854832,45.5367891 165.482266,44.0147134 165.478911,42.3968395 C165.471881,39.0617807 162.754277,36.3529235 159.418187,36.3529235 L159.405725,36.3529235 Z M159.417708,49.4238059 C157.548187,49.4238059 155.790029,48.6982933 154.46502,47.3796294 C153.136495,46.0574529 152.402651,44.2976378 152.398977,42.4238227 C152.390828,38.5561252 155.533272,35.4029235 159.403648,35.3949403 C159.402689,35.3962176 159.413394,35.3949403 159.418187,35.3949403 C163.282172,35.3949403 166.429409,38.532016 166.437557,42.3950832 C166.441392,44.268579 165.714898,46.0315874 164.391805,47.3593521 C163.068713,48.6867975 161.30752,49.4201336 159.432567,49.4238059 L159.417708,49.4238059 Z" id="Fill-57" fill="#7FA260"></path>
                        <path d="M108.678891,48.0024622 C110.725602,48.2235966 112.351466,49.8713277 112.535047,51.9292353 L145.795451,51.8607395 C145.880771,50.844958 146.317115,49.9000672 147.046006,49.1688067 C147.821711,48.3902857 148.840912,47.9419496 149.93297,47.8950084 L149.910282,36.9628235 C147.725526,36.8767647 145.949314,35.170437 145.756786,33.0141765 L112.496382,33.0828319 C112.410902,34.0990924 111.974558,35.0436639 111.245987,35.7747647 C110.541062,36.4822353 109.634981,36.9168403 108.656203,37.0255714 L108.678891,48.0024622 Z M146.7386,52.2377059 L146.7386,52.2388235 L146.7386,52.2377059 Z M111.593656,52.3103529 L111.593656,52.3111513 L111.593656,52.3103529 Z M112.063233,52.8881765 C111.934135,52.8881765 111.81047,52.8359664 111.720357,52.7438403 C111.629925,52.6512353 111.580714,52.5262185 111.58407,52.3968908 C111.584868,52.362084 111.588703,52.3280756 111.593656,52.2942269 C111.580874,50.4390924 110.066372,48.9352185 108.208515,48.9352185 C108.205639,48.9352185 108.202923,48.9350588 108.200526,48.9352185 C107.936259,48.9352185 107.721682,48.7214286 107.721203,48.4571849 L107.696758,36.574521 C107.696438,36.4475882 107.746767,36.325605 107.8364,36.2355546 C107.926034,36.1455042 108.047942,36.0948908 108.174962,36.0945714 C109.079286,36.0926555 109.928647,35.739 110.566626,35.0989076 C111.20093,34.4624874 111.550836,33.6188235 111.553233,32.7215126 C111.547801,32.6828739 111.544286,32.6514202 111.543327,32.6190084 C111.539333,32.4898403 111.588064,32.3645042 111.678017,32.2715798 C111.76813,32.1786555 111.891955,32.1259664 112.021372,32.1258067 L146.227801,32.0552353 L146.228759,32.0552353 C146.357857,32.0552353 146.481523,32.1072857 146.571635,32.1994118 C146.662068,32.2921765 146.711278,32.4171933 146.707923,32.5463613 C146.707124,32.5813277 146.703289,32.6153361 146.698336,32.6491849 C146.711118,34.504479 148.22562,36.0083529 150.083477,36.0083529 C150.116231,36.0086723 150.155376,36.0034034 150.205545,35.9962185 C150.253477,35.9896723 150.30157,35.9832857 150.350461,35.9792941 C150.483712,35.9681176 150.615207,36.0141008 150.713468,36.1044706 C150.811729,36.195 150.86765,36.3224118 150.86797,36.4558908 L150.892575,48.3982689 C150.892895,48.5317479 150.837293,48.659479 150.739352,48.7503277 C150.64141,48.8411765 150.509596,48.8866807 150.376664,48.8769412 C150.328252,48.8731092 150.280479,48.867042 150.232867,48.8604958 C150.186532,48.8544286 150.153618,48.8520336 150.11735,48.849 C149.212707,48.8507563 148.363186,49.2044118 147.725207,49.8446639 C147.091062,50.4809244 146.741156,51.3247479 146.7386,52.2222185 C146.744192,52.2605378 146.747707,52.2919916 146.748665,52.3244034 C146.7525,52.4537311 146.703929,52.5790672 146.613816,52.6719916 C146.523863,52.764916 146.400038,52.8174454 146.27062,52.8177647 L112.064192,52.8881765 L112.063233,52.8881765 Z" id="Fill-59" fill="#7FA260"></path>
                        <polygon id="Fill-61" fill="#EED2B0" points="134.093955 61.1716042 134.025571 27.9992008 119.360195 28.0293773 119.360994 28.4666966 119.428419 61.2017807"></polygon>
                        <path d="M123.011856,58.7233185 L123.0093,58.7233185 C122.744713,58.7218815 122.531095,58.506495 122.532533,58.2419319 L122.667063,31.5258563 C122.668501,31.2620916 122.882758,31.0492597 123.146386,31.0492597 L123.148783,31.0492597 C123.413529,31.0506966 123.627148,31.2660832 123.62571,31.5306462 L123.49118,58.2467218 C123.489742,58.5104866 123.275324,58.7233185 123.011856,58.7233185" id="Fill-65" fill="#D5B599"></path>
                        <path d="M129.117077,58.1527916 L129.114521,58.1527916 C128.849934,58.1513546 128.636316,57.9359681 128.637754,57.671405 L128.772284,30.9553294 C128.773722,30.6915647 128.987979,30.4787328 129.251607,30.4787328 L129.254004,30.4787328 C129.51875,30.4801697 129.732368,30.6955563 129.73093,30.9601193 L129.5964,57.676195 C129.594962,57.9399597 129.380545,58.1527916 129.117077,58.1527916" id="Fill-69" fill="#D5B599"></path>
                        <polygon id="Fill-71" fill="#F8B32A" points="92.6558919 38.8492824 95.1018788 41.6295092 72.5052998 61.4816353 70.0589934 58.7009294"></polygon>
                        <path d="M72.5052679,61.4816353 C76.3503994,65.8516353 84.5265367,64.9530471 90.7674859,59.4705092 C97.0065179,53.9890891 98.9477773,46.0006269 95.1018468,41.6295092" id="Fill-73" fill="#F8B32A"></path>
                        <path d="M88.3180959,56.6876639 C94.5579267,51.206084 96.4998252,43.2174622 92.6527763,38.8471429 C88.8076447,34.4749076 80.6308684,35.3750924 74.3910376,40.8566723 C68.1513665,46.3387311 66.2104267,54.3262353 70.0566767,58.6976723 C73.9021278,63.0689496 82.0784248,62.1697227 88.3180959,56.6876639" id="Fill-75" fill="#FECF75"></path>
                        <path d="M87.3669427,55.6041689 C92.2871964,51.2811101 93.908907,45.0800849 90.984875,41.7566815 C88.0600442,38.4339168 81.6992641,39.2446899 76.7775724,43.5682277 C71.8550818,47.8922445 70.2351288,54.0932697 73.1588412,57.4169924 C76.0828731,60.7402361 82.4439727,59.9291437 87.3669427,55.6041689" id="Fill-77" fill="#F8B32A"></path>
                        <path d="M86.7173957,54.827516 C91.0945761,50.9815328 92.5841532,45.5203899 90.0408637,42.629995 C87.499172,39.740558 81.8880536,40.5163647 77.5100742,44.3625076 C73.1312961,48.2084908 71.643157,53.6707513 74.1848487,56.5601882 C76.7274991,59.4504235 82.338937,58.6755748 86.7173957,54.827516" id="Fill-79" fill="#FECF75"></path>
                        <path d="M91.9503919,40.8697168 C88.5866607,37.0475235 81.4294051,37.8399353 75.9627227,42.6413471 C70.4968393,47.4437168 68.7925254,54.4365151 72.1549784,58.2601454 C74.1358618,60.5118849 77.4302509,61.1494227 80.9227603,60.3239605 C76.8608148,61.5018008 72.9479389,60.8725655 70.6566137,58.2676496 C67.0043299,54.1167084 68.8556363,46.5238933 74.790937,41.3107084 C80.7263976,36.0956076 88.4981457,35.2345403 92.1505893,39.3850025 C94.4420742,41.9902378 94.5646212,45.9495824 92.8743675,49.824305 C94.1405799,46.4713639 93.9312754,43.1209773 91.9503919,40.8697168" id="Fill-81" fill="#F8B32A"></path>
                        <g id="Group-91" transform="translate(79.845865, 47.310924)" fill="#FECF75">
                            <path d="M2.51643139,16.598879 L0.0632546992,13.8109882 C1.20707989,13.5488202 2.36895959,13.1530134 3.52109305,12.6162235 L5.96979605,15.400442 C4.82005921,15.9369126 3.65865883,16.3362319 2.51643139,16.598879" id="Fill-83"></path>
                            <path d="M5.06151034,11.8039815 C5.70588064,11.4308471 6.34306109,11.0123681 6.96650094,10.5528555 L9.41744079,13.3401076 C8.79448026,13.8004185 8.15809868,14.2177798 7.51245019,14.5913933 L5.06151034,11.8039815 Z" id="Fill-85"></path>
                            <path d="M11.6096898,5.86600252 L14.0588722,8.65085966 C13.8377444,8.95933025 13.606391,9.26636387 13.3633741,9.56796891 L10.9145113,6.78343109 C11.1572086,6.48150672 11.3896805,6.17591008 11.6096898,5.86600252" id="Fill-87"></path>
                            <path d="M14.3506523,0.0136352943 L16.8057462,2.8044 C16.5654455,3.81124034 16.2029173,4.83181176 15.7224756,5.8426437 L13.2707368,3.05650924 C13.7519774,2.04280336 14.1103515,1.02175294 14.3506523,0.0136352943" id="Fill-89"></path>
                        </g>
                    </g>
                </g>
            </g>
        </g>
    </g>
</svg>