<?xml version="1.0" encoding="UTF-8" standalone="no"?>
<svg width="872px" height="748px" viewBox="0 0 872 748" version="1.1" xmlns="http://www.w3.org/2000/svg" xmlns:xlink="http://www.w3.org/1999/xlink">
    <!-- Generator: Sketch 49.3 (51167) - http://www.bohemiancoding.com/sketch -->
    <title>Group 61</title>
    <desc>Created with Sketch.</desc>
    <defs></defs>
    <g id="HomePage" stroke="none" stroke-width="1" fill="none" fill-rule="evenodd">
        <g id="Home-page-desktop-2" transform="translate(-339.000000, -1925.000000)">
            <g id="Group-61" transform="translate(339.000000, 1925.000000)">
                <g id="Group-2" transform="translate(144.000000, 0.000000)">
                    <path d="M418.989086,672.933684 C397.841033,672.933684 380.357532,666.049443 367.024387,652.471651 C353.836049,639.041828 344.807798,619.374787 340.189155,594.017742 C338.553848,585.037082 336.677585,570.747408 337.027924,553.670405 C337.03532,553.321261 337.04077,553.072704 337.04077,552.933279 C337.04077,551.361159 339.192244,550.149057 344.017199,549.002978 C348.139138,548.02351 354.0264,547.145794 361.515492,546.392746 C376.871653,544.849753 397.282436,544 418.989086,544 C440.695736,544 461.106519,544.849753 476.462681,546.392746 C483.951773,547.145794 489.839035,548.02351 493.960974,549.002978 C498.785928,550.149057 500.937792,551.361159 500.937792,552.933279 C500.937792,553.072704 500.942852,553.320872 500.950248,553.670405 C501.300588,570.747408 499.424325,585.037082 497.789018,594.017742 C493.170375,619.374787 484.141735,639.041828 470.953397,652.472039 C457.620251,666.049443 440.137139,672.933684 418.989086,672.933684" id="Fill-226" fill="#1D2F63"></path>
                    <g id="Page-1">
                        <path d="M154.408259,174.79692 L161.571924,187.721474 L174.708101,173.980955 C174.708101,173.980955 174.708101,173.980567 174.70849,173.980567 L187.405574,160.699489 L174.126926,154.171383 L164.267592,164.484151 L154.408259,174.79692 Z" id="Fill-1" fill="#D8E7A6"></path>
                        <polygon id="Fill-3" fill="#D0D769" points="187.405418 160.699528 191.840328 141.491152 181.46872 139.744653 178.16891 139.29997 174.12716 154.171033"></polygon>
                        <path d="M164.267631,164.484074 L174.126965,154.171305 L178.169105,139.299854 L162.795427,143.399484 L152.776494,153.878863 C152.776104,153.87964 152.776104,153.87964 152.775715,153.880028 L143.088437,164.012981 L139.710385,179.527573 L154.408297,174.796842 L164.267631,164.484074 Z" id="Fill-5" fill="#C5DD8E"></path>
                        <polygon id="Fill-7" fill="#D8E483" points="195.94911 194.63294 191.840017 141.491152 187.405496 160.699528"></polygon>
                        <polygon id="Fill-9" fill="#B6D890" points="177.241912 171.342527 177.241912 171.342527 161.572002 187.72163 195.949266 194.633056 187.405263 160.699644"></polygon>
                        <polygon id="Fill-11" fill="#EBF2D7" points="139.710424 179.52769 142.550121 193.04878 161.572002 187.721513 154.408336 174.796959"></polygon>
                        <polygon id="Fill-13" fill="#D8E483" points="142.550082 193.048741 195.949227 194.632901 161.571963 187.721474"></polygon>
                        <path d="M159.413599,188.285931 C159.413599,188.285931 160.443208,186.008143 159.624192,184.143191 C159.624192,184.143191 161.665114,185.934741 164.150579,184.980128 C164.150579,184.980128 162.851987,187.88591 164.993729,188.365935 C164.993729,188.365935 160.877629,187.448217 159.413599,188.285931" id="Fill-15" fill="#FEFEFE"></path>
                        <path d="M123.347542,55.6265774 C123.347542,86.1341807 98.5590718,110.865562 67.9810456,110.865562 C37.4030193,110.865562 12.6141597,86.1341807 12.6141597,55.6265774 C12.6141597,25.118974 37.4030193,0.387592939 67.9810456,0.387592939 C98.5590718,0.387592939 123.347542,25.118974 123.347542,55.6265774" id="Fill-17" fill="#233770"></path>
                        <path d="M123.128969,50.6445323 C122.527553,44.4244035 120.933508,38.9080006 118.81045,33.7151097 L104.707726,35.4950079 L104.55163,36.5878802 L104.400206,36.4771948 L92.834718,118.067062 C92.834718,118.067062 109.321309,121.177126 130.893662,116.757868 L123.128969,50.6445323 Z" id="Fill-19" fill="#233770"></path>
                        <path d="M107.373966,46.2211182 C106.295309,46.2211182 104.195218,51.5246945 104.195218,61.2463643 C104.195218,70.9684224 106.295309,76.2719988 107.373966,76.2719988 C108.452622,76.2719988 110.552713,70.9684224 110.552713,61.2463643 C110.552713,51.5246945 108.452622,46.2211182 107.373966,46.2211182 M107.373966,77.8254775 C105.882687,77.8254775 104.68725,76.0700465 103.820355,72.6085076 C103.057782,69.5640777 102.638153,65.5293051 102.638153,61.2463643 C102.638153,56.9638118 103.057782,52.9286509 103.820355,49.8846093 C104.68725,46.4230704 105.882687,44.6676395 107.373966,44.6676395 C108.864855,44.6676395 110.060291,46.4230704 110.927577,49.8846093 C111.68976,52.9286509 112.109778,56.9642002 112.109778,61.2463643 C112.109778,65.5289167 111.68976,69.5640777 110.927577,72.6085076 C110.060291,76.0700465 108.864855,77.8254775 107.373966,77.8254775" id="Fill-21" fill="#F0F0F1"></path>
                        <path d="M51.5256742,483.143453 C51.5256742,483.143453 30.8552508,529.789758 31.8397049,559.741605 C32.358986,575.540483 40.5830126,593.528601 48.3959741,618.129102 C55.3945908,640.167139 57.1420067,663.765646 57.6461064,681.669877 L56.0462224,698.97796 L70.1956587,703.397218 L96.2796069,727.702169 L112.520181,724.387823 C112.520181,724.387823 97.0145415,720.72938 87.9131089,704.992641 C75.4020939,683.361615 69.7612377,648.820016 73.1801625,603.933025 C75.397812,574.812678 85.5047191,520.874344 93.7322491,483.081702" id="Fill-69" fill="#E9A4A1"></path>
                        <path d="M79.1362076,559.635618 L79.5130173,558.963739 C80.1903404,555.128977 80.9011405,551.232464 81.6380213,547.300998 L32.659772,546.640769 C32.0688659,551.134595 31.7835338,555.544532 31.9213341,559.724555 C32.0038585,562.241579 32.2864657,564.967546 32.7271151,567.864395 C60.9995177,570.572497 79.1362076,559.635618 79.1362076,559.635618" id="Fill-71" fill="#F18076"></path>
                        <path d="M62.977457,676.67785 C62.977457,676.67785 67.4069169,675.040872 70.0317388,678.478332" id="Fill-73" fill="#F18076"></path>
                        <path d="M80.0386434,707.611651 C80.0386434,707.611651 94.2495838,727.733084 106.275962,721.963464 L110.552051,724.142218 C110.552051,724.142218 103.989802,731.671152 94.9673907,728.72498 C85.9445899,725.779196 80.0386434,707.611651 80.0386434,707.611651" id="Fill-75" fill="#F18076"></path>
                        <path d="M99.7243402,734.038227 L100.705291,734.038227 C100.951307,734.032013 101.194988,734.048713 101.447232,734.038227 L101.393514,734.038227 L118.119892,734.024245 C119.036225,733.891423 119.895335,733.479751 120.568376,732.830009 L122.062769,731.387215 C123.125077,730.361142 123.057734,728.645325 121.928862,727.693043 C116.701017,723.282717 112.243919,722.535105 109.940242,722.505589 C109.079185,722.493938 108.228249,722.686569 107.461005,723.078046 C95.810658,729.023597 87.1366397,717.0622 87.1366397,717.0622 L58.8432166,676.029778 C58.2379077,675.150897 57.1102036,674.772625 56.1062861,675.13847 C45.6825164,678.935948 46.0223457,691.071724 46.3057315,694.291309 C46.3497186,694.788033 46.5108748,695.264175 46.780247,695.684391 L50.9278781,702.149969 C51.1081084,702.43076 51.3572387,702.913115 51.4747971,703.225753 C55.4857958,713.884947 54.2090028,728.824752 53.7625145,732.876225 C53.7010104,733.436254 54.1397134,733.924434 54.7041494,733.924434 L57.7521035,733.924434 C58.36403,733.924434 58.8401025,733.393533 58.7696453,732.786899 C58.5796834,731.142154 58.1779607,727.223115 57.40916,718.116235 C56.769985,710.541084 57.8237285,706.639911 58.9568824,704.646021 C59.7646097,703.223811 61.6509936,702.828063 62.9947405,703.763645 C65.2116114,705.307803 69.0275877,708.642345 72.8015233,715.255892 C76.7132592,722.110617 79.6907562,726.143059 82.0831861,728.651539 L82.0890251,728.642995 C82.0890251,728.642995 87.204372,734.074345 99.7243402,734.038227" id="Fill-77" fill="#C25189"></path>
                        <path d="M47.58813,496.891895 C47.58813,496.891895 26.9180959,543.5382 27.90255,573.490047 C28.4218311,589.288925 36.6458577,607.277043 44.4588192,631.877544 C51.4574358,653.915581 53.2048517,677.514088 53.7089514,695.418319 L52.1090674,712.726402 L66.2585038,717.145272 L92.342452,741.450611 L108.583026,738.136265 C108.583026,738.136265 93.0773866,734.477822 83.975954,718.741083 C71.464939,697.110057 65.8240828,662.568458 69.2430076,617.681467 C71.460657,588.56112 81.5671749,534.622398 89.7950941,496.830144" id="Fill-79" fill="#F8B5AF"></path>
                        <path d="M75.1986634,573.38406 L75.5758623,572.712181 C76.2531855,568.877419 76.9639855,564.980906 77.7008664,561.049439 L28.7226171,560.389211 C28.131711,564.883037 27.8463789,569.292974 27.9841791,573.472997 C28.0667036,575.990021 28.3489215,578.715988 28.7899601,581.612837 C57.0623628,584.320939 75.1986634,573.38406 75.1986634,573.38406" id="Fill-81" fill="#F18076" opacity="0.429630888"></path>
                        <path d="M9.33322972,430.35213 C9.33322972,430.35213 29.8152483,514.624854 6.58072856,556.002148 C6.06611867,556.918312 6.70062254,558.05041 7.75280903,558.077984 L24.0980959,558.506744 L27.0506799,438.20846 L9.33322972,430.35213 Z" id="Fill-83" fill="#272C2F"></path>
                        <path d="M53.8175567,136.785238 L44.8729984,146.323985 C43.3751021,147.92135 43.6036014,150.464006 45.362306,151.769705 L101.720264,193.615761 C103.430699,194.886118 105.851935,193.60178 105.75345,191.476621 L104.283581,159.688951 L57.1197017,136.193362 C56.0091253,135.639547 54.6657677,135.880336 53.8175567,136.785238" id="Fill-85" fill="#E59A36"></path>
                        <path d="M97.6038905,197.612862 C95.1592989,210.674899 82.5642024,219.286608 69.4716236,216.847258 C56.3798235,214.408685 47.7482352,201.842596 50.1928268,188.780558 C52.6370292,175.718521 65.2325149,167.106812 78.3247044,169.545773 C91.4165046,171.984735 100.048093,184.550824 97.6038905,197.612862" id="Fill-87" fill="#F8B5AF"></path>
                        <path d="M254.069159,299.396437 C252.173822,293.357677 249.972522,287.421058 247.761879,281.49143 C246.142532,281.414533 244.431318,281.32948 242.590089,281.247534 C224.148993,280.42652 156.570048,273.067692 137.768102,272.612911 C135.93933,272.569025 134.300909,271.475376 133.584659,269.822475 L95.937948,183.78461 L52.0948981,203.945656 L104.711229,296.915532 C106.157353,299.471004 108.951506,301.013997 111.922385,300.897098 L253.76631,299.620527 C253.76631,299.620527 253.899828,299.606545 254.12716,299.58402 C254.107696,299.521492 254.089012,299.458965 254.069159,299.396437" id="Fill-89" fill="#E09B99"></path>
                        <path d="M237.88534,294.628656 L119.383372,290.791175 C114.083124,291.46888 111.741299,287.036805 111.741299,287.036805 C111.741299,287.036805 83.3828681,236.59108 68.1870842,210.782749 C54.4771293,187.49921 62.0510814,173.874425 63.6638112,171.431968 C56.923278,174.624367 51.7549909,180.877896 50.2808399,188.755198 C49.266023,194.178004 50.1648386,199.511485 52.4938181,204.073663 L52.4136293,204.109782 L105.02996,297.079657 C106.476863,299.635518 109.271015,301.177734 112.241506,301.061223 L232.921807,299.844849 C234.579691,298.16515 236.3999,296.493607 237.88534,294.628656" id="Fill-91" fill="#F18076"></path>
                        <path d="M41.6510812,81.1592428 L44.9423267,147.778236 C44.9423267,147.778236 46.080541,158.494132 79.556654,152.688393 L79.2285026,127.094055 L81.2347805,127.890601 C84.006745,128.990464 87.1629152,127.910408 88.6826103,125.349498 C92.4257939,119.040433 98.791853,106.518618 100.636975,91.7594048 L104.489542,92.4914816 C106.017023,92.7819821 107.406703,91.5504619 107.296541,90.0028087 C106.595861,80.1968627 104.655369,48.8822272 106.542921,25.6363601 L38.9546343,39.7120424 C38.9546343,39.7120424 40.8892872,57.2294567 41.4872001,63.0736436 C41.7460621,65.6050372 38.2878214,65.5285283 38.4520917,73.6303082 C38.5050319,76.2366571 41.6510812,81.1592428 41.6510812,81.1592428" id="Fill-93" fill="#F8B5AF"></path>
                        <path d="M105.978836,35.5087173 L108.282124,34.8166426 C108.027154,33.8437765 107.722748,32.9035335 107.336207,32.0168856 L99.378049,31.1690746 L75.8367874,38.0432179 L57.7911859,57.6551099 C60.9127114,54.1166737 78.1459144,45.6408939 105.767853,44.3522833 L105.978836,35.5087173 Z" id="Fill-97" fill="#F18076" opacity="0.359261775"></path>
                        <path d="M90.1557493,111.687973 C90.1273328,111.687973 90.0985271,111.68642 90.0693322,111.683313 C79.9168809,110.56908 73.7115887,103.44405 73.4523375,103.14151 C73.1732336,102.81528 73.211771,102.325934 73.5383653,102.047085 C73.8649596,101.768235 74.3562135,101.806684 74.6357066,102.132137 C74.6952644,102.201267 80.7179907,109.094052 90.2398307,110.139155 C90.6668557,110.186148 90.9751546,110.569857 90.9284426,110.996287 C90.8844555,111.393589 90.547351,111.687973 90.1557493,111.687973" id="Fill-99" fill="#D8544A"></path>
                        <path d="M59.4763581,119.079503 C59.1762339,118.958331 58.8570356,119.208053 58.9068617,119.527293 C59.5911916,123.92558 60.630143,147.15164 79.4749081,151.335935 L79.2285026,127.094288" id="Fill-101" fill="#F18076" opacity="0.318727355"></path>
                        <path d="M87.0515072,84.1279406 C87.0515072,89.0656727 83.0389514,93.068599 78.0902104,93.068599 C73.1410802,93.068599 69.1289137,89.0656727 69.1289137,84.1279406 C69.1289137,79.1902085 73.1410802,75.1872822 78.0902104,75.1872822 C83.0389514,75.1872822 87.0515072,79.1902085 87.0515072,84.1279406" id="Fill-103" fill="#F18076" opacity="0.280457428"></path>
                        <path d="M58.2302392,87.4243448 C58.2302392,87.4243448 36.5656299,94.8258941 36.8217671,117.498916 L31.5004984,91.5934933 L36.0837184,74.9033063 L40.0604617,77.1845898 C40.0604617,77.1845898 45.1882651,88.6519813 58.2302392,87.4243448" id="Fill-105" fill="#F18076" opacity="0.318727355"></path>
                        <path d="M96.7816435,107.514902 L96.9684913,107.378973 C98.5812211,102.638144 99.9362567,97.362919 100.636936,91.7595213 L94.4032272,90.0021485 L96.7816435,107.514902 Z" id="Fill-107" fill="#F6A49D"></path>
                        <path d="M41.5051063,62.0024424 C45.0676704,57.307053 50.872797,55.8871734 56.4284039,56.9742201 C69.4972374,46.0361765 88.2509141,36.2387747 114.532999,33.8188432 L108.583065,20.8465192 L77.0855923,17.9003468 L36.0732861,29.684648 L24.5899338,53.5806459 L22.9495661,68.6385151 L29.8395775,92.8615202 C29.8395775,92.8615202 32.5383599,85.1341288 39.5591647,75.2458484 C37.0682504,71.1765109 38.7588334,65.6220478 41.5051063,62.0024424" id="Fill-109" fill="#233770"></path>
                        <path d="M57.5034014,57.453313 C57.2787948,57.453313 57.0557453,57.3566089 56.9015959,57.1698031 C56.6287203,56.8385238 56.6766,56.3487896 57.0086441,56.0765425 C68.7672076,46.4372071 89.3866371,34.5876598 120.844794,32.8780565 C121.27143,32.8528125 121.641233,33.1829267 121.6642,33.6112984 C121.687555,34.0396702 121.358626,34.4059028 120.929265,34.429205 C89.8926832,36.1158945 69.5757134,47.7848498 57.9973802,57.2766048 C57.8521839,57.3954459 57.6774034,57.453313 57.5034014,57.453313" id="Fill-111" fill="#5C5AA7"></path>
                        <path d="M42.1433472,80.1772889 C42.1433472,80.1772889 43.004404,103.868616 48.9103505,118.108468 C48.9103505,118.108468 17.4537504,118.230915 0.967159904,113.320757 C0.967159904,113.320757 7.56989285,54.6443128 16.8799721,34.5947281" id="Fill-113" fill="#233770"></path>
                        <polygon id="Fill-115" fill="#FEFEFE" points="114.981005 118.721853 114.981005 107.428451 117.441557 119.458202"></polygon>
                        <polygon id="Fill-117" fill="#FEFEFE" points="17.2896358 116.266852 20.9806577 95.3170264 21.9655012 117.24865"></polygon>
                        <path d="M43.1275289,147.200652 C43.1275289,147.200652 14.8605759,149.792243 14.8605759,190.514746 C14.8605759,231.237637 32.9925946,332.405607 32.9925946,332.405607 L111.126102,331.779167 C119.989304,212.825807 107.342824,264.451788 126.865302,241.129801 C150.415516,212.99669 129.995002,202.711107 116.169435,188.916993 C87.9118244,160.724461 83.3071947,162.322214 83.3071947,162.322214 L43.1275289,147.200652 Z" id="Fill-119" fill="#515BA8"></path>
                        <path d="M81.2562291,206.784289 C81.2562291,219.333679 71.0594015,229.507411 58.4806541,229.507411 C45.9026853,229.507411 35.7054685,219.333679 35.7054685,206.784289 C35.7054685,194.2349 45.9026853,184.061556 58.4806541,184.061556 C71.0594015,184.061556 81.2562291,194.2349 81.2562291,206.784289" id="Fill-121" fill="#61C3AF"></path>
                        <polygon id="Fill-123" fill="#DE7F26" points="92.2256332 158.215709 105.794284 178.830372 92.5471671 167.373078"></polygon>
                        <path d="M41.7598032,135.312151 L32.8152449,144.850899 C31.3173487,146.448264 31.5462372,148.99092 33.3049418,150.296619 L89.6628993,192.142675 C91.3729457,193.413032 93.7941813,192.129082 93.6960862,190.003923 L92.2258279,158.215865 L45.0623375,134.720276 C43.9513718,134.166849 42.6084035,134.407638 41.7598032,135.312151" id="Fill-125" fill="#FAAF3F"></path>
                        <path d="M31.4658926,334.477909 L15.0587124,358.523041 C15.0345779,358.558771 15.0081078,358.592171 14.9812484,358.625571 C12.4358369,361.811367 -7.90643516,383.988441 7.73739409,425.661284 C16.2627127,448.371978 19.2094577,484.482202 19.8937876,511.372142 C20.5485333,537.077942 15.7543311,558.83713 14.1182453,565.448736 C13.834081,566.594815 14.5421562,567.738175 15.6971089,567.994887 C25.4618511,570.165097 66.7587109,578.461062 90.9558859,569.454381 C92.2501959,568.972414 92.960996,567.590206 92.588079,566.262759 C90.9718458,560.510615 87.7354868,543.199037 93.8711003,509.489714 C99.1129587,480.692102 106.405861,445.686013 109.00538,426.173544 C116.025796,373.477992 112.277941,339.398553 111.797976,332.502661 C111.74776,331.783012 111.12727,331.239294 110.405181,331.279685 L31.2541318,335.699332 C30.8430667,335.722246 31.697506,334.138474 31.4658926,334.477909" id="Fill-127" fill="#464B50"></path>
                        <path d="M110.754937,335.735567 L30.6023056,335.735567 C30.6023056,335.735567 29.3512041,333.056981 29.5933277,329.285135 C29.8502434,325.282597 31.6050553,323.539982 31.6050553,323.539982 L111.908722,323.539982 C112.963633,323.539982 113.818462,324.39323 113.818462,325.445324 L112.834397,333.660896 C112.834397,334.806587 111.903272,335.735567 110.754937,335.735567" id="Fill-129" fill="#FAAF3F"></path>
                        <polygon id="Fill-131" fill="#464B50" points="39.7701081 339.403641 42.7787464 339.403641 42.7787464 323.539516 39.7701081 323.539516"></polygon>
                        <polygon id="Fill-133" fill="#464B50" points="58.679102 339.403641 61.6873511 339.403641 61.6873511 323.539516 58.679102 323.539516"></polygon>
                        <polygon id="Fill-134" fill="#464B50" points="77.5877067 339.403641 80.5959558 339.403641 80.5959558 323.539516 77.5877067 323.539516"></polygon>
                        <polygon id="Fill-135" fill="#464B50" points="96.4963114 339.403641 99.5049497 339.403641 99.5049497 323.539516 96.4963114 323.539516"></polygon>
                        <path d="M299.739853,301.870003 L200.55989,301.870003 C196.875486,301.870003 193.888647,298.890042 193.888647,295.214123 L193.888647,199.521 C193.888647,195.845081 196.875486,192.86512 200.55989,192.86512 L299.739853,192.86512 C303.424257,192.86512 306.411096,195.845081 306.411096,199.521 L306.411096,295.214123 C306.411096,298.890042 303.424257,301.870003 299.739853,301.870003" id="Fill-136" fill="#5F6E89"></path>
                        <path d="M214.96994,301.870003 L139.949394,301.870003 C135.201904,301.870003 131.35284,298.030192 131.35284,293.293247 L131.35284,201.441876 C131.35284,196.704931 135.201904,192.86512 139.949394,192.86512 L219.07086,192.86512 C221.553599,192.86512 223.566495,194.872991 223.566495,197.350013 L223.566495,293.293247 C223.566495,298.030192 219.717431,301.870003 214.96994,301.870003" id="Fill-137" fill="#404C6B"></path>
                        <path d="M137.865964,206.285933 C137.865964,208.319825 139.07775,209.968455 140.572921,209.968455 C142.067703,209.968455 143.279489,208.319825 143.279489,206.285933 C143.279489,204.25243 142.067703,202.6038 140.572921,202.6038 C139.07775,202.6038 137.865964,204.25243 137.865964,206.285933" id="Fill-138" fill="#5F6E89"></path>
                        <path d="M213.249034,206.285933 C213.249034,208.319825 214.460819,209.968455 215.955991,209.968455 C217.450773,209.968455 218.662558,208.319825 218.662558,206.285933 C218.662558,204.25243 217.450773,202.6038 215.955991,202.6038 C214.460819,202.6038 213.249034,204.25243 213.249034,206.285933" id="Fill-139" fill="#5F6E89"></path>
                        <path d="M235.869058,206.285933 C235.869058,207.71591 236.720772,208.874806 237.77218,208.874806 C238.82281,208.874806 239.674524,207.71591 239.674524,206.285933 C239.674524,204.856345 238.82281,203.697449 237.77218,203.697449 C236.720772,203.697449 235.869058,204.856345 235.869058,206.285933" id="Fill-140" fill="#798AA4"></path>
                        <path d="M292.05605,206.285933 C292.05605,207.71591 292.907764,208.874806 293.958783,208.874806 C295.009801,208.874806 295.861516,207.71591 295.861516,206.285933 C295.861516,204.856345 295.009801,203.697449 293.958783,203.697449 C292.907764,203.697449 292.05605,204.856345 292.05605,206.285933" id="Fill-141" fill="#798AA4"></path>
                        <path d="M235.869058,287.630817 C235.869058,289.060794 236.720772,290.219301 237.77218,290.219301 C238.82281,290.219301 239.674524,289.060794 239.674524,287.630817 C239.674524,286.20084 238.82281,285.041945 237.77218,285.041945 C236.720772,285.041945 235.869058,286.20084 235.869058,287.630817" id="Fill-142" fill="#798AA4"></path>
                        <path d="M292.05605,287.630817 C292.05605,289.060794 292.907764,290.219301 293.958783,290.219301 C295.009801,290.219301 295.861516,289.060794 295.861516,287.630817 C295.861516,286.20084 295.009801,285.041945 293.958783,285.041945 C292.907764,285.041945 292.05605,286.20084 292.05605,287.630817" id="Fill-143" fill="#798AA4"></path>
                        <path d="M213.249034,292.649291 C213.249034,294.683183 214.460819,296.331812 215.955991,296.331812 C217.450773,296.331812 218.662558,294.683183 218.662558,292.649291 C218.662558,290.615399 217.450773,288.96677 215.955991,288.96677 C214.460819,288.96677 213.249034,290.615399 213.249034,292.649291" id="Fill-144" fill="#5F6E89"></path>
                        <path d="M234.983711,199.830802 C233.450781,199.830802 232.203961,201.07475 232.203961,202.60415 L232.203961,289.99859 C232.203961,291.527602 233.450781,292.771938 234.983711,292.771938 L296.407578,292.771938 C297.940119,292.771938 299.187328,291.527602 299.187328,289.99859 L299.187328,202.60415 C299.187328,201.07475 297.940119,199.830802 296.407578,199.830802 L234.983711,199.830802 Z M296.407578,293.937047 L234.983711,293.937047 C232.806934,293.937047 231.036162,292.170353 231.036162,289.99859 L231.036162,202.60415 C231.036162,200.432387 232.806934,198.665693 234.983711,198.665693 L296.407578,198.665693 C298.584355,198.665693 300.355127,200.432387 300.355127,202.60415 L300.355127,289.99859 C300.355127,292.170353 298.584355,293.937047 296.407578,293.937047 Z" id="Fill-145" fill="#798AA4"></path>
                        <path d="M229.15153,220.056745 L231.373851,220.056745 L231.373851,211.828357 L229.15153,211.828357 C228.612007,211.828357 228.174861,212.264885 228.174861,212.802777 L228.174861,219.082714 C228.174861,219.620606 228.612007,220.056745 229.15153,220.056745" id="Fill-146" fill="#798AA4"></path>
                        <path d="M229.15153,251.113426 L231.373851,251.113426 L231.373851,242.885037 L229.15153,242.885037 C228.612007,242.885037 228.174861,243.321565 228.174861,243.859457 L228.174861,250.139395 C228.174861,250.677287 228.612007,251.113426 229.15153,251.113426" id="Fill-147" fill="#798AA4"></path>
                        <path d="M229.15153,282.170106 L231.373851,282.170106 L231.373851,273.941718 L229.15153,273.941718 C228.612007,273.941718 228.174861,274.378245 228.174861,274.915749 L228.174861,281.195687 C228.174861,281.733967 228.612007,282.170106 229.15153,282.170106" id="Fill-148" fill="#798AA4"></path>
                        <path d="M282.094027,232.138693 C282.094027,241.06304 276.133194,248.29759 268.779956,248.29759 C261.426329,248.29759 255.465496,241.06304 255.465496,232.138693 C255.465496,223.213958 261.426329,215.979407 268.779956,215.979407 C276.133194,215.979407 282.094027,223.213958 282.094027,232.138693" id="Fill-149" fill="#798AA4"></path>
                        <path d="M274.808599,232.166772 C274.808599,233.923757 273.744735,235.348297 272.432519,235.348297 C271.120302,235.348297 270.056827,233.923757 270.056827,232.166772 C270.056827,230.409788 271.120302,228.985636 272.432519,228.985636 C273.744735,228.985636 274.808599,230.409788 274.808599,232.166772" id="Fill-150" fill="#404C6B"></path>
                        <path d="M278.993211,264.304363 C278.993211,266.061347 277.929346,267.485887 276.61713,267.485887 C275.304914,267.485887 274.241439,266.061347 274.241439,264.304363 C274.241439,262.547379 275.304914,261.123227 276.61713,261.123227 C277.929346,261.123227 278.993211,262.547379 278.993211,264.304363" id="Fill-151" fill="#798AA4"></path>
                        <path d="M269.404845,241.506985 C265.159898,241.506985 261.706328,237.372402 261.706328,232.289808 C261.706328,227.207214 265.159898,223.071853 269.404845,223.071853 C271.59836,223.071853 273.693002,224.19463 275.151971,226.151625 C275.344269,226.409891 275.290161,226.77457 275.031688,226.967201 C274.772437,227.158279 274.407694,227.105072 274.214229,226.847195 C272.978309,225.18808 271.225443,224.236962 269.404845,224.236962 C265.803744,224.236962 262.874127,227.849577 262.874127,232.289808 C262.874127,236.72965 265.803744,240.341876 269.404845,240.341876 C271.166664,240.341876 272.819877,239.486686 274.059301,237.933207 C274.260941,237.681932 274.62763,237.640377 274.879874,237.840387 C275.132119,238.040786 275.17377,238.407407 274.973298,238.65907 C273.507322,240.495671 271.529849,241.506985 269.404845,241.506985" id="Fill-152" fill="#404C6B"></path>
                        <path d="M272.268482,226.268408 C269.871381,226.268408 267.921157,228.969519 267.921157,232.289691 C267.921157,235.609864 269.871381,238.310975 272.268482,238.310975 C274.665583,238.310975 276.616196,235.609864 276.616196,232.289691 C276.616196,228.969519 274.665583,226.268408 272.268482,226.268408 M272.268482,239.476084 C269.227535,239.476084 266.753359,236.252227 266.753359,232.289691 C266.753359,228.327155 269.227535,225.103299 272.268482,225.103299 C275.309429,225.103299 277.783994,228.327155 277.783994,232.289691 C277.783994,236.252227 275.309429,239.476084 272.268482,239.476084" id="Fill-153" fill="#404C6B"></path>
                        <path d="M270.545668,226.596852 C270.510244,226.596852 270.474043,226.591803 270.43823,226.581706 L266.185886,225.363001 C265.979575,225.303969 265.860071,225.088812 265.919239,224.882588 C265.978797,224.676752 266.191725,224.557134 266.401151,224.616555 L270.653105,225.835259 C270.859805,225.894291 270.978921,226.109448 270.919752,226.315672 C270.870705,226.486167 270.715388,226.596852 270.545668,226.596852" id="Fill-154" fill="#404C6B"></path>
                        <path d="M268.089554,229.180792 C268.058802,229.180792 268.02766,229.177297 267.996519,229.169529 L263.964111,228.18074 C263.755075,228.129475 263.627785,227.919367 263.679168,227.711201 C263.730162,227.502647 263.94348,227.374873 264.149791,227.426526 L268.18181,228.415315 C268.390846,228.46658 268.518525,228.676688 268.467142,228.884854 C268.423544,229.062339 268.264334,229.180792 268.089554,229.180792" id="Fill-155" fill="#404C6B"></path>
                        <path d="M267.119425,232.230465 L267.110861,232.230465 L262.683347,232.131431 C262.468472,232.126382 262.297974,231.948508 262.302645,231.734517 C262.307705,231.520137 262.46964,231.352361 262.700475,231.354691 L267.127988,231.453725 C267.342863,231.458774 267.513362,231.636648 267.508691,231.850639 C267.50363,232.062301 267.330407,232.230465 267.119425,232.230465" id="Fill-156" fill="#404C6B"></path>
                        <path d="M263.144667,236.004564 C262.95743,236.004564 262.791991,235.869023 262.76085,235.678721 C262.726205,235.46706 262.870234,235.267438 263.082384,235.232873 L267.363144,234.536915 C267.579187,234.50235 267.775377,234.646435 267.810022,234.857708 C267.844666,235.069369 267.700638,235.268991 267.488488,235.303556 L263.207728,235.999515 C263.186318,236.00301 263.165298,236.004564 263.144667,236.004564" id="Fill-157" fill="#404C6B"></path>
                        <path d="M265.308831,239.306483 C265.156238,239.306483 265.011431,239.216769 264.949149,239.067247 C264.866624,238.869178 264.960827,238.641594 265.159353,238.559259 L268.418289,237.208898 C268.617593,237.12734 268.844536,237.220161 268.927449,237.418618 C269.009974,237.616298 268.915771,237.843882 268.717245,237.926217 L265.458309,239.276967 C265.409261,239.297162 265.358657,239.306483 265.308831,239.306483" id="Fill-158" fill="#404C6B"></path>
                        <path d="M268.345769,241.172094 C268.227043,241.172094 268.109873,241.118111 268.033188,241.015969 C267.90473,240.843922 267.940153,240.600414 268.112598,240.472252 L270.665017,238.573513 C270.837072,238.445351 271.081142,238.479915 271.2096,238.65274 C271.338058,238.824399 271.303024,239.067907 271.13019,239.196069 L268.578161,241.095197 C268.508093,241.147238 268.426736,241.172094 268.345769,241.172094" id="Fill-159" fill="#404C6B"></path>
                        <path d="M89.7174745,161.112753 C89.7174745,162.19747 88.8361758,163.076739 87.7489554,163.076739 C86.6617349,163.076739 85.7804363,162.19747 85.7804363,161.112753 C85.7804363,160.028037 86.6617349,159.148768 87.7489554,159.148768 C88.8361758,159.148768 89.7174745,160.028037 89.7174745,161.112753" id="Fill-160" fill="#DE7F26"></path>
                        <path d="M34.6876152,199.03814 C34.6876152,199.03814 27.3308737,217.514439 43.5663876,246.367975 C56.3810302,269.141197 75.358535,302.951107 82.7876801,316.189076 C84.7312861,319.65178 88.3919453,321.799853 92.3698564,321.813058 L112.52022,321.204094 L113.568125,306.352449 L34.6876152,199.03814 Z" id="Fill-161" fill="#384784"></path>
                        <path d="M88.4052192,209.805184 C88.4052192,209.805184 101.200788,251.909506 121.655947,246.64166 L116.423431,251.03179 C115.526562,251.784451 115.350224,252.461768 115.104208,253.934854 L114.489167,282.066023 L81.5152079,215.451691 L88.4052192,209.805184 Z" id="Fill-162" fill="#384784"></path>
                        <path d="M82.8403089,211.605938 C80.3957172,224.667975 67.8002315,233.280073 54.708042,230.840723 C41.6162418,228.401761 32.9846536,215.83606 35.4288559,202.773634 C37.8734475,189.711597 50.4689333,181.099888 63.5611227,183.538849 C76.6529229,185.977811 85.2845112,198.5439 82.8403089,211.605938" id="Fill-163" fill="#F8B5AF"></path>
                        <path d="M239.305539,313.389902 C237.410202,307.350753 235.208901,301.414523 232.998259,295.484506 C231.378911,295.407997 229.667697,295.322556 227.826079,295.240998 C209.384983,294.419596 141.806038,287.061156 123.004093,286.606375 C121.175709,286.562101 119.537288,285.468452 118.821038,283.815551 L81.1743275,197.777686 L37.3308883,217.939121 L89.9476086,310.908608 C91.3937325,313.46408 94.1878851,315.007073 97.1587646,314.890174 L239.0023,313.613603 C239.0023,313.613603 239.136208,313.60001 239.363539,313.577096 C239.344076,313.514568 239.325391,313.452041 239.305539,313.389902" id="Fill-164" fill="#F8B5AF"></path>
                        <path d="M221.713276,311.491279 C222.232168,309.983628 221.141444,308.404905 219.545064,308.352475 L102.431219,304.509169 C98.6171893,304.509169 97.2022067,301.931559 97.2022067,301.931559 C97.2022067,301.931559 68.2703871,250.420535 53.0746033,224.612594 C39.3646484,201.329055 46.9386005,187.70427 48.5513303,185.261424 C41.8111863,188.453823 36.6421207,194.70774 35.168359,202.584654 C34.153542,208.007071 35.0519684,213.34094 37.3813372,217.903119 L37.3015376,217.939237 L89.9178687,310.909113 C91.3643818,313.464974 94.1581452,315.007578 97.1290247,314.890679 L218.553603,313.79703 C219.975592,313.783825 221.234868,312.878924 221.697316,311.537107 C221.702766,311.521572 221.707827,311.506425 221.713276,311.491279" id="Fill-165" fill="#F18076" opacity="0.318727355"></path>
                        <path d="M100.831686,242.764254 C100.831686,242.764254 73.9279429,249.00419 64.8230069,266.435386 L57.8917333,254.487582 C57.8917333,254.487582 77.5780919,238.529471 100.831686,242.764254" id="Fill-166" fill="#F18076" opacity="0.318727355"></path>
                        <path d="M100.185815,241.352608 C100.391737,241.37358 99.9865109,241.298625 100.185815,241.352608 L83.2215951,198.766708 C80.4986781,190.096743 73.1898163,183.174054 63.6142576,181.390272 C49.8073754,178.818099 36.5248348,187.900124 33.9467249,201.675209 C32.895317,207.292976 33.7879043,212.822972 36.1488037,217.577782 L35.9522243,217.668272 L59.5736746,257.351497 C61.2580294,255.585969 77.5165099,239.081422 100.185815,241.352608" id="Fill-167" fill="#61C3AF"></path>
                        <path d="M67.5976963,250.211165 C62.2783739,240.932625 57.1237111,232.012939 52.9231398,224.878588 C38.4646261,200.324303 46.4523681,185.955402 48.153072,183.379346 C41.0446823,186.746123 35.593788,193.341028 34.0394481,201.648644 C32.9693554,207.366999 33.9172186,212.991757 36.3730989,217.803658 L36.2886281,217.840941 L59.5737525,257.35173 C60.4830783,256.415371 62.8572127,253.494054 67.5976963,250.211165" id="Fill-168" fill="#61C3AF"></path>
                        <path d="M52.8470383,248.781344 C52.7189697,248.781344 52.5901226,248.7394 52.4822958,248.65357 C52.2308299,248.452006 52.1903462,248.086162 52.3915968,247.834498 C52.5430214,247.645751 56.1884991,243.153479 63.5300593,238.702762 C70.2920021,234.60352 81.5931779,229.801717 96.9719168,230.229312 C97.2942292,230.238245 97.5484201,230.505832 97.5394669,230.827402 C97.5305138,231.143923 97.2708733,231.394033 96.9559569,231.394033 C96.9505072,231.394033 96.9450575,231.394033 96.9396078,231.393645 C68.0759098,230.604866 53.447676,248.383265 53.3032582,248.56308 C53.1876462,248.706777 53.0179261,248.781344 52.8470383,248.781344" id="Fill-169" fill="#D6DE23"></path>
                        <path d="M59.0809804,258.765163 C58.9529119,258.765163 58.824454,258.723607 58.716238,258.637389 C58.4647721,258.436214 58.4242884,258.069981 58.625539,257.818318 C58.7695675,257.638891 62.2394862,253.361387 69.2260356,249.017084 C75.659827,245.016488 86.4031843,240.236434 101.045432,240.187111 L101.047378,240.187111 C101.368912,240.187111 101.63011,240.446542 101.631277,240.767724 C101.632445,241.089294 101.372026,241.351055 101.048935,241.35222 C73.5675213,241.44504 59.6742221,258.375628 59.5372004,258.546899 C59.4219776,258.690596 59.2522575,258.765163 59.0809804,258.765163" id="Fill-170" fill="#D6DE23"></path>
                        <path d="M74.1323855,368.985138 C73.891819,368.985138 73.6664339,368.835615 73.5819631,368.59638 C73.4745256,368.293063 73.6341248,367.96023 73.9381417,367.853428 L107.404523,356.069127 C107.708151,355.961937 108.041752,356.12078 108.149189,356.424486 C108.256627,356.727802 108.097027,357.060635 107.793011,357.167437 L74.3266293,368.951738 C74.2624004,368.974652 74.1970037,368.985138 74.1323855,368.985138" id="Fill-171" fill="#939597"></path>
                        <path d="M59.040341,690.426292 C59.040341,690.426292 63.4698009,688.789314 66.0942335,692.226774" id="Fill-172" fill="#F18076"></path>
                        <path d="M76.1015274,721.360093 C76.1015274,721.360093 90.3124678,741.481526 102.338846,735.711906 L106.614546,737.89066 C106.614546,737.89066 100.052686,745.419594 91.0302747,742.473422 C82.0070846,739.527249 76.1015274,721.360093 76.1015274,721.360093" id="Fill-173" fill="#F18076"></path>
                        <path d="M95.7871852,747.786669 L96.768136,747.786669 C97.0141522,747.780455 97.2578329,747.797155 97.5100773,747.786669 L97.4563586,747.786669 L114.182737,747.772687 C115.09907,747.639865 115.95818,747.228193 116.631221,746.57845 L118.125614,745.135657 C119.187922,744.109584 119.120579,742.393767 117.991707,741.441096 C112.763473,737.031159 108.306764,736.283547 106.003087,736.254031 C105.14203,736.24238 104.291094,736.435011 103.523851,736.826488 C91.8735031,742.772039 83.1994848,730.810642 83.1994848,730.810642 L54.9060617,689.77822 C54.3007528,688.899339 53.1730487,688.521067 52.1691312,688.886912 C41.7453614,692.68439 42.0851908,704.820166 42.3685766,708.039362 C42.4125637,708.536475 42.5737199,709.012617 42.8430921,709.432833 L46.9907232,715.898411 C47.1709535,716.179202 47.4196945,716.661169 47.5376422,716.973807 C51.5486409,727.633389 50.2718478,742.573194 49.8253595,746.624666 C49.7638555,747.184696 50.2021692,747.672876 50.7669944,747.672876 L53.8149486,747.672876 C54.4268751,747.672876 54.9029476,747.141975 54.8324904,746.535341 C54.6425285,744.890596 54.2408058,740.971557 53.4720051,731.864677 C52.83283,724.289526 53.8865736,720.388353 55.0193382,718.394463 C55.8274548,716.972253 57.7138387,716.576116 59.0575855,717.512087 C61.2744564,719.056245 65.0904328,722.390787 68.8639791,729.003946 C72.7761043,735.859059 75.753212,739.891501 78.1456419,742.399981 L78.1518702,742.391437 C78.1518702,742.391437 83.2672171,747.822787 95.7871852,747.786669" id="Fill-174" fill="#C25189"></path>
                        <path d="M186.167279,256.847588 C186.167279,253.401972 184.110008,251.056219 178.084946,248.637064 L173.235468,266.083795 C180.803581,266.230599 186.167279,262.491764 186.167279,256.847588 Z M180.288971,225.106522 C172.721247,224.37328 167.210795,228.404946 167.210795,233.68289 C167.210795,237.348323 169.635145,239.400468 175.733778,241.673207 L180.288971,225.106522 Z M167.357938,270.775301 C161.185733,269.675826 156.777294,267.25706 153.397295,264.031261 C152.736321,263.444823 152.222101,262.565554 152.222101,261.539093 C152.222101,259.999596 153.397295,258.826719 155.013918,258.826719 C155.822034,258.826719 156.556969,259.266742 157.07119,259.706377 C160.157292,262.858385 164.051511,264.910919 169.120924,265.717174 L174.117545,247.244371 C165.44703,243.945558 161.259304,240.79355 161.259304,234.269328 C161.259304,226.059193 169.047742,219.901592 179.186958,219.901592 C180.068646,219.901592 180.877152,219.974994 181.685269,219.974994 L182.346632,217.555839 C182.787281,216.162757 183.668969,215.283488 184.991306,215.283488 C186.461175,215.283488 187.342863,216.456364 186.901825,218.142277 L186.240461,220.634445 C190.64929,221.587504 194.102471,223.493234 196.747534,225.692572 C197.555651,226.27901 198.069871,226.93885 198.069871,228.038325 C198.069871,229.577822 196.821106,230.824101 195.277665,230.824101 C194.543509,230.824101 193.881757,230.530881 193.147211,230.017457 C190.64929,227.818508 188.077409,226.498827 184.477086,225.692572 L179.701568,243.139303 C188.077409,246.218298 192.11877,249.809941 192.11877,256.260761 C192.11877,264.984321 184.18319,271.215324 172.86839,271.215324 L171.839559,271.215324 L170.370079,276.493268 C170.003001,277.958975 169.120924,278.766007 167.798587,278.766007 C166.329107,278.766007 165.44703,277.665756 165.888069,275.906829 L167.357938,270.775301 Z" id="Fill-175" fill="#798AA4"></path>
                        <path d="M265.935316,270.645702 C265.701756,270.645702 265.481431,270.626283 265.268503,270.587447 C263.157512,270.200242 261.409318,268.570643 260.592248,266.228774 C260.486757,265.925069 260.647524,265.592624 260.95193,265.486988 C261.257504,265.380186 261.589159,265.541748 261.695429,265.845841 C262.372752,267.786913 263.786956,269.13106 265.479874,269.440979 C265.704481,269.482535 265.949719,269.490691 266.229601,269.467388 L276.870192,268.597829 C277.187833,268.576468 277.473555,268.810267 277.499635,269.13106 C277.525716,269.451465 277.286707,269.732645 276.965173,269.759054 L266.326139,270.628614 C266.191453,270.639876 266.061438,270.645702 265.935316,270.645702" id="Fill-176" fill="#798AA4"></path>
                        <path d="M261.134846,261.367317 C261.073342,261.367317 261.01106,261.357996 260.949166,261.337025 C260.643592,261.234883 260.478544,260.904769 260.58131,260.59951 C261.266808,258.557851 262.656488,256.960098 264.394172,256.215982 C265.435459,255.771687 266.653473,255.704111 267.823218,256.028399 L277.828137,258.796698 C278.139161,258.882917 278.320948,259.20371 278.23492,259.513629 C278.148503,259.823548 277.82658,260.004528 277.516335,259.919087 L267.511416,257.151176 C266.594694,256.897571 265.651502,256.945729 264.854674,257.287106 C263.422564,257.899953 262.268389,259.242158 261.688383,260.970015 C261.606637,261.213523 261.378916,261.367317 261.134846,261.367317" id="Fill-177" fill="#798AA4"></path>
                        <path d="M276.620361,259.802848 C275.768647,259.802848 274.941845,260.183062 274.273086,260.888341 C273.522192,261.67945 273.062079,262.775818 272.977997,263.97588 C272.893527,265.175942 273.195597,266.325905 273.828544,267.213718 C274.436578,268.066966 275.27895,268.572235 276.200343,268.636704 C278.145895,268.765643 279.872291,266.904187 280.043568,264.470663 C280.128039,263.270601 279.825579,262.120638 279.192632,261.232825 C278.584987,260.379188 277.742615,259.874308 276.821222,259.809838 C276.754269,259.805178 276.687315,259.802848 276.620361,259.802848 M276.398869,269.808804 C276.305445,269.808804 276.212799,269.805697 276.118986,269.798707 C274.842193,269.70977 273.690744,269.031288 272.876788,267.888704 C272.087356,266.781463 271.709768,265.362748 271.812924,263.894711 C271.916079,262.426285 272.48869,261.073593 273.424875,260.087134 C274.391034,259.069217 275.622672,258.556958 276.902968,258.647448 C278.179372,258.736773 279.330821,259.415255 280.144777,260.55745 C280.93382,261.66508 281.311797,263.083406 281.208252,264.551832 C280.999995,267.514704 278.871487,269.808804 276.398869,269.808804" id="Fill-178" fill="#798AA4"></path>
                        <path d="M254.205247,263.74379 L254.209139,263.74379 L254.205247,263.74379 Z M252.335601,261.373958 C251.506464,261.373958 250.778926,262.305269 250.694844,263.498341 C250.608816,264.727919 251.238649,265.777294 252.099317,265.838268 C252.952977,265.890698 253.729953,264.946571 253.817148,263.716604 C253.903565,262.487026 253.273343,261.437651 252.413065,261.376677 C252.386984,261.375124 252.361293,261.373958 252.335601,261.373958 Z M252.172888,266.616949 C252.130458,266.616949 252.088028,266.615784 252.044819,266.613065 C250.755959,266.522187 249.802257,265.100754 249.918647,263.443969 C250.035038,261.787572 251.184152,260.521875 252.467173,260.60188 C253.756423,260.692758 254.709736,262.114191 254.593345,263.770976 C254.480847,265.372224 253.408419,266.616949 252.172888,266.616949 Z" id="Fill-179" fill="#798AA4"></path>
                        <path d="M252.071484,266.613726 C251.866341,266.613726 251.694674,266.453717 251.683386,266.247105 C251.671318,266.032725 251.835978,265.849414 252.050074,265.837763 L267.156327,265.00238 C267.173065,265.001603 267.189415,265.001603 267.205375,265.002768 C267.506667,265.019468 267.80718,264.876548 268.055143,264.588378 C268.330743,264.267584 268.501631,263.821348 268.536276,263.331225 C268.570531,262.841491 268.463483,262.375836 268.235373,262.019701 C268.030619,261.700072 267.752294,261.51249 267.452559,261.491906 L252.437005,261.378114 C252.222519,261.376561 252.049296,261.201017 252.050853,260.986637 C252.05241,260.773034 252.226412,260.601375 252.440119,260.601375 L252.443233,260.601375 L267.482532,260.715555 C268.058646,260.755169 268.550678,261.06936 268.891676,261.601427 C269.208928,262.096986 269.358795,262.730806 269.312472,263.385597 C269.266539,264.040777 269.029476,264.647798 268.645659,265.094035 C268.240433,265.565516 267.718038,265.804363 267.176958,265.779119 L252.093672,266.612949 C252.085887,266.613337 252.07888,266.613726 252.071484,266.613726" id="Fill-180" fill="#798AA4"></path>
                        <path d="M288.278182,266.076688 C288.226799,266.076688 288.175027,266.074746 288.123255,266.070474 C287.909158,266.052609 287.749559,265.865415 287.767076,265.651423 C287.784204,265.43782 287.971441,265.282472 288.187094,265.296065 C288.574025,265.331407 288.977305,265.143436 289.302731,264.774096 C289.656185,264.372134 289.878456,263.811716 289.92906,263.195373 C290.03027,261.96696 289.412893,260.909818 288.553004,260.839911 C288.338908,260.822046 288.179309,260.634464 288.196826,260.42086 C288.214343,260.207257 288.40158,260.051909 288.616844,260.065114 C289.904537,260.17075 290.841111,261.603058 290.705257,263.259066 C290.641028,264.040077 290.350636,264.760115 289.887409,265.286356 C289.435471,265.800169 288.869089,266.076688 288.278182,266.076688" id="Fill-181" fill="#798AA4"></path>
                        <path d="M288.155019,266.071756 L288.147233,266.071756 L280.513724,265.923787 C280.298849,265.919515 280.127961,265.742418 280.132243,265.528038 C280.136135,265.315988 280.309748,265.147048 280.521509,265.147048 L280.528905,265.147048 L288.162804,265.295016 C288.37729,265.299288 288.548567,265.476385 288.544285,265.691153 C288.540003,265.902815 288.366779,266.071756 288.155019,266.071756" id="Fill-182" fill="#798AA4"></path>
                        <path d="M279.367646,261.247466 C279.160556,261.247466 278.988112,261.08474 278.979158,260.876185 C278.969816,260.661805 279.136033,260.480436 279.350908,260.471115 L288.567952,260.064492 C288.776599,260.049346 288.964225,260.221005 288.973957,260.435385 C288.983299,260.649766 288.816693,260.831134 288.602208,260.840455 L279.385163,261.247078 C279.379324,261.247466 279.373485,261.247466 279.367646,261.247466" id="Fill-183" fill="#798AA4"></path>
                        <path d="M262.88199,170.960216 L267.545788,169.647915 L266.975902,168.806706 L269.78329,168.14104 C269.875157,164.549009 269.527931,161.662646 268.937414,159.354176 C267.701494,159.393013 262.931037,159.534768 263.623153,159.377479 C264.211334,159.243491 267.054534,158.31218 268.489369,157.837981 C266.361251,151.535518 262.388789,150.361088 262.388789,150.361088 L235.488161,162.475892 L226.000187,164.487258 L209.101753,166.255894 L204.01599,175.452099 L207.291276,181.142492 L228.776044,181.558824 L267.737307,179.194818 L269.467595,172.648847 C269.54973,171.911721 269.615516,171.199452 269.66651,170.509319 L262.88199,170.960216 Z" id="Fill-185" fill="#D9BC9B"></path>
                        <path d="M226.000148,164.487297 C226.000148,164.487297 230.679517,166.892082 229.674042,173.850113 L241.040615,175.73992 C241.040615,175.73992 241.468418,165.108689 235.488122,162.475931 L226.000148,164.487297 Z" id="Fill-186" fill="#AA845F"></path>
                        <path d="M263.492865,179.370478 L268.353632,176.78044 L269.467712,172.566629 C269.549847,171.829892 269.615633,171.117622 269.665848,170.427877 L262.882107,170.878386 L267.545905,169.565697 L267.54279,169.561813 L229.799542,171.873778 L210.280178,166.139499 L210.228795,166.144937 L210.85201,167.332183 L217.988038,173.838152 L227.33899,181.325919 L234.769692,181.113481 L263.492865,179.370478 Z" id="Fill-187" fill="#AA845F"></path>
                        <path d="M224.927759,182.859552 C224.633863,188.269542 227.196013,192.806865 230.649971,192.99367 L231.714225,173.401585 C228.260266,173.215168 225.221655,177.449562 224.927759,182.859552" id="Fill-188" fill="#8E6A4D"></path>
                        <polyline id="Fill-189" fill="#8E6A4D" points="231.71407 173.401585 235.178928 173.919282 234.922401 175.036622 231.487517 174.348042 231.716016 173.494406"></polyline>
                        <path d="M194.154087,159.71971 L229.673848,173.850152 L234.922324,175.036622 L240.136155,175.086333 L277.295894,171.507118 C277.295894,171.507118 281.244999,173.941807 282.519846,179.881533 C282.537752,179.965421 282.494543,180.111837 282.336891,180.206987 C281.0056,181.010912 279.249231,182.071162 279.249231,182.071162 C279.249231,182.071162 280.550548,182.513903 282.556047,183.404435 C282.68217,183.46036 282.911447,183.576094 282.911447,183.669303 C282.916508,186.32847 282.401509,189.477371 281.04842,193.168048 L187.422118,192.800262" id="Fill-190" fill="#EED2B0"></path>
                        <path d="M189.277983,158.627809 C182.576766,158.26546 176.598027,162.310718 173.845136,168.37045 L177.88027,170.611732 L173.115652,170.262587 C172.649311,171.710041 172.353858,173.244878 172.267051,174.844573 C171.966538,180.371462 174.172509,185.416384 177.834725,188.746654 L189.140183,188.096135 L179.835164,189.269399 L181.38094,189.68845 L179.829715,190.297026 C182.045418,191.750693 184.630145,192.649381 187.421962,192.800456 C196.305016,193.280481 203.921009,186.01991 204.433673,176.583304 C204.945947,167.147086 198.160648,159.108222 189.277983,158.627809" id="Fill-191" fill="#B19178"></path>
                        <path d="M237.04978,174.163139 L232.716469,173.584857 C235.64959,174.501798 237.701412,178.663956 237.436711,183.535665 C237.142815,188.946043 234.104981,193.180437 230.650244,192.993632 L230.651412,192.993632 L230.648687,193.022371 L236.094132,193.050722 C239.548869,193.237139 242.497171,189.36354 242.78406,184.075887 C243.071728,178.787845 240.504128,174.349945 237.04978,174.163139" id="Fill-195" fill="#C3996B"></path>
                        <path d="M202.955512,168.406646 L194.078686,166.493149 L199.652589,179.000594 L204.082827,179.240218 C204.258775,178.377649 204.374777,177.490613 204.424214,176.582993 C204.583034,173.662453 204.041176,170.876677 202.955512,168.406646" id="Fill-197" fill="#7A5841"></path>
                        <path d="M204.048455,179.294241 C204.418258,172.48379 199.184574,166.66407 192.358792,166.295119 C185.533009,165.926168 179.699466,171.14741 179.329663,177.957861 L204.079986,179.295794" id="Fill-198" fill="#987555"></path>
                        <path d="M282.022947,190.113249 L237.666455,189.345054 L202.52078,183.738161 C200.152095,188.310825 195.938289,192.300547 188.786301,192.842323 L281.040829,193.167777 C281.467075,192.073739 281.755911,191.086115 282.022947,190.113249" id="Fill-199" fill="#AA845F"></path>
                        <path d="M238.092507,173.397779 C237.775645,173.397779 237.515615,173.144562 237.508997,172.826876 C237.432701,169.000658 234.481674,165.537565 234.451701,165.503 C234.241497,165.259493 234.268746,164.891707 234.512815,164.681599 C234.758053,164.471879 235.12591,164.498676 235.335724,164.741796 C235.468853,164.89559 238.591547,168.550926 238.676796,172.803574 C238.683413,173.125144 238.426887,173.391177 238.104575,173.397779 C238.100682,173.397779 238.096789,173.397779 238.092507,173.397779" id="Fill-200" fill="#C3996B"></path>
                        <path d="M238.912847,188.537556 C238.838497,188.537556 238.76259,188.523186 238.689797,188.492893 C238.391619,188.36978 238.250316,188.028791 238.373713,187.731688 C240.33834,183.004064 238.037776,177.939335 238.01442,177.888847 C237.879345,177.597182 238.006246,177.250756 238.298585,177.115603 C238.590145,176.979674 238.93776,177.106282 239.073614,177.397948 C239.178716,177.622814 241.617468,182.968334 239.452759,188.177925 C239.359335,188.402015 239.142125,188.537556 238.912847,188.537556" id="Fill-201" fill="#A87B4F"></path>
                        <path d="M269.373315,221.570028 C269.158051,221.570028 268.984049,221.396427 268.984049,221.181658 L268.984049,219.498852 C268.984049,219.284084 269.158051,219.110483 269.373315,219.110483 C269.588579,219.110483 269.762581,219.284084 269.762581,219.498852 L269.762581,221.181658 C269.762581,221.396427 269.588579,221.570028 269.373315,221.570028" id="Fill-202" fill="#404C6B"></path>
                        <path d="M269.373315,246.231502 C269.158051,246.231502 268.984049,246.057901 268.984049,245.843133 L268.984049,244.160327 C268.984049,243.945558 269.158051,243.771957 269.373315,243.771957 C269.588579,243.771957 269.762581,243.945558 269.762581,244.160327 L269.762581,245.843133 C269.762581,246.057901 269.588579,246.231502 269.373315,246.231502" id="Fill-203" fill="#404C6B"></path>
                        <path d="M280.921285,233.059168 L279.234595,233.059168 C279.019331,233.059168 278.845329,232.885567 278.845329,232.670798 C278.845329,232.45603 279.019331,232.282429 279.234595,232.282429 L280.921285,232.282429 C281.136549,232.282429 281.310551,232.45603 281.310551,232.670798 C281.310551,232.885567 281.136549,233.059168 280.921285,233.059168" id="Fill-204" fill="#404C6B"></path>
                        <path d="M259.122379,233.059168 L257.435689,233.059168 C257.220425,233.059168 257.046423,232.885567 257.046423,232.670798 C257.046423,232.45603 257.220425,232.282429 257.435689,232.282429 L259.122379,232.282429 C259.337643,232.282429 259.511645,232.45603 259.511645,232.670798 C259.511645,232.885567 259.337643,233.059168 259.122379,233.059168" id="Fill-205" fill="#404C6B"></path>
                        <path d="M53.2990152,82.1316816 C53.2215513,82.1316816 53.1429195,82.1200305 53.064677,82.0955632 C46.4444271,80.0154552 45.2186279,74.0023275 45.1699696,73.7471686 C45.0890022,73.3257875 45.3657705,72.9187761 45.7881243,72.8383836 C46.2116459,72.7587678 46.6176505,73.0333452 46.6986179,73.4531728 C46.7418264,73.6714366 47.820483,78.8192766 53.5325749,80.6139329 C53.9424722,80.7428717 54.1701929,81.1790108 54.0409566,81.5879641 C53.9366332,81.9196318 53.6298915,82.1316816 53.2990152,82.1316816" id="Fill-206" fill="#D8544A"></path>
                        <path d="M96.2798794,46.9978575 C95.2012228,46.9978575 93.1011318,52.3014339 93.1011318,62.0231036 C93.1011318,71.7451618 95.2012228,77.0487381 96.2798794,77.0487381 C97.358536,77.0487381 99.4586271,71.7451618 99.4586271,62.0231036 C99.4586271,52.3014339 97.358536,46.9978575 96.2798794,46.9978575 M96.2798794,78.6022168 C94.7886007,78.6022168 93.5931643,76.8467859 92.7262685,73.3852469 C91.963696,70.340817 91.5440671,66.3060444 91.5440671,62.0231036 C91.5440671,57.7405512 91.963696,53.7053902 92.7262685,50.6613487 C93.5931643,47.1998098 94.7886007,45.4443788 96.2798794,45.4443788 C97.7707689,45.4443788 98.9662053,47.1998098 99.8334904,50.6613487 C100.595674,53.7053902 101.015692,57.7409396 101.015692,62.0231036 C101.015692,66.3056561 100.595674,70.340817 99.8334904,73.3852469 C98.9662053,76.8467859 97.7707689,78.6022168 96.2798794,78.6022168" id="Fill-207" fill="#F0F0F1"></path>
                        <path d="M91.9659927,60.5907963 C91.954704,60.5907963 91.943026,60.5907963 91.931348,60.5900195 L60.498104,59.2307256 C60.0687434,59.2120839 59.7355315,58.849735 59.7542163,58.4213632 C59.7729011,57.9926031 60.1298582,57.6566633 60.5658363,57.6788004 L91.9990803,59.0380943 C92.4284409,59.056736 92.7616528,59.4190849 92.742968,59.8474567 C92.7246725,60.2649541 92.3801719,60.5907963 91.9659927,60.5907963" id="Fill-208" fill="#F0F0F1"></path>
                        <path d="M54.5717599,88.4072307 C52.2743109,88.4072307 49.9500026,87.8305018 47.7487023,86.6867531 C43.9992905,84.7390791 41.0541026,81.3761861 39.4569434,77.2171352 C37.8590057,73.0580843 37.7967232,68.5926098 39.2813844,64.6436669 C40.7777236,60.6617126 43.6649108,57.6798102 47.41043,56.2478912 C52.9601979,54.1254509 59.3955464,55.8847655 63.8059322,60.7285121 C64.0947678,61.0461985 64.0710225,61.5374862 63.752992,61.8260449 C63.4349616,62.1149919 62.9421506,62.090913 62.6533151,61.7732266 C58.6777396,57.4067863 52.913486,55.80748 47.9674699,57.6984519 C44.6443045,58.9691975 42.0770941,61.6295298 40.7391862,65.1893263 C39.3884326,68.7825225 39.4491581,72.8565205 40.9104633,76.6609898 C42.3721578,80.4654592 45.0557589,83.5366866 48.4672877,85.3088174 C51.8476752,87.0646368 55.5394756,87.3318351 58.8622518,86.0610895 C59.2628067,85.9076835 59.7139662,86.1076939 59.8677263,86.5084914 C60.0218757,86.9089005 59.8210144,87.3582442 59.4196809,87.5116503 C57.8552202,88.1101279 56.2199129,88.4072307 54.5717599,88.4072307" id="Fill-209" fill="#D8544A"></path>
                        <path d="M100.236381,62.5328388 C100.107145,62.5328388 99.9759618,62.5006042 99.8552893,62.4330278 C99.4808152,62.2225315 99.3476862,61.7491088 99.5586685,61.3751088 C100.259737,60.1323259 102.451305,57.9458046 105.734376,58.5652542 C106.15673,58.6452584 106.434666,59.051493 106.354477,59.4728741 C106.274678,59.8946436 105.869452,60.1703861 105.444762,60.0919354 C102.431064,59.5206436 100.930442,62.110681 100.91565,62.1367018 C100.77279,62.3903072 100.508478,62.5328388 100.236381,62.5328388" id="Fill-210" fill="#F0F0F1"></path>
                        <path d="M91.7713596,64.5715855 C91.7452788,64.5715855 91.7184194,64.5704204 91.69156,64.5677018 L69.3196541,62.2910787 C68.3165152,62.1893259 67.4122498,61.7085242 66.7684036,60.9364453 L65.4386703,59.630358 C65.1315393,59.3297599 65.1280359,58.8376955 65.4293279,58.5320486 C65.7310092,58.2264017 66.2245987,58.2221296 66.5301727,58.5235045 L67.9478801,59.9212469 C68.3305288,60.3915626 68.8739444,60.6843934 69.4776962,60.7457558 L91.8496021,63.0219904 C92.2774056,63.0658762 92.5888186,63.4468669 92.5448315,63.8736852 C92.5043478,64.2737059 92.1660755,64.5715855 91.7713596,64.5715855" id="Fill-211" fill="#F0F0F1"></path>
                        <path d="M97.3176631,63.3579302 C97.3176631,65.8512636 96.7944893,67.8727277 96.1498645,67.8727277 C95.5048505,67.8727277 94.982066,65.8512636 94.982066,63.3579302 C94.982066,60.8645969 95.5048505,58.8431327 96.1498645,58.8431327 C96.7944893,58.8431327 97.3176631,60.8645969 97.3176631,63.3579302" id="Fill-212" fill="#CC482D"></path>
                        <path d="M276.380495,306.516807 C276.067914,306.516807 275.809052,306.270192 275.797374,305.95639 C275.785307,305.63482 276.036384,305.364126 276.358696,305.352086 C278.119737,305.285675 280.068403,305.126832 282.149809,304.87944 C282.470954,304.839438 282.760568,305.069353 282.798716,305.388982 C282.837253,305.70861 282.608365,305.998334 282.288388,306.036394 C280.175062,306.287281 278.195254,306.448842 276.403073,306.516419 C276.395287,306.516807 276.388281,306.516807 276.380495,306.516807" id="Fill-213" fill="#FEFEFE"></path>
                        <path d="M289.13122,300.129563 C286.170073,300.297339 279.613273,300.150146 268.813861,300.587839 C250.813804,301.316421 251.871829,294.495484 251.964864,294.143621 C252.683449,291.42814 253.295376,292.645291 258.684377,288.191856 C262.352043,285.161019 260.937839,281.898325 259.961559,280.449706 C259.590199,279.898998 258.845144,280.027937 258.50259,280.596898 C257.056076,282.999353 253.822831,285.000622 246.09473,287.520364 C241.022981,289.174043 238.792096,291.947779 235.901406,293.621264 C232.456011,295.61593 226.581206,295.186005 226.581206,295.186005 L225.919842,313.553172 C225.919842,313.553172 239.63875,313.625021 249.527279,317.034518 C249.527279,317.034518 264.671291,322.764913 274.350394,315.317924 C274.472235,315.223939 274.589014,315.131895 274.706962,315.039075 C273.161965,315.32608 271.504858,315.388996 270.382604,315.388996 C269.733308,315.388996 269.263464,315.368412 269.098415,315.360256 C268.776492,315.344333 268.528529,315.070533 268.544489,314.749351 C268.560449,314.427781 268.841499,314.181166 269.156805,314.196701 C270.92563,314.285249 275.83272,314.20641 277.278065,312.800124 C277.306482,312.772938 277.341516,312.759345 277.373435,312.738761 C278.211136,311.936389 278.903251,311.18101 279.474694,310.475731 C277.283515,311.114599 274.407616,311.172078 273.460142,311.172078 C273.347645,311.172078 273.262785,311.171301 273.209455,311.170524 C272.886753,311.165864 272.62867,310.901773 272.632952,310.580202 C272.637234,310.258244 272.908942,310.001532 273.224636,310.005415 C275.712047,310.036873 279.982297,309.643066 280.892791,308.44883 C281.476301,307.451496 281.795499,306.607181 281.964051,305.938796 C280.127883,306.141137 278.392534,306.27862 276.808221,306.338429 C276.800436,306.338429 276.793429,306.338817 276.785643,306.338817 C276.473063,306.338817 276.214201,306.092591 276.202523,305.7784 C276.190455,305.45683 276.441532,305.186524 276.763845,305.174097 C278.437689,305.110792 280.282811,304.961658 282.243934,304.735627 L289.06271,303.636541 C289.942451,303.477309 290.621331,302.775137 290.749011,301.892373 C290.889146,300.926109 290.108668,300.074026 289.13122,300.129563" id="Fill-214" fill="#F8B5AF"></path>
                        <path d="M270.390934,315.388996 C269.741638,315.388996 269.271794,315.368412 269.106745,315.360256 C268.784822,315.344333 268.53686,315.070533 268.552819,314.749351 C268.568779,314.427781 268.849051,314.181166 269.165524,314.196701 C270.935518,314.285249 275.840661,314.20641 277.286395,312.800124 C277.299631,312.787307 277.317537,312.782259 277.33155,312.770996 C278.187936,311.956196 278.897568,311.189555 279.483414,310.475343 C277.292624,311.114599 274.415557,311.172078 273.468473,311.172078 C273.355975,311.172078 273.271115,311.171301 273.217785,311.170524 C272.895084,311.165864 272.637389,310.901773 272.641282,310.580202 C272.645564,310.258244 272.923111,310.00192 273.232967,310.005415 C275.716096,310.037262 279.993352,309.643066 280.902289,308.447665 C280.924088,308.419314 280.948222,308.39407 280.973914,308.370767 C281.550417,307.394018 281.868837,306.573393 282.035443,305.931417 C280.175918,306.138807 278.418771,306.277843 276.816551,306.338429 C276.808766,306.338429 276.801759,306.338817 276.793974,306.338817 C276.481393,306.338817 276.222531,306.092591 276.210853,305.7784 C276.202289,305.555864 276.321794,305.359737 276.502024,305.254877 L267.601064,306.027733 C267.601064,306.027733 263.469003,306.964481 264.805743,310.271449 C266.263934,313.878238 267.033903,314.565652 264.967678,315.898925 C262.902232,317.232975 259.094041,319.607079 251.802696,317.667172 C251.551619,317.600373 251.31767,317.545613 251.093842,317.497455 C254.953416,318.669166 266.435211,321.4029 274.284764,315.363752 C274.4249,315.255785 274.558807,315.149372 274.694272,315.04257 C273.155113,315.326468 271.507739,315.388996 270.390934,315.388996" id="Fill-216" fill="#F6A49D"></path>
                        <g id="Group-221" transform="translate(361.816636, 68.143344)" fill="#99C577">
                            <path d="M23.9959244,26.8849298 C21.422875,31.5791541 18.9958003,36.8411749 16.7294926,42.6500201 C5.98107486,70.1990233 0.0615040565,106.843644 0.0615040565,145.83363 C0.0615040565,165.447075 1.55278279,191.307447 4.10597967,219.033547 C19.64315,180.767482 24.257122,130.608762 25.3638058,94.7936982 C26.4159923,60.7356193 24.5786559,34.1777356 23.9959244,26.8849298" id="Fill-217"></path>
                            <path d="M56.635699,111.490526 C59.7054521,54.5100922 56.1631298,6.67498733 55.6551375,0.299899065 C48.4260752,0.534085981 41.3877534,4.3109811 34.7231272,11.5362106 C31.4735331,15.0587236 28.3839274,19.3272947 25.4694915,24.2941545 C25.9397251,30.1736831 28.0273596,58.9953736 26.9198973,94.8415065 C25.7828508,131.638757 20.9489434,183.539315 4.41486238,222.342495 C6.51845682,244.571222 9.28691789,267.874568 12.5053707,290.037272 C26.087257,269.506886 36.8146544,241.768358 44.3952239,207.548329 C50.5900059,179.584547 54.7084421,147.266364 56.635699,111.490526" id="Fill-218"></path>
                            <path d="M96.0146832,42.6501367 C94.6654866,39.1924814 93.2586787,35.9325063 91.7989305,32.8663277 C92.9694539,47.6694264 96.6737109,103.068419 92.3738766,165.740411 C89.4318029,208.623414 83.373264,246.477418 74.3672017,278.25033 C63.1380402,317.863649 47.2610405,348.096675 27.1760734,368.12451 C29.705525,378.380189 32.2914203,387.440465 34.8878257,395.098726 C42.0308601,416.1705 49.4600051,427.308554 56.3718154,427.308554 C63.2836257,427.308554 70.7127708,416.1705 77.8561945,395.098726 C84.1806021,376.443001 90.4446735,349.482766 95.9730317,317.133125 C105.655249,260.468047 112.682672,188.426249 112.682672,145.833746 C112.682672,106.843761 106.763101,70.1991398 96.0146832,42.6501367" id="Fill-219"></path>
                            <path d="M90.818914,165.655785 C95.8202058,92.7933614 89.9835487,29.7780509 89.9236017,29.1500571 C89.9216554,29.1306386 89.9243803,29.1116085 89.923991,29.09219 C86.254768,22.025027 82.2737428,16.1466636 78.0206205,11.5363271 C71.3956994,4.35420665 64.4013646,0.580806854 57.2174573,0.306229491 C57.7632085,7.20484008 61.2448052,54.876053 58.1906227,111.574142 C56.2586947,147.433868 52.1285805,179.837492 45.915503,207.883609 C38.1395218,242.986013 27.0551673,271.335835 12.9715169,292.146236 C12.932201,292.204491 12.8862676,292.254591 12.835663,292.298477 C14.0863753,300.799501 15.402095,309.119933 16.7711441,317.133164 C19.9000657,335.442464 23.2644933,352.022742 26.7421973,366.350477 C46.319172,346.511388 61.8357113,316.74596 72.8655685,277.83792 C81.8428251,246.171033 87.8834577,208.427714 90.818914,165.655785" id="Fill-220"></path>
                        </g>
                        <path d="M418.19612,68.4059981 C410.715592,68.4059981 403.432033,72.1902723 396.547471,79.6539607 C389.815112,86.9522037 383.761245,97.42032 378.553642,110.767809 C367.805224,138.316812 361.885653,174.961433 361.885653,213.951419 C361.885653,256.54431 368.913465,328.586108 378.595683,385.251186 C384.123262,417.600827 390.387723,444.561061 396.712131,463.216399 C403.855165,484.288561 411.28431,495.426615 418.19612,495.426615 C425.107931,495.426615 432.537076,484.288561 439.68011,463.216399 C446.004518,444.561061 452.268978,417.600827 457.796558,385.251186 C467.478776,328.586108 474.506588,256.54431 474.506588,213.951419 C474.506588,174.961433 468.587017,138.316812 457.838599,110.767809 C452.630996,97.42032 446.577128,86.9522037 439.84477,79.6539607 C432.960208,72.1902723 425.676649,68.4059981 418.19612,68.4059981 M418.19612,496.980094 C410.444663,496.980094 402.719676,485.787668 395.237201,463.714289 C388.887102,444.982831 382.60201,417.941039 377.060417,385.512171 C367.365353,328.771749 360.328589,256.620042 360.328589,213.951419 C360.328589,174.773074 366.285918,137.928443 377.102847,110.204285 C388.009696,82.2486586 402.603674,66.8525194 418.19612,66.8525194 C433.788567,66.8525194 448.382545,82.2486586 459.289394,110.204285 C470.106323,137.928443 476.063652,174.773074 476.063652,213.951419 C476.063652,256.620042 469.026887,328.771749 459.331824,385.512171 C453.790231,417.941039 447.505139,444.982831 441.15504,463.714289 C433.672565,485.787668 425.947578,496.980094 418.19612,496.980094" id="Fill-222" fill="#99C577"></path>
                        <path d="M448.365417,666.135361 C444.580193,667.7603 440.993105,669.55884 436.913985,670.420244 C432.534351,671.344564 428.060515,671.844784 423.587068,671.965179 C417.652316,672.124799 411.736248,671.60516 405.887135,670.650159 C405.731039,670.704531 405.554312,670.723949 405.357733,670.685112 C402.361161,670.089741 399.362255,669.511459 396.40461,668.743264 C396.259414,668.705204 396.139909,668.644618 396.042593,668.569663 C393.58827,667.931571 391.165866,667.185901 388.81392,666.218861 C388.799128,666.212259 388.787061,666.203714 388.772658,666.196724 C368.677959,667.131918 355.02328,668.962693 355.02328,671.068821 C355.02328,674.124902 383.777983,676.602701 419.248696,676.602701 C454.719798,676.602701 483.474502,674.124902 483.474502,671.068821 C483.474502,668.915312 469.201668,667.049972 448.365417,666.135361" id="Fill-223" fill="#313270"></path>
                        <path d="M473.421002,557.616756 C473.421002,559.761334 448.39975,561.500453 417.534446,561.500453 C386.668752,561.500453 361.6475,559.761334 361.6475,557.616756 C361.6475,555.471791 386.668752,553.73306 417.534446,553.73306 C448.39975,553.73306 473.421002,555.471791 473.421002,557.616756" id="Fill-224" fill="#5051BC"></path>
                        <path d="M419.248735,545.663786 C397.59269,545.663786 377.236793,546.510821 361.930847,548.049153 C339.121017,550.340922 338.857484,553.016789 338.857484,553.043587 C338.857484,553.070384 339.121017,555.746252 361.930847,558.038409 C377.236404,559.576353 397.5923,560.423388 419.248735,560.423388 C440.90517,560.423388 461.261066,559.576353 476.566623,558.038409 C499.376453,555.746252 499.640376,553.070384 499.640376,553.043587 C499.640376,553.016789 499.376453,550.340922 476.566623,548.049153 C461.260677,546.510821 440.904781,545.663786 419.248735,545.663786 M419.248735,561.976866 C397.541696,561.976866 377.130913,561.126725 361.775141,559.584121 C354.286049,558.83146 348.398787,557.953745 344.276847,556.974276 C339.451893,555.827809 337.300419,554.615707 337.300419,553.043587 C337.300419,551.471466 339.451893,550.259365 344.276847,549.113286 C348.398787,548.133817 354.286049,547.256102 361.775141,546.503053 C377.131302,544.96006 397.542085,544.110308 419.248735,544.110308 C440.955385,544.110308 461.366168,544.96006 476.72233,546.503053 C484.211422,547.256102 490.098683,548.133817 494.220623,549.113286 C499.045577,550.259365 501.197441,551.471466 501.197441,553.043587 C501.197441,554.615707 499.045577,555.827809 494.220623,556.974276 C490.098683,557.953745 484.211422,558.83146 476.72233,559.584121 C461.366557,561.126725 440.955774,561.976866 419.248735,561.976866" id="Fill-225" fill="#595AC3"></path>
                        <path d="M419.248735,545.663786 C397.59269,545.663786 377.236793,546.510821 361.930847,548.049153 C339.121017,550.340922 338.857484,553.016789 338.857484,553.043587 C338.857484,553.189226 338.852034,553.448268 338.844638,553.812559 C338.496634,570.760623 340.358105,584.94 341.980955,593.849977 C346.542766,618.896326 355.430102,638.290731 368.396169,651.494912 C381.425687,664.763174 398.534714,671.490513 419.248735,671.490513 C439.962756,671.490513 457.071783,664.763174 470.100912,651.494912 C483.067368,638.290731 491.954704,618.896326 496.516515,593.849977 C498.139366,584.939612 500.000836,570.760623 499.652832,553.812559 C499.645436,553.448268 499.640376,553.189226 499.640376,553.043587 C499.640376,553.016789 499.376453,550.340922 476.566623,548.049153 C461.260677,546.510821 440.904781,545.663786 419.248735,545.663786 M419.248735,673.043992 C398.100682,673.043992 380.617181,666.159751 367.284036,652.581959 C354.095697,639.152135 345.067447,619.485095 340.448804,594.12805 C338.813496,585.14739 336.937234,570.857716 337.287573,553.780713 C337.294969,553.431568 337.300419,553.183012 337.300419,553.043587 C337.300419,551.471466 339.451893,550.259365 344.276847,549.113286 C348.398787,548.133817 354.286049,547.256102 361.775141,546.503053 C377.131302,544.96006 397.542085,544.110308 419.248735,544.110308 C440.955385,544.110308 461.366168,544.96006 476.72233,546.503053 C484.211422,547.256102 490.098683,548.133817 494.220623,549.113286 C499.045577,550.259365 501.197441,551.471466 501.197441,553.043587 C501.197441,553.183012 501.202501,553.43118 501.209897,553.780713 C501.560237,570.857716 499.683974,585.14739 498.048666,594.12805 C493.430023,619.485095 484.401383,639.152135 471.213045,652.582347 C457.8799,666.159751 440.396788,673.043992 419.248735,673.043992" id="Fill-226" fill="#595AC3"></path>
                        <path d="M374.149757,360.606373 C373.999889,360.606373 373.848465,360.563652 373.714946,360.473162 C373.358768,360.233149 373.264955,359.750406 373.505521,359.395048 C387.477452,338.749315 398.483564,310.582416 406.217115,275.676526 C412.412287,247.715851 416.530723,215.400387 418.458758,179.628433 C421.742997,118.694784 417.463794,68.1989583 417.420585,67.6960195 C417.383216,67.2688129 417.700857,66.8924827 418.128661,66.8551992 C418.557632,66.8186924 418.934442,67.1348253 418.971422,67.5624204 C419.015409,68.0661358 423.302787,118.65284 420.014655,179.691737 C418.082727,215.551851 413.953002,247.955087 407.739925,276.001592 C399.963554,311.103997 388.879589,339.453818 374.795549,360.264219 C374.645293,360.486366 374.400055,360.606373 374.149757,360.606373" id="Fill-227" fill="#99C577"></path>
                        <path d="M365.267364,291.534981 C365.164598,291.534981 365.060664,291.514397 364.960233,291.471676 C364.565128,291.301959 364.382952,290.845625 364.552282,290.451041 C394.953582,219.87495 386.779381,105.413473 385.747047,92.5941666 C385.712403,92.1665715 386.032379,91.7917948 386.460572,91.7576183 C386.889544,91.7203348 387.264796,92.0422933 387.299052,92.4698883 C388.3345,105.328032 396.532056,220.144478 365.983225,291.064665 C365.856324,291.358661 365.569046,291.534981 365.267364,291.534981" id="Fill-228" fill="#99C577"></path>
                        <path d="M388.196816,436.726829 C387.996733,436.726829 387.796651,436.650321 387.644447,436.497303 C387.341598,436.19321 387.343155,435.701145 387.64834,435.398994 C407.662072,415.563789 423.490024,385.467081 434.692715,345.945417 C443.670361,314.275423 449.709826,276.528221 452.644504,233.752408 C457.64346,160.891926 451.807581,97.8956457 451.748024,97.2676519 C451.70754,96.8408336 452.021678,96.4617848 452.449481,96.4213944 C452.885459,96.3802272 453.257598,96.6944183 453.298081,97.1216249 C453.357639,97.7507838 459.205585,160.872896 454.198454,233.858433 C451.255991,276.741436 445.197841,314.595052 436.19139,346.367963 C424.914349,386.149835 408.951321,416.474904 388.745292,436.501187 C388.593868,436.651874 388.395342,436.726829 388.196816,436.726829" id="Fill-229" fill="#99C577"></path>
                        <path d="M418.585387,558.674947 C417.510233,558.674947 416.639056,557.805776 416.639056,556.733099 L416.639056,496.203354 C416.639056,495.130677 417.510233,494.261506 418.585387,494.261506 C419.66054,494.261506 420.531718,495.130677 420.531718,496.203354 L420.531718,556.733099 C420.531718,557.805776 419.66054,558.674947 418.585387,558.674947" id="Fill-230" fill="#99C577"></path>
                        <path d="M423.717316,559.419413 C423.717316,560.116537 421.320994,560.681615 418.364906,560.681615 C415.40843,560.681615 413.012496,560.116537 413.012496,559.419413 C413.012496,558.72229 415.376121,557.056572 418.332208,557.056572 C421.288295,557.056572 423.717316,558.72229 423.717316,559.419413" id="Fill-231" fill="#5051BC"></path>
                        <path d="M427.999244,557.477565 C427.999244,558.174688 421.71026,558.739766 418.754172,558.739766 C415.797696,558.739766 409.509101,558.174688 409.509101,557.477565 C409.509101,556.780441 415.603063,548.188927 418.559539,548.188927 C421.515627,548.188927 427.999244,556.780441 427.999244,557.477565" id="Fill-232" fill="#99C577"></path>
                        <path d="M419.697676,539.273862 C419.275711,539.273862 418.929264,538.937534 418.919922,538.5146 C418.657946,526.907395 424.486039,516.782986 424.734002,516.357721 C424.950044,515.986828 425.426506,515.861773 425.798645,516.07693 C426.170005,516.292863 426.296127,516.768228 426.080084,517.139121 C426.021305,517.239709 420.224742,527.322174 420.476208,538.479646 C420.48594,538.908795 420.145332,539.264153 419.715582,539.273474 C419.709354,539.273862 419.703904,539.273862 419.697676,539.273862" id="Fill-233" fill="#99C577"></path>
                        <path d="M417.362079,515.971682 C416.94245,515.971682 416.596392,515.63846 416.584325,515.217468 C416.337919,506.6244 412.77263,503.799399 412.736429,503.771825 C412.395042,503.51084 412.330813,503.023437 412.5924,502.682836 C412.854376,502.342236 413.342516,502.278155 413.683903,502.53914 C413.85479,502.669632 417.873185,505.848826 418.140611,515.172417 C418.152678,515.601565 417.814406,515.959254 417.385045,515.971293 C417.37726,515.971682 417.369864,515.971682 417.362079,515.971682" id="Fill-234" fill="#99C577"></path>
                        <path d="M418.384292,499.692778 C416.628312,499.692778 415.205155,496.829329 415.205155,493.296718 C415.205155,489.764884 416.628312,486.900658 418.384292,486.900658 C420.139882,486.900658 421.563039,489.764884 421.563039,493.296718 C421.563039,496.829329 420.139882,499.692778 418.384292,499.692778" id="Fill-235" fill="#99C577"></path>
                        <path d="M418.001137,500.340579 C416.600168,501.396944 413.734001,499.969297 411.598876,497.151675 C409.463751,494.333665 408.868174,491.193308 410.268754,490.136942 C411.668944,489.080577 414.5355,490.508224 416.670625,493.325846 C418.80575,496.143468 419.401717,499.283825 418.001137,500.340579" id="Fill-236" fill="#99C577"></path>
                        <path d="M418.767485,500.340579 C420.168065,501.396944 423.034232,499.969297 425.169357,497.151675 C427.304871,494.333665 427.900448,491.193308 426.499869,490.136942 C425.099678,489.080577 422.233122,490.508224 420.097997,493.325846 C417.962872,496.143468 417.366906,499.283825 418.767485,500.340579" id="Fill-237" fill="#99C577"></path>
                        <polygon id="Fill-238" fill="#F06262" points="259.483501 183.885469 255.693995 190.160358 249.436152 183.107953 249.436152 183.107565 243.387734 176.291289 250.090119 173.299289 254.787005 178.592379"></polygon>
                        <polygon id="Fill-239" fill="#EE4343" points="243.38789 176.291211 241.544325 166.688382 246.717673 166.013784 248.361154 165.853776 250.090275 173.299211"></polygon>
                        <polygon id="Fill-240" fill="#F28080" points="254.786849 178.592418 250.090353 173.299328 248.361232 165.853504 255.905989 168.168187 260.678393 173.547107 260.679171 173.547496 265.293533 178.748154 266.681656 186.500401 259.483346 183.885508"></polygon>
                        <polygon id="Fill-241" fill="#CB3332" points="238.526228 192.95394 241.544208 166.688499 243.387773 176.291328"></polygon>
                        <polygon id="Fill-242" fill="#E13C39" points="248.228999 181.753436 248.228999 181.753436 255.693956 190.160086 238.52615 192.954018 243.387695 176.291405"></polygon>
                        <polygon id="Fill-243" fill="#EE4343" points="266.6815 186.500518 265.024005 193.150572 255.693684 190.160125 259.483579 183.885625"></polygon>
                        <polygon id="Fill-244" fill="#F0575A" points="265.024083 193.150416 238.526344 192.953901 255.693762 190.160358"></polygon>
                        <path d="M256.753344,190.479598 C256.753344,190.479598 256.285057,189.331577 256.725706,188.422404 C256.725706,188.422404 255.680526,189.272934 254.466405,188.754072 C254.466405,188.754072 255.056533,190.218225 253.986051,190.416682 C253.986051,190.416682 256.043323,190.037245 256.753344,190.479598" id="Fill-245" fill="#FEFEFE"></path>
                    </g>
                </g>
                <path d="M1,612 L160,612 C160.552285,612 161,612.447715 161,613 L161,613 C161,613.552285 160.552285,614 160,614 L1,614 C0.44771525,614 6.76353751e-17,613.552285 0,613 L0,613 C-6.76353751e-17,612.447715 0.44771525,612 1,612 Z" id="Rectangle-12" fill="#313270"></path>
                <path d="M1,642 L175,642 C175.552285,642 176,642.447715 176,643 L176,643 C176,643.552285 175.552285,644 175,644 L1,644 C0.44771525,644 6.76353751e-17,643.552285 0,643 L0,643 C-6.76353751e-17,642.447715 0.44771525,642 1,642 Z" id="Rectangle-12" fill="#313270"></path>
                <path d="M229,612 L474,612 C474.552285,612 475,612.447715 475,613 L475,613 C475,613.552285 474.552285,614 474,614 L229,614 C228.447715,614 228,613.552285 228,613 L228,613 C228,612.447715 228.447715,612 229,612 Z" id="Rectangle-12" fill="#313270"></path>
                <path d="M229,642 L484,642 C484.552285,642 485,642.447715 485,643 L485,643 C485,643.552285 484.552285,644 484,644 L229,644 C228.447715,644 228,643.552285 228,643 L228,643 C228,642.447715 228.447715,642 229,642 Z" id="Rectangle-12" fill="#313270"></path>
                <path d="M652,612 L870,612 C870.552285,612 871,612.447715 871,613 L871,613 C871,613.552285 870.552285,614 870,614 L652,614 C651.447715,614 651,613.552285 651,613 L651,613 C651,612.447715 651.447715,612 652,612 Z" id="Rectangle-12" fill="#313270"></path>
                <path d="M643,642 L871,642 C871.552285,642 872,642.447715 872,643 L872,643 C872,643.552285 871.552285,644 871,644 L643,644 C642.447715,644 642,643.552285 642,643 L642,643 C642,642.447715 642.447715,642 643,642 Z" id="Rectangle-12" fill="#313270"></path>
            </g>
        </g>
    </g>
</svg>