<?xml version="1.0" encoding="UTF-8" standalone="no"?>
<svg width="341px" height="107px" viewBox="0 0 341 107" version="1.1" xmlns="http://www.w3.org/2000/svg" xmlns:xlink="http://www.w3.org/1999/xlink">
    <!-- Generator: Sketch 49.3 (51167) - http://www.bohemiancoding.com/sketch -->
    <title>Page 1</title>
    <desc>Created with Sketch.</desc>
    <defs></defs>
    <g id="About-Us" stroke="none" stroke-width="1" fill="none" fill-rule="evenodd">
        <g transform="translate(-599.000000, -5348.000000)" id="Page-1">
            <g transform="translate(768.890207, 5400.476365) rotate(179.000000) translate(-768.890207, -5400.476365) translate(597.890207, 5347.976365)">
                <path d="M246.63312,8.54722 C278.62602,-4.85588 313.48242,-1.28798 341.18892,15.14302 C333.46722,46.41592 311.56272,73.76332 279.56982,87.16612 C247.57692,100.56922 212.72052,97.00132 185.01402,80.57062 C192.73542,49.29742 214.64022,21.95032 246.63312,8.54722" id="Fill-125" fill="#F38077"></path>
                <path d="M184.79706,80.72518 L341.14086,15.22678 C333.48156,45.94378 311.38746,74.06068 279.56976,87.39028 C247.75206,100.71988 212.49366,96.16018 184.79706,80.72518" id="Fill-127" fill="#E47572"></path>
                <path d="M187.73202,79.56253 C187.55622,79.56253 187.38912,79.45873 187.31682,79.28623 C187.22082,79.05703 187.32882,78.79333 187.55802,78.69733 L336.00042,16.50913 C336.22962,16.41313 336.49332,16.52083 336.58932,16.75033 C336.68532,16.97953 336.57732,17.24323 336.34812,17.33923 L187.90572,79.52743 C187.84902,79.55113 187.78992,79.56253 187.73202,79.56253" id="Fill-129" fill="#C16462"></path>
                <path d="M198.02505,75.25003 C197.93085,75.25003 197.83605,75.22063 197.75505,75.15973 C197.55645,75.01033 197.51625,74.72833 197.66565,74.52973 L231.19545,29.91403 C231.34485,29.71543 231.62685,29.67523 231.82575,29.82493 C232.02435,29.97403 232.06425,30.25633 231.91515,30.45493 L198.38505,75.07033 C198.29655,75.18793 198.16155,75.25003 198.02505,75.25003" id="Fill-131" fill="#C16462"></path>
                <path d="M233.12592,60.2266 C233.03172,60.2266 232.93692,60.1972 232.85592,60.1363 C232.65732,59.9869 232.61712,59.7049 232.76652,59.5063 L266.29662,14.8906 C266.44632,14.6917 266.72802,14.6518 266.92662,14.8012 C267.12552,14.9506 267.16542,15.2326 267.01602,15.4315 L233.48592,60.0469 C233.39742,60.1645 233.26242,60.2266 233.12592,60.2266" id="Fill-133" fill="#C16462"></path>
                <path d="M271.86183,43.99861 C271.76823,43.99861 271.67403,43.96951 271.59303,43.90951 C271.39383,43.76101 271.35273,43.47901 271.50123,43.27981 L293.92203,13.18951 C294.07053,12.99001 294.35223,12.94921 294.55173,13.09771 C294.75093,13.24591 294.79203,13.52791 294.64353,13.72741 L272.22303,43.81741 C272.13453,43.93621 271.99923,43.99861 271.86183,43.99861" id="Fill-135" fill="#C16462"></path>
                <path d="M305.2935,30.31111 C305.2026,30.31111 305.1111,30.28381 305.0316,30.22681 C304.8297,30.08191 304.7835,29.80051 304.9284,29.59861 L315.3825,15.02971 C315.5274,14.82781 315.8088,14.78161 316.0107,14.92621 C316.2123,15.07111 316.2588,15.35251 316.1139,15.55441 L305.6595,30.12361 C305.5716,30.24601 305.4336,30.31111 305.2935,30.31111" id="Fill-137" fill="#C16462"></path>
                <path d="M272.03526,74.81335 C272.01546,74.81335 271.99536,74.81215 271.97496,74.80945 L216.65646,67.41595 C216.41016,67.38295 216.23706,67.15675 216.27006,66.91015 C216.30276,66.66385 216.53016,66.49225 216.77556,66.52375 L272.09436,73.91725 C272.34066,73.95025 272.51376,74.17645 272.48076,74.42305 C272.45046,74.64925 272.25726,74.81335 272.03526,74.81335" id="Fill-139" fill="#C16462"></path>
                <path d="M293.03568,58.05481 C293.01408,58.05481 292.99218,58.05331 292.97028,58.05001 L253.04538,52.24801 C252.79938,52.21201 252.62898,51.98371 252.66468,51.73771 C252.70038,51.49201 252.92868,51.32101 253.17468,51.35731 L293.09988,57.15961 C293.34588,57.19531 293.51628,57.42361 293.48028,57.66961 C293.44788,57.89341 293.25558,58.05481 293.03568,58.05481" id="Fill-141" fill="#C16462"></path>
                <path d="M315.52602,40.67224 C315.50262,40.67224 315.47922,40.67044 315.45582,40.66684 L290.57472,36.76144 C290.32932,36.72274 290.16132,36.49264 290.20002,36.24724 C290.23842,36.00124 290.46942,35.83354 290.71422,35.87224 L315.59502,39.77764 C315.84072,39.81604 316.00842,40.04644 315.97002,40.29184 C315.93522,40.51384 315.74382,40.67224 315.52602,40.67224" id="Fill-143" fill="#C16462"></path>
                <path d="M329.95575,25.71121 C329.93115,25.71121 329.90625,25.70941 329.88105,25.70491 L320.63805,24.16411 C320.39295,24.12331 320.22735,23.89141 320.26815,23.64631 C320.30925,23.40091 320.54115,23.23441 320.78625,23.27641 L330.02925,24.81751 C330.27435,24.85831 330.43995,25.09021 330.39915,25.33531 C330.36225,25.55521 330.17175,25.71121 329.95575,25.71121" id="Fill-145" fill="#C16462"></path>
                <path d="M168.60219,60.1081 C176.18619,46.582 190.90569,38.9056 207.43659,38.0863 C215.56929,52.2457 216.83349,68.5669 209.24949,82.093 C201.66549,95.6191 186.94599,103.2952 170.41509,104.1145 C162.28239,89.9554 161.01819,73.6342 168.60219,60.1081" id="Fill-147" fill="#3F408E"></path>
                <path d="M170.30421,104.16502 L207.36561,38.06542 C214.97631,52.13332 216.78951,68.66212 209.24691,82.11412 C201.70461,95.56612 186.47751,102.96142 170.30421,104.16502" id="Fill-149" fill="#383B7B"></path>
                <path d="M170.94552,103.29154 C170.87082,103.29154 170.79552,103.27294 170.72592,103.23394 C170.50902,103.11244 170.43192,102.83794 170.55342,102.62134 L205.74162,39.86224 C205.86342,39.64564 206.13762,39.56854 206.35422,39.68974 C206.57112,39.81124 206.64822,40.08544 206.52672,40.30234 L171.33852,103.06144 C171.25602,103.20874 171.10302,103.29154 170.94552,103.29154" id="Fill-151" fill="#4D5AA7"></path>
                <path d="M173.38551,98.9395 C173.15961,98.9395 172.96461,98.7697 172.93881,98.5396 L170.02491,72.4855 C169.99731,72.2386 170.17491,72.016 170.42211,71.9884 C170.66931,71.9614 170.89161,72.1387 170.91921,72.3856 L173.83341,98.4394 C173.86101,98.6866 173.68311,98.9089 173.43591,98.9368 C173.41911,98.9386 173.40231,98.9395 173.38551,98.9395" id="Fill-153" fill="#4D5AA7"></path>
                <path d="M181.59303,83.97568 C181.36713,83.97568 181.17213,83.80588 181.14633,83.57578 L178.23243,57.52168 C178.20483,57.27478 178.38243,57.05218 178.62963,57.02458 C178.87713,56.99758 179.09913,57.17488 179.12673,57.42178 L182.04093,83.47558 C182.06853,83.72278 181.89063,83.94508 181.64343,83.97298 C181.62663,83.97478 181.60983,83.97568 181.59303,83.97568" id="Fill-155" fill="#4D5AA7"></path>
                <path d="M190.7754,67.59871 C190.5501,67.59871 190.3557,67.43011 190.329,67.20061 L188.289,49.67941 C188.2602,49.43251 188.4372,49.20931 188.6841,49.18051 C188.9295,49.15261 189.1545,49.32871 189.183,49.57531 L191.223,67.09681 C191.2518,67.34341 191.0751,67.56691 190.8279,67.59571 C190.8105,67.59781 190.7928,67.59871 190.7754,67.59871" id="Fill-157" fill="#4D5AA7"></path>
                <path d="M198.81357,53.58808 C198.59217,53.58808 198.39897,53.42458 198.36837,53.19898 L197.22567,44.81968 C197.19207,44.57338 197.36457,44.34658 197.61087,44.31298 C197.85657,44.27908 198.08367,44.45188 198.11757,44.69818 L199.25997,53.07718 C199.29357,53.32348 199.12107,53.55058 198.87507,53.58388 C198.85437,53.58688 198.83367,53.58808 198.81357,53.58808" id="Fill-159" fill="#4D5AA7"></path>
                <path d="M177.81693,91.03753 C177.64923,91.03753 177.48843,90.94333 177.41103,90.78223 C177.30333,90.55813 177.39783,90.28933 177.62193,90.18163 L201.59763,78.67153 C201.82173,78.56413 202.09053,78.65833 202.19793,78.88243 C202.30563,79.10653 202.21113,79.37533 201.98703,79.48273 L178.01133,90.99313 C177.94863,91.02313 177.88233,91.03753 177.81693,91.03753" id="Fill-161" fill="#4D5AA7"></path>
                <path d="M186.47256,75.68158 C186.30306,75.68158 186.14046,75.58528 186.06426,75.42118 C185.95956,75.19588 186.05706,74.92828 186.28236,74.82358 L203.75196,66.69748 C203.97756,66.59308 204.24486,66.69028 204.34956,66.91558 C204.45456,67.14118 204.35676,67.40878 204.13146,67.51348 L186.66216,75.63928 C186.60066,75.66808 186.53616,75.68158 186.47256,75.68158" id="Fill-163" fill="#4D5AA7"></path>
                <path d="M195.45483,59.90551 C195.28323,59.90551 195.11943,59.80681 195.04413,59.64031 C194.94213,59.41351 195.04293,59.14711 195.26973,59.04511 L206.25963,54.09331 C206.48643,53.99191 206.75253,54.09241 206.85483,54.31891 C206.95683,54.54541 206.85573,54.81181 206.62923,54.91411 L195.63933,59.86561 C195.57933,59.89261 195.51663,59.90551 195.45483,59.90551" id="Fill-165" fill="#4D5AA7"></path>
                <path d="M202.58247,47.19331 C202.40907,47.19331 202.24407,47.09281 202.16997,46.92391 C202.07007,46.69621 202.17387,46.43071 202.40127,46.33111 L206.51607,44.52661 C206.74407,44.42701 207.00927,44.53051 207.10887,44.75791 C207.20877,44.98561 207.10527,45.25111 206.87757,45.35071 L202.76307,47.15521 C202.70397,47.18101 202.64277,47.19331 202.58247,47.19331" id="Fill-167" fill="#4D5AA7"></path>
                <path d="M174.58491,52.09336 C173.15121,53.51416 170.08221,56.84986 169.06491,60.28366 C168.33501,62.74756 163.75731,63.79066 159.72501,64.22986 C151.63191,72.68746 146.37081,75.35656 137.97231,83.53306 C147.39681,92.67496 156.88131,103.00846 171.19881,103.92346 C171.57471,103.95706 171.59511,103.98736 171.97191,104.01526 L172.21971,103.99426 C181.75371,87.33106 183.32061,68.05996 174.58491,52.09336" id="Fill-169" fill="#232855"></path>
                <path d="M95.48292,8.74246 C63.49002,-4.66064 28.63362,-1.09274 0.92712,15.33826 C8.64882,46.61116 30.55332,73.95856 62.54622,87.36136 C94.53912,100.76446 129.39552,97.19656 157.10202,80.76586 C149.38032,49.49266 127.47582,22.14556 95.48292,8.74246" id="Fill-171" fill="#F38077"></path>
                <path d="M157.3749,81.08845 L1.0311,15.59005 C9.4557,46.15735 30.7848,74.42395 62.6022,87.75355 C94.4199,101.08315 129.6786,96.52345 157.3749,81.08845" id="Fill-173" fill="#E47572"></path>
                <path d="M154.38399,79.7578 C154.32609,79.7578 154.26699,79.7464 154.21029,79.7227 L5.76789,17.5345 C5.53869,17.4385 5.43069,17.1748 5.52669,16.9456 C5.62269,16.7164 5.88669,16.6081 6.11559,16.7044 L154.55799,78.8926 C154.78719,78.9886 154.89519,79.2523 154.79919,79.4815 C154.72689,79.654 154.55979,79.7578 154.38399,79.7578" id="Fill-175" fill="#C16462"></path>
                <path d="M144.09096,75.4453 C143.95416,75.4453 143.81946,75.3832 143.73096,75.2656 L110.20086,30.6502 C110.05146,30.4516 110.09136,30.1696 110.29026,30.0202 C110.48886,29.8711 110.77086,29.9107 110.92026,30.1093 L144.45036,74.725 C144.59976,74.9236 144.55956,75.2059 144.36096,75.355 C144.27996,75.4159 144.18516,75.4453 144.09096,75.4453" id="Fill-177" fill="#C16462"></path>
                <path d="M108.99009,60.42172 C108.85329,60.42172 108.71859,60.35962 108.63009,60.24202 L75.09999,15.62662 C74.95059,15.42802 74.99049,15.14572 75.18939,14.99662 C75.38799,14.84752 75.66999,14.88712 75.81939,15.08572 L109.34949,59.70142 C109.49889,59.90002 109.45869,60.18202 109.26009,60.33142 C109.17909,60.39232 109.08429,60.42172 108.99009,60.42172" id="Fill-179" fill="#C16462"></path>
                <path d="M70.25406,44.19388 C70.11666,44.19388 69.98136,44.13148 69.89286,44.01268 L47.47266,13.92238 C47.32386,13.72318 47.36526,13.44118 47.56446,13.29298 C47.76366,13.14448 48.04536,13.18528 48.19416,13.38478 L70.61466,43.47508 C70.76316,43.67428 70.72206,43.95628 70.52256,44.10478 C70.44186,44.16478 70.34766,44.19388 70.25406,44.19388" id="Fill-181" fill="#C16462"></path>
                <path d="M36.82251,30.50638 C36.68241,30.50638 36.54441,30.44128 36.45651,30.31888 L26.00211,15.74968 C25.85721,15.54778 25.90341,15.26638 26.10531,15.12148 C26.30751,14.97658 26.58861,15.02308 26.73321,15.22498 L37.18761,29.79388 C37.33251,29.99578 37.28631,30.27718 37.08441,30.42208 C37.00491,30.47908 36.91341,30.50638 36.82251,30.50638" id="Fill-183" fill="#C16462"></path>
                <path d="M70.08075,75.00847 C69.85875,75.00847 69.66555,74.84437 69.63525,74.61817 C69.60225,74.37157 69.77535,74.14537 70.02165,74.11237 L125.34045,66.71917 C125.58645,66.68737 125.81295,66.85897 125.84595,67.10557 C125.87895,67.35187 125.70585,67.57807 125.45955,67.61107 L70.14105,75.00457 C70.12065,75.00727 70.10055,75.00847 70.08075,75.00847" id="Fill-185" fill="#C16462"></path>
                <path d="M49.08033,58.25008 C48.86043,58.25008 48.66813,58.08868 48.63573,57.86488 C48.59973,57.61888 48.77013,57.39058 49.01613,57.35488 L88.94103,51.55258 C89.18763,51.51628 89.41533,51.68728 89.45103,51.93298 C89.48673,52.17898 89.31663,52.40728 89.07063,52.44328 L49.14573,58.24528 C49.12383,58.24858 49.10193,58.25008 49.08033,58.25008" id="Fill-187" fill="#C16462"></path>
                <path d="M26.58999,40.86751 C26.37219,40.86751 26.18079,40.70911 26.14599,40.48711 C26.10759,40.24171 26.27529,40.01131 26.52099,39.97291 L51.40179,36.06751 C51.64539,36.03031 51.87759,36.19681 51.91599,36.44251 C51.95469,36.68791 51.78669,36.91801 51.54129,36.95671 L26.66019,40.86211 C26.63679,40.86571 26.61339,40.86751 26.58999,40.86751" id="Fill-189" fill="#C16462"></path>
                <path d="M12.16026,25.90648 C11.94426,25.90648 11.75376,25.75048 11.71686,25.53058 C11.67606,25.28548 11.84166,25.05358 12.08676,25.01278 L21.32976,23.47168 C21.57396,23.43028 21.80706,23.59648 21.84786,23.84158 C21.88866,24.08668 21.72306,24.31858 21.47796,24.35938 L12.23496,25.90018 C12.20976,25.90468 12.18486,25.90648 12.16026,25.90648" id="Fill-191" fill="#C16462"></path>
                <path d="M173.51382,60.30334 C165.92982,46.77724 151.21032,39.10084 134.67942,38.28154 C126.54672,52.44094 125.28252,68.76214 132.86622,82.28824 C140.45022,95.81434 155.27802,103.51984 171.80922,104.33914 C179.94192,90.18004 181.09782,73.82944 173.51382,60.30334" id="Fill-193" fill="#3F408E"></path>
                <path d="M171.80919,104.3392 L134.74779,38.2396 C127.13709,52.3075 125.32389,68.8363 132.86619,82.2883 C140.40879,95.74 155.63589,103.1356 171.80919,104.3392" id="Fill-195" fill="#383B7B"></path>
                <path d="M171.17052,103.48681 C171.01302,103.48681 170.86002,103.40401 170.77752,103.25671 L135.58902,40.49761 C135.46752,40.28071 135.54492,40.00651 135.76152,39.88501 C135.97842,39.76351 136.25262,39.84091 136.37412,40.05751 L171.56262,102.81661 C171.68412,103.03351 171.60702,103.30771 171.39012,103.42921 C171.32052,103.46821 171.24492,103.48681 171.17052,103.48681" id="Fill-197" fill="#4D5AA7"></path>
                <path d="M168.73053,99.13474 C168.71373,99.13474 168.69693,99.13384 168.68013,99.13204 C168.43293,99.10414 168.25503,98.88184 168.28263,98.63464 L171.19683,72.58084 C171.22443,72.33394 171.44613,72.15484 171.69393,72.18364 C171.94113,72.21124 172.11873,72.43384 172.09113,72.68074 L169.17723,98.73484 C169.15143,98.96464 168.95643,99.13474 168.73053,99.13474" id="Fill-199" fill="#4D5AA7"></path>
                <path d="M160.52301,84.17092 C160.50621,84.17092 160.48941,84.17002 160.47261,84.16822 C160.22541,84.14032 160.04751,83.91802 160.07511,83.67082 L162.98901,57.61702 C163.01691,57.37012 163.23831,57.19102 163.48611,57.21982 C163.73331,57.24742 163.91121,57.47002 163.88361,57.71692 L160.96971,83.77102 C160.94391,84.00082 160.74891,84.17092 160.52301,84.17092" id="Fill-201" fill="#4D5AA7"></path>
                <path d="M151.34061,67.79398 C151.32321,67.79398 151.30551,67.79308 151.28811,67.79098 C151.04121,67.76218 150.86421,67.53868 150.89301,67.29208 L152.93301,49.77058 C152.96181,49.52368 153.18711,49.34818 153.43191,49.37578 C153.67851,49.40458 153.85551,49.62778 153.82671,49.87468 L151.78701,67.39588 C151.76031,67.62538 151.56591,67.79398 151.34061,67.79398" id="Fill-203" fill="#4D5AA7"></path>
                <path d="M143.30244,53.78335 C143.28234,53.78335 143.26164,53.78215 143.24094,53.77915 C142.99494,53.74585 142.82244,53.51875 142.85604,53.27245 L143.99844,44.89345 C144.03204,44.64715 144.25764,44.47555 144.50514,44.50825 C144.75144,44.54185 144.92394,44.76865 144.89034,45.01495 L143.74764,53.39425 C143.71704,53.61985 143.52384,53.78335 143.30244,53.78335" id="Fill-205" fill="#4D5AA7"></path>
                <path d="M164.29893,91.23265 C164.23353,91.23265 164.16723,91.21825 164.10453,91.18825 L140.12883,79.67815 C139.90503,79.57045 139.81053,79.30165 139.91793,79.07755 C140.02533,78.85375 140.29413,78.75955 140.51853,78.86695 L164.49393,90.37675 C164.71803,90.48445 164.81253,90.75325 164.70483,90.97735 C164.62743,91.13845 164.46663,91.23265 164.29893,91.23265" id="Fill-207" fill="#4D5AA7"></path>
                <path d="M155.64345,75.87685 C155.57985,75.87685 155.51535,75.86335 155.45385,75.83455 L137.98425,67.70875 C137.75895,67.60405 137.66145,67.33645 137.76615,67.11085 C137.87085,66.88555 138.13845,66.78805 138.36405,66.89275 L155.83365,75.01885 C156.05895,75.12355 156.15645,75.39115 156.05175,75.61645 C155.97555,75.78055 155.81295,75.87685 155.64345,75.87685" id="Fill-209" fill="#4D5AA7"></path>
                <path d="M146.66103,60.10078 C146.59923,60.10078 146.53653,60.08788 146.47653,60.06088 L135.48663,55.10938 C135.26013,55.00708 135.15933,54.74068 135.26133,54.51418 C135.36363,54.28768 135.63003,54.18718 135.85653,54.28858 L146.84613,59.24038 C147.07293,59.34238 147.17373,59.60878 147.07173,59.83558 C146.99643,60.00208 146.83263,60.10078 146.66103,60.10078" id="Fill-211" fill="#4D5AA7"></path>
                <path d="M139.53354,47.38855 C139.47324,47.38855 139.41204,47.37625 139.35294,47.35045 L135.23844,45.54595 C135.01074,45.44635 134.90724,45.18085 135.00714,44.95315 C135.10704,44.72575 135.37194,44.62195 135.59994,44.72185 L139.71474,46.52635 C139.94214,46.62595 140.04594,46.89145 139.94604,47.11915 C139.87194,47.28805 139.70694,47.38855 139.53354,47.38855" id="Fill-213" fill="#4D5AA7"></path>
            </g>
        </g>
    </g>
</svg>