<?xml version="1.0" encoding="UTF-8" standalone="no"?>
<svg width="150px" height="150px" viewBox="0 0 150 150" version="1.1" xmlns="http://www.w3.org/2000/svg" xmlns:xlink="http://www.w3.org/1999/xlink">
    <!-- Generator: Sketch 50 (54983) - http://www.bohemiancoding.com/sketch -->
    <title>Light bulb</title>
    <desc>Created with Sketch.</desc>
    <defs>
        <polygon id="path-1" points="0 0.26049505 149.739505 0.26049505 149.739505 149.982178 0 149.982178"></polygon>
    </defs>
    <g id="Loading" stroke="none" stroke-width="1" fill="none" fill-rule="evenodd">
        <g id="Loading---1" transform="translate(-224.000000, -335.000000)">
            <g id="Light-bulb" transform="translate(224.000000, 335.000000)">
                <g id="Group-3">
                    <mask id="mask-2" fill="white">
                        <use xlink:href="#path-1"></use>
                    </mask>
                    <g id="Clip-2"></g>
                    <path d="M149.739505,75.130396 C149.739505,116.479604 116.219109,150 74.869901,150 C33.520396,150 0,116.479604 0,75.130396 C0,33.7808911 33.520396,0.26049505 74.869901,0.26049505 C116.219109,0.26049505 149.739505,33.7808911 149.739505,75.130396 Z" id="Fill-1" fill="#F6F7F9" mask="url(#mask-2)"></path>
                </g>
                <path d="M99,66.083704 C99,52.0726052 87.3441148,40.7015252 73.1095564,41.0059742 C59.9066245,41.2091121 48.7664215,51.5650184 48.0446235,64.5606857 C47.6318682,71.566364 50.1073524,77.9626287 54.4397118,82.7345639 C60.8348001,89.8415533 64.3419108,96.3393869 64.3419108,105.883257 L64.3419108,107 L82.7024508,107 L82.7024508,105.883257 C82.7024508,96.237818 86.518866,89.7399844 92.9142163,82.4298571 C96.7306315,78.0641976 99,72.3786576 99,66.083704" id="Fill-4" fill="#FFFFFE"></path>
                <path d="M73.5001199,120 C78.1944057,120 82,121.119272 82,122.5 C82,123.880728 78.1944057,125 73.5001199,125 C68.8055943,125 65,123.880728 65,122.5 C65,121.119272 68.8055943,120 73.5001199,120" id="Fill-5" fill="#27333F"></path>
                <polygon id="Fill-6" fill="#00ADEE" points="70 113 76 113 76 83 70 83"></polygon>
                <g id="Group" transform="translate(55.000000, 48.000000)">
                    <path d="M37,18.5 C37,28.7173582 28.7172963,37 18.5001382,37 C8.28270367,37 0,28.7173582 0,18.5 C0,8.28264181 8.28270367,0 18.5001382,0 C28.7172963,0 37,8.28264181 37,18.5 Z" id="Fill-7" fill="#F8D67D"></path>
                    <path d="M18.5001369,33.0651973 C10.4117593,33.0651973 3.83322685,26.5083202 3.83322685,18.4462327 C3.83322685,10.3844182 10.4117593,3.82726822 18.5001369,3.82726822 C26.5882407,3.82726822 33.1667732,10.3844182 33.1667732,18.4462327 C33.1667732,26.5083202 26.5882407,33.0651973 18.5001369,33.0651973 Z M18.5001369,2 C9.33345503,2 2,9.41688032 2,18.4462327 C2,27.4755851 9.33345503,35 18.5001369,35 C27.666545,35 35,27.5831197 35,18.5537673 C35,9.52441485 27.666545,2 18.5001369,2 Z" id="Fill-8" fill="#F0AF50"></path>
                    <path d="M19,24 C19.571394,23.8935768 20.0475154,23.5745773 20.428606,23.1488844 C20.8094547,22.7234617 21,22.0851926 21,21.4469235 C21,20.9150775 20.8094547,20.3829615 20.5238786,19.9575388 C20.2380607,19.532116 19.7619393,19.2128464 19.0952726,19 L19.0952726,24 L19,24 Z M17.8749603,10 C17.2500793,10.2378937 16.8749603,10.4760897 16.4998413,10.9521794 C16.1250397,11.4285714 16,11.9046611 16,12.4998489 C16,12.9762409 16.1250397,13.4523306 16.4998413,13.9284203 C16.8749603,14.4048123 17.2500793,14.761804 18,15 L18,10 L17.8749603,10 Z M17.5392003,24.2801277 L17.5392003,18.6727335 C15.7303998,18.2242445 14.4870289,17.4391752 13.6957146,16.4297189 C12.9044002,15.4205474 12.4523436,14.1867043 12.4523436,12.7287591 C12.4523436,11.2708138 12.9044002,10.0372554 13.8088005,9.0277992 C14.7132007,8.01862772 15.9565717,7.45794526 17.5392003,7.34575181 L17.5392003,6 L19.4607997,6 L19.4607997,7.34575181 C20.9303424,7.56985394 22.0609145,8.01862772 22.8522288,8.80369707 C23.6432561,9.58876642 24.2086857,10.7101313 24.4345705,12.0558832 L21.0434283,12.5046569 C20.8172565,11.4952007 20.252114,10.7101313 19.4607997,10.3738358 L19.4607997,15.6446496 C21.6085709,16.2056168 23.0781136,16.9904014 23.8694279,17.8876642 C24.6607423,18.784927 25,20.0184853 25,21.4764306 C25,23.0465693 24.5476564,24.3923211 23.5304572,25.5139708 C22.5129711,26.6353357 21.1565143,27.3082116 19.4607997,27.5325985 L19.4607997,30 L17.5392003,30 L17.5392003,27.5325985 C15.9565717,27.3082116 14.7132007,26.7475292 13.8088005,25.8502664 C12.7913143,24.8410949 12.2261718,23.4953431 12,21.8130109 L15.504515,21.4764306 C15.6173139,22.1493065 15.9565717,22.8224672 16.2955424,23.2709562 C16.5217142,23.7194452 16.9740578,24.0560255 17.5392003,24.2801277 Z" id="Fill-9" fill="#F0AF50"></path>
                </g>
                <polygon id="Fill-10" fill-opacity="0.8" fill="#245AAA" points="31 83 43.5 83 43.5 78 31 78"></polygon>
                <polygon id="Fill-10" fill-opacity="0.8" fill="#245AAA" points="103 83 115.5 83 115.5 78 103 78"></polygon>
                <polygon id="Fill-10" fill-opacity="0.8" fill="#245AAA" transform="translate(72.750000, 29.000000) rotate(90.000000) translate(-72.750000, -29.000000) " points="66.5 31.5 79 31.5 79 26.5 66.5 26.5"></polygon>
                <polygon id="Fill-10" fill-opacity="0.8" fill="#245AAA" transform="translate(107.750000, 46.000000) rotate(150.000000) translate(-107.750000, -46.000000) " points="101.5 48.5 114 48.5 114 43.5 101.5 43.5"></polygon>
                <polygon id="Fill-10" fill-opacity="0.8" fill="#245AAA" transform="translate(39.662659, 48.290064) scale(-1, 1) rotate(150.000000) translate(-39.662659, -48.290064) " points="33.4126588 50.7900635 45.9126588 50.7900635 45.9126588 45.7900635 33.4126588 45.7900635"></polygon>
                <polygon id="Fill-10" fill-opacity="0.8" fill="#245AAA" transform="translate(102.174621, 105.924621) scale(1, -1) rotate(135.000000) translate(-102.174621, -105.924621) " points="95.9246212 108.424621 108.424621 108.424621 108.424621 103.424621 95.9246212 103.424621"></polygon>
                <polygon id="Fill-10" fill-opacity="0.8" fill="#245AAA" transform="translate(44.174621, 105.924621) rotate(135.000000) translate(-44.174621, -105.924621) " points="37.9246212 108.424621 50.4246212 108.424621 50.4246212 103.424621 37.9246212 103.424621"></polygon>
                <path d="M81.4954286,123 L65.4082041,123 C64.0595511,123 63,121.958654 63,120.633173 L63,107 L84,107 L84,120.633173 C84,121.958654 82.843837,123 81.4954286,123" id="Fill-17" fill="#2F424F"></path>
            </g>
        </g>
    </g>
</svg>