<?xml version="1.0" encoding="UTF-8"?>
<svg width="1313px" height="867px" viewBox="0 0 1313 867" version="1.1" xmlns="http://www.w3.org/2000/svg" xmlns:xlink="http://www.w3.org/1999/xlink">
    <!-- Generator: Sketch 51.3 (57544) - http://www.bohemiancoding.com/sketch -->
    <title>Background guys</title>
    <desc>Created with Sketch.</desc>
    <defs></defs>
    <g id="---▶︎--MISC" stroke="none" stroke-width="1" fill="none" fill-rule="evenodd">
        <g id="Artboard-5" transform="translate(-1341.000000, -1786.000000)">
            <g id="shutterstock_1349361710" transform="translate(566.000000, 263.000000)">
                <g id="Background-guys" transform="translate(775.000000, 1523.000000)">
                    <path d="M1051.98,656.44 C1004.41,529.49 1052.89,426.29 1053.38,425.25 L1055.7,426.37 C1055.21,427.39 1007.22,529.66 1054.4,655.53 L1051.98,656.44" id="Fill-1255" fill="#50E3C2"></path>
                    <path d="M1052.79,428.83 C1052.79,428.83 1051.48,420.61 1055.33,413.36 C1056.72,410.74 1061.1,407.25 1063.54,408.54 C1065.98,409.83 1066.19,414.22 1064.17,418.05 C1060.33,425.29 1052.79,428.83 1052.79,428.83" id="Fill-1256" fill="#24D2AA"></path>
                    <path d="M1048.25,442.33 C1048.25,442.33 1051.6,435.7 1058.2,432.23 C1060.59,430.97 1065.63,430.52 1066.73,432.62 C1067.84,434.73 1065.7,438.04 1062.21,439.87 C1055.61,443.34 1048.25,442.33 1048.25,442.33" id="Fill-1257" fill="#24D2AA"></path>
                    <path d="M1042.59,465.85 C1042.59,465.85 1046.03,459.96 1052.02,457.97 C1054.2,457.25 1058.58,457.92 1059.37,460.29 C1060.15,462.66 1058.02,465.5 1054.86,466.54 C1048.86,468.53 1042.59,465.85 1042.59,465.85" id="Fill-1258" fill="#24D2AA"></path>
                    <path d="M1049.3,441.77 C1049.3,441.77 1042.59,440.76 1038.56,435.95 C1037.09,434.21 1036.11,429.91 1037.99,428.31 C1039.89,426.72 1043.29,427.65 1045.42,430.18 C1049.46,434.99 1049.3,441.77 1049.3,441.77" id="Fill-1259" fill="#24D2AA"></path>
                    <path d="M1035.95,592.56 C1035.95,592.56 1029.13,593.89 1022.97,590.88 C1020.74,589.79 1017.72,586.23 1018.74,584.15 C1019.76,582.07 1023.41,581.77 1026.65,583.36 C1032.81,586.37 1035.95,592.56 1035.95,592.56" id="Fill-1260" fill="#24D2AA"></path>
                    <path d="M1041.13,465.43 C1041.13,465.43 1033.55,463.67 1028.62,457.8 C1026.82,455.66 1025.34,450.64 1027.31,448.98 C1029.29,447.33 1033.16,448.69 1035.76,451.79 C1040.69,457.67 1041.13,465.43 1041.13,465.43" id="Fill-1261" fill="#24D2AA"></path>
                    <path d="M1035.3,490.59 C1035.3,490.59 1027.57,489.98 1023.26,484.84 C1021.7,482.98 1020.89,478.18 1023.22,476.21 C1025.56,474.26 1029.44,475.03 1031.71,477.74 C1036.03,482.87 1035.3,490.59 1035.3,490.59" id="Fill-1262" fill="#24D2AA"></path>
                    <path d="M1037.27,490.46 C1037.27,490.46 1039.83,483.26 1045.94,480.08 C1048.15,478.93 1053.06,479.01 1054.38,481.57 C1055.71,484.12 1053.98,487.65 1050.75,489.33 C1044.64,492.51 1037.27,490.46 1037.27,490.46" id="Fill-1263" fill="#24D2AA"></path>
                    <path d="M1036.83,593.47 C1036.83,593.47 1036.45,587.02 1040.87,581.04 C1042.47,578.87 1047.01,575.85 1049.2,576.73 C1051.39,577.61 1051.13,581.08 1048.8,584.24 C1044.38,590.22 1036.83,593.47 1036.83,593.47" id="Fill-1264" fill="#24D2AA"></path>
                    <path d="M1032.05,540.38 C1032.05,540.38 1034.92,536.26 1041.2,534.44 C1043.48,533.78 1048.42,533.81 1049.65,535.26 C1050.89,536.71 1048.98,538.73 1045.67,539.7 C1039.39,541.52 1032.05,540.38 1032.05,540.38" id="Fill-1265" fill="#24D2AA"></path>
                    <path d="M1032.17,516.98 C1032.17,516.98 1027.59,515.87 1024.25,511.07 C1023.03,509.33 1021.76,505.07 1022.79,503.54 C1023.82,502 1026.19,502.97 1027.96,505.5 C1031.31,510.3 1032.17,516.98 1032.17,516.98" id="Fill-1266" fill="#24D2AA"></path>
                    <path d="M1034.07992,568.35 C1034.07992,568.35 1034.02,560.27 1037.22,555.19 C1038.37,553.35 1041.54,551.96 1043,554.16 C1044.46,556.36 1044.17,560.48 1042.49,563.15 C1039.3,568.22 1034.07992,568.35 1034.07992,568.35" id="Fill-1267" fill="#24D2AA"></path>
                    <path d="M1032.64,541.33 C1032.64,541.33 1023.26,540.13 1017.09,535.63 C1014.86,533.98 1012.96,530.06 1015.37,528.7 C1017.79,527.34 1022.58,528.32 1025.83,530.7 C1032.01,535.2 1032.64,541.33 1032.64,541.33" id="Fill-1268" fill="#24D2AA"></path>
                    <path d="M1033.11009,569.51 C1033.11009,569.51 1024.23,568.36 1018.81,564.06 C1016.85,562.51 1015.47,558.79 1017.95,557.51 C1020.42,556.23 1024.94,557.16 1027.78,559.42 C1033.2,563.7 1033.11009,569.51 1033.11009,569.51" id="Fill-1269" fill="#24D2AA"></path>
                    <path d="M1032.9,518.64 C1032.9,518.64 1035.18,512.68 1041.68,507.99 C1044.03,506.3 1049.43,504.32 1051.07,505.52 C1052.73,506.71 1051.07,509.84 1047.65,512.3 C1041.16,516.99 1032.9,518.64 1032.9,518.64" id="Fill-1276" fill="#24D2AA"></path>
                    <path d="M242.17,709.53 C237.43,690.58 249.43,676.08 287.1,671.54 C328.22,666.59 365.14,676.53 394.55,690.8 C329.83,628.29 256.47,542.29 336.2,541.27 C361.06,540.96 395.67,563.01 432.86,595.77 C395.67,532.49 377.77,481.75 407.42,475.67 C434.95,470 480.74,523.05 527.47,592.03 C503.56,535.77 492.21,487.63 510.26,467.29 C525,450.68 547.06,473.68 570.14,514.49 C574.18,481.07 586.46,461.88 606.47,468.01 C625.3,473.77 634.86,513.89 638.69,561.26 C668.84,491.45 725.11,452.59 771.3,479.39 C825.55,510.86 751.11,677.99 711.9,757.05 L242.17,709.53" id="Fill-1285" fill="#5B84C0"></path>
                    <path d="M680.91,708.28 C642.51,687.51 671.75,678.45 706.95,677.19 C689.32,661.76 699.32,645.89 740.74,626.91 C759.34,618.39 782.47,621.88 805.38,631.03 C821.69,598.7 844.42,576.12 871.97,586.76 C894.74,595.57 911.79,606.64 922.6,618.75 C929.46,615.85 936.85,613.08 944.79,610.47 C962.05,604.8 975.09,608.11 984.7,616.81 C1018.22,596.54 1052.43,584.06 1073.24,596.27 C1109.43,617.52 1114.8,636.58 1092.38,656.57 C1127.58,656.25 1154.41,665.9 1109.44,693.56 C1151.03,687.63 1180.99,690.5 1164.01,714.85 C1126.14,769.14 939.2,785.63 798.54,767.29 C710.14,766.47 636.16,754.22 621.04,728.07 C609.92,708.83 640.65,705.19 680.91,708.28" id="Fill-1286" fill="#5B84C0"></path>
                    <path d="M1147.14,662.89 C1108.17,680.11 1082.45,715.01 1075.02,754.26 C1109.03,775.19 1152.16,779.67 1191.13,762.45 C1230.1,745.23 1255.83,710.34 1263.26,671.09 C1229.24,650.16 1186.11,645.68 1147.14,662.89" id="Fill-1287" fill="#3F408E"></path>
                    <polyline id="Fill-1288" fill="#4D5AA7" points="1247.69 676.01 1081.44 749.46 1082.36 751.56 1248.62 678.1"></polyline>
                    <polyline id="Fill-1289" fill="#4D5AA7" points="1213.46 693.44 1241.35 706.61 1242.33 704.54 1214.44 691.37"></polyline>
                    <polyline id="Fill-1290" fill="#4D5AA7" points="1185.11 705.97 1219.5 722.19 1220.47 720.12 1186.09 703.89"></polyline>
                    <polyline id="Fill-1291" fill="#4D5AA7" points="1156.76 718.49 1214.24 745.62 1215.22 743.55 1157.74 716.42"></polyline>
                    <polyline id="Fill-1292" fill="#4D5AA7" points="1128.42 731.01 1184.33 757.42 1185.31 755.34 1129.39 728.94"></polyline>
                    <polyline id="Fill-1294" fill="#4D5AA7" points="1218.25 690.73 1227.29 661.24 1225.1 660.57 1216.06 690.06"></polyline>
                    <polyline id="Fill-1295" fill="#4D5AA7" points="1189.9 703.26 1204 657.28 1201.81 656.61 1187.71 702.59"></polyline>
                    <polyline id="Fill-1296" fill="#4D5AA7" points="1161.55 715.78 1179.2 658.23 1177.01 657.56 1159.36 715.11"></polyline>
                    <polyline id="Fill-1297" fill="#4D5AA7" points="1133.2 728.31 1151.33 669.19 1149.14 668.52 1131.01 727.64"></polyline>
                    <path d="M1021.25,651.13 C994.58,689.91 990.62,737.65 1006.38,778.86 C1050.51,778.83 1093.66,758.05 1120.34,719.26 C1147.01,680.47 1150.97,632.74 1135.21,591.52 C1091.08,591.56 1047.92,612.34 1021.25,651.13" id="Fill-1299" fill="#3F408E"></path>
                    <polyline id="Fill-1300" fill="#4D5AA7" points="1123.42 605.16 1009.64 770.63 1011.72 772.06 1125.5 606.6"></polyline>
                    <polyline id="Fill-1301" fill="#4D5AA7" points="1101.33 641.4 1135.2 637.62 1134.92 635.1 1101.05 638.89"></polyline>
                    <polyline id="Fill-1302" fill="#4D5AA7" points="1081.93 669.62 1123.68 664.95 1123.39 662.44 1081.65 667.1"></polyline>
                    <polyline id="Fill-1303" fill="#4D5AA7" points="1062.53 697.83 1132.32 690.03 1132.04 687.52 1062.25 695.32"></polyline>
                    <polyline id="Fill-1304" fill="#4D5AA7" points="1043.12 726.05 1111.02 718.46 1110.74 715.95 1042.84 723.53"></polyline>
                    <polyline id="Fill-1306" fill="#4D5AA7" points="1104.26 636.08 1095.67 603.11 1093.22 603.74 1101.81 636.72"></polyline>
                    <polyline id="Fill-1307" fill="#4D5AA7" points="1084.86 664.3 1071.47 612.88 1069.02 613.52 1082.41 664.93"></polyline>
                    <polyline id="Fill-1308" fill="#4D5AA7" points="1065.46 692.52 1048.7 628.15 1046.25 628.79 1063.01 693.15"></polyline>
                    <polyline id="Fill-1309" fill="#4D5AA7" points="1046.06 720.72 1028.84 654.61 1026.39 655.25 1043.61 721.36"></polyline>
                    <polyline id="Fill-1310" fill="#4D5AA7" points="1026.66 748.94 1011.87 692.14 1009.42 692.78 1024.21 749.58"></polyline>
                    <path d="M1040.02,731.65 C955.26,730.74 692.61,726.82 533.21,715.36 C237.65,694.1 -3.754,729.21 154.823,769.33 C199.135,780.54 71.328,847.71 384.19,862.91 C658.83,876.26 938.79,847.76 1074.29,835.54 C1209.79,823.31 1272.32,801.58 1301.35,791.79 C1326.88,783.18 1336.31,734.82 1040.02,731.65" id="Fill-1311" fill="#C8F4EA"></path>
                    <path d="M1099.81,536.42 C1099.81,536.42 1097.26,527.89 1100.61,520.18 C1101.82,517.38 1106.26,513.58 1109.16,514.84 C1112.07,516.09 1112.88,520.67 1111.11,524.73 C1107.77,532.45 1099.81,536.42 1099.81,536.42" id="Fill-1312" fill="#24D2AA"></path>
                    <path d="M1095.18,549.67 C1095.18,549.67 1099.15,542.97 1106.03,540.68 C1108.52,539.86 1113.54,540.58 1114.43,543.26 C1115.32,545.93 1112.88,549.15 1109.25,550.36 C1102.37,552.65 1095.18,549.67 1095.18,549.67" id="Fill-1313" fill="#24D2AA"></path>
                    <path d="M1086.88,563.79 C1086.88,563.79 1093.23,559.3 1100.45,560.02 C1103.06,560.28 1107.35,563 1107.07,565.8 C1106.79,568.6 1103.24,570.54 1099.44,570.16 C1092.22,569.45 1086.88,563.79 1086.88,563.79" id="Fill-1314" fill="#24D2AA"></path>
                    <path d="M1094.82,549.94 C1094.82,549.94 1088.23,547.02 1084.53,540.78 C1083.18,538.52 1082.47,533.67 1084.44,532.5 C1086.42,531.32 1089.73,533.24 1091.69,536.52 C1095.4,542.76 1094.82,549.94 1094.82,549.94" id="Fill-1315" fill="#24D2AA"></path>
                    <path d="M1087.79,564.3 C1087.79,564.3 1080.98,561.5 1077.29,555.27 C1075.94,553.01 1075.32,548.1 1077.41,546.86 C1079.51,545.61 1082.91,547.47 1084.86,550.76 C1088.57,556.99 1087.79,564.3 1087.79,564.3" id="Fill-1316" fill="#24D2AA"></path>
                    <path d="M1074.64,581.99 C1074.64,581.99 1068.55,580.39 1065.72,575.64 C1064.69,573.91 1064.62,569.92 1066.72,568.68 C1068.81,567.43 1071.81,568.62 1073.3,571.12 C1076.13,575.89 1074.64,581.99 1074.64,581.99" id="Fill-1317" fill="#24D2AA"></path>
                    <path d="M1075.4,582.44 C1075.4,582.44 1079.98,578.56 1085.86,578.26 C1088,578.15 1091.76,579.6 1091.85,581.62 C1091.95,583.63 1089.33,585.4 1086.23,585.56 C1080.35,585.85 1075.4,582.44 1075.4,582.44" id="Fill-1318" fill="#24D2AA"></path>
                    <path d="M1038.34,663.28 C1039.65,664.6 1040.83,665.03 1040.92,665.06 L1041.42,663.67 L1041.17,664.37 L1041.42,663.68 C1041.28,663.63 1038.17,662.43 1036.84,657.61 C1035.35,652.2 1036.67,644.63 1040.76,635.08 C1046.37,621.99 1057.11,605.57 1072.7,586.26 C1090.8,563.84 1096.04,549.04 1099.52,539.24 C1100.41,536.73 1101.18,534.56 1101.99,532.8 L1100.65,532.18 C1099.81,534.01 1099.03,536.21 1098.12,538.75 C1094.69,548.45 1089.49,563.1 1071.55,585.33 C1036.86,628.31 1032.77,648.62 1035.44,658.09 C1036.14,660.57 1037.28,662.21 1038.34,663.28" id="Fill-1319" fill="#50E3C2"></path>
                    <g id="Group-4" transform="translate(0.000000, 531.000000)">
                        <path d="M339.47,257.74 C344.54,249.95 338.24,243.32 314.16,239.8 C287.88,235.95 262.77,238.56 242.11,243.33 C290.83,219.72 347.64,186.57 295.77,182.73 C279.6,181.54 254.73,189.37 227.07,201.6 C257.93,176.49 274.9,155.85 256.21,152.02 C238.85,148.46 203.465,168.88 165.8,195.99 C187.261,173.27 199.69,153.44 190.049,144.09 C182.182,136.46 165.394,145.22 146.087,161.45 C146.947,147.18 140.953,138.56 127.265,140.29 C114.391,141.92 103.963,158.44 96.517,178.26 C84.165,147.52 51.548,128.72 18.642,138.05 C-20.014,149.01 11.04,222.71 28.333,257.74 L339.47,257.74" id="Fill-1320" fill="#3F408E"></path>
                        <g id="Group-2" transform="translate(138.000000, 0.000000)">
                            <path d="M1.821,225.35 L0.057,224.82 C12.608,182.8 35.217,121.39 71.667,67.5 C93.49,35.23 110.19,20.77 110.36,20.63 L111.56,22.03 C111.39,22.17 94.84,36.51 73.136,68.61 C53.105,98.24 24.475,149.49 1.821,225.35" id="Fill-1321" fill="#4D5AA7"></path>
                            <path d="M119.15,9.68 C131.2,18.16 138.18,28.99 134.74,33.87 C131.31,38.75 118.76,35.84 106.71,27.35 C94.67,18.88 87.69,8.05 91.12,3.17 C94.56,-1.71 107.11,1.2 119.15,9.68" id="Fill-1324" fill="#CFCFE3"></path>
                            <path d="M114.91,15.71 C118.73,18.41 120.95,21.84 119.86,23.39 C118.77,24.94 114.78,24.02 110.96,21.33 C107.13,18.63 104.91,15.19 106,13.65 C107.1,12.1 111.08,13.02 114.91,15.71" id="Fill-1325" fill="#3F408E"></path>
                        </g>
                        <g id="Group-3" transform="translate(128.000000, 37.000000)">
                            <path d="M2.467,172.04 L0.635,171.9 C7.739,84.38 51.876,9.15 52.321,8.4 L53.904,9.34 C53.46,10.09 9.537,84.97 2.467,172.04" id="Fill-1322" fill="#4D5AA7"></path>
                            <path d="M56.522,4.02 C61.54,7.55 64.444,12.06 63.016,14.1 C61.586,16.13 56.359,14.91 51.345,11.39 C46.328,7.85 43.425,3.34 44.853,1.31 C46.286,-0.72 51.508,0.49 56.522,4.02" id="Fill-1326" fill="#CFCFE3"></path>
                            <path d="M54.757,6.53 C56.351,7.65 57.273,9.09 56.819,9.73 C56.365,10.38 54.708,9.99 53.113,8.87 C51.521,7.75 50.598,6.32 51.053,5.67 C51.506,5.03 53.165,5.41 54.757,6.53" id="Fill-1327" fill="#3F408E"></path>
                        </g>
                        <g id="Group" transform="translate(161.000000, 100.000000)">
                            <path d="M2.485,117.28 L0.652,117.13 C4.23,75.07 22.045,48.43 36.36,33.48 C51.889,17.27 66.81,10.92 66.96,10.86 L67.67,12.55 C67.52,12.61 52.894,18.85 37.624,34.82 C23.541,49.54 6.015,75.8 2.485,117.28" id="Fill-1323" fill="#4D5AA7"></path>
                            <path d="M71.78,8 C76.83,14.08 78.93,20.67 76.47,22.72 C74,24.76 67.91,21.49 62.854,15.41 C57.803,9.33 55.702,2.74 58.163,0.69 C60.63,-1.35 66.72,1.92 71.78,8" id="Fill-1328" fill="#CFCFE3"></path>
                            <path d="M68.73,10.53 C70.33,12.46 71,14.55 70.22,15.2 C69.44,15.85 67.5,14.81 65.9,12.88 C64.29,10.95 63.626,8.86 64.41,8.21 C65.2,7.56 67.13,8.6 68.73,10.53" id="Fill-1329" fill="#3F408E"></path>
                        </g>
                    </g>
                    <path d="M808.27,248.24 L873.69,173.44 L1073.26,348.01 L898.7,547.55 L821.21,479.78 C820.93,479.24 820.72,478.7 820.51,478.13 L820.45,477.9 C820.28,477.37 820.13,476.79 820.04,476.25 L820.01,476.13 C819.84,475.08 819.81,474.02 819.9,472.99 C819.93,472.8 819.91,472.64 819.93,472.47 C819.97,472.12 820.06,471.76 820.13,471.43 C820.21,471.05 820.29,470.67 820.4,470.3 C820.49,470 820.59,469.71 820.72,469.43 C820.88,468.99 821.07,468.55 821.29,468.14 C821.42,467.9 821.52,467.68 821.66,467.46 C822.05,466.84 822.46,466.2 822.98,465.62 C825.67,462.56 829.49,461.13 833.28,461.3 C846.26,462.1 859.43,457.1 868.66,446.56 C884.46,428.51 882.64,401.04 864.56,385.22 C846.5,369.43 819.02,371.26 803.22,389.34 C794.01,399.87 790.8,413.61 793.33,426.35 C793.98,430.09 793.11,434.07 790.42,437.15 C789.92,437.73 789.35,438.23 788.78,438.69 C788.57,438.85 788.38,439 788.16,439.14 C787.76,439.42 787.35,439.67 786.95,439.9 C786.67,440.05 786.41,440.18 786.13,440.31 C785.77,440.47 785.41,440.61 785.05,440.75 C784.72,440.83 784.37,440.99 784.04,441.07 C783.88,441.13 783.69,441.13 783.51,441.17 C782.5,441.4 781.46,441.52 780.41,441.47 L780.27,441.47 C779.71,441.44 779.15,441.38 778.56,441.29 L778.34,441.25 C777.77,441.13 777.19,440.99 776.64,440.8 L699.13,373.01 L764.57,298.18 C768.31,292.87 767.58,285.47 762.58,281.12 C759.49,278.41 755.53,277.52 751.8,278.18 C739.05,280.7 725.3,277.53 714.75,268.31 C696.68,252.51 694.84,225.02 710.66,206.97 C726.47,188.89 753.93,187.04 771.99,202.86 C782.55,212.09 787.51,225.27 786.72,238.25 C786.56,242.01 787.98,245.86 791.06,248.55 C796.07,252.94 803.47,252.65 808.27,248.24" id="Fill-1331" fill="#5B84C0"></path>
                    <path d="M590.59,499.8 L525.16,574.6 L325.59,400.03 L500.16,200.49 L577.65,268.26 C577.93,268.8 578.14,269.35 578.34,269.91 L578.41,270.14 C578.58,270.68 578.73,271.26 578.82,271.79 L578.85,271.92 C579.02,272.97 579.05,274.02 578.95,275.05 C578.93,275.24 578.95,275.41 578.93,275.58 C578.88,275.92 578.79,276.28 578.72,276.61 C578.65,276.99 578.56,277.38 578.46,277.75 C578.37,278.04 578.27,278.34 578.14,278.62 C577.98,279.05 577.78,279.49 577.57,279.91 C577.44,280.15 577.34,280.36 577.2,280.58 C576.81,281.21 576.4,281.84 575.87,282.42 C573.18,285.49 569.36,286.92 565.57,286.74 C552.59,285.95 539.42,290.94 530.2,301.48 C514.4,319.53 516.22,347.01 534.29,362.82 C552.36,378.61 579.84,376.78 595.63,358.71 C604.85,348.18 608.05,334.44 605.52,321.69 C604.87,317.95 605.75,313.97 608.43,310.9 C608.94,310.31 609.5,309.81 610.08,309.35 C610.28,309.19 610.48,309.05 610.7,308.9 C611.1,308.62 611.51,308.38 611.91,308.14 C612.19,307.99 612.45,307.86 612.73,307.74 C613.09,307.57 613.44,307.43 613.8,307.3 C614.14,307.21 614.48,307.05 614.81,306.97 C614.98,306.91 615.17,306.91 615.34,306.87 C616.35,306.64 617.39,306.53 618.44,306.58 L618.58,306.58 C619.15,306.6 619.71,306.66 620.29,306.75 L620.52,306.79 C621.09,306.91 621.67,307.06 622.21,307.24 L699.72,375.03 L634.28,449.87 C630.54,455.18 631.28,462.57 636.28,466.92 C639.37,469.63 643.32,470.53 647.05,469.86 C659.81,467.34 673.56,470.51 684.1,479.74 C702.18,495.53 704.02,523.02 688.19,541.07 C672.38,559.15 644.93,561 626.86,545.18 C616.31,535.95 611.35,522.77 612.14,509.79 C612.3,506.04 610.87,502.19 607.79,499.49 C602.78,495.1 595.39,495.39 590.59,499.8" id="Fill-1332" fill="#C8D6EA"></path>
                    <path d="M493.15,563.68 C496.56,570.39 501.09,576.42 507.1,580.92 C527.38,596.08 549.07,603.08 559.43,605.78 L560.33,603.65 L494.73,529.37 C494.73,529.37 491.03,545.93 493.15,563.68" id="Fill-1334" fill="#194866"></path>
                    <path d="M562.19,718.16 C556.04,699.52 543.61,667.23 541.77,654.98 C538.37,632.29 539.98,616 539.98,616 L561.63,605.22 L575.83,716.44 L562.19,718.16" id="Fill-1335" fill="#163F59"></path>
                    <path d="M487.89,511 L512.34,554.48 L496.29,643.89 L473.36,628.99 C473.36,628.99 472.6,608.76 465.34,579.69 C456.17,543.01 487.89,511 487.89,511" id="Fill-1336" fill="#194866"></path>
                    <path d="M465,715.58 C463.9,695.98 467.75,663.08 469.16,650.77 C471.77,627.98 477.95,620.96 477.95,620.96 L499.73,623.25 L482.05,717.45 L465,715.58" id="Fill-1337" fill="#194866"></path>
                    <path d="M470.92,711.51 L467.76,720.49 L466.68,728.52 L468.96,731.63 L470.97,733.13 L471.17,734.62 L477.09,742.67 C478.86,744.36 481.67,745.92 485.59,746.38 C486.93,746.53 486.44,742.55 486.2,741.89 C484.8,738.08 482.19,733.53 482.19,733.53 L478.84,723.8 L475.38,711.87 L470.92,711.51" id="Fill-1338" fill="#194866"></path>
                    <path d="M565.94,713.42 L564.3,717.18 L563.59,721.32 L564.3,727.75 L567.82,727.96 L570.4,727.18 L572.22,728.23 C572.22,728.23 582.25,729.34 585.96,729.15 C592.12,728.83 595.43,727.91 596.53,726.62 C597.15,725.9 594.18,724.85 593.22,724.78 C587.7,724.42 578.94,721.41 578.94,721.41 L574.01,716.72 L572.84,713.19 L565.94,713.42" id="Fill-1339" fill="#163F59"></path>
                    <path d="M558.97,480.27 C558.97,480.27 550.17,489.05 576.3,515.61 C602.42,542.19 607.39,535.28 607.39,535.28 L615.5,530.55 L621.94,503.42 L609.17,499.61 L607.75,501.14 C607.75,501.14 604.99,501.22 603.63,499.19 C602.29,497.15 593.61,490.04 581.21,473.09 C575.49,465.27 560.66,478.56 558.97,480.27" id="Fill-1340" fill="#F4BC57"></path>
                    <path d="M619.79,504.85 C619.79,504.85 646.58,506.2 649.2,478.84 C649.98,470.7 651.96,478.76 653.29,486.67 C654.61,494.58 649.33,516.26 634.86,524.12 C620.4,531.99 614.25,533.73 608.78,529.75 C603.32,525.77 619.79,504.85 619.79,504.85" id="Fill-1341" fill="#E6C0C3"></path>
                    <path d="M599.03,508.14 L602.62,502.16 L604.2,499.85 C605.64,501.2 607.75,501.14 607.75,501.14 L604.2,505.05 L600.92,510.47 L598.97,518.93 L599.03,508.14" id="Fill-1342" fill="#9FC400"></path>
                    <path d="M651.31,487.97 C651.31,487.97 644.3,484.49 643.82,482.3 C643.35,480.11 642.17,471.99 642.17,471.99 L642.06,469.88 C642.06,469.88 644.32,468.45 645.05,473.92 C645.79,479.4 646.89,476.51 646.89,476.51 L648.11,471.28 L650.1,464.98 L650.64,462.08 C650.64,462.08 650.81,460.41 651.19,460.04 C652.29,458.99 652.68,460.21 652.68,460.21 L651.57,471.67 L655.46,461.35 C655.46,461.35 656.18,460.1 656.92,460.22 C657.61,460.32 657.48,460.76 657.48,460.76 L655.81,473.44 L658.41,468.34 C658.41,468.34 659.14,467.14 659.87,467.21 C660.67,467.29 660.89,467.28 660.89,467.28 L653.56,488.31 L651.31,487.97" id="Fill-1343" fill="#E6C0C3"></path>
                    <polyline id="Fill-1352" fill="#61C3AF" points="900.73 527.73 861.25 532.42 859.67 547.9 883.46 554.91 900.73 527.73"></polyline>
                    <path d="M892.67,533.58 C892.67,533.58 914.05,517.2 921.32,512.86 C926.42,509.82 940.91,504.54 940.91,504.54 C940.91,504.54 945.55,511.83 944.79,516.5 C942.57,529.98 929.52,539.51 929.52,539.51 L883.46,554.91 L880.58,545.15 L892.67,533.58" id="Fill-1353" fill="#61C3AF"></path>
                    <path d="M836.74,490.36 L911.54,555.79 L736.97,755.35 L537.43,580.79 L605.2,503.3 C605.74,503.02 606.28,502.81 606.85,502.6 L607.08,502.54 C607.61,502.37 608.19,502.22 608.73,502.13 L608.85,502.1 C609.9,501.93 610.96,501.9 611.99,502 C612.18,502.02 612.34,502 612.52,502.02 C612.86,502.06 613.22,502.15 613.55,502.22 C613.93,502.3 614.32,502.38 614.68,502.49 C614.98,502.58 615.27,502.68 615.56,502.81 C615.99,502.97 616.43,503.16 616.85,503.38 C617.08,503.51 617.3,503.61 617.52,503.75 C618.15,504.14 618.78,504.55 619.36,505.07 C622.43,507.76 623.85,511.59 623.68,515.37 C622.89,528.35 627.88,541.52 638.42,550.75 C656.47,566.55 683.94,564.73 699.76,546.65 C715.55,528.59 713.72,501.11 695.65,485.31 C685.11,476.1 671.37,472.89 658.63,475.42 C654.89,476.07 650.91,475.2 647.83,472.51 C647.25,472.01 646.75,471.44 646.29,470.87 C646.13,470.66 645.99,470.47 645.84,470.25 C645.56,469.85 645.32,469.44 645.08,469.04 C644.93,468.76 644.8,468.5 644.68,468.22 C644.51,467.86 644.37,467.5 644.24,467.14 C644.15,466.81 643.99,466.47 643.91,466.13 C643.85,465.97 643.85,465.78 643.81,465.6 C643.58,464.59 643.47,463.55 643.52,462.5 L643.52,462.37 C643.54,461.8 643.6,461.24 643.69,460.66 L643.73,460.42 C643.85,459.86 643.99,459.28 644.18,458.74 L711.97,381.22 L786.81,446.66 C792.11,450.4 799.51,449.67 803.86,444.67 C806.57,441.58 807.46,437.62 806.8,433.89 C804.28,421.14 807.45,407.39 816.67,396.84 C832.47,378.77 859.96,376.93 878.01,392.75 C896.09,408.56 897.94,436.02 882.12,454.08 C872.89,464.64 859.71,469.6 846.73,468.81 C842.98,468.65 839.13,470.08 836.43,473.15 C832.04,478.16 832.33,485.56 836.74,490.36" id="Fill-1354" fill="#245AAA"></path>
                    <polyline id="Fill-1355" fill="#F8B5AF" points="943.26 505.06 932.4 493.86 917.91 496.92 924.12 509 931.53 517.84 943.26 505.06"></polyline>
                    <path d="M903.08,483.73 C903.84,486.71 906.88,488.53 909.87,487.76 L930.35,482.58 C933.33,481.82 935.14,478.79 934.38,475.79 C933.63,472.8 930.59,470.98 927.59,471.74 L907.13,476.93 C904.13,477.69 902.32,480.73 903.08,483.73" id="Fill-1356" fill="#233770"></path>
                    <path d="M909.22,492.16 C910.62,497.69 916.24,501.04 921.76,499.64 L932.44,496.93 C937.97,495.53 941.32,489.91 939.92,484.38 C938.52,478.85 932.9,475.51 927.37,476.91 L916.69,479.62 C911.17,481.02 907.81,486.64 909.22,492.16" id="Fill-1357" fill="#233770"></path>
                    <path d="M905.24,510.24 L897.3,478.94 C896.04,473.94 901.35,477.9 906.34,476.64 L911.15,475.43 C916.14,474.15 921.21,477.18 922.47,482.16 L928.11,504.44 L905.24,510.24" id="Fill-1358" fill="#E6C0C3"></path>
                    <path d="M920.25,490.16 C920.81,492.36 923.02,493.68 925.22,493.13 C927.41,492.57 928.74,490.35 928.19,488.14 C927.62,485.96 925.41,484.64 923.21,485.18 C921.02,485.75 919.7,487.97 920.25,490.16" id="Fill-1359" fill="#F8B5AF"></path>
                    <path d="M905.37,499.76 C905.69,501.03 904.95,502.31 903.72,502.62 L901.87,503.1 C900.64,503.41 899.39,502.63 899.07,501.36 C899.07,501.36 900.12,488.45 901.34,488.13 C901.34,488.13 902.62,488.9 902.94,490.18 L905.37,499.76" id="Fill-1360" fill="#F8B5AF"></path>
                    <path d="M917.44,505.32 C926.48,503.03 926.72,500.03 926.17,496.8 C926.17,496.8 930.59,504.11 931.24,506.67 L931.96,509.51 C933.36,515.02 928.82,520.91 921.84,522.68 L909.2,525.89 L905.65,511.85 L904.81,508.52 L917.44,505.32" id="Fill-1361" fill="#233770"></path>
                    <path d="M903.33,502.7 L910.55,500.88 C913.88,500.04 917.26,502.04 918.1,505.38 C918.24,505.9 918.27,506.42 918.27,506.93 L905.24,510.24 L903.33,502.7" id="Fill-1362" fill="#233770"></path>
                    <path d="M914.27,506.67 L914.77,508.67 C914.91,509.23 914.58,509.79 914.02,509.93 L908.17,511.41 C907.62,511.56 907.04,511.22 906.91,510.67 L906.41,508.66 L914.27,506.67" id="Fill-1363" fill="#F8B5AF"></path>
                    <path d="M899.02,472.57 L917.53,467.89 C919.53,467.38 921.55,468.59 922.05,470.59 L923.9,477.81 L901.76,483.42 L899.02,472.57" id="Fill-1364" fill="#233770"></path>
                    <path d="M888.9,480.88 C889.66,483.89 892.73,485.72 895.74,484.96 L908.27,481.77 C911.29,481.01 913.11,477.96 912.35,474.95 C911.59,471.93 908.53,470.1 905.51,470.86 L892.98,474.04 C889.97,474.81 888.14,477.87 888.9,480.88" id="Fill-1365" fill="#233770"></path>
                    <polyline id="Fill-1366" fill="#233770" points="916.07 477.01 921.08 475.75 924.41 488.93 919.41 490.19 916.07 477.01"></polyline>
                    <polyline id="Fill-1367" fill="#233770" points="903.35 474.2 918.08 470.47 922.01 485.99 907.28 489.71 903.35 474.2"></polyline>
                    <path d="M918.61,487.06 C917.57,482.95 913.4,480.46 909.27,481.5 L905.43,482.47 C901.31,483.52 899.95,487.41 900.99,491.53 C902.04,495.64 906.22,498.14 910.34,497.09 L913.06,496.41 C917.18,495.37 919.66,491.18 918.61,487.06" id="Fill-1368" fill="#E6C0C3"></path>
                    <path d="M993.92,770.09 C993.92,770.09 999.33,772.28 1001.63,772.71 C1003.54,773.07 1007.03,771.97 1008.76,771.27 C1010.34,770.63 1012.85,769.54 1013.83,767.72 C1015.22,765.13 1017.8,756.68 1017.8,756.68 L1019.32,757.82 L1022.3,752.08 C1022.3,752.08 1019.45,743.98 1016.97,743.5 C1013.65,742.86 1006.05,751.52 1006.05,751.52 L1004.4,762 L1000.32,767.18 C1000.32,767.18 996.63,767.72 995.64,768 C994.69,768.26 993.92,770.09 993.92,770.09" id="Fill-1369" fill="#081832"></path>
                    <path d="M882.96,762.09 L876.59,772.17 L867.69,767.38 L868.42,764.53 L864.14,762.64 L858.04,761.06 L841.3,745.26 C841.3,745.26 842.08,743.35 843.05,743.26 C845.82,742.96 853.01,748.86 853.01,748.86 L867.42,752.25 L882.96,762.09" id="Fill-1370" fill="#081832"></path>
                    <polyline id="Fill-1371" fill="#464B50" points="948.53 651.41 954.09 681.6 1003.05 756.55 1019.2 744.33 978.53 670.52 980.83 611.12 948.53 651.41"></polyline>
                    <path d="M958.64,579.82 C958.64,579.82 916.57,672.23 904.13,693.51 C891.68,714.78 860.68,749.15 860.68,749.15 L883.98,763.72 C883.98,763.72 936.91,693.97 949.73,668.98 C962.54,644 985.75,618.18 985.75,618.18 C985.75,618.18 1007.49,607.22 1003.68,579.63 C999.87,552.05 958.64,579.82 958.64,579.82" id="Fill-1372" fill="#464B50"></path>
                    <path d="M920.87,526.23 L949.12,597.62 L1007.41,584.42 C1007.41,584.42 998.2,559.33 993.69,551.68 C976.19,522 948.67,500.89 948.67,500.89 C948.67,500.89 934.17,490.52 920.87,526.23" id="Fill-1373" fill="#515BA8"></path>
                    <polyline id="Fill-1374" fill="#FAAF3F" points="936.31 497.04 941.1 500.04 924.67 518.25 923.27 512.47 936.31 497.04"></polyline>
                    <path d="M913.22,556.98 L867.49,587.81 C867.49,587.81 870.03,591.22 873.18,590.92 C881.71,590.11 899.85,584.2 908.01,579.65 C919.15,573.41 928.91,565.02 928.91,565.02 L913.22,556.98" id="Fill-1375" fill="#F8B5AF"></path>
                    <path d="M877.04,586.84 L873.35,591.41 C873.35,591.41 871.7,593.69 868.86,595.46 C866.02,597.23 863.09,595.84 860.59,593 C858.09,590.17 857.72,588.18 857.72,588.18 C857.72,588.18 859.27,584.1 862.87,584.93 C866.47,585.79 874.17,582.65 874.81,584.14 C875.45,585.65 877.04,586.84 877.04,586.84" id="Fill-1376" fill="#F8B5AF"></path>
                    <polyline id="Fill-1377" fill="#F8B5AF" points="858.34 586.41 853.62 590.89 849.44 595.28 850.77 595.99 854.2 593.39 861.63 592.47 860.53 590.45 858.34 586.41"></polyline>
                    <polyline id="Fill-1378" fill="#F8B5AF" points="856.14 595.23 853.82 600.26 854.96 601.31 858.16 596.91 863.04 593.94 860.53 590.45 856.14 595.23"></polyline>
                    <polyline id="Fill-1379" fill="#F8B5AF" points="857.27 602.51 858.85 598.32 859.52 595.35 862.06 593.47 864.79 595.65 861.99 597.57 858.97 602.56 857.27 602.51"></polyline>
                    <polyline id="Fill-1380" fill="#F8B5AF" points="861.72 603.84 863.27 595.73 865.17 594.55 867.12 595.94 865.09 599.11 862.96 603.35 861.72 603.84"></polyline>
                    <path d="M876.67,581.86 C874.25,584.32 870.4,583.41 870.4,583.41 C870.4,583.41 860.78,581.37 859.29,582.71 C857.79,584.07 853.76,584.65 853.76,584.65 C853.76,584.65 852.32,585.78 856.2,586.65 C858.74,587.22 860.98,586.91 860.98,586.91 C860.98,586.91 866.33,590.09 868.01,590.03 C871.47,589.91 877.23,583.79 877.23,583.79 C877.23,583.79 876.98,581.55 876.67,581.86" id="Fill-1381" fill="#F8B5AF"></path>
                    <polyline id="Fill-1382" fill="#61C3AF" points="924.4 544.54 894.12 570.34 901.4 584.1 925.07 576.76 924.4 544.54"></polyline>
                    <path d="M920.93,553.9 C920.93,553.9 929.64,528.41 933.3,520.77 C935.85,515.42 945,502.99 945,502.99 C945,502.99 952.91,506.49 954.85,510.79 C960.48,523.25 954.89,538.41 954.89,538.41 L925.07,576.76 L917.27,570.23 L920.93,553.9" id="Fill-1383" fill="#61C3AF"></path>
                    <path d="M516.3,555.5 L467.63,541.86 C467.63,541.86 493.56,493.54 504.31,478.81 C513.09,466.8 540.28,438.99 558.57,454.36 C576.85,469.73 583.72,474.69 583.72,474.69 C583.72,474.69 586.61,495.8 516.3,555.5" id="Fill-1384" fill="#F5A93C"></path>
                    <path d="M595.69,429.6 C595.69,429.6 587.22,461.67 578.9,462.71 C578.53,462.75 573.48,461.12 570.02,462.48 C566.74,463.78 565.71,466.22 564.48,466.88 C564.08,467.09 563.43,467.67 562.55,467.87 C558.3,468.84 555.31,457.63 555.33,455.89 C555.34,454.68 553.41,453.47 554.75,452.45 C557.63,450.27 560.38,447.55 561.05,445.17 C563.02,438.18 560.37,422.92 575.03,419.72 C579.32,418.78 595.6,427.3 595.69,429.6 L631,750" id="Fill-1385" fill="#E6C0C3"></path>
                    <polyline id="Fill-1386" fill="#FECE40" points="565.64 465.35 560.92 471.08 552.52 452.04 555.76 450.92 565.64 465.35"></polyline>
                    <path d="M579.13,462.27 C579.13,462.27 578.37,461.38 577.07,459.58 C576.63,458.98 575.34,457.25 574.5,456.6 C570.79,453.75 570.75,454.2 568.84,452.02 C566.66,449.55 563.12,443.41 563.12,443.41 C563.12,443.41 563.6,447.19 563.78,448.71 C564.09,451.54 565.5,453.38 566.89,454.68 C572.91,460.35 572.24,460.7 573.21,461.1 C573.27,461.12 573.9,461.05 579.13,462.27" id="Fill-1387" fill="#F8B5AF"></path>
                    <path d="M590.58,442.12 C590.35,442.68 590.5,448.38 590.53,449.43 C590.56,450.49 590.64,451.84 590.35,452.1 C590.06,452.36 588.77,452.95 588.22,453.13 C587.68,453.31 585.55,454.13 586.16,451.66 C586.76,449.19 590.58,442.12 590.58,442.12" id="Fill-1388" fill="#F8B5AF"></path>
                    <path d="M575.02,418.2 C582.44,415.85 593.53,421.38 598.59,431.85 C598.59,431.85 597.58,433.56 594.29,434.03 C594.29,434.03 591.92,426.41 584.15,424.46 C576,422.42 579.96,428.23 577.42,429.45 C575.29,430.48 573.35,431.3 573.35,431.3 L570.54,435.22 L568.4,434.67 C568.4,434.67 569.06,429.59 567.5,430.58 C565.61,431.78 564.85,435.5 564.7,436.01 C564.54,436.52 564.3,437.37 564.01,437.42 C563.78,437.46 563.33,440.36 561.04,444.69 C560.08,444.34 559.38,442.57 559.88,439.46 C561.01,432.49 565.97,421.08 575.02,418.2" id="Fill-1389" fill="#233770"></path>
                    <path d="M568.03,430.45 C566.29,429.71 564.3,430.51 563.57,432.25 C562.84,433.98 563.64,435.97 565.36,436.71" id="Fill-1390" fill="#F8B5AF"></path>
                    <path d="M584.73,449.88 C584.73,449.88 588.78,450.37 589.12,450.61 C589.47,450.86 590.37,451.34 590.25,451.72 C590.14,452.11 589.2,452.85 586.97,453.19 C586.42,453.27 587.04,452.42 584.73,449.88" id="Fill-1391" fill="#F8B5AF"></path>
                    <path d="M572.45,542.1 L627.87,562.91 C627.87,562.91 626.06,567.1 622.71,567.57 C613.6,568.84 593.19,567.19 583.54,564.47 C570.35,560.74 558.07,554.4 558.07,554.4 L572.45,542.1" id="Fill-1392" fill="#E6C0C3"></path>
                    <path d="M558.87,490.34 L572.91,537.71 L570.94,540.81 L574.27,542.28 L560.46,556.21 L544.75,548.52 L526.75,483.47 C526.75,483.47 526.23,467.53 540.85,454.58 C551.45,445.19 557.56,486.5 558.87,490.34" id="Fill-1393" fill="#F4BC57"></path>
                    <path d="M553.27,547.97 C553.27,547.97 565.52,542.53 571.8,539.46 L570.94,540.81 L574.27,542.28 L569.45,547.06 L561.61,552.82 L558.23,550.62 L560.13,548.38 L553.27,547.97" id="Fill-1394" fill="#F3AA06"></path>
                    <path d="M618.3,567.85 L624.98,570.64 C624.98,570.64 628.1,572.12 632.26,572.55 C636.41,572.98 638.86,570.28 640.02,566.39 C641.18,562.49 640.46,560.38 640.46,560.38 C640.46,560.38 636.43,557.09 632.91,559.56 C629.41,562.03 619.1,562.46 619.24,564.22 C619.38,565.98 618.3,567.85 618.3,567.85" id="Fill-1395" fill="#E6C0C3"></path>
                    <polyline id="Fill-1396" fill="#E6C0C3" points="638.78 558.94 646.55 561.15 653.68 563.53 652.61 564.84 647.32 563.85 638.57 566.35 638.78 558.94"></polyline>
                    <polyline id="Fill-1397" fill="#E6C0C3" points="646.22 566.53 651.65 570.39 650.98 571.94 644.93 569.1 637.85 568.42 638.64 563.88 646.22 566.53"></polyline>
                    <polyline id="Fill-1398" fill="#E6C0C3" points="649.1 574.14 644.97 570.79 642.53 568.19 638.66 567.52 636.88 570.9 641.07 571.49 647.26 574.97 649.1 574.14"></polyline>
                    <polyline id="Fill-1399" fill="#E6C0C3" points="644.94 577.47 638.6 570.27 635.83 569.98 634.47 572.22 638.5 574.39 643.27 577.57 644.94 577.47"></polyline>
                    <path d="M615.88,562.85 C619.97,564.14 623.71,561.5 623.71,561.5 C623.71,561.5 633.2,555.13 635.62,555.77 C638.05,556.41 642.84,555.13 642.84,555.13 C642.84,555.13 645.09,555.58 641.28,558.2 C638.79,559.91 636.13,560.62 636.13,560.62 C636.13,560.62 632.01,566.16 630.12,566.87 C626.21,568.32 616.36,564.98 616.36,564.98 C616.36,564.98 615.36,562.68 615.88,562.85" id="Fill-1400" fill="#E6C0C3"></path>
                    <polyline id="Fill-1401" fill="#FECE40" points="568.08 463.63 568.97 462.99 568.37 466.92 565.36 472.08 565.07 465.06 568.08 463.63"></polyline>
                    <path d="M574.62,265.01 L499.82,199.58 L674.38,0.01 L873.93,174.58 L806.15,252.07 C805.62,252.35 805.07,252.56 804.51,252.76 L804.27,252.83 C803.74,253 803.16,253.15 802.62,253.24 L802.5,253.27 C801.45,253.44 800.4,253.47 799.37,253.37 C799.17,253.35 799.01,253.37 798.84,253.35 C798.5,253.3 798.13,253.22 797.8,253.15 C797.42,253.07 797.04,252.99 796.67,252.88 C796.38,252.79 796.08,252.69 795.8,252.56 C795.36,252.4 794.93,252.21 794.51,251.99 C794.27,251.86 794.05,251.76 793.84,251.62 C793.21,251.23 792.58,250.82 791.99,250.3 C788.93,247.61 787.5,243.78 787.67,240 C788.47,227.02 783.47,213.85 772.94,204.62 C754.88,188.82 727.41,190.64 711.6,208.72 C695.8,226.78 697.63,254.26 715.71,270.06 C726.24,279.27 739.98,282.48 752.73,279.95 C756.47,279.3 760.44,280.17 763.52,282.85 C764.1,283.36 764.61,283.92 765.06,284.5 C765.23,284.71 765.37,284.9 765.52,285.12 C765.79,285.52 766.04,285.93 766.28,286.33 C766.42,286.61 766.56,286.87 766.68,287.15 C766.85,287.51 766.99,287.86 767.12,288.23 C767.21,288.56 767.36,288.9 767.45,289.23 C767.51,289.4 767.5,289.59 767.55,289.76 C767.78,290.78 767.89,291.81 767.84,292.87 L767.84,293 C767.82,293.57 767.75,294.13 767.67,294.71 L767.62,294.94 C767.51,295.51 767.36,296.09 767.18,296.63 L699.38,374.15 L624.55,308.71 C619.24,304.97 611.85,305.7 607.49,310.7 C604.78,313.79 603.89,317.75 604.56,321.48 C607.08,334.23 603.9,347.98 594.68,358.52 C578.88,376.6 551.4,378.44 533.34,362.61 C515.27,346.81 513.41,319.35 529.23,301.29 C538.47,290.73 551.65,285.77 564.63,286.56 C568.38,286.72 572.23,285.3 574.93,282.22 C579.31,277.21 579.02,269.81 574.62,265.01" id="Fill-1402" fill="#91ACD4"></path>
                </g>
            </g>
        </g>
    </g>
</svg>