<?xml version="1.0" encoding="UTF-8" standalone="no"?>
<svg width="135px" height="126px" viewBox="0 0 135 126" version="1.1" xmlns="http://www.w3.org/2000/svg" xmlns:xlink="http://www.w3.org/1999/xlink">
    <!-- Generator: Sketch 50 (54983) - http://www.bohemiancoding.com/sketch -->
    <title>Group 2</title>
    <desc>Created with Sketch.</desc>
    <defs></defs>
    <g id="My-Claims" stroke="none" stroke-width="1" fill="none" fill-rule="evenodd">
        <g id="upload-document-3" transform="translate(-760.000000, -672.000000)">
            <g id="Group-2" transform="translate(760.000000, 672.000000)">
                <polyline id="Fill-4" fill-opacity="0.8" fill="#245AAA" points="95 19 88.461097 19 88.461097 7.4998775 45.538903 7.4998775 45.538903 19 39 19 39 0 95 0 95 19"></polyline>
                <path d="M123.929218,126 L11.2326015,126 C7.1958404,126 4,122.79878 4,118.755224 L4,18 L130.993977,18 L130.993977,118.755224 C131.161819,122.630655 127.797709,126 123.929218,126" id="Fill-5" fill="#2F424F"></path>
                <path d="M116.775169,62 L18.2248308,62 C8.10016282,62 0,53.8767578 0,43.7232422 L0,18 L135,18 L135,43.5539453 C135,53.7078906 126.899837,62 116.775169,62" id="Fill-6" fill="#CBD1D7"></path>
                <path d="M72.3821522,103.95743 C73.2104991,103.276314 73.7070867,102.255073 73.7070867,101.233831 C73.7070867,100.04231 73.375748,99.1913478 72.713491,98.510664 C72.0512339,97.8295482 70.7262994,97.1488644 68.7391079,96.6380275 L68.7391079,105.318798 C70.2292913,105.148951 71.5542258,104.638114 72.3821522,103.95743 Z M62.2805253,82.6807701 C61.4521784,83.3614539 61.1212601,84.3826955 61.1212601,85.4039372 C61.1212601,86.4251788 61.4521784,87.2765737 62.1148559,87.9572574 C62.7771129,88.6379411 63.936378,89.148778 65.7579002,89.8294617 L65.7579002,81.4892495 C64.2677168,81.6595285 63.1084517,81.9996543 62.2805253,82.6807701 Z M65.7579002,114 L65.7579002,110.425438 C61.4521784,109.914601 57.4777954,108.212676 54,105.148951 L57.4777954,100.893273 C60.1276644,103.276314 62.9427823,104.638114 65.7579002,105.148951 L65.7579002,95.7870648 C62.1148559,94.9361022 59.4649869,93.7445815 57.8091341,92.3827819 C56.1528609,91.0209823 55.3249345,88.8082201 55.3249345,86.0850531 C55.3249345,83.3614539 56.3185303,80.9784126 58.3057218,79.2764872 C60.2933338,77.5741297 62.7771129,76.552888 65.9235696,76.3830413 L65.9235696,74 L69.0700262,74 L69.0700262,76.3830413 C72.5478216,76.723167 75.8599476,77.9146876 79.0064042,79.9571709 L75.8599476,84.3826955 C73.7070867,82.8510491 71.3885565,81.9996543 69.0700262,81.6595285 L69.0700262,90.6808566 L69.2356956,90.6808566 C72.8791603,91.5318193 75.5286089,92.7233399 77.3505515,94.2549863 C79.0064042,95.7870648 80,97.8295482 80,100.723426 C80,103.616872 79.0064042,105.829635 77.0192127,107.53156 C75.0320212,109.233917 72.3821522,110.255159 69.2356956,110.425438 L69.2356956,113.829721 L65.7579002,113.829721 L65.7579002,114 Z" id="Fill-7" fill="#24D2AA"></path>
                <path d="M25.6051658,90 L24.2223685,90 C20.7655946,90 18,87.2959983 18,83.9156743 L18,18 L32,18 L32,83.9156743 C32,87.1269177 29.0615008,90 25.6051658,90" id="Fill-8" fill="#A6ACAE"></path>
                <path d="M110.604727,90 L109.222369,90 C105.765595,90 103,87.2959983 103,83.9156743 L103,18 L117,18 L117,83.9156743 C116.827095,87.1269177 114.061501,90 110.604727,90" id="Fill-9" fill="#A6ACAE"></path>
            </g>
        </g>
    </g>
</svg>