<?xml version="1.0" encoding="UTF-8" standalone="no"?>
<svg width="98px" height="100px" viewBox="0 0 98 100" version="1.1" xmlns="http://www.w3.org/2000/svg" xmlns:xlink="http://www.w3.org/1999/xlink">
    <!-- Generator: Sketch 49.3 (51167) - http://www.bohemiancoding.com/sketch -->
    <title>Group 37</title>
    <desc>Created with Sketch.</desc>
    <defs>
        <path d="M27.6956522,0 L27.6956522,0 C42.9915385,-2.80980874e-15 55.3913043,12.3997658 55.3913043,27.6956522 L55.3913043,32.2033898 L0,32.2033898 L-7.10542736e-15,27.6956522 C-8.97863318e-15,12.3997658 12.3997658,2.80980874e-15 27.6956522,0 Z" id="path-1"></path>
    </defs>
    <g id="HomePage" stroke="none" stroke-width="1" fill="none" fill-rule="evenodd">
        <g id="Home-page-desktop-2" transform="translate(-726.000000, -1129.000000)">
            <g id="Group-34" transform="translate(627.000000, 1082.000000)">
                <g id="Group-37" transform="translate(99.000000, 47.000000)">
                    <ellipse id="Oval-6" fill="#B6BFC5" cx="49.426087" cy="2.54237288" rx="2.55652174" ry="2.54237288"></ellipse>
                    <g id="Oval-5" transform="translate(21.304348, 3.389831)">
                        <mask id="mask-2" fill="white">
                            <use xlink:href="#path-1"></use>
                        </mask>
                        <use id="Mask" fill="#E5EAED" xlink:href="#path-1"></use>
                        <ellipse fill="#D3DADE" mask="url(#mask-2)" cx="12.7826087" cy="12.7118644" rx="21.3043478" ry="25.4237288"></ellipse>
                    </g>
                    <path d="M27.2695652,27.9661017 L30.6782609,27.9661017 L30.6782609,31.3559322 L27.2695652,31.3559322 L27.2695652,27.9661017 Z M32.3826087,27.9661017 L35.7913043,27.9661017 L35.7913043,31.3559322 L32.3826087,31.3559322 L32.3826087,27.9661017 Z M37.4956522,27.9661017 L40.9043478,27.9661017 L40.9043478,31.3559322 L37.4956522,31.3559322 L37.4956522,27.9661017 Z M42.6086957,27.9661017 L46.0173913,27.9661017 L46.0173913,31.3559322 L42.6086957,31.3559322 L42.6086957,27.9661017 Z M47.7217391,27.9661017 L51.1304348,27.9661017 L51.1304348,31.3559322 L47.7217391,31.3559322 L47.7217391,27.9661017 Z M52.8347826,27.9661017 L56.2434783,27.9661017 L56.2434783,31.3559322 L52.8347826,31.3559322 L52.8347826,27.9661017 Z M57.9478261,27.9661017 L61.3565217,27.9661017 L61.3565217,31.3559322 L57.9478261,31.3559322 L57.9478261,27.9661017 Z M63.0608696,27.9661017 L66.4695652,27.9661017 L66.4695652,31.3559322 L63.0608696,31.3559322 L63.0608696,27.9661017 Z M68.173913,27.9661017 L71.5826087,27.9661017 L71.5826087,31.3559322 L68.173913,31.3559322 L68.173913,27.9661017 Z M31.5304348,22.0338983 L34.283612,22.0338983 L34.283612,24.5762712 L31.5304348,24.5762712 L31.5304348,22.0338983 Z M35.6602007,22.0338983 L38.4133779,22.0338983 L38.4133779,24.5762712 L35.6602007,24.5762712 L35.6602007,22.0338983 Z M39.7899666,22.0338983 L42.5431438,22.0338983 L42.5431438,24.5762712 L39.7899666,24.5762712 L39.7899666,22.0338983 Z M43.9197324,22.0338983 L46.6729097,22.0338983 L46.6729097,24.5762712 L43.9197324,24.5762712 L43.9197324,22.0338983 Z M48.0494983,22.0338983 L50.8026756,22.0338983 L50.8026756,24.5762712 L48.0494983,24.5762712 L48.0494983,22.0338983 Z M52.1792642,22.0338983 L54.9324415,22.0338983 L54.9324415,24.5762712 L52.1792642,24.5762712 L52.1792642,22.0338983 Z M56.3090301,22.0338983 L59.0622074,22.0338983 L59.0622074,24.5762712 L56.3090301,24.5762712 L56.3090301,22.0338983 Z M60.438796,22.0338983 L63.1919732,22.0338983 L63.1919732,24.5762712 L60.438796,24.5762712 L60.438796,22.0338983 Z M64.5685619,22.0338983 L67.3217391,22.0338983 L67.3217391,24.5762712 L64.5685619,24.5762712 L64.5685619,22.0338983 Z" id="Combined-Shape" fill="#B6BFC5"></path>
                    <g id="Group-36" transform="translate(0.000000, 34.745763)">
                        <polygon id="Fill-3" fill="#D3DBE1" points="0.852173913 64.5675932 96.5963307 64.5675932 96.5963307 2.54237288 0.852173913 2.54237288 0.852173913 58.5162712"></polygon>
                        <polygon id="Fill-4" fill="#D3DBE1" points="0.364519671 4.32528814 97.9114003 4.32528814 97.9114003 2.88316949 0.364519671 2.88316949"></polygon>
                        <polygon id="Fill-4" fill="#D3DBE1" points="8.8862588 2.63037288 89.3911294 2.63037288 89.3911294 1.18825424 8.8862588 1.18825424"></polygon>
                        <polygon id="Fill-4" fill="#D3DBE1" points="15.7036501 1.78291525 79.1650425 1.78291525 79.1650425 0.34079661 15.7036501 0.34079661"></polygon>
                        <polygon id="Fill-5" fill="#B6BFC5" points="0.364579455 4.31767119 1.27305562 5.75990847 97.0031034 5.75990847 97.91146 4.31767119"></polygon>
                        <polygon id="Fill-8" fill="#C7E8F1" points="22.0543581 23.2370339 26.8607872 23.2370339 26.8607872 5.57642373 22.0543581 5.57642373"></polygon>
                        <polygon id="Fill-8" fill="#C7E8F1" points="36.5413147 23.2370339 41.3477437 23.2370339 41.3477437 5.57642373 36.5413147 5.57642373"></polygon>
                        <polygon id="Fill-8" fill="#C7E8F1" points="53.5847929 23.2370339 58.391222 23.2370339 58.391222 5.57642373 53.5847929 5.57642373"></polygon>
                        <polygon id="Fill-8" fill="#C7E8F1" points="69.7760973 23.2370339 74.5825264 23.2370339 74.5825264 5.57642373 69.7760973 5.57642373"></polygon>
                        <polygon id="Fill-55" fill="#B6BFC5" points="9.01752196 31.2824068 14.6039688 31.2824068 14.6039688 28.7136441 9.01752196 28.7136441"></polygon>
                        <polygon id="Fill-56" fill="#B6BFC5" points="83.5106541 30.1546949 89.0969814 30.1546949 89.0969814 27.5859322 83.5106541 27.5859322"></polygon>
                        <polygon id="Fill-57" fill="#B6BFC5" points="75.9713064 19.155678 81.5576337 19.155678 81.5576337 16.5869153 75.9713064 16.5869153"></polygon>
                        <polygon id="Fill-58" fill="#B6BFC5" points="91.4237709 11.0292712 97.0102177 11.0292712 97.0102177 8.46050847 91.4237709 8.46050847"></polygon>
                        <polygon id="Fill-59" fill="#B6BFC5" points="91.4237709 20.3726102 97.0102177 20.3726102 97.0102177 17.8038475 91.4237709 17.8038475"></polygon>
                        <polygon id="Fill-60" fill="#B6BFC5" points="73.4526106 8.33913559 79.0389379 8.33913559 79.0389379 5.77037288 73.4526106 5.77037288"></polygon>
                        <polygon id="Fill-61" fill="#B6BFC5" points="61.098387 11.8320169 66.6848339 11.8320169 66.6848339 9.26325424 61.098387 9.26325424"></polygon>
                        <polygon id="Fill-62" fill="#B6BFC5" points="45.2331745 8.33913559 50.8195018 8.33913559 50.8195018 5.77037288 45.2331745 5.77037288"></polygon>
                        <polygon id="Fill-63" fill="#B6BFC5" points="29.4255936 11.8320169 35.0119209 11.8320169 35.0119209 9.26325424 29.4255936 9.26325424"></polygon>
                        <polygon id="Fill-64" fill="#B6BFC5" points="15.0060753 17.1963898 20.5924026 17.1963898 20.5924026 14.6276271 15.0060753 14.6276271"></polygon>
                        <polygon id="Fill-65" fill="#B6BFC5" points="1.26594133 22.1088475 6.85226862 22.1088475 6.85226862 19.5400847 1.26594133 19.5400847"></polygon>
                        <polygon id="Fill-66" fill="#B6BFC5" points="1.26594133 10.9090847 6.85226862 10.9090847 6.85226862 8.34032203 1.26594133 8.34032203"></polygon>
                        <polygon id="Fill-72" fill="#D3DBE1" points="83.2956712 36.2539017 13.6223172 36.2539017 11.8054844 22.0455627 85.112504 22.0455627"></polygon>
                        <polygon id="Fill-73" fill="#D3DBE1" points="0.359019552 37.4097797 97.9655645 37.4097797 97.9655645 35.4267627 0.359019552 35.4267627"></polygon>
                        <polygon id="Fill-74" fill="#B6BFC5" points="0.358983682 37.4097559 1.26734028 39.3927729 97.057172 39.3927729 97.9655286 37.4097559"></polygon>
                        <polygon id="Fill-75" fill="#DDE6ED" points="16.0673591 64.9522881 20.0187163 64.9522881 20.0187163 37.4136949 16.0673591 37.4136949"></polygon>
                        <polygon id="Fill-76" fill="#B6BFC5" points="21.9954471 64.9664542 20.0198283 64.9664542 20.0198283 37.4279797 21.9954471 39.4012678"></polygon>
                        <polygon id="Fill-77" fill="#DDE6ED" points="78.2679647 64.9522881 82.2193219 64.9522881 82.2193219 37.4136949 78.2679647 37.4136949"></polygon>
                        <polygon id="Fill-78" fill="#B6BFC5" points="76.2911502 64.9523237 78.266769 64.9523237 78.266769 37.4137305 76.2911502 39.3871373"></polygon>
                        <path d="M39.9635464,51.7280305 L42.1985078,51.7280305 C42.2960751,51.7280305 42.3748703,51.8063356 42.3748703,51.9031492 L42.3748703,56.6300475 C42.3748703,56.726861 42.2960751,56.8051661 42.1985078,56.8051661 C42.1009404,56.8051661 42.0220257,56.726861 42.0220257,56.6300475 L42.0220257,52.0781492 L39.9635464,52.0781492 C39.8660986,52.0781492 39.7870643,51.9998441 39.7870643,51.9031492 C39.7870643,51.8063356 39.8660986,51.7280305 39.9635464,51.7280305 Z M39.9635464,45.6879797 L42.1985078,45.6879797 C42.2960751,45.6879797 42.3748703,45.7662847 42.3748703,45.8629797 L42.3748703,50.5899966 C42.3748703,50.6868102 42.2960751,50.7651153 42.1985078,50.7651153 C42.1009404,50.7651153 42.0220257,50.6868102 42.0220257,50.5899966 L42.0220257,46.0380983 L39.9635464,46.0380983 C39.8660986,46.0380983 39.7870643,45.9597932 39.7870643,45.8629797 C39.7870643,45.7662847 39.8660986,45.6879797 39.9635464,45.6879797 Z M43.9040229,57.7680814 L46.1388647,57.7680814 C46.236432,57.7680814 46.3153468,57.8463864 46.3153468,57.9432 L46.3153468,62.6702169 C46.3153468,62.7669119 46.236432,62.8452169 46.1388647,62.8452169 C46.0414169,62.8452169 45.9623826,62.7669119 45.9623826,62.6702169 L45.9623826,58.1182 L43.9040229,58.1182 C43.8064556,58.1182 43.7275408,58.0398949 43.7275408,57.9432 C43.7275408,57.8463864 43.8064556,57.7680814 43.9040229,57.7680814 Z M43.9040229,51.7280305 L46.1388647,51.7280305 C46.236432,51.7280305 46.3153468,51.8063356 46.3153468,51.9031492 L46.3153468,56.6300475 C46.3153468,56.726861 46.236432,56.8051661 46.1388647,56.8051661 C46.0414169,56.8051661 45.9623826,56.726861 45.9623826,56.6300475 L45.9623826,52.0781492 L43.9040229,52.0781492 C43.8064556,52.0781492 43.7275408,51.9998441 43.7275408,51.9031492 C43.7275408,51.8063356 43.8064556,51.7280305 43.9040229,51.7280305 Z M43.9040229,45.6879797 L46.1388647,45.6879797 C46.236432,45.6879797 46.3153468,45.7662847 46.3153468,45.8629797 L46.3153468,50.5899966 C46.3153468,50.6868102 46.236432,50.7651153 46.1388647,50.7651153 C46.0414169,50.7651153 45.9623826,50.6868102 45.9623826,50.5899966 L45.9623826,46.0380983 L43.9040229,46.0380983 C43.8064556,46.0380983 43.7275408,45.9597932 43.7275408,45.8629797 C43.7275408,45.7662847 43.8064556,45.6879797 43.9040229,45.6879797 Z M42.3748703,62.6702169 C42.3748703,62.7669119 42.2960751,62.8452169 42.1985078,62.8452169 C42.1009404,62.8452169 42.0220257,62.7669119 42.0220257,62.6702169 L42.0220257,58.1182 L39.9635464,58.1182 C39.8660986,58.1182 39.7870643,58.0398949 39.7870643,57.9432 C39.7870643,57.8463864 39.8660986,57.7680814 39.9635464,57.7680814 L42.1985078,57.7680814 C42.2960751,57.7680814 42.3748703,57.8463864 42.3748703,57.9432 L42.3748703,62.6702169 Z M38.6697032,64.7441153 L47.6760284,64.7441153 L47.6760284,44.1998271 L38.6697032,44.1998271 L38.6697032,64.7441153 Z" id="Fill-79" fill="#DDE6ED"></path>
                        <path d="M49.167816,65.1466271 C49.0358132,65.1466271 48.9286804,65.040322 48.9286804,64.909339 L48.9286804,42.7756949 L37.2327972,42.7756949 L37.2327972,64.8708983 C37.2327972,65.0018814 37.1256644,65.1081864 36.9936615,65.1081864 C36.8615391,65.1081864 36.7545259,65.0018814 36.7545259,64.8708983 L36.7545259,42.5384068 C36.7545259,42.4074237 36.8615391,42.3011186 36.9936615,42.3011186 L49.167816,42.3011186 C49.2998189,42.3011186 49.4069516,42.4074237 49.4069516,42.5384068 L49.4069516,64.909339 C49.4069516,65.040322 49.2998189,65.1466271 49.167816,65.1466271" id="Fill-81" fill="#B6BFC5"></path>
                        <path d="M47.8524507,65.1466271 C47.7204478,65.1466271 47.613315,65.040322 47.613315,64.909339 L47.613315,44.2638475 L38.7324165,44.2638475 L38.7324165,64.909339 C38.7324165,65.040322 38.6254033,65.1466271 38.4932809,65.1466271 C38.3612781,65.1466271 38.2541453,65.040322 38.2541453,64.909339 L38.2541453,44.0265593 C38.2541453,43.8955763 38.3612781,43.7892712 38.4932809,43.7892712 L47.8524507,43.7892712 C47.9844535,43.7892712 48.0915863,43.8955763 48.0915863,44.0265593 L48.0915863,64.909339 C48.0915863,65.040322 47.9844535,65.1466271 47.8524507,65.1466271" id="Fill-83" fill="#FEFEFE"></path>
                        <path d="M42.1984958,50.8291593 C42.066493,50.8291593 41.9593602,50.7228542 41.9593602,50.5918712 L41.9593602,46.1021424 L39.963654,46.1021424 C39.8315316,46.1021424 39.7245184,45.9959559 39.7245184,45.8648542 C39.7245184,45.7338712 39.8315316,45.6275661 39.963654,45.6275661 L42.1984958,45.6275661 C42.3304987,45.6275661 42.4376314,45.7338712 42.4376314,45.8648542 L42.4376314,50.5918712 C42.4376314,50.7228542 42.3304987,50.8291593 42.1984958,50.8291593" id="Fill-85" fill="#67757F"></path>
                        <path d="M42.1984958,56.8692339 C42.066493,56.8692339 41.9593602,56.7629288 41.9593602,56.6319458 L41.9593602,52.1422169 L39.963654,52.1422169 C39.8315316,52.1422169 39.7245184,52.0360305 39.7245184,51.9049288 C39.7245184,51.7739458 39.8315316,51.6676407 39.963654,51.6676407 L42.1984958,51.6676407 C42.3304987,51.6676407 42.4376314,51.7739458 42.4376314,51.9049288 L42.4376314,56.6319458 C42.4376314,56.7629288 42.3304987,56.8692339 42.1984958,56.8692339" id="Fill-87" fill="#67757F"></path>
                        <path d="M42.1984958,62.9093085 C42.066493,62.9093085 41.9593602,62.8030034 41.9593602,62.6720203 L41.9593602,58.1822915 L39.963654,58.1822915 C39.8315316,58.1822915 39.7245184,58.0761051 39.7245184,57.9450034 C39.7245184,57.8140203 39.8315316,57.7077153 39.963654,57.7077153 L42.1984958,57.7077153 C42.3304987,57.7077153 42.4376314,57.8140203 42.4376314,57.9450034 L42.4376314,62.6720203 C42.4376314,62.8030034 42.3304987,62.9093085 42.1984958,62.9093085" id="Fill-89" fill="#67757F"></path>
                        <path d="M46.1389245,50.8291593 C46.0069216,50.8291593 45.8997889,50.7228542 45.8997889,50.5918712 L45.8997889,46.1021424 L43.9040827,46.1021424 C43.7720798,46.1021424 43.6649471,45.9959559 43.6649471,45.8648542 C43.6649471,45.7338712 43.7720798,45.6275661 43.9040827,45.6275661 L46.1389245,45.6275661 C46.2709273,45.6275661 46.3780601,45.7338712 46.3780601,45.8648542 L46.3780601,50.5918712 C46.3780601,50.7228542 46.2709273,50.8291593 46.1389245,50.8291593" id="Fill-91" fill="#67757F"></path>
                        <path d="M46.1389245,56.8692339 C46.0069216,56.8692339 45.8997889,56.7629288 45.8997889,56.6319458 L45.8997889,52.1422169 L43.9040827,52.1422169 C43.7720798,52.1422169 43.6649471,52.0360305 43.6649471,51.9049288 C43.6649471,51.7739458 43.7720798,51.6676407 43.9040827,51.6676407 L46.1389245,51.6676407 C46.2709273,51.6676407 46.3780601,51.7739458 46.3780601,51.9049288 L46.3780601,56.6319458 C46.3780601,56.7629288 46.2709273,56.8692339 46.1389245,56.8692339" id="Fill-93" fill="#67757F"></path>
                        <path d="M46.1389245,62.9093085 C46.0069216,62.9093085 45.8997889,62.8030034 45.8997889,62.6720203 L45.8997889,58.1822915 L43.9040827,58.1822915 C43.7720798,58.1822915 43.6649471,58.0761051 43.6649471,57.9450034 C43.6649471,57.8140203 43.7720798,57.7077153 43.9040827,57.7077153 L46.1389245,57.7077153 C46.2709273,57.7077153 46.3780601,57.8140203 46.3780601,57.9450034 L46.3780601,62.6720203 C46.3780601,62.8030034 46.2709273,62.9093085 46.1389245,62.9093085" id="Fill-95" fill="#67757F"></path>
                        <path d="M52.0888216,51.7280305 L54.3236634,51.7280305 C54.4212307,51.7280305 54.5001455,51.8063356 54.5001455,51.9031492 L54.5001455,56.6300475 C54.5001455,56.726861 54.4212307,56.8051661 54.3236634,56.8051661 C54.2262156,56.8051661 54.1473009,56.726861 54.1473009,56.6300475 L54.1473009,52.0781492 L52.0888216,52.0781492 C51.9912543,52.0781492 51.9123395,51.9998441 51.9123395,51.9031492 C51.9123395,51.8063356 51.9912543,51.7280305 52.0888216,51.7280305 Z M52.0888216,45.6879797 L54.3236634,45.6879797 C54.4212307,45.6879797 54.5001455,45.7662847 54.5001455,45.8629797 L54.5001455,50.5899966 C54.5001455,50.6868102 54.4212307,50.7651153 54.3236634,50.7651153 C54.2262156,50.7651153 54.1473009,50.6868102 54.1473009,50.5899966 L54.1473009,46.0380983 L52.0888216,46.0380983 C51.9912543,46.0380983 51.9123395,45.9597932 51.9123395,45.8629797 C51.9123395,45.7662847 51.9912543,45.6879797 52.0888216,45.6879797 Z M56.0291785,57.7680814 L58.2641399,57.7680814 C58.3615876,57.7680814 58.4406219,57.8463864 58.4406219,57.9432 L58.4406219,62.6702169 C58.4406219,62.7669119 58.3615876,62.8452169 58.2641399,62.8452169 C58.1665725,62.8452169 58.0876578,62.7669119 58.0876578,62.6702169 L58.0876578,58.1182 L56.0291785,58.1182 C55.9317308,58.1182 55.8526964,58.0398949 55.8526964,57.9432 C55.8526964,57.8463864 55.9317308,57.7680814 56.0291785,57.7680814 Z M56.0291785,51.7280305 L58.2641399,51.7280305 C58.3615876,51.7280305 58.4406219,51.8063356 58.4406219,51.9031492 L58.4406219,56.6300475 C58.4406219,56.726861 58.3615876,56.8051661 58.2641399,56.8051661 C58.1665725,56.8051661 58.0876578,56.726861 58.0876578,56.6300475 L58.0876578,52.0781492 L56.0291785,52.0781492 C55.9317308,52.0781492 55.8526964,51.9998441 55.8526964,51.9031492 C55.8526964,51.8063356 55.9317308,51.7280305 56.0291785,51.7280305 Z M56.0291785,45.6879797 L58.2641399,45.6879797 C58.3615876,45.6879797 58.4406219,45.7662847 58.4406219,45.8629797 L58.4406219,50.5899966 C58.4406219,50.6868102 58.3615876,50.7651153 58.2641399,50.7651153 C58.1665725,50.7651153 58.0876578,50.6868102 58.0876578,50.5899966 L58.0876578,46.0380983 L56.0291785,46.0380983 C55.9317308,46.0380983 55.8526964,45.9597932 55.8526964,45.8629797 C55.8526964,45.7662847 55.9317308,45.6879797 56.0291785,45.6879797 Z M54.5001455,62.6702169 C54.5001455,62.7669119 54.4212307,62.8452169 54.3236634,62.8452169 C54.2262156,62.8452169 54.1473009,62.7669119 54.1473009,62.6702169 L54.1473009,58.1182 L52.0888216,58.1182 C51.9912543,58.1182 51.9123395,58.0398949 51.9123395,57.9432 C51.9123395,57.8463864 51.9912543,57.7680814 52.0888216,57.7680814 L54.3236634,57.7680814 C54.4212307,57.7680814 54.5001455,57.8463864 54.5001455,57.9432 L54.5001455,62.6702169 Z M50.7949784,64.7441153 L59.801184,64.7441153 L59.801184,44.1998271 L50.7949784,44.1998271 L50.7949784,64.7441153 Z" id="Fill-97" fill="#DDE6ED"></path>
                        <polygon id="Fill-99" fill="#97A2A9" points="39.8007309 50.7650678 42.1397163 50.7650678 42.1397163 45.8638814 39.8007309 45.8638814"></polygon>
                        <polygon id="Fill-101" fill="#97A2A9" points="43.7275767 50.7650678 46.0664425 50.7650678 46.0664425 45.8638814 43.7275767 45.8638814"></polygon>
                        <polygon id="Fill-103" fill="#97A2A9" points="39.8007309 56.8051186 42.1397163 56.8051186 42.1397163 51.9039322 39.8007309 51.9039322"></polygon>
                        <polygon id="Fill-105" fill="#97A2A9" points="43.7275767 56.8051186 46.0664425 56.8051186 46.0664425 51.9039322 43.7275767 51.9039322"></polygon>
                        <polygon id="Fill-107" fill="#97A2A9" points="39.8007309 62.8452881 42.1397163 62.8452881 42.1397163 57.9441017 39.8007309 57.9441017"></polygon>
                        <polygon id="Fill-109" fill="#97A2A9" points="43.7275767 62.8452881 46.0664425 62.8452881 46.0664425 57.9441017 43.7275767 57.9441017"></polygon>
                        <polygon id="Fill-111" fill="#97A2A9" points="51.9261018 50.7650678 54.2649675 50.7650678 54.2649675 45.8638814 51.9261018 45.8638814"></polygon>
                        <polygon id="Fill-113" fill="#97A2A9" points="55.8527084 50.7650678 58.1916937 50.7650678 58.1916937 45.8638814 55.8527084 45.8638814"></polygon>
                        <polygon id="Fill-115" fill="#97A2A9" points="51.9261018 56.8051186 54.2649675 56.8051186 54.2649675 51.9039322 51.9261018 51.9039322"></polygon>
                        <polygon id="Fill-117" fill="#97A2A9" points="55.8527084 56.8051186 58.1916937 56.8051186 58.1916937 51.9039322 55.8527084 51.9039322"></polygon>
                        <polygon id="Fill-119" fill="#97A2A9" points="51.9261018 62.8452881 54.2649675 62.8452881 54.2649675 57.9441017 51.9261018 57.9441017"></polygon>
                        <polygon id="Fill-121" fill="#97A2A9" points="55.8527084 62.8452881 58.1916937 62.8452881 58.1916937 57.9441017 55.8527084 57.9441017"></polygon>
                        <path d="M61.2930314,65.1466271 C61.1610286,65.1466271 61.0538958,65.040322 61.0538958,64.909339 L61.0538958,42.7756949 L49.1188769,42.7756949 C48.9867545,42.7756949 48.8797413,42.6695085 48.8797413,42.5384068 C48.8797413,42.4074237 48.9867545,42.3011186 49.1188769,42.3011186 L61.2930314,42.3011186 C61.4250343,42.3011186 61.532167,42.4074237 61.532167,42.5384068 L61.532167,64.909339 C61.532167,65.040322 61.4250343,65.1466271 61.2930314,65.1466271" id="Fill-123" fill="#B6BFC5"></path>
                        <path d="M59.977678,65.1466271 C59.8456751,65.1466271 59.7385424,65.040322 59.7385424,64.909339 L59.7385424,44.2638475 L50.8577634,44.2638475 L50.8577634,64.7807288 C50.8577634,64.9118305 50.7506307,65.0180169 50.6186278,65.0180169 C50.4865054,65.0180169 50.3794922,64.9118305 50.3794922,64.7807288 L50.3794922,44.0265593 C50.3794922,43.8955763 50.4865054,43.7892712 50.6186278,43.7892712 L59.977678,43.7892712 C60.1096809,43.7892712 60.2168136,43.8955763 60.2168136,44.0265593 L60.2168136,64.909339 C60.2168136,65.040322 60.1096809,65.1466271 59.977678,65.1466271" id="Fill-125" fill="#FEFEFE"></path>
                        <path d="M54.3237112,50.8291593 C54.1917084,50.8291593 54.0845756,50.7228542 54.0845756,50.5918712 L54.0845756,46.1021424 L52.0888694,46.1021424 C51.9568666,46.1021424 51.8497338,45.9959559 51.8497338,45.8648542 C51.8497338,45.7338712 51.9568666,45.6275661 52.0888694,45.6275661 L54.3237112,45.6275661 C54.4557141,45.6275661 54.5628468,45.7338712 54.5628468,45.8648542 L54.5628468,50.5918712 C54.5628468,50.7228542 54.4557141,50.8291593 54.3237112,50.8291593" id="Fill-127" fill="#6C7883"></path>
                        <path d="M54.3237112,56.8692339 C54.1917084,56.8692339 54.0845756,56.7629288 54.0845756,56.6319458 L54.0845756,52.1422169 L52.0888694,52.1422169 C51.9568666,52.1422169 51.8497338,52.0360305 51.8497338,51.9049288 C51.8497338,51.7739458 51.9568666,51.6676407 52.0888694,51.6676407 L54.3237112,51.6676407 C54.4557141,51.6676407 54.5628468,51.7739458 54.5628468,51.9049288 L54.5628468,56.6319458 C54.5628468,56.7629288 54.4557141,56.8692339 54.3237112,56.8692339" id="Fill-129" fill="#6C7883"></path>
                        <path d="M54.3237112,62.9093085 C54.1917084,62.9093085 54.0845756,62.8030034 54.0845756,62.6720203 L54.0845756,58.1822915 L52.0888694,58.1822915 C51.9568666,58.1822915 51.8497338,58.0761051 51.8497338,57.9450034 C51.8497338,57.8140203 51.9568666,57.7077153 52.0888694,57.7077153 L54.3237112,57.7077153 C54.4557141,57.7077153 54.5628468,57.8140203 54.5628468,57.9450034 L54.5628468,62.6720203 C54.5628468,62.8030034 54.4557141,62.9093085 54.3237112,62.9093085" id="Fill-131" fill="#6C7883"></path>
                        <path d="M58.2641997,50.8291593 C58.1321968,50.8291593 58.0250641,50.7228542 58.0250641,50.5918712 L58.0250641,46.1021424 L56.0293579,46.1021424 C55.8972354,46.1021424 55.7902223,45.9959559 55.7902223,45.8648542 C55.7902223,45.7338712 55.8972354,45.6275661 56.0293579,45.6275661 L58.2641997,45.6275661 C58.3962025,45.6275661 58.5033353,45.7338712 58.5033353,45.8648542 L58.5033353,50.5918712 C58.5033353,50.7228542 58.3962025,50.8291593 58.2641997,50.8291593" id="Fill-133" fill="#6C7883"></path>
                        <path d="M58.2641997,56.8692339 C58.1321968,56.8692339 58.0250641,56.7629288 58.0250641,56.6319458 L58.0250641,52.1422169 L56.0293579,52.1422169 C55.8972354,52.1422169 55.7902223,52.0360305 55.7902223,51.9049288 C55.7902223,51.7739458 55.8972354,51.6676407 56.0293579,51.6676407 L58.2641997,51.6676407 C58.3962025,51.6676407 58.5033353,51.7739458 58.5033353,51.9049288 L58.5033353,56.6319458 C58.5033353,56.7629288 58.3962025,56.8692339 58.2641997,56.8692339" id="Fill-135" fill="#6C7883"></path>
                        <path d="M58.2641997,62.9093085 C58.1321968,62.9093085 58.0250641,62.8030034 58.0250641,62.6720203 L58.0250641,58.1822915 L56.0293579,58.1822915 C55.8972354,58.1822915 55.7902223,58.0761051 55.7902223,57.9450034 C55.7902223,57.8140203 55.8972354,57.7077153 56.0293579,57.7077153 L58.2641997,57.7077153 C58.3962025,57.7077153 58.5033353,57.8140203 58.5033353,57.9450034 L58.5033353,62.6720203 C58.5033353,62.8030034 58.3962025,62.9093085 58.2641997,62.9093085" id="Fill-137" fill="#6C7883"></path>
                        <polygon id="Fill-207" fill="#B6BFC5" points="14.4223334 28.0201814 14.1638278 25.7787576 11.2604824 25.7787576 11.5470864 28.0201814"></polygon>
                        <polygon id="Fill-208" fill="#B6BFC5" points="14.9900532 31.7533051 14.7316672 29.512 11.8282023 29.512 12.1148063 31.7533051"></polygon>
                        <polygon id="Fill-209" fill="#B6BFC5" points="15.557821 35.4182915 15.2994349 33.1769864 12.39597 33.1769864 12.682574 35.4182915"></polygon>
                        <polygon id="Fill-210" fill="#B6BFC5" points="82.660814 28.0201814 82.9192001 25.7787576 85.822665 25.7787576 85.536061 28.0201814"></polygon>
                        <polygon id="Fill-211" fill="#B6BFC5" points="82.0930463 31.7533051 82.3514323 29.512 85.2548973 29.512 84.9682933 31.7533051"></polygon>
                        <polygon id="Fill-212" fill="#B6BFC5" points="81.5253264 35.4406559 81.7837125 33.1993508 84.6871774 33.1993508 84.4005734 35.4406559"></polygon>
                        <polygon id="Fill-213" fill="#DDE6ED" points="25.2232636 35.418339 27.2584272 35.418339 27.2584272 23.8132881 25.2232636 23.8132881"></polygon>
                        <polygon id="Fill-214" fill="#DDE6ED" points="39.8709172 35.418339 41.9060808 35.418339 41.9060808 23.8132881 39.8709172 23.8132881"></polygon>
                        <polygon id="Fill-216" fill="#DDE6ED" points="69.1661049 35.418339 71.201388 35.418339 71.201388 23.8132881 69.1661049 23.8132881"></polygon>
                        <polygon id="Fill-217" fill="#DDE6ED" points="86.1625484 23.9196644 86.6426132 21.6783593 10.5111629 21.6783593 10.8819427 23.9196644"></polygon>
                    </g>
                </g>
            </g>
        </g>
    </g>
</svg>