<?xml version="1.0" encoding="UTF-8" standalone="no"?>
<svg width="185px" height="348px" viewBox="0 0 185 348" version="1.1" xmlns="http://www.w3.org/2000/svg" xmlns:xlink="http://www.w3.org/1999/xlink">
    <!-- Generator: Sketch 49.3 (51167) - http://www.bohemiancoding.com/sketch -->
    <title>Page 1</title>
    <desc>Created with Sketch.</desc>
    <defs>
        <polygon id="path-1" points="0.212109307 0.0500624569 132.348159 0.0500624569 132.348159 11.1871412 0.212109307 11.1871412"></polygon>
    </defs>
    <g id="About-Us" stroke="none" stroke-width="1" fill="none" fill-rule="evenodd">
        <g transform="translate(-1065.000000, -990.000000)" id="Page-1">
            <g transform="translate(1065.000000, 990.000000)">
                <path d="M80.1612608,241.156329 C80.1612608,241.156329 92.0409037,108.775291 106.589832,8.22406705 L107.45757,2.29767899 C107.45757,2.29767899 60.5400487,61.7625286 73.8212067,201.601794 C74.1647781,205.221234 76.0596266,208.282115 76.5573647,211.989854 L80.1612608,241.156329 Z" id="Fill-1" fill="#99C577"></path>
                <path d="M79.8972955,249.42902 C79.8628582,249.357502 79.8428366,249.306361 79.8400335,249.279991 C78.3384102,233.897672 74.5551201,134.678517 3.8787132,90.5292634 C12.7110617,109.429139 49.5949361,174.033282 79.7607478,249.496542 C79.8059968,249.473769 79.8520465,249.451794 79.8972955,249.42902" id="Fill-3" fill="#99C577"></path>
                <path d="M81.9131548,253.442207 C81.8839232,254.030731 80.7559037,254.490602 80.733079,255.082322 C80.733079,255.082322 174.668231,206.126992 183.386856,105.239755 C167.98941,118.630363 109.977895,198.783833 81.9131548,253.442207" id="Fill-5" fill="#99C577"></path>
                <g id="Group-9" transform="translate(18.019481, 336.595908)">
                    <mask id="mask-2" fill="white">
                        <use xlink:href="#path-1"></use>
                    </mask>
                    <g id="Clip-8"></g>
                    <path d="M85.6648907,0.0500624569 C82.8702695,1.86957107 80.0255942,3.38223238 76.7072067,4.28879036 C73.2454643,5.23410379 69.6291548,5.6831876 66.0424773,5.68638393 C59.1466223,5.69317612 52.0317305,4.05665718 46.3391764,0.0652450057 C19.5978669,0.793607807 0.212109307,2.94873065 0.212109307,5.49380528 C0.212109307,8.63819104 29.7916872,11.1872611 66.2803344,11.1872611 C102.768581,11.1872611 132.348159,8.63819104 132.348159,5.49380528 C132.348159,2.93075132 112.693711,0.764041791 85.6648907,0.0500624569" id="Fill-7" fill="#D0D2D3" mask="url(#mask-2)"></path>
                </g>
                <path d="M91.8422489,248.600093 C90.4267186,249.715611 88.6091537,250.484727 87.0086234,251.289002 C85.2058745,252.19556 83.3654848,252.966674 81.3781364,253.356625 C81.0505823,253.420952 80.6337316,253.382995 80.404684,253.099721 C78.954316,251.309379 76.5369026,250.137526 74.7938182,248.584111 C46.7046515,248.847009 25.0456364,250.519087 25.0456364,252.543161 C25.0456364,254.749824 50.7850628,256.538568 82.5357879,256.538568 C114.286913,256.538568 140.025539,254.749824 140.025539,252.543161 C140.025539,250.556644 119.166589,248.909337 91.8422489,248.600093" id="Fill-10" fill="#C3996B"></path>
                <path d="M84.2997348,257.029084 C61.970395,257.029084 40.9736959,256.154889 25.1770184,254.567114 C17.4730898,253.793204 11.4169426,252.889842 7.17715909,251.8822 C2.21339286,250.703155 0.00020021645,249.455789 0.00020021645,247.838848 C0.00020021645,246.131211 2.17855519,243.899376 19.1673214,241.782209 C30.926434,240.316694 47.3906331,239.279486 65.52704,238.861167 C65.9543019,238.841589 66.3363149,239.200377 66.3459253,239.64147 C66.3563366,240.082563 66.0059578,240.448542 65.5638799,240.45893 C47.4799297,240.876051 31.0729924,241.909263 19.3659361,243.368386 C1.80455087,245.556671 1.60193182,247.816074 1.60193182,247.838848 C1.60193182,247.866017 1.87302489,250.619252 25.337592,252.976942 C41.0826136,254.559523 62.0224513,255.430921 84.2997348,255.430921 C106.577018,255.430921 127.516856,254.559523 143.261878,252.976942 C166.726044,250.619252 166.997538,247.866017 166.997538,247.838848 C166.997538,247.816473 166.797321,245.580244 149.505427,243.402347 C137.979367,241.950416 121.787062,240.912409 103.911737,240.479707 C103.469659,240.468919 103.119681,240.10254 103.130492,239.661447 C103.141705,239.220354 103.5073,238.877548 103.950579,238.881943 C121.87836,239.316244 138.127927,240.358246 149.706044,241.81657 C166.451748,243.925746 168.599269,246.142797 168.599269,247.838848 C168.599269,249.455789 166.385676,250.703155 161.422311,251.8822 C157.182127,252.889842 151.125979,253.793204 143.422051,254.567114 C127.625774,256.154889 106.629075,257.029084 84.2997348,257.029084" id="Fill-12" fill="#C3996B"></path>
                <path d="M36.3342002,307.978522 C31.2871439,307.978522 30.833053,306.624079 30.6316353,306.02237 C30.4910833,305.604051 30.7177284,305.151371 31.1369816,305.011132 C31.555434,304.870494 32.0103258,305.097433 32.1504773,305.515752 C32.1865162,305.623229 33.2468626,308.097984 52.1625119,304.261594 C64.9167002,301.675367 81.4902175,297.066265 98.8293626,291.283312 C136.830044,278.610278 159.243475,266.717548 161.744579,261.519922 C161.935986,261.12198 162.414904,260.955371 162.812934,261.145553 C163.212166,261.336533 163.379947,261.813984 163.18854,262.211927 C160.05275,268.729236 133.796365,281.307178 99.3371115,292.799169 C81.9379015,298.6017 65.2975119,303.228781 52.4812565,305.827794 C44.5394708,307.438343 39.5212457,307.978522 36.3342002,307.978522" id="Fill-14" fill="#C3996B"></path>
                <path d="M84.2997348,343.323056 C59.8064556,343.323056 38.3084145,318.326188 24.5867803,297.355892 C9.23498377,273.895258 0.00020021645,250.311166 0.00020021645,247.838808 C0.00020021645,247.397315 0.358587662,247.039726 0.801066017,247.039726 C1.24314394,247.039726 1.60193182,247.397315 1.60193182,247.838808 C1.60193182,249.637141 10.3686093,272.704227 25.9278301,296.482496 C39.4332305,317.121572 60.5232305,341.724893 84.2997348,341.724893 C108.076239,341.724893 129.166239,317.121572 142.671239,296.482496 C158.23086,272.704227 166.997538,249.63754 166.997538,247.838808 C166.997538,247.397315 167.355925,247.039726 167.798404,247.039726 C168.240482,247.039726 168.599269,247.397315 168.599269,247.838808 C168.599269,250.311166 159.364085,273.895258 144.012689,297.355892 C130.291055,318.326188 108.793014,343.323056 84.2997348,343.323056" id="Fill-16" fill="#C3996B"></path>
                <path d="M4.35666991,91.5035435 C2.01573918,110.928017 4.48080411,131.409275 11.6881959,152.399548 C17.577763,169.551034 26.6283474,187.079286 38.5888777,204.497665 C55.9880877,229.835741 74.6106201,247.617302 79.8322652,252.403801 C78.1968972,223.643658 73.2595595,197.348682 65.1491916,174.215672 C58.5204253,155.307406 49.7685639,138.458372 39.1370703,124.136834 C23.5145812,103.091424 8.32936472,93.7257892 4.35666991,91.5035435 M80.7368431,255.094308 C80.5474383,255.094308 80.3600357,255.027185 80.2110747,254.898134 C79.9892348,254.705155 57.7916374,235.280283 37.2898734,205.43299 C25.2412478,187.892352 16.1201872,170.230253 10.1801656,152.938129 C2.74412662,131.291011 0.2986829,110.164494 2.91310931,90.145904 C2.94634524,89.890997 3.1005119,89.6676537 3.32755736,89.5457938 C3.55500325,89.4235343 3.82649675,89.4183403 4.05794697,89.5306113 C4.23533874,89.6169121 22.029776,98.443966 40.3547868,123.092434 C51.0988019,137.542625 59.9395595,154.538689 66.6327955,173.607571 C74.9914318,197.4202 80.006053,224.553812 81.5365076,254.254473 C81.5529253,254.574506 81.3763344,254.873762 81.0872219,255.014 C80.9759015,255.067938 80.8561721,255.094308 80.7368431,255.094308" id="Fill-18" fill="#99C577"></path>
                <path d="M73.8204459,202.400875 C73.4092013,202.400875 73.0592229,202.086437 73.0235844,201.670115 C69.9038117,165.400604 70.1672965,131.662584 73.8064307,101.392577 C78.8202511,59.6885125 90.2117662,25.691989 107.664634,0.34712101 C107.848833,0.0786296211 108.177989,-0.0516206659 108.497134,0.0190980482 C108.815879,0.0894172216 109.059742,0.345123307 109.114201,0.665954535 C109.15024,0.87970884 112.760944,22.3817938 114.716658,53.5583587 C116.52181,82.3348822 117.246593,125.485284 110.450846,167.634836 C110.38037,168.070336 109.967524,168.364797 109.533054,168.296875 C109.096182,168.226556 108.799061,167.816627 108.869136,167.380728 C112.606377,144.200972 116.377654,105.658873 113.119331,53.6802186 C111.509991,28.010524 108.777037,8.92326338 107.851636,2.92216119 C91.1852186,27.8702852 80.2698182,61.0485493 75.3969502,101.583158 C71.7706299,131.74449 71.5091472,165.372637 74.6193095,201.533472 C74.6569502,201.973367 74.330197,202.360122 73.8897208,202.398079 C73.8664957,202.400076 73.8432706,202.400875 73.8204459,202.400875" id="Fill-20" fill="#99C577"></path>
                <path d="M182.883632,105.192689 C177.575494,107.765731 156.129108,118.853387 134.54097,139.697828 C120.011662,153.727302 108.260558,169.368124 99.6144113,186.186393 C89.0225606,206.788312 83.0849416,229.230916 81.9581234,252.911297 C87.1177013,250.017424 107.670721,237.842218 128.762723,216.466388 C142.997312,202.04017 154.689552,186.306654 163.514693,169.70254 C174.317171,149.377901 180.831013,127.68084 182.883632,105.192689 M81.0963918,255.094388 C80.9474307,255.094388 80.7984697,255.052836 80.6679286,254.97053 C80.4264675,254.817906 80.2847143,254.548615 80.2963268,254.263743 C81.2597684,229.815444 87.2854827,206.654866 98.2052879,185.425268 C106.938729,168.446783 118.803156,152.662126 133.469411,138.509194 C158.432799,114.418485 183.228805,103.255316 183.476273,103.145442 C183.734952,103.031173 184.034476,103.060739 184.265926,103.224152 C184.496576,103.387564 184.623913,103.66045 184.600288,103.941727 C182.673405,127.151449 176.050245,149.538117 164.914606,170.480046 C156.01058,187.225199 144.218632,203.087366 129.866716,217.625855 C105.435504,242.373809 81.7038485,254.880234 81.4667922,255.003692 C81.3502662,255.064423 81.223329,255.094388 81.0963918,255.094388" id="Fill-22" fill="#99C577"></path>
                <path d="M80.4044838,253.699112 C80.1538128,253.699112 79.9203604,253.541693 79.8354686,253.29158 C62.8294838,203.176384 4.13923485,92.5874976 3.54819589,91.4763747 C3.39322835,91.1839109 3.5045487,90.8211279 3.79726515,90.6661061 C4.09198377,90.5114838 4.45437554,90.6221566 4.60974351,90.9146204 C5.20078247,92.0265424 63.9362803,202.700531 80.9734989,252.907622 C81.0800141,253.220862 80.9114318,253.56127 80.597092,253.667149 C80.5330227,253.688724 80.4681526,253.699112 80.4044838,253.699112" id="Fill-24" fill="#99C577"></path>
                <path d="M81.377816,253.956056 C81.2773074,253.956056 81.1755974,253.930885 81.0822965,253.878146 C80.7935844,253.714734 80.6918745,253.348755 80.8556515,253.061085 C81.4663117,251.985921 142.388173,145.075606 182.425457,104.732378 C182.658108,104.497448 183.038119,104.49545 183.274775,104.728383 C183.51063,104.961315 183.512232,105.340879 183.278779,105.576208 C143.353216,145.806766 82.5106407,252.57804 81.9007814,253.652006 C81.7902619,253.846582 81.586842,253.956056 81.377816,253.956056" id="Fill-26" fill="#99C577"></path>
                <path d="M80.8291829,245.351507 C80.8187716,245.351507 80.8075595,245.351507 80.7967478,245.350708 C80.4655898,245.333128 80.2113149,245.050653 80.228934,244.720232 C85.3764989,148.713785 106.979453,3.86068243 107.197289,2.40875132 C107.246542,2.0811279 107.551272,1.85658599 107.880027,1.90493042 C108.207982,1.9536744 108.434226,2.258524 108.384973,2.58614742 C108.167538,4.03727945 86.5733929,148.835245 81.428631,244.784159 C81.4114123,245.103792 81.1463258,245.351507 80.8291829,245.351507" id="Fill-28" fill="#99C577"></path>
                <path d="M83.9481948,294.358817 C78.1683463,294.358817 72.2439416,293.613673 66.2046126,292.122187 C55.4173506,289.45805 44.2468745,284.419042 33.0035195,277.145402 C13.8932597,264.782412 0.998519481,250.017384 0.870380952,249.869554 C0.581268398,249.535538 0.617707792,249.031317 0.952069264,248.742449 C1.2860303,248.453981 1.79257792,248.490339 2.08209091,248.823955 C2.20862771,248.970187 14.9788333,263.586986 33.9072965,275.825319 C44.9972857,282.995478 55.9995801,287.958174 66.6098506,290.575965 C79.8257381,293.836217 92.4714091,293.444268 104.193281,289.411303 C104.612134,289.26627 105.067426,289.489214 105.211582,289.906334 C105.355738,290.323455 105.133498,290.778532 104.715446,290.921967 C98.0582489,293.212534 91.1147424,294.358817 83.9481948,294.358817" id="Fill-30" fill="#C3996B"></path>
                <path d="M79.291961,324.838263 C60.1452619,324.838263 44.1371558,321.68269 43.9645693,321.648329 C43.5309004,321.561229 43.250197,321.140513 43.3370909,320.70781 C43.4239848,320.275507 43.8436385,319.993032 44.27971,320.08133 C44.46471,320.118088 63.0151645,323.773487 83.9958463,323.174175 C96.2847316,322.823778 106.988703,321.106152 115.811442,318.068045 C126.759677,314.298377 134.813985,308.473872 139.751323,300.757542 C139.98918,300.385569 140.484916,300.276495 140.857318,300.513822 C141.230121,300.751149 141.339439,301.245381 141.101182,301.617353 C135.962827,309.648522 127.625413,315.693174 116.320792,319.583503 C107.339483,322.67395 96.4697316,324.419944 84.0130649,324.772338 C82.4245476,324.817487 80.8464416,324.838263 79.291961,324.838263" id="Fill-32" fill="#C3996B"></path>
            </g>
        </g>
    </g>
</svg>