<?xml version="1.0" encoding="UTF-8" standalone="no"?>
<svg width="502px" height="42px" viewBox="0 0 502 42" version="1.1" xmlns="http://www.w3.org/2000/svg" xmlns:xlink="http://www.w3.org/1999/xlink">
    <!-- Generator: Sketch 39.1 (31720) - http://www.bohemiancoding.com/sketch -->
    <title>Progress Bar</title>
    <desc>Created with Sketch.</desc>
    <defs></defs>
    <g id="Symbols" stroke="none" stroke-width="1" fill="none" fill-rule="evenodd">
        <g id="Desktop-HD" transform="translate(-140.000000, -560.000000)">
            <g id="Progress-Bar" transform="translate(140.000000, 559.000000)">
                <path d="M477.834489,16 L345.165511,16 C344.953,15.4494655 344.70264,14.9177521 344.41762,14.4080499 C342.279702,10.5848045 338.191708,8 333.5,8 C328.182809,8 323.641032,11.3199399 321.834489,16 L189.165511,16 C188.953,15.4494655 188.70264,14.9177521 188.41762,14.4080499 C186.279702,10.5848045 182.191708,8 177.5,8 C172.182809,8 167.641032,11.3199399 165.834489,16 L33.5267405,16 C33.1606595,14.482051 32.5908853,13.0435186 31.8479629,11.7149478 C28.9403951,6.51533406 23.3807227,3 17,3 C7.61115925,3 0,10.6111593 0,20 C0,29.3888407 7.61115925,37 17,37 C24.1621784,37 30.2898812,32.5708832 32.793542,26.3022158 C32.8335897,26.2019444 32.8727101,26.1012024 32.9108927,26.0000002 L166.271896,26 C168.3066,30.1459658 172.570002,33 177.5,33 C182.429998,33 186.6934,30.1459658 188.728104,26 L322.271896,26 C324.3066,30.1459658 328.570002,33 333.5,33 C338.429998,33 342.6934,30.1459658 344.728104,26 L478.271896,26 C480.3066,30.1459658 484.570002,33 489.5,33 C494.766308,33 499.271971,29.7432965 501.112899,25.1339822 C501.685228,23.7009844 502,22.1372517 502,20.5 C502,18.2881485 501.425516,16.2104748 500.41762,14.4080499 C498.279702,10.5848045 494.191708,8 489.5,8 C484.182809,8 479.641032,11.3199399 477.834489,16 Z" id="Combined-Shape" fill-opacity="0.3" fill="#888A8D"></path>
                <path d="M480.100119,19 L342.649881,19 C341.984704,14.4741734 338.08557,11 333.375,11 C328.66443,11 324.765296,14.4741734 324.100119,19 L186.649881,19 C185.984704,14.4741734 182.08557,11 177.375,11 C172.66443,11 168.765296,14.4741734 168.100119,19 L30.2024601,19 C29.6318238,12.2778988 23.9947715,7 17.125,7 C9.87626266,7 4,12.8762627 4,20.125 C4,27.3737373 9.87626266,33.25 17.125,33.25 C23.3861302,33.25 28.6232954,28.865885 29.9341507,23 L168.372462,23 C169.507723,26.9000304 173.108538,29.75 177.375,29.75 C181.641462,29.75 185.242277,26.9000304 186.377538,23 L324.372462,23 C325.507723,26.9000304 329.108538,29.75 333.375,29.75 C337.641462,29.75 341.242277,26.9000304 342.377538,23 L480.372462,23 C481.507723,26.9000304 485.108538,29.75 489.375,29.75 C494.55267,29.75 498.75,25.5526695 498.75,20.375 C498.75,15.1973305 494.55267,11 489.375,11 C484.66443,11 480.765296,14.4741734 480.100119,19 Z" id="Combined-Shape" fill-opacity="0.6" fill="#245AAA"></path>
                <text id="Start" font-family="Lato-Regular, Lato" font-size="8" font-weight="normal" letter-spacing="0.333333313" fill="#FFFFFF">
                    <tspan x="6.92266672" y="23">Start</tspan>
                </text>
                <text id="Completed" font-family="Lato-Regular, Lato" font-size="9" font-weight="normal" letter-spacing="0.37499997" fill-opacity="0.8" fill="#000000">
                    <tspan x="74.4875001" y="41">Completed</tspan>
                </text>
                <text id="Completed" font-family="Lato-Regular, Lato" font-size="9" font-weight="normal" letter-spacing="0.37499997" fill-opacity="0.8" fill="#000000">
                    <tspan x="234.4875" y="41">Completed</tspan>
                </text>
                <text id="Completed" font-family="Lato-Regular, Lato" font-size="9" font-weight="normal" letter-spacing="0.37499997" fill-opacity="0.8" fill="#000000">
                    <tspan x="394.4875" y="41">Completed</tspan>
                </text>
                <g id="Status" transform="translate(64.000000, 0.000000)" font-size="9" font-family="Lato-Regular, Lato" letter-spacing="0.37499997" fill="#24D2AA" font-weight="normal">
                    <text id="Documentation">
                        <tspan x="0.719500194" y="9">Documentation</tspan>
                    </text>
                    <text id="Claim-Forms">
                        <tspan x="164.354" y="9">Claim Forms</tspan>
                    </text>
                    <text id="Final-Review">
                        <tspan x="321.7885" y="9">Final Review</tspan>
                    </text>
                </g>
                <g id="Checkbox" transform="translate(175.000000, 18.000000)" stroke="#24D2AA" stroke-width="2" stroke-linecap="square">
                    <path d="M0,3.33333333 L1.67053986,4.81825766" id="Line"></path>
                    <path d="M1.875,5 L4.74029317,0.415530933" id="Line"></path>
                </g>
                <g id="Checkbox" transform="translate(331.000000, 18.000000)" stroke="#24D2AA" stroke-width="2" stroke-linecap="square">
                    <path d="M0,3.33333333 L1.67053986,4.81825766" id="Line"></path>
                    <path d="M1.875,5 L4.74029317,0.415530933" id="Line"></path>
                </g>
                <g id="Checkbox" transform="translate(487.000000, 18.000000)" stroke="#24D2AA" stroke-width="2" stroke-linecap="square">
                    <path d="M0,3.33333333 L1.67053986,4.81825766" id="Line"></path>
                    <path d="M1.875,5 L4.74029317,0.415530933" id="Line"></path>
                </g>
            </g>
        </g>
    </g>
</svg>