<?xml version="1.0" encoding="UTF-8" standalone="no"?>
<svg width="201px" height="186px" viewBox="0 0 201 186" version="1.1" xmlns="http://www.w3.org/2000/svg" xmlns:xlink="http://www.w3.org/1999/xlink">
    <!-- Generator: Sketch 49.3 (51167) - http://www.bohemiancoding.com/sketch -->
    <title>Group 48</title>
    <desc>Created with Sketch.</desc>
    <defs></defs>
    <g id="HomePage" stroke="none" stroke-width="1" fill="none" fill-rule="evenodd">
        <g id="Homepage-Mobile-1" transform="translate(-87.000000, -1965.000000)">
            <g id="Group-48" transform="translate(87.000000, 1965.000000)">
                <path d="M26,39.3612002 L34.2497405,54 L49.3774773,38.4370102 C49.3774773,38.4370102 49.3774773,38.4365703 49.3779256,38.4365703 L64,23.3939597 L48.7081918,16 L37.3540959,27.6806001 L26,39.3612002 Z" id="Fill-1" fill="#D8E7A6"></path>
                <polygon id="Fill-3" fill="#D0D769" points="63.9925281 25 69 2.55984465 57.2893812 0.519500554 53.5635549 0 49 17.3730967"></polygon>
                <path d="M38.0955485,28.797907 L49.3754529,17.0053581 L54,0 L36.4112229,4.68788677 L24.9487237,16.6709532 C24.9482783,16.6718414 24.9482783,16.6718414 24.947833,16.6722855 L13.8647746,28.2592174 L10,46 L26.815644,40.5904558 L38.0955485,28.797907 Z" id="Fill-5" fill="#C5DD8E"></path>
                <polygon id="Fill-7" fill="#D8E483" points="74 63 69.1904502 2 64 24.0487675"></polygon>
                <polygon id="Fill-9" fill="#B6D890" points="51.7770543 36.2319683 51.7770543 36.2319683 34 55.0566301 73 63 63.3070782 24"></polygon>
                <polygon id="Fill-11" fill="#EBF2D7" points="10 45.4430377 13.2473603 61 35 54.870606 26.8079272 40"></polygon>
                <polygon id="Fill-13" fill="#D8E483" points="13 61.1663295 74 63 34.729463 55"></polygon>
                <path d="M32,54.9052699 C32,54.9052699 33.1070806,52.2082222 32.2264388,50 C32.2264388,50 34.4209278,52.1213097 37.0934077,50.9909868 C37.0934077,50.9909868 35.697105,54.4316196 38,55 C38,55 33.574189,53.9133634 32,54.9052699" id="Fill-15" fill="#FEFEFE"></path>
                <path d="M193.351833,186 L79.6481667,186 C75.4242259,186 72,182.582767 72,178.367453 L72,68.6325475 C72,64.4172329 75.4242259,61 79.6481667,61 L193.351833,61 C197.575774,61 201,64.4172329 201,68.6325475 L201,178.367453 C201,182.582767 197.575774,186 193.351833,186" id="Fill-136" fill="#5F6E89"></path>
                <path d="M96.1182231,186 L9.88177685,186 C4.42451592,186 0,181.596744 0,176.164711 L0,70.8352888 C0,65.4032557 4.42451592,61 9.88177685,61 L100.832248,61 C103.686168,61 106,63.3025015 106,66.1429956 L106,176.164711 C106,181.596744 101.575484,186 96.1182231,186" id="Fill-137" fill="#404C6B"></path>
                <path d="M8,75.9997891 C8,78.2091441 9.34306464,80 11.0002157,80 C12.6569354,80 14,78.2091441 14,75.9997891 C14,73.7908559 12.6569354,72 11.0002157,72 C9.34306464,72 8,73.7908559 8,75.9997891" id="Fill-138" fill="#5F6E89"></path>
                <path d="M94,75.9997891 C94,78.2091441 95.3430646,80 97.0002157,80 C98.6569354,80 100,78.2091441 100,75.9997891 C100,73.7908559 98.6569354,72 97.0002157,72 C95.3430646,72 94,73.7908559 94,75.9997891" id="Fill-139" fill="#5F6E89"></path>
                <path d="M121,75.999775 C121,77.656965 121.895254,79 123.000409,79 C124.104746,79 125,77.656965 125,75.999775 C125,74.343035 124.104746,73 123.000409,73 C121.895254,73 121,74.343035 121,75.999775" id="Fill-140" fill="#798AA4"></path>
                <path d="M185,75.999775 C185,77.656965 185.895254,79 187,79 C188.104746,79 189,77.656965 189,75.999775 C189,74.343035 188.104746,73 187,73 C185.895254,73 185,74.343035 185,75.999775" id="Fill-141" fill="#798AA4"></path>
                <path d="M121,169.000225 C121,170.657415 121.895254,172 123.000409,172 C124.104746,172 125,170.657415 125,169.000225 C125,167.343035 124.104746,166 123.000409,166 C121.895254,166 121,167.343035 121,169.000225" id="Fill-142" fill="#798AA4"></path>
                <path d="M185,169.000225 C185,170.657415 185.895254,172 187,172 C188.104746,172 189,170.657415 189,169.000225 C189,167.343035 188.104746,166 187,166 C185.895254,166 185,167.343035 185,169.000225" id="Fill-143" fill="#798AA4"></path>
                <path d="M94,175 C94,177.209239 95.3430646,179 97.0002157,179 C98.6569354,179 100,177.209239 100,175 C100,172.790761 98.6569354,171 97.0002157,171 C95.3430646,171 94,172.790761 94,175" id="Fill-144" fill="#5F6E89"></path>
                <path d="M7,175 C7,177.209239 8.34306464,179 10.0002157,179 C11.6569354,179 13,177.209239 13,175 C13,172.790761 11.6569354,171 10.0002157,171 C8.34306464,171 7,172.790761 7,175" id="Fill-144-Copy" fill="#5F6E89"></path>
                <path d="M119.555808,69.3330018 C117.786675,69.3330018 116.347739,70.7562034 116.347739,72.5059904 L116.347739,172.49401 C116.347739,174.243352 117.786675,175.666998 119.555808,175.666998 L190.444192,175.666998 C192.212875,175.666998 193.652261,174.243352 193.652261,172.49401 L193.652261,72.5059904 C193.652261,70.7562034 192.212875,69.3330018 190.444192,69.3330018 L119.555808,69.3330018 Z M190.444192,177 L119.555808,177 C117.043622,177 115,174.978725 115,172.49401 L115,72.5059904 C115,70.021275 117.043622,68 119.555808,68 L190.444192,68 C192.956378,68 195,70.021275 195,72.5059904 L195,172.49401 C195,174.978725 192.956378,177 190.444192,177 Z" id="Fill-145" fill="#798AA4"></path>
                <path d="M112.221222,92 L115,92 L115,83 L112.221222,83 C111.546605,83 111,83.4774626 111,84.0657951 L111,90.9346297 C111,91.5229622 111.546605,92 112.221222,92" id="Fill-146" fill="#798AA4"></path>
                <path d="M112.221222,127 L115,127 L115,118 L112.221222,118 C111.546605,118 111,118.477463 111,119.065795 L111,125.93463 C111,126.522962 111.546605,127 112.221222,127" id="Fill-147" fill="#798AA4"></path>
                <path d="M112.221222,163 L115,163 L115,154 L112.221222,154 C111.546605,154 111,154.477463 111,155.06537 L111,161.934205 C111,162.522962 111.546605,163 112.221222,163" id="Fill-148" fill="#798AA4"></path>
                <path d="M173,105.500222 C173,115.717407 166.060608,124 157.500227,124 C148.939392,124 142,115.717407 142,105.500222 C142,95.2825933 148.939392,87 157.500227,87 C166.060608,87 173,95.2825933 173,105.500222" id="Fill-149" fill="#798AA4"></path>
                <path d="M165,105.499786 C165,107.432766 163.88056,109 162.499795,109 C161.11903,109 160,107.432766 160,105.499786 C160,103.566807 161.11903,102 162.499795,102 C163.88056,102 165,103.566807 165,105.499786" id="Fill-150" fill="#404C6B"></path>
                <path d="M170,143.499786 C170,145.432766 168.88056,147 167.499795,147 C166.11903,147 165,145.432766 165,143.499786 C165,141.566807 166.11903,140 167.499795,140 C168.88056,140 170,141.566807 170,143.499786" id="Fill-151" fill="#798AA4"></path>
                <path d="M159.083242,116 C154.07476,116 150,111.290174 150,105.500442 C150,99.7107104 154.07476,95 159.083242,95 C161.671302,95 164.142704,96.2789879 165.864097,98.5082582 C166.090983,98.8024564 166.027143,99.2178731 165.722179,99.4373051 C165.416296,99.6549676 164.985948,99.5943583 164.757684,99.3006025 C163.29946,97.4106556 161.231309,96.3272099 159.083242,96.3272099 C154.834414,96.3272099 151.377849,100.442445 151.377849,105.500442 C151.377849,110.557997 154.834414,114.67279 159.083242,114.67279 C161.161957,114.67279 163.112532,113.698618 164.574889,111.929005 C164.812798,111.64277 165.245443,111.595433 165.543058,111.82327 C165.840674,112.051551 165.889817,112.469179 165.653286,112.755857 C163.923626,114.847982 161.590468,116 159.083242,116" id="Fill-152" fill="#404C6B"></path>
                <path d="M162.499771,99.2970169 C159.674701,99.2970169 157.376292,102.303934 157.376292,106 C157.376292,109.696066 159.674701,112.702983 162.499771,112.702983 C165.32484,112.702983 167.623708,109.696066 167.623708,106 C167.623708,102.303934 165.32484,99.2970169 162.499771,99.2970169 M162.499771,114 C158.915905,114 156,110.411154 156,106 C156,101.588846 158.915905,98 162.499771,98 C166.083636,98 169,101.588846 169,106 C169,110.411154 166.083636,114 162.499771,114" id="Fill-153" fill="#404C6B"></path>
                <path d="M160.535756,100 C160.493508,100 160.450332,99.9949399 160.407621,99.9848197 L155.336075,98.763393 C155.090018,98.704229 154.947491,98.4885915 155.018059,98.2819065 C155.08909,98.0756107 155.343039,97.9557256 155.592809,98.0152789 L160.663891,99.2367056 C160.910411,99.2958697 161.052474,99.5115072 160.981907,99.7181922 C160.92341,99.8890674 160.738172,100 160.535756,100" id="Fill-154" fill="#404C6B"></path>
                <path d="M157.514892,103 C157.476538,103 157.437698,102.996041 157.398858,102.987243 L152.369589,101.867266 C152.108877,101.8092 151.950119,101.571216 152.014205,101.335431 C152.077805,101.099206 152.343857,100.95448 152.601171,101.012987 L157.629955,102.132964 C157.890667,102.19103 158.04991,102.429014 157.985825,102.664799 C157.931449,102.865832 157.732881,103 157.514892,103" id="Fill-155" fill="#404C6B"></path>
                <path d="M155.551276,107 L155.541407,107 L150.438854,106.886921 C150.191218,106.881156 149.994725,106.678058 150.000108,106.433718 C150.00594,106.188936 150.192564,105.997367 150.458593,106.000027 L155.561146,106.113106 C155.808782,106.118871 156.005275,106.32197 155.999892,106.566309 C155.99406,106.807988 155.794426,107 155.551276,107" id="Fill-156" fill="#404C6B"></path>
                <path d="M152.461267,111 C152.239223,111 152.04303,110.815937 152.0061,110.557511 C151.965015,110.270078 152.135818,109.998995 152.387406,109.952056 L157.463949,109.006955 C157.720154,108.960016 157.952815,109.155682 157.9939,109.442587 C158.034985,109.73002 157.864182,110.001104 157.612594,110.048043 L152.536051,110.993144 C152.510661,110.99789 152.485733,111 152.461267,111" id="Fill-157" fill="#404C6B"></path>
                <path d="M154.482379,113 C154.293438,113 154.114137,112.915649 154.037018,112.775063 C153.934836,112.588834 154.051478,112.374852 154.297294,112.297438 L158.332536,111.027788 C158.579316,110.951106 158.860317,111.038378 158.962982,111.224973 C159.065164,111.410838 158.948522,111.62482 158.702706,111.702233 L154.667464,112.972248 C154.606733,112.991236 154.544074,113 154.482379,113" id="Fill-158" fill="#404C6B"></path>
                <path d="M157.468092,117 C157.325519,117 157.184817,116.939477 157.092729,116.824963 C156.938469,116.632073 156.981008,116.359067 157.188089,116.21538 L160.253169,114.086629 C160.459783,113.942942 160.752875,113.981694 160.907134,114.175454 C161.061393,114.367908 161.019323,114.640914 160.811774,114.784602 L157.747161,116.913788 C157.66302,116.972133 157.565322,117 157.468092,117" id="Fill-159" fill="#404C6B"></path>
                <path d="M63.2406096,134.795508 C63.2406096,130.833316 60.8624045,128.135881 53.8974359,125.35404 L48.2914417,145.416435 C57.0401766,145.585248 63.2406096,141.285876 63.2406096,134.795508 Z M56.4452878,98.2957317 C47.6970029,97.45256 41.3269231,102.088664 41.3269231,108.157893 C41.3269231,112.372858 44.1294702,114.732667 51.1794872,117.346142 L56.4452878,98.2957317 Z M41.4970199,150.811304 C34.3619545,149.546993 29.2658006,146.765599 25.3585244,143.056179 C24.5944388,142.381821 24,141.370729 24,140.190378 C24,138.420075 25.3585244,137.071357 27.2273391,137.071357 C28.1615215,137.071357 29.0111055,137.57735 29.6055442,138.082895 C33.1730769,141.707462 37.674792,144.067717 43.5350314,144.994849 L49.3111224,123.75255 C39.2880115,119.95917 34.4470029,116.334604 34.4470029,108.832252 C34.4470029,99.3912296 43.450433,92.3104632 55.1713619,92.3104632 C56.1905926,92.3104632 57.125225,92.3948697 58.0594074,92.3948697 L58.8239429,89.6130283 C59.3333333,88.0110915 60.3525641,87 61.8811853,87 C63.5803532,87 64.599584,88.3487174 64.0897436,90.2873871 L63.325208,93.1531883 C68.4218119,94.2491328 72.4136865,96.4405753 75.4713788,98.9696438 C76.4055612,99.6440025 77,100.402768 77,101.667079 C77,103.437382 75.5564272,104.870506 73.7722109,104.870506 C72.9235269,104.870506 72.1585413,104.533326 71.3094074,103.942928 C68.4218119,101.414306 65.4487179,99.8967753 61.2867465,98.9696438 L55.7662506,119.032039 C65.4487179,122.572645 70.1205298,126.702757 70.1205298,134.120703 C70.1205298,144.152124 60.9470029,151.317297 47.8670997,151.317297 L46.6777721,151.317297 L44.9790542,157.386525 C44.5547122,159.071975 43.5350314,160 42.0064103,160 C40.3076923,160 39.2880115,158.734796 39.7978519,156.712166 L41.4970199,150.811304 Z" id="Fill-175" fill="#798AA4"></path>
                <path d="M154.028516,151 C153.766581,151 153.519488,150.977558 153.28069,150.932674 C150.91323,150.485182 148.952642,148.601855 148.036305,145.895358 C147.917997,145.544366 148.098296,145.16016 148.439685,145.038076 C148.782384,144.914645 149.154333,145.101362 149.273513,145.452803 C150.033126,147.696099 151.619146,149.249529 153.517742,149.607702 C153.769637,149.655728 154.044669,149.665154 154.358555,149.638223 L166.2919,148.633274 C166.648133,148.608588 166.968567,148.878788 166.997817,149.249529 C167.027066,149.619821 166.759019,149.94478 166.398421,149.975301 L154.466822,150.980251 C154.315772,150.993267 154.169961,151 154.028516,151" id="Fill-176" fill="#798AA4"></path>
                <path d="M148.659771,139 C148.590296,139 148.519942,138.989908 148.450028,138.967199 C148.104854,138.856603 147.918416,138.499161 148.0345,138.168632 C148.808833,135.957959 150.378607,134.22794 152.341483,133.422223 C153.517713,132.941149 154.893573,132.867978 156.214909,133.219112 L167.516397,136.216578 C167.867727,136.309934 168.073072,136.657283 167.975896,136.992858 C167.87828,137.328433 167.514638,137.524396 167.164187,137.431881 L155.862699,134.434835 C154.827177,134.160236 153.761754,134.21238 152.861662,134.582017 C151.243961,135.245598 149.940213,136.698915 149.285042,138.569808 C149.192702,138.833474 148.935471,139 148.659771,139" id="Fill-177" fill="#798AA4"></path>
                <path d="M167.628006,138.356405 C166.634364,138.356405 165.669786,138.798847 164.889586,139.619557 C164.013564,140.540144 163.47678,141.81595 163.378687,143.212422 C163.28014,144.608894 163.632547,145.947067 164.370967,146.980185 C165.080322,147.973082 166.063065,148.561046 167.137997,148.636067 C169.407753,148.786109 171.421831,146.619995 171.621649,143.788184 C171.720196,142.391712 171.367335,141.053539 170.628915,140.020421 C169.920014,139.027073 168.937271,138.43956 167.862339,138.364539 C167.784228,138.359116 167.706117,138.356405 167.628006,138.356405 M167.369605,150 C167.260613,150 167.15253,149.996385 167.043084,149.98825 C165.553528,149.884757 164.210204,149.095231 163.260612,147.765644 C162.339631,146.477184 161.899123,144.826274 162.019468,143.117968 C162.139813,141.40921 162.807842,139.835129 163.900031,138.687219 C165.027189,137.502704 166.464064,136.906604 167.957707,137.011905 C169.446808,137.115849 170.790132,137.905376 171.739724,139.23451 C172.660251,140.523422 173.101214,142.173881 172.980414,143.882638 C172.737453,147.330433 170.254256,150 167.369605,150" id="Fill-178" fill="#798AA4"></path>
                <path d="M141.576349,142.658375 L141.580495,142.658375 L141.576349,142.658375 Z M139.584794,139.902144 C138.701593,139.902144 137.926616,140.985304 137.837052,142.372905 C137.745414,143.802965 138.416315,145.02344 139.333102,145.094356 C140.242426,145.155334 141.070063,144.057268 141.162945,142.626757 C141.254997,141.196696 140.583681,139.976222 139.667309,139.905306 C139.639527,139.903499 139.612161,139.902144 139.584794,139.902144 Z M139.411471,146 C139.366274,146 139.321078,145.998645 139.275052,145.995483 C137.902151,145.889787 136.886263,144.23659 137.010243,142.309668 C137.134223,140.383197 138.358264,138.91113 139.724945,139.004179 C141.09826,139.109875 142.113733,140.763071 141.989753,142.689994 C141.86992,144.552324 140.727564,146 139.411471,146 Z" id="Fill-179" fill="#798AA4"></path>
                <path d="M138.440778,146 C138.208163,146 138.013507,145.813707 138.000707,145.573154 C137.987023,145.323558 138.173734,145.110135 138.416502,145.09657 L155.545752,144.123958 C155.564732,144.123054 155.583271,144.123054 155.601368,144.124411 C155.943008,144.143854 156.283766,143.977456 156.564935,143.641948 C156.877444,143.268458 157.071216,142.748918 157.110501,142.178283 C157.149343,141.6081 157.02796,141.065952 156.769302,140.651315 C156.537127,140.279181 156.221529,140.060784 155.881654,140.036819 L138.855249,139.904334 C138.61204,139.902526 138.415619,139.698146 138.417384,139.44855 C138.41915,139.199858 138.616454,139 138.85878,139 L138.862311,139 L155.915642,139.132937 C156.568908,139.179058 157.126832,139.544861 157.513495,140.16433 C157.873233,140.741296 158.04317,141.479233 157.990644,142.241586 C157.938559,143.004392 157.669749,143.71113 157.234533,144.23067 C156.77504,144.779601 156.182686,145.057684 155.569146,145.028293 L138.465938,145.999096 C138.45711,145.999548 138.449165,146 138.440778,146" id="Fill-180" fill="#798AA4"></path>
                <path d="M180.520649,145 C180.46844,145 180.415837,144.997739 180.363233,144.992765 C180.145699,144.971966 179.983537,144.754021 180.001336,144.504877 C180.018738,144.256186 180.208982,144.075319 180.428098,144.091145 C180.821241,144.132292 181.230996,143.913443 181.561648,143.483433 C181.920776,143.01544 182.146616,142.362964 182.198033,141.645375 C182.300868,140.215172 181.673579,138.984374 180.799883,138.902984 C180.582349,138.882184 180.420187,138.663788 180.437986,138.415096 C180.455784,138.166404 180.646027,137.985537 180.864748,138.000911 C182.173116,138.123901 183.124728,139.791491 182.986693,141.71953 C182.921433,142.628838 182.626378,143.467155 182.155713,144.079841 C181.696519,144.678057 181.121042,145 180.520649,145" id="Fill-181" fill="#798AA4"></path>
                <path d="M180.537167,145 L180.527912,145 L171.453579,144.839983 C171.198146,144.835363 170.995003,144.643847 171.000094,144.412012 C171.004721,144.182696 171.211103,144 171.462834,144 L171.471626,144 L180.546421,144.160017 C180.801391,144.164637 181.004997,144.356153 180.999907,144.588408 C180.994816,144.817304 180.788897,145 180.537167,145" id="Fill-182" fill="#798AA4"></path>
                <path d="M170.42794,139 C170.20004,139 170.010266,138.862551 170.000413,138.686393 C169.990132,138.505314 170.173052,138.352118 170.409519,138.344246 L180.552784,138.000786 C180.782397,137.987993 180.988878,138.132987 180.999588,138.314066 C181.009869,138.495144 180.826521,138.64834 180.590482,138.656213 L170.447217,138.999672 C170.440791,139 170.434365,139 170.42794,139" id="Fill-183" fill="#798AA4"></path>
                <path d="M151.114917,36.769949 L156.432256,35.2556455 L155.782512,34.2849496 L158.9833,33.5168181 C159.08804,29.3718661 158.692158,26.041205 158.018891,23.3773933 C156.609781,23.4222084 151.170838,23.5857836 151.95994,23.4042823 C152.630543,23.2496701 155.872162,22.1750031 157.508061,21.6278103 C155.081729,14.3552098 150.552605,13 150.552605,13 L119.88238,26.979634 L109.064852,29.30061 L89.7984328,31.3414913 L84,41.9532678 L87.7342528,48.5195817 L112.229691,49 L156.650612,46.2721026 L158.623366,38.7185111 C158.717011,37.8679198 158.792016,37.0460102 158.850156,36.2496452 L151.114917,36.769949 Z" id="Fill-185" fill="#D9BC9B"></path>
                <path d="M109,28.2746172 C109,28.2746172 114.28666,30.994144 113.150695,38.8628525 L125.992428,41 C125.992428,41 126.475752,28.9773373 119.719329,26 L109,28.2746172 Z" id="Fill-186" fill="#AA845F"></path>
                <path d="M151.937691,44.8110375 L157.498736,41.9116948 L158.773318,37.1946654 C158.867287,36.369946 158.94255,35.5726159 159,34.8005012 L151.238942,35.3048104 L156.574641,33.8353579 L156.571079,33.8310104 L113.390255,36.4190727 L91.0587858,30 L91,30.0060865 L91.7130002,31.335115 L99.8770974,38.6180344 L110.575218,47 L119.076442,46.7621922 L151.937691,44.8110375 Z" id="Fill-187" fill="#AA845F"></path>
                <path d="M108.026971,49.6238151 C107.681689,55.6968685 110.691812,60.7902987 114.74967,61 L116,39.0066528 C111.942143,38.7973875 108.372252,43.5507616 108.026971,49.6238151" id="Fill-188" fill="#8E6A4D"></path>
                <polyline id="Fill-189" fill="#8E6A4D" points="115.245492 39 119 39.6332542 118.722029 41 115 40.1577197 115.247601 39.1135392"></polyline>
                <path d="M71.7549643,23 L112.672333,39.0533179 L118.718371,40.4012424 L124.7245,40.4577184 L167.53106,36.3914427 C167.53106,36.3914427 172.080274,39.1574456 173.548848,45.9054514 C173.569475,46.0007547 173.5197,46.1670943 173.338091,46.275193 C171.804496,47.1885167 169.781228,48.393045 169.781228,48.393045 C169.781228,48.393045 171.280294,48.8960348 173.590551,49.9077504 C173.735839,49.9712859 173.999957,50.1027692 173.999957,50.2086618 C174.005787,53.2296894 173.412528,56.8070943 171.853822,61 L64,60.5821655" id="Fill-190" fill="#EED2B0"></path>
                <path d="M66.5652338,22.0256567 C58.8701136,21.612665 52.004627,26.2232992 48.8434367,33.1299549 L53.4770479,35.6844835 L48.005757,35.2865419 C47.47025,36.9362955 47.1309763,38.6856452 47.0312951,40.5089173 C46.6862104,46.8082583 49.2193645,52.5582716 53.4247488,56.3539886 L66.4069955,55.6125512 L55.7218863,56.9497945 L57.4969268,57.427413 L55.7156283,58.1210443 C58.2599573,59.7778803 61.2280432,60.8021706 64.4339336,60.9743612 C74.6344938,61.5214756 83.3800661,53.2461485 83.9687662,42.4906579 C84.5570194,31.7356099 76.765347,22.5732138 66.5652338,22.0256567" id="Fill-191" fill="#B19178"></path>
                <path d="M116,39 C116.317261,39.0085536 116.629856,39.02916 116.937786,39.056376 C116.629078,39.0295488 116.317261,39.0085536 116,39" id="Fill-192" fill="#C3996B"></path>
                <path d="M116,39 C116.313373,39.0303264 116.622858,39.0676512 116.927677,39.1154736 C116.622858,39.0676512 116.313373,39.0299376 116,39" id="Fill-193" fill="#C3996B"></path>
                <path d="M121.371275,39.6533487 L116.381185,39 C119.758864,40.035968 122.121671,44.7384116 121.81685,50.2425128 C121.47841,56.3552069 117.980148,61.1392642 114.001793,60.9282093 L114.003138,60.9282093 L114,60.9606793 L120.270783,60.9927105 C124.249138,61.2033266 127.644299,56.8268992 127.974671,50.8528608 C128.305939,44.8783836 125.349181,39.8644036 121.371275,39.6533487" id="Fill-195" fill="#C3996B"></path>
                <path d="M116,39 C116.022939,39.003888 116.04549,39.007776 116.068429,39.011664 C116.04549,39.0073872 116.022939,39.003888 116,39" id="Fill-196" fill="#C3996B"></path>
                <path d="M82.2693898,33.2516909 L72,31 L78.4483158,45.7180245 L83.5735537,46 C83.7771041,44.9849796 83.9113033,43.9411675 83.9684956,42.8731339 C84.1522314,39.4364146 83.5253681,36.158278 82.2693898,33.2516909" id="Fill-197" fill="#7A5841"></path>
                <path d="M82.9643295,45.9982102 C83.3826869,38.151517 77.4618288,31.4462993 69.739832,31.0212105 C62.0178352,30.5961216 55.4183574,36.6118004 55,44.4584935 L83,46" id="Fill-198" fill="#987555"></path>
                <path d="M174,57.4367792 L123.095717,56.5406507 L82.761927,50 C80.0435832,55.3341845 75.2077455,59.9883443 67,60.620346 L172.872904,61 C173.362071,59.7237644 173.693544,58.5716639 174,57.4367792" id="Fill-199" fill="#AA845F"></path>
                <path d="M122.330818,39 C121.967994,39 121.670247,38.7141201 121.66267,38.3554548 C121.575307,34.0356864 118.196236,30.1258839 118.161915,30.0868605 C117.921221,29.8119422 117.952422,29.3967148 118.231894,29.1595046 C118.512703,28.9227329 118.933917,28.952987 119.174165,29.2274668 C119.326605,29.4010994 122.902242,33.5279427 122.999857,38.3291468 C123.007434,38.6921968 122.713699,38.9925461 122.344635,39 C122.340178,39 122.335721,39 122.330818,39" id="Fill-200" fill="#C3996B"></path>
                <path d="M124.197953,55 C124.104439,55 124.008965,54.9837228 123.917409,54.9494088 C123.542371,54.8099532 123.364644,54.4237006 123.519849,54.0871594 C125.990891,48.7319742 123.097319,42.9949357 123.067942,42.9377457 C122.898049,42.6073634 123.057661,42.2149519 123.425355,42.0618586 C123.79207,41.9078855 124.229288,42.0513005 124.400161,42.3816828 C124.532354,42.6363983 127.599736,48.6915013 124.877037,54.5926311 C124.759531,54.8464668 124.486331,55 124.197953,55" id="Fill-201" fill="#A87B4F"></path>
                <path d="M158.5,94 C158.2235,94 158,93.788252 158,93.5262909 L158,91.4737091 C158,91.211748 158.2235,91 158.5,91 C158.7765,91 159,91.211748 159,91.4737091 L159,93.5262909 C159,93.788252 158.7765,94 158.5,94" id="Fill-202" fill="#404C6B"></path>
                <path d="M158.5,122 C158.2235,122 158,121.788252 158,121.526291 L158,119.473709 C158,119.211748 158.2235,119 158.5,119 C158.7765,119 159,119.211748 159,119.473709 L159,121.526291 C159,121.788252 158.7765,122 158.5,122" id="Fill-203" fill="#404C6B"></path>
                <path d="M172.526291,108 L170.473709,108 C170.211748,108 170,107.7765 170,107.5 C170,107.2235 170.211748,107 170.473709,107 L172.526291,107 C172.788252,107 173,107.2235 173,107.5 C173,107.7765 172.788252,108 172.526291,108" id="Fill-204" fill="#404C6B"></path>
                <path d="M147.526291,108 L145.473709,108 C145.211748,108 145,107.7765 145,107.5 C145,107.2235 145.211748,107 145.473709,107 L147.526291,107 C147.788252,107 148,107.2235 148,107.5 C148,107.7765 147.788252,108 147.526291,108" id="Fill-205" fill="#404C6B"></path>
                <polygon id="Fill-238" fill="#F06262" points="147 50.9291028 142.762171 58 135.763985 50.052954 135.763985 50.0525164 129 42.3715536 136.49532 39 141.747878 44.9645514"></polygon>
                <polygon id="Fill-239" fill="#EE4343" points="128.157238 42 126 30.9595535 132.053567 30.1839628 133.976679 30 136 38.5600744"></polygon>
                <polygon id="Fill-240" fill="#F28080" points="141.365439 44.8077422 135.982024 38.655042 134 30 142.648266 32.6905931 148.118689 38.9430619 148.119582 38.9435133 153.408848 44.9887704 155 54 146.748853 50.9604424"></polygon>
                <polygon id="Fill-241" fill="#CB3332" points="123 61 126.724718 31 129 41.9682094"></polygon>
                <polygon id="Fill-242" fill="#E13C39" points="134.303539 48.2282305 134.303539 48.2282305 143 57.8141432 123 61 128.66356 42"></polygon>
                <polygon id="Fill-243" fill="#EE4343" points="156 53.1045858 154.03897 61 143 57.4495305 147.483934 50"></polygon>
                <polygon id="Fill-244" fill="#F0575A" points="153 60 123 59.8028315 142.436471 57"></polygon>
                <path d="M144,58 C144,58 143.492334,56.8838965 143.970038,56 C143.970038,56 142.836967,56.8268831 141.520748,56.3224467 C141.520748,56.3224467 142.160501,57.7458939 141,57.9388333 C141,57.9388333 143.230271,57.5699453 144,58" id="Fill-245" fill="#FEFEFE"></path>
            </g>
        </g>
    </g>
</svg>