<?xml version="1.0" encoding="UTF-8"?>
<svg width="89px" height="159px" viewBox="0 0 89 159" version="1.1" xmlns="http://www.w3.org/2000/svg" xmlns:xlink="http://www.w3.org/1999/xlink">
    <!-- Generator: Sketch 51.3 (57544) - http://www.bohemiancoding.com/sketch -->
    <title>Group</title>
    <desc>Created with Sketch.</desc>
    <defs>
        <filter x="-0.8%" y="-0.9%" width="101.6%" height="102.4%" filterUnits="objectBoundingBox" id="filter-1">
            <feOffset dx="0" dy="2" in="SourceAlpha" result="shadowOffsetOuter1"></feOffset>
            <feGaussianBlur stdDeviation="2" in="shadowOffsetOuter1" result="shadowBlurOuter1"></feGaussianBlur>
            <feColorMatrix values="0 0 0 0 0   0 0 0 0 0   0 0 0 0 0  0 0 0 0.1 0" type="matrix" in="shadowBlurOuter1" result="shadowMatrixOuter1"></feColorMatrix>
            <feMerge>
                <feMergeNode in="shadowMatrixOuter1"></feMergeNode>
                <feMergeNode in="SourceGraphic"></feMergeNode>
            </feMerge>
        </filter>
        <path d="M2.2373,22.9035278 C2.2373,22.9035278 4.71575,15.5952778 6.20295,14.6216111 C7.6895,13.6466667 13.14235,11.2112222 12.6464,10.72375 C12.15045,10.2362778 8.68075,11.6986944 8.18545,11.2112222 C7.6895,10.72375 9.67265,2.44183333 8.68075,0.492583333 C7.6895,-1.45538889 6.6989,3.90297222 6.20295,4.39044444 C5.707,4.87791667 2.2373,11.6986944 1.742,14.6216111 C1.24605,17.5445278 0.25545,20.9549167 0.25545,20.9549167 L2.2373,22.9035278" id="path-2"></path>
        <path d="M1.50121622,12.2151 C1.50121622,12.2151 12.4038378,9.80083333 13.8261081,8.35176667 C15.2477568,6.9027 19.0402703,0.624466667 19.5145676,0.624466667 C19.9882432,0.624466667 20.9362162,0.624466667 21.4098919,1.5903 C21.8841892,2.55613333 23.3064595,9.80083333 21.8841892,12.2151 C20.4619189,14.63 8.13764865,18.9765667 4.81943243,18.9765667 C1.50121622,18.9765667 -0.868405405,13.1815667 1.50121622,12.2151" id="path-4"></path>
        <path d="M8.19061765,34.804375 C3.48105882,34.3275 0.184058824,21.459375 0.655323529,19.553125 C0.984529412,18.223125 2.46379412,18.51875 4.44644118,17.026875 C5.30373529,16.38875 6.25491176,15.41125 7.24870588,13.834375 C10.5457059,8.59125 16.6684412,0.489375 16.6684412,0.489375 L20.4360882,6.20875 C20.4360882,6.20875 10.0750588,17.170625 9.13252941,19.07625 C8.27523529,20.81125 7.41855882,25.70625 7.27217647,29.085 C7.25797059,29.418125 7.24870588,29.738125 7.24870588,30.03875 C7.24870588,33.37375 12.9007941,35.280625 8.19061765,34.804375" id="path-6"></path>
        <path d="M19.6877419,26.3563953 C19.1954839,26.8342326 8.37290323,26.3563953 3.45290323,26.3563953 C-0.547096774,26.3563953 0.00387096774,22.8702558 0.353548387,19.2553953 C0.432258065,18.4221628 0.500645161,17.583907 0.500645161,16.780186 C0.500645161,12.4702326 1.97677419,0.50044186 1.97677419,0.50044186 L9.8483871,0.50044186 C9.8483871,0.50044186 5.42064516,18.6946744 7.88064516,20.1319535 C8.67741935,20.5959767 10.2522581,21.3664186 11.9935484,22.2046744 C15.6335484,23.9565349 20.0219355,26.0305116 19.6877419,26.3563953" id="path-8"></path>
        <path d="M8.58064706,17.8057241 C3.64682353,17.3321379 0.192823529,4.55275862 0.686529412,2.65965517 C1.03141176,1.33882759 2.58111765,1.63241379 4.65817647,0.150827586 C5.19070588,1.278 5.62035294,2.41386207 5.62035294,3.13324138 C5.62035294,5.02634483 6.11341176,12.1257931 6.11341176,12.1257931 L7.61847059,12.1257931 C7.60358824,12.4566207 7.59388235,12.7744138 7.59388235,13.0729655 C7.59388235,16.3849655 13.5151176,18.2786897 8.58064706,17.8057241" id="path-10"></path>
        <path d="M19.6877419,7.36923077 C19.1954839,7.83753846 8.37290323,7.36923077 3.45290323,7.36923077 C-0.547096774,7.36923077 0.00387096774,3.95261538 0.353548387,0.409846154 C0.353548387,0.409846154 2.96064516,3.14523077 7.3883871,4.08430769 C9.83870968,4.60430769 11.2354839,3.97107692 11.9935484,3.30030769 C15.6335484,5.01723077 20.0219355,7.04984615 19.6877419,7.36923077" id="path-12"></path>
        <path d="M19.6877419,7.36923077 C19.1954839,7.83753846 8.37290323,7.36923077 3.45290323,7.36923077 C-0.547096774,7.36923077 0.00387096774,3.95261538 0.353548387,0.409846154 C0.353548387,0.409846154 2.96064516,3.14523077 7.3883871,4.08430769 C9.83870968,4.60430769 11.2354839,3.97107692 11.9935484,3.30030769 C15.6335484,5.01723077 20.0219355,7.04984615 19.6877419,7.36923077" id="path-14"></path>
        <path d="M1.18285714,0.388818182 C1.18285714,0.388818182 5.59478571,1.35990909 7.5555,2.32972727 C9.51685714,3.30081818 7.5555,6.69709091 7.5555,6.69709091 L0.2025,5.24172727 L1.18285714,0.388818182" id="path-16"></path>
        <path d="M12.40915,0.647266667 C12.40915,0.647266667 12.9051,5.95966667 12.40915,8.3752 C11.91385,10.7894667 10.42665,13.2043667 7.94885,12.7211333 L5.46975,18.9993667 L0.01755,16.5851 L3.48725,0.164666667 L12.40915,0.647266667" id="path-18"></path>
        <path d="M8.57371429,0.353699187 C8.57371429,0.353699187 -0.0540571429,8.94639837 0.424914286,13.7197724 C0.903885714,18.4937724 6.17697143,25.177122 6.17697143,31.3828211 C6.17697143,37.5885203 0.903885714,74.8227154 1.86308571,75.3003659 C2.82165714,75.7780163 12.1377143,78.272065 19.5976,75.3003659 C24.3910857,73.3903902 19.118,65.7529919 19.5976,55.7285935 C20.0765714,45.7035691 21.5153714,3.21834959 21.5153714,3.21834959 L8.57371429,0.353699187" id="path-20"></path>
        <path d="M7.56505263,0.266709677 C7.56505263,0.266709677 17.6785263,2.1858871 18.6416842,5.54366129 C19.6048421,8.90080645 21.5311579,16.575629 22.9762105,18.4941774 C24.4206316,20.4127258 22.9762105,24.2504516 21.5311579,25.2090968 C20.0867368,26.169 21.5311579,38.6401935 19.1229474,38.6401935 C16.7153684,38.6401935 4.33578947,34.7144032 1.85621053,35.7177097 C-0.622736842,36.7216452 2.74863158,31.4446935 2.74863158,28.566871 C2.74863158,25.6890484 -1.10463158,10.8193548 0.822315789,7.46158065 C2.74863158,4.10380645 7.56505263,0.266709677 7.56505263,0.266709677" id="path-22"></path>
        <path d="M2.626,4.30625 C2.626,4.30625 4.98642857,0.01625 5.92985714,0.493125 C6.87390476,0.97 9.23433333,0.01625 10.178381,0.97 C11.1230476,1.9225 13.4828571,5.735625 12.0670952,6.68875 C10.6507143,7.6425 3.09771429,10.025 1.68195238,9.548125 C0.265571429,9.071875 0.265571429,4.30625 0.265571429,4.30625 L2.626,4.30625" id="path-24"></path>
        <path d="M20.3375946,22.5237143 C20.3375946,22.5237143 21.7592432,23.9712245 22.2335405,25.9001837 C22.7072162,27.8297755 22.2335405,30.7247959 21.2855676,30.7247959 C20.3375946,30.7247959 5.16878378,31.2068776 3.74651351,30.2427143 C2.32486486,29.2772857 -0.519054054,22.5237143 0.902594595,14.8047143 C2.32486486,7.08571429 1.37689189,-0.150571429 6.11675676,0.331510204 C10.8572432,0.81422449 11.8052162,3.70861224 10.8572432,8.05114286 C9.90864865,12.3924082 8.01332432,21.0762041 10.3829459,22.041 C12.7531892,23.0057959 19.389,21.0762041 20.3375946,22.5237143" id="path-26"></path>
        <path d="M30.6387551,7.0109434 C30.1560408,10.3346038 23.884551,10.8090566 22.9203878,12.7081132 C21.9549592,14.6077925 18.5778571,26.0027547 15.6834694,28.3762642 C12.7890816,30.7510189 10.3767755,33.1245283 7.48238776,32.175 C4.58736735,31.2254717 2.65777551,32.6500755 0.728183673,30.7510189 C-1.20140816,28.8513396 2.17506122,30.2759434 4.58736735,27.4273585 C6.99967347,24.5787736 9.41197959,18.4065283 9.89469388,14.6077925 C10.3767755,10.8090566 8.44718367,4.16235849 14.2359592,1.31315094 C18.1002041,-0.590264151 21.5355102,0.895358491 23.3929796,2.09207547 C24.318551,2.69043396 24.8493469,3.21220755 24.8493469,3.21220755 C24.8493469,3.21220755 25.4282245,3.25579245 26.2152449,3.41145283 C28.0341224,3.76324528 30.9765918,4.69409434 30.6387551,7.0109434" id="path-28"></path>
    </defs>
    <g id="---▶︎--Sign-Up-Pages" stroke="none" stroke-width="1" fill="none" fill-rule="evenodd">
        <g id="Claim-Results-Desktop" transform="translate(-365.000000, -436.000000)">
            <g id="Canvas" transform="translate(0.000000, 80.000000)">
                <g id="New-Claims-to-Reviews" filter="url(#filter-1)" transform="translate(325.000000, 274.000000)">
                    <g id="Instructions-Banner-#1" transform="translate(0.000000, 51.000000)">
                        <g id="Group" transform="translate(44.000000, 33.000000)">
                            <g id="Group-448" transform="translate(69.000000, 0.000000)">
                                <mask id="mask-3" fill="white">
                                    <use xlink:href="#path-2"></use>
                                </mask>
                                <g id="Clip-447"></g>
                                <path d="M2.2373,22.9035278 C2.2373,22.9035278 4.71575,15.5952778 6.20295,14.6216111 C7.6895,13.6466667 13.14235,11.2112222 12.6464,10.72375 C12.15045,10.2362778 8.68075,11.6986944 8.18545,11.2112222 C7.6895,10.72375 9.67265,2.44183333 8.68075,0.492583333 C7.6895,-1.45538889 6.6989,3.90297222 6.20295,4.39044444 C5.707,4.87791667 2.2373,11.6986944 1.742,14.6216111 C1.24605,17.5445278 0.25545,20.9549167 0.25545,20.9549167 L2.2373,22.9035278" id="Fill-446" fill="#F1BA8E" mask="url(#mask-3)"></path>
                            </g>
                            <g id="Group-451" transform="translate(50.000000, 17.000000)">
                                <mask id="mask-5" fill="white">
                                    <use xlink:href="#path-4"></use>
                                </mask>
                                <g id="Clip-450"></g>
                                <path d="M1.50121622,12.2151 C1.50121622,12.2151 12.4038378,9.80083333 13.8261081,8.35176667 C15.2477568,6.9027 19.0402703,0.624466667 19.5145676,0.624466667 C19.9882432,0.624466667 20.9362162,0.624466667 21.4098919,1.5903 C21.8841892,2.55613333 23.3064595,9.80083333 21.8841892,12.2151 C20.4619189,14.63 8.13764865,18.9765667 4.81943243,18.9765667 C1.50121622,18.9765667 -0.868405405,13.1815667 1.50121622,12.2151" id="Fill-449" fill="#747CB9" mask="url(#mask-5)"></path>
                            </g>
                            <g id="Group-457" transform="translate(0.000000, 114.000000)">
                                <mask id="mask-7" fill="white">
                                    <use xlink:href="#path-6"></use>
                                </mask>
                                <g id="Clip-456"></g>
                                <path d="M8.19061765,34.804375 C3.48105882,34.3275 0.184058824,21.459375 0.655323529,19.553125 C0.984529412,18.223125 2.46379412,18.51875 4.44644118,17.026875 C5.30373529,16.38875 6.25491176,15.41125 7.24870588,13.834375 C10.5457059,8.59125 16.6684412,0.489375 16.6684412,0.489375 L20.4360882,6.20875 C20.4360882,6.20875 10.0750588,17.170625 9.13252941,19.07625 C8.27523529,20.81125 7.41855882,25.70625 7.27217647,29.085 C7.25797059,29.418125 7.24870588,29.738125 7.24870588,30.03875 C7.24870588,33.37375 12.9007941,35.280625 8.19061765,34.804375" id="Fill-455" fill="#F1BA8E" mask="url(#mask-7)"></path>
                            </g>
                            <g id="Group-460" transform="translate(37.000000, 124.000000)">
                                <mask id="mask-9" fill="white">
                                    <use xlink:href="#path-8"></use>
                                </mask>
                                <g id="Clip-459"></g>
                                <path d="M19.6877419,26.3563953 C19.1954839,26.8342326 8.37290323,26.3563953 3.45290323,26.3563953 C-0.547096774,26.3563953 0.00387096774,22.8702558 0.353548387,19.2553953 C0.432258065,18.4221628 0.500645161,17.583907 0.500645161,16.780186 C0.500645161,12.4702326 1.97677419,0.50044186 1.97677419,0.50044186 L9.8483871,0.50044186 C9.8483871,0.50044186 5.42064516,18.6946744 7.88064516,20.1319535 C8.67741935,20.5959767 10.2522581,21.3664186 11.9935484,22.2046744 C15.6335484,23.9565349 20.0219355,26.0305116 19.6877419,26.3563953" id="Fill-458" fill="#F1BA8E" mask="url(#mask-9)"></path>
                            </g>
                            <g id="Group-463" transform="translate(0.000000, 131.000000)">
                                <mask id="mask-11" fill="white">
                                    <use xlink:href="#path-10"></use>
                                </mask>
                                <g id="Clip-462"></g>
                                <path d="M8.58064706,17.8057241 C3.64682353,17.3321379 0.192823529,4.55275862 0.686529412,2.65965517 C1.03141176,1.33882759 2.58111765,1.63241379 4.65817647,0.150827586 C5.19070588,1.278 5.62035294,2.41386207 5.62035294,3.13324138 C5.62035294,5.02634483 6.11341176,12.1257931 6.11341176,12.1257931 L7.61847059,12.1257931 C7.60358824,12.4566207 7.59388235,12.7744138 7.59388235,13.0729655 C7.59388235,16.3849655 13.5151176,18.2786897 8.58064706,17.8057241" id="Fill-461" fill="#170F47" mask="url(#mask-11)"></path>
                            </g>
                            <g id="Group-466" transform="translate(37.000000, 143.000000)">
                                <mask id="mask-13" fill="white">
                                    <use xlink:href="#path-12"></use>
                                </mask>
                                <g id="Clip-465"></g>
                                <path d="M19.6877419,7.36923077 C19.1954839,7.83753846 8.37290323,7.36923077 3.45290323,7.36923077 C-0.547096774,7.36923077 0.00387096774,3.95261538 0.353548387,0.409846154 C0.353548387,0.409846154 2.96064516,3.14523077 7.3883871,4.08430769 C9.83870968,4.60430769 11.2354839,3.97107692 11.9935484,3.30030769 C15.6335484,5.01723077 20.0219355,7.04984615 19.6877419,7.36923077" id="Fill-464" mask="url(#mask-13)"></path>
                            </g>
                            <g id="Group-466" transform="translate(37.000000, 143.000000)">
                                <mask id="mask-15" fill="white">
                                    <use xlink:href="#path-14"></use>
                                </mask>
                                <g id="Clip-465"></g>
                                <path d="M19.6877419,7.36923077 C19.1954839,7.83753846 8.37290323,7.36923077 3.45290323,7.36923077 C-0.547096774,7.36923077 0.00387096774,3.95261538 0.353548387,0.409846154 C0.353548387,0.409846154 2.96064516,3.14523077 7.3883871,4.08430769 C9.83870968,4.60430769 11.2354839,3.97107692 11.9935484,3.30030769 C15.6335484,5.01723077 20.0219355,7.04984615 19.6877419,7.36923077" id="Fill-464" fill="#170F47" mask="url(#mask-15)"></path>
                            </g>
                            <g id="Group-454" transform="translate(47.000000, 22.000000)">
                                <mask id="mask-17" fill="white">
                                    <use xlink:href="#path-16"></use>
                                </mask>
                                <g id="Clip-453"></g>
                                <path d="M1.18285714,0.388818182 C1.18285714,0.388818182 5.59478571,1.35990909 7.5555,2.32972727 C9.51685714,3.30081818 7.5555,6.69709091 7.5555,6.69709091 L0.2025,5.24172727 L1.18285714,0.388818182" id="Fill-452" fill="#F1BA8E" mask="url(#mask-17)"></path>
                            </g>
                            <g id="Group-445" transform="translate(47.000000, 9.000000)">
                                <mask id="mask-19" fill="white">
                                    <use xlink:href="#path-18"></use>
                                </mask>
                                <g id="Clip-444"></g>
                                <path d="M12.40915,0.647266667 C12.40915,0.647266667 12.9051,5.95966667 12.40915,8.3752 C11.91385,10.7894667 10.42665,13.2043667 7.94885,12.7211333 L5.46975,18.9993667 L0.01755,16.5851 L3.48725,0.164666667 L12.40915,0.647266667" id="Fill-443" fill="#F1BA8E" mask="url(#mask-19)"></path>
                            </g>
                            <g id="Group-472" transform="translate(33.000000, 59.000000)">
                                <mask id="mask-21" fill="white">
                                    <use xlink:href="#path-20"></use>
                                </mask>
                                <g id="Clip-471"></g>
                                <path d="M8.57371429,0.353699187 C8.57371429,0.353699187 -0.0540571429,8.94639837 0.424914286,13.7197724 C0.903885714,18.4937724 6.17697143,25.177122 6.17697143,31.3828211 C6.17697143,37.5885203 0.903885714,74.8227154 1.86308571,75.3003659 C2.82165714,75.7780163 12.1377143,78.272065 19.5976,75.3003659 C24.3910857,73.3903902 19.118,65.7529919 19.5976,55.7285935 C20.0765714,45.7035691 21.5153714,3.21834959 21.5153714,3.21834959 L8.57371429,0.353699187" id="Fill-470" fill="#464B50" mask="url(#mask-21)"></path>
                            </g>
                            <path d="M41.0320823,59 C41.0320823,59 32.3622966,67.5714585 32.3622966,70.9046301 C32.3622966,74.2371772 33.8074715,81.8557658 32.3622966,85.1889373 C30.9171218,88.5214844 26.5828607,100.42549 24.1744465,102.806416 C21.7660324,105.187342 12.6143113,114.233987 11.1697681,116.138478 C9.72459329,118.043593 17.9130751,132.3279 20.3214892,130.899844 C22.7292717,129.471164 45.3669751,92.3310909 48.2566931,87.0928039 C51.146411,81.8557658 55,62.8096065 55,62.8096065 L41.0320823,59" id="Fill-467" fill="#6B6F73"></path>
                            <g id="Group-475" transform="translate(38.000000, 25.000000)">
                                <mask id="mask-23" fill="white">
                                    <use xlink:href="#path-22"></use>
                                </mask>
                                <g id="Clip-474"></g>
                                <path d="M7.56505263,0.266709677 C7.56505263,0.266709677 17.6785263,2.1858871 18.6416842,5.54366129 C19.6048421,8.90080645 21.5311579,16.575629 22.9762105,18.4941774 C24.4206316,20.4127258 22.9762105,24.2504516 21.5311579,25.2090968 C20.0867368,26.169 21.5311579,38.6401935 19.1229474,38.6401935 C16.7153684,38.6401935 4.33578947,34.7144032 1.85621053,35.7177097 C-0.622736842,36.7216452 2.74863158,31.4446935 2.74863158,28.566871 C2.74863158,25.6890484 -1.10463158,10.8193548 0.822315789,7.46158065 C2.74863158,4.10380645 7.56505263,0.266709677 7.56505263,0.266709677" id="Fill-473" fill="#515BA8" mask="url(#mask-23)"></path>
                            </g>
                            <g id="Group-481" transform="translate(62.000000, 47.000000)">
                                <mask id="mask-25" fill="white">
                                    <use xlink:href="#path-24"></use>
                                </mask>
                                <g id="Clip-480"></g>
                                <path d="M2.626,4.30625 C2.626,4.30625 4.98642857,0.01625 5.92985714,0.493125 C6.87390476,0.97 9.23433333,0.01625 10.178381,0.97 C11.1230476,1.9225 13.4828571,5.735625 12.0670952,6.68875 C10.6507143,7.6425 3.09771429,10.025 1.68195238,9.548125 C0.265571429,9.071875 0.265571429,4.30625 0.265571429,4.30625 L2.626,4.30625" id="Fill-479" fill="#F1BA8E" mask="url(#mask-25)"></path>
                            </g>
                            <g id="Group-484" transform="translate(43.000000, 29.000000)">
                                <mask id="mask-27" fill="white">
                                    <use xlink:href="#path-26"></use>
                                </mask>
                                <g id="Clip-483"></g>
                                <path d="M20.3375946,22.5237143 C20.3375946,22.5237143 21.7592432,23.9712245 22.2335405,25.9001837 C22.7072162,27.8297755 22.2335405,30.7247959 21.2855676,30.7247959 C20.3375946,30.7247959 5.16878378,31.2068776 3.74651351,30.2427143 C2.32486486,29.2772857 -0.519054054,22.5237143 0.902594595,14.8047143 C2.32486486,7.08571429 1.37689189,-0.150571429 6.11675676,0.331510204 C10.8572432,0.81422449 11.8052162,3.70861224 10.8572432,8.05114286 C9.90864865,12.3924082 8.01332432,21.0762041 10.3829459,22.041 C12.7531892,23.0057959 19.389,21.0762041 20.3375946,22.5237143" id="Fill-482" fill="#747CB9" mask="url(#mask-27)"></path>
                            </g>
                            <g id="Group-487" transform="translate(32.000000, 2.000000)">
                                <mask id="mask-29" fill="white">
                                    <use xlink:href="#path-28"></use>
                                </mask>
                                <g id="Clip-486"></g>
                                <path d="M30.6387551,7.0109434 C30.1560408,10.3346038 23.884551,10.8090566 22.9203878,12.7081132 C21.9549592,14.6077925 18.5778571,26.0027547 15.6834694,28.3762642 C12.7890816,30.7510189 10.3767755,33.1245283 7.48238776,32.175 C4.58736735,31.2254717 2.65777551,32.6500755 0.728183673,30.7510189 C-1.20140816,28.8513396 2.17506122,30.2759434 4.58736735,27.4273585 C6.99967347,24.5787736 9.41197959,18.4065283 9.89469388,14.6077925 C10.3767755,10.8090566 8.44718367,4.16235849 14.2359592,1.31315094 C18.1002041,-0.590264151 21.5355102,0.895358491 23.3929796,2.09207547 C24.318551,2.69043396 24.8493469,3.21220755 24.8493469,3.21220755 C24.8493469,3.21220755 25.4282245,3.25579245 26.2152449,3.41145283 C28.0341224,3.76324528 30.9765918,4.69409434 30.6387551,7.0109434" id="Fill-485" fill="#233770" mask="url(#mask-29)"></path>
                            </g>
                        </g>
                    </g>
                </g>
            </g>
        </g>
    </g>
</svg>