<?xml version="1.0" encoding="UTF-8" standalone="no"?>
<svg width="44px" height="181px" viewBox="0 0 44 181" version="1.1" xmlns="http://www.w3.org/2000/svg" xmlns:xlink="http://www.w3.org/1999/xlink">
    <!-- Generator: Sketch 39.1 (31720) - http://www.bohemiancoding.com/sketch -->
    <title>Group</title>
    <desc>Created with Sketch.</desc>
    <defs></defs>
    <g id="Symbols" stroke="none" stroke-width="1" fill="none" fill-rule="evenodd">
        <g id="Desktop-HD" transform="translate(-707.000000, -237.000000)">
            <g id="Group" transform="translate(709.000000, 239.000000)">
                <path d="M19,108.975435 C8.41888847,108.454404 0,99.7103702 0,89 C0,77.954305 8.954305,69 20,69 C31.045695,69 40,77.954305 40,89 C40,100.045695 31.045695,109 20,109 L20,136 L19,136 L19,108.975435 Z M20,177 C31.045695,177 40,168.045695 40,157 C40,145.954305 31.045695,137 20,137 C8.954305,137 0,145.954305 0,157 C0,168.045695 8.954305,177 20,177 Z M19,43 L20,43 L20,67 L19,67 L19,43 Z" id="Combined-Shape" stroke-opacity="0.6" stroke="#888A8D" stroke-width="3"></path>
                <text id="1" font-family="Lato-Regular, Lato" font-size="28" font-weight="normal" letter-spacing="0.378000081" fill-opacity="0.8" fill="#245AAA">
                    <tspan x="11" y="30">1</tspan>
                </text>
                <text id="2" font-family="Lato-Regular, Lato" font-size="28" font-weight="normal" letter-spacing="0.378000081" fill-opacity="0.5" fill="#888A8D">
                    <tspan x="11" y="99">2</tspan>
                </text>
                <text id="3" font-family="Lato-Regular, Lato" font-size="28" font-weight="normal" letter-spacing="0.378000081" fill-opacity="0.5" fill="#888A8D">
                    <tspan x="11" y="167">3</tspan>
                </text>
                <path d="M20,40 C31.045695,40 40,31.045695 40,20 C40,8.954305 31.045695,0 20,0 C8.954305,0 0,8.954305 0,20 C0,31.045695 8.954305,40 20,40 Z" id="Combined-Shape" stroke-opacity="0.8" stroke="#245AAA" stroke-width="3"></path>
            </g>
        </g>
    </g>
</svg>