<?xml version="1.0" encoding="UTF-8"?>
<svg width="20px" height="28px" viewBox="0 0 20 28" version="1.1" xmlns="http://www.w3.org/2000/svg" xmlns:xlink="http://www.w3.org/1999/xlink">
    <!-- Generator: Sketch 51.3 (57544) - http://www.bohemiancoding.com/sketch -->
    <title>smartphone</title>
    <desc>Created with Sketch.</desc>
    <defs>
        <filter x="-1.1%" y="-0.7%" width="102.1%" height="101.9%" filterUnits="objectBoundingBox" id="filter-1">
            <feOffset dx="0" dy="2" in="SourceAlpha" result="shadowOffsetOuter1"></feOffset>
            <feGaussianBlur stdDeviation="2" in="shadowOffsetOuter1" result="shadowBlurOuter1"></feGaussianBlur>
            <feColorMatrix values="0 0 0 0 0   0 0 0 0 0   0 0 0 0 0  0 0 0 0.1 0" type="matrix" in="shadowBlurOuter1" result="shadowMatrixOuter1"></feColorMatrix>
            <feMerge>
                <feMergeNode in="shadowMatrixOuter1"></feMergeNode>
                <feMergeNode in="SourceGraphic"></feMergeNode>
            </feMerge>
        </filter>
    </defs>
    <g id="---▶︎--Sign-Up-Pages" stroke="none" stroke-width="1" fill="none" fill-rule="evenodd">
        <g id="profile-signup---Desktop" transform="translate(-449.000000, -1385.000000)">
            <g id="Profile-Component---Family" filter="url(#filter-1)" transform="translate(437.000000, 1063.000000)">
                <g id="Side-Navigation" transform="translate(1.000000, 50.000000)">
                    <g id="Group-11" transform="translate(15.000000, 274.000000)">
                        <g id="smartphone">
                            <g id="Group-3">
                                <polygon id="Clip-2" points="0.170571429 0 11.8277143 0 11.8277143 19.975 0.170571429 19.975"></polygon>
                                <path d="M10.3174286,0 L1.68085714,0 C0.848571429,0 0.170571429,0.659166667 0.170571429,1.46791667 L0.170571429,18.5320833 C0.170571429,19.3408333 0.848571429,20 1.68085714,20 L10.3174286,20 C11.1514286,20 11.8277143,19.3408333 11.8277143,18.5320833 L11.8277143,1.46791667 C11.8277143,0.659166667 11.1514286,0 10.3174286,0 Z M0.857142857,15.33375 L11.1428571,15.33375 L11.1428571,2.66583333 L0.857142857,2.66583333 L0.857142857,15.33375 Z M1.68085714,0.6675 L10.3174286,0.6675 C10.773,0.6675 11.1428571,1.02708333 11.1428571,1.46791667 L11.1428571,2.00041667 L0.857142857,2.00041667 L0.857142857,1.46791667 C0.857142857,1.02708333 1.227,0.6675 1.68085714,0.6675 Z M10.3174286,19.3325 L1.68085714,19.3325 C1.227,19.3325 0.857142857,18.9729167 0.857142857,18.5320833 L0.857142857,15.9991667 L11.1428571,15.9991667 L11.1428571,18.5320833 C11.1428571,18.9729167 10.773,19.3325 10.3174286,19.3325 Z" id="Fill-1" fill="#000000"></path>
                            </g>
                            <path d="M6,16.3329167 C5.24314286,16.3329167 4.629,16.9320833 4.629,17.6658333 C4.629,18.4016667 5.24314286,19.0008333 6,19.0008333 C6.75685714,19.0008333 7.371,18.4016667 7.371,17.6658333 C7.371,16.9320833 6.75685714,16.3329167 6,16.3329167 Z M6,18.3333333 C5.62157143,18.3333333 5.31342857,18.03375 5.31342857,17.6658333 C5.31342857,17.3 5.62157143,17.0004167 6,17.0004167 C6.37842857,17.0004167 6.68485714,17.3 6.68485714,17.6658333 C6.68485714,18.03375 6.37842857,18.3333333 6,18.3333333 Z" id="Fill-4" fill="#000000"></path>
                            <path d="M4.629,1.66666667 L6,1.66666667 C6.189,1.66666667 6.34328571,1.51708333 6.34328571,1.33291667 C6.34328571,1.14916667 6.189,0.999166667 6,0.999166667 L4.629,0.999166667 C4.43785714,0.999166667 4.28571429,1.14916667 4.28571429,1.33291667 C4.28571429,1.51708333 4.43785714,1.66666667 4.629,1.66666667 Z" id="Fill-5" fill="#000000"></path>
                        </g>
                    </g>
                </g>
            </g>
        </g>
    </g>
</svg>