<?xml version="1.0" encoding="UTF-8"?>
<svg width="26px" height="26px" viewBox="0 0 26 26" version="1.1" xmlns="http://www.w3.org/2000/svg" xmlns:xlink="http://www.w3.org/1999/xlink">
    <!-- Generator: Sketch 51.3 (57544) - http://www.bohemiancoding.com/sketch -->
    <title>users</title>
    <desc>Created with Sketch.</desc>
    <defs>
        <filter x="-1.1%" y="-0.7%" width="102.1%" height="102.0%" filterUnits="objectBoundingBox" id="filter-1">
            <feOffset dx="0" dy="2" in="SourceAlpha" result="shadowOffsetOuter1"></feOffset>
            <feGaussianBlur stdDeviation="2" in="shadowOffsetOuter1" result="shadowBlurOuter1"></feGaussianBlur>
            <feColorMatrix values="0 0 0 0 0   0 0 0 0 0   0 0 0 0 0  0 0 0 0.1 0" type="matrix" in="shadowBlurOuter1" result="shadowMatrixOuter1"></feColorMatrix>
            <feMerge>
                <feMergeNode in="shadowMatrixOuter1"></feMergeNode>
                <feMergeNode in="SourceGraphic"></feMergeNode>
            </feMerge>
        </filter>
    </defs>
    <g id="---▶︎--Sign-Up-Pages" stroke="none" stroke-width="1" fill="none" fill-rule="evenodd">
        <g id="profile-signup---Desktop" transform="translate(-445.000000, -503.000000)" fill="#888A8D">
            <g id="Profile-Component---Names" filter="url(#filter-1)" transform="translate(437.000000, 331.000000)">
                <g id="Side-NavBar" transform="translate(1.000000, 49.000000)">
                    <g id="Group-13" transform="translate(11.000000, 125.000000)">
                        <path d="M16.65525,14.4155455 L13.72275,13.0315909 C13.65375,12.9935455 13.577625,12.9006818 13.511625,12.7791818 L15.47025,12.7775455 C15.504,12.7808182 16.311,12.861 16.958625,12.5570455 C17.203125,12.4420909 17.384625,12.2150455 17.458125,11.934 C17.53275,11.6496818 17.485875,11.349 17.330625,11.1076364 C16.771125,10.2399545 15.46575,7.96909091 15.424875,5.66795455 C15.423375,5.62827273 15.3045,1.71327273 11.761125,1.68095455 C11.239875,1.68586364 10.758,1.78322727 10.3185,1.96077273 C10.22325,1.69404545 10.082625,1.4175 9.8715,1.15527273 C9.2565,0.388227273 8.256,0 6.89925,0 C5.542875,0 4.543875,0.388227273 3.927375,1.15527273 C3.21675,2.03890909 3.28275,3.11113636 3.300375,3.29031818 L3.300375,5.03222727 C3.108375,5.27031818 3,5.5755 3,5.89009091 L3,7.19918182 C3,7.59845455 3.165375,7.96909091 3.449625,8.217 C3.72375,9.40418182 4.299375,10.2992727 4.5,10.5852273 L4.5,11.6685 C4.5,11.9851364 4.34175,12.276 4.08675,12.4277727 L1.41075,14.0207727 C0.540375,14.5386818 0,15.5311364 0,16.6127727 L0,18 L18,18 L18,16.7903182 C18,15.7786364 17.484375,14.8696364 16.65525,14.4155455 Z M13.199625,17.3446364 L0.60075,17.3446364 L0.60075,16.6127727 C0.60075,15.7725 1.021125,14.9989091 1.697625,14.5963636 L4.374,13.0029545 C4.822125,12.7362273 5.10075,12.2248636 5.10075,11.6685 L5.10075,10.3536818 L5.03025,10.2624545 C5.023125,10.2526364 4.28775,9.28268182 4.008,7.95027273 L3.979875,7.82059091 L3.8775,7.74859091 C3.703125,7.62586364 3.60075,7.42131818 3.60075,7.20081818 L3.60075,5.89009091 C3.60075,5.70804545 3.670875,5.53540909 3.801375,5.40777273 L3.89925,5.31 L3.89925,3.27272727 L3.898125,3.22977273 C3.896625,3.22159091 3.793875,2.31381818 4.3785,1.58686364 C4.8765,0.968318182 5.72475,0.655363636 6.89925,0.655363636 C8.071125,0.655363636 8.917875,0.965045455 9.415875,1.58031818 C9.66375,1.8855 9.78825,2.22586364 9.84975,2.51836364 C9.853875,2.54086364 9.859875,2.56336364 9.862875,2.58709091 C9.867,2.60959091 9.8715,2.63372727 9.876,2.65581818 C9.879,2.68159091 9.883125,2.70531818 9.886125,2.72945455 C9.887625,2.74704545 9.890625,2.76463636 9.892125,2.78059091 C9.896625,2.82190909 9.90075,2.86036364 9.90225,2.89718182 C9.90375,2.90045455 9.90375,2.90209091 9.90375,2.90536364 C9.90525,2.94054545 9.90675,2.97409091 9.90825,3.00436364 C9.90825,3.0105 9.90825,3.01540909 9.90825,3.02195455 C9.90825,3.04895455 9.90825,3.07472727 9.90825,3.09681818 L9.90825,3.10663636 C9.90675,3.18313636 9.90225,3.22977273 9.90225,3.231 L9.89925,5.31 L9.999,5.40940909 C10.128,5.53540909 10.199625,5.70804545 10.199625,5.89009091 L10.199625,7.20081818 C10.199625,7.48513636 10.02825,7.73590909 9.77325,7.82222727 L9.624,7.87172727 L9.575625,8.03331818 C9.375,8.71404545 9.08925,9.34363636 8.72625,9.90286364 C8.636625,10.0403182 8.550375,10.1634545 8.47425,10.2559091 L8.39925,10.3487727 L8.39925,11.6991818 C8.39925,11.7822273 8.40825,11.8636364 8.419875,11.9434091 C8.421375,11.9593636 8.425875,11.9769545 8.428875,11.9929091 C8.4405,12.0587727 8.456625,12.1242273 8.47575,12.1864091 C8.479875,12.2007273 8.484375,12.2150455 8.490375,12.2297727 C8.513625,12.2980909 8.539875,12.3655909 8.572125,12.4277727 C8.575125,12.4355455 8.579625,12.4420909 8.582625,12.4502727 C8.6265,12.5333182 8.676375,12.6130909 8.733375,12.6867273 L8.802375,12.7791818 L8.814,12.7791818 C8.916375,12.8896364 9.03525,12.9853636 9.169875,13.059 L12.03525,14.6217273 C12.7545,15.0132273 13.199625,15.8011364 13.199625,16.677 L13.199625,17.3446364 Z M17.39925,17.3446364 L13.800375,17.3446364 L13.800375,16.677 C13.800375,15.552 13.22625,14.5403182 12.3045,14.0367273 L10.2465,12.9133636 C10.297875,12.7873636 10.303875,12.6433636 10.259625,12.5026364 C10.1865,12.2727273 9.9945,12.1242273 9.770625,12.1242273 L9.105375,12.1242273 C9.09225,12.0968182 9.083625,12.0681818 9.071625,12.0395455 C9.057,12.0027273 9.039375,11.9659091 9.02925,11.9258182 C9.010125,11.8525909 9,11.7773182 9,11.6991818 L9,10.5934091 C9.069,10.5005455 9.140625,10.3966364 9.21525,10.2816818 C9.58725,9.70936364 9.884625,9.072 10.10175,8.38309091 C10.52475,8.17240909 10.800375,7.71504545 10.800375,7.20081818 L10.800375,5.89009091 C10.800375,5.5755 10.692,5.27031818 10.5,5.03222727 L10.5,3.29031818 C10.5075,3.20890909 10.52475,2.94177273 10.47525,2.59036364 C10.861875,2.42590909 11.293875,2.33959091 11.761125,2.33631818 C14.71425,2.36168182 14.821125,5.54686364 14.824125,5.68104545 C14.8695,8.16259091 16.248,10.566 16.83975,11.4831818 C16.891125,11.5633636 16.90575,11.6607273 16.8825,11.7548182 C16.8675,11.8075909 16.828125,11.9053636 16.72125,11.9565 C16.21725,12.1929545 15.53325,12.1258636 15.498,12.1242273 L13.434,12.1242273 C13.240875,12.1242273 13.065,12.231 12.96225,12.4101818 C12.861375,12.5877273 12.852375,12.8065909 12.9375,12.9935455 C13.03125,13.1997273 13.196625,13.4758636 13.46925,13.6247727 L16.394625,15.0054545 C17.014125,15.3474545 17.39925,16.0314545 17.39925,16.7903182 L17.39925,17.3446364 Z" id="users"></path>
                    </g>
                </g>
            </g>
        </g>
    </g>
</svg>