<?xml version="1.0" encoding="UTF-8"?>
<svg width="75px" height="80px" viewBox="0 0 75 80" version="1.1" xmlns="http://www.w3.org/2000/svg" xmlns:xlink="http://www.w3.org/1999/xlink">
    <!-- Generator: Sketch 51.3 (57544) - http://www.bohemiancoding.com/sketch -->
    <title>Page 1</title>
    <desc>Created with Sketch.</desc>
    <defs></defs>
    <g id="---▶︎--Map-Landing-Pages" stroke="none" stroke-width="1" fill="none" fill-rule="evenodd">
        <g id="Map-Landing-Page" transform="translate(-645.000000, -346.000000)">
            <g id="Hero-Banner" transform="translate(76.000000, 167.000000)">
                <g id="Group-14" transform="translate(16.000000, 165.000000)">
                    <g id="Group-13" transform="translate(535.000000, 0.000000)">
                        <g id="Page-1" transform="translate(49.096460, 61.445225) rotate(-39.000000) translate(-49.096460, -61.445225) translate(17.998715, 22.988703)">
                            <g id="Group-3" transform="translate(20.807194, 0.007442)">
                                <polygon id="Clip-2" points="0.045464822 0.0988690149 33.9197028 0.0988690149 33.9197028 73.7031829 0.045464822 73.7031829"></polygon>
                                <path d="M30.6675242,73.7031829 L2.5523172,73.6996746 C2.5523172,73.6996746 -3.35365416,55.2713407 2.96460419,35.2715211 C9.28286255,15.2717014 2.35782413,0.0988158595 2.35782413,0.0988158595 L30.4730311,0.102430426 C30.4730311,0.102430426 37.8059943,11.2301912 31.080024,33.0278323 C24.3541601,54.825367 30.6675242,73.7031829 30.6675242,73.7031829" id="Fill-1" fill="#81A260"></path>
                            </g>
                            <path d="M55.360015,73.7110499 L27.2466167,73.7075416 C27.2466167,73.7075416 21.1539193,55.3533063 27.2688536,35.2768366 C33.3836816,15.2002605 26.3085175,0.106682856 26.3085175,0.106682856 L54.4220222,0.110297422 C54.4220222,0.110297422 61.8640419,10.8067554 55.3598022,32.6860432 C48.8554561,54.5652246 55.360015,73.7110499 55.360015,73.7110499" id="Fill-4" fill="#8BB167"></path>
                            <path d="M58.860039,73.7115601 L30.744832,73.7080519 C30.744832,73.7080519 24.8388606,55.279718 31.157119,35.2798983 C37.4753774,15.2800787 30.5503389,0.107193148 30.5503389,0.107193148 L58.665546,0.110807714 C58.665546,0.110807714 65.9985091,11.2385685 59.2725388,33.0362096 C52.5466749,54.8337443 58.860039,73.7115601 58.860039,73.7115601" id="Fill-6" fill="#99C577"></path>
                            <path d="M23.7717981,35.2789734 C24.224835,33.8447349 24.6027559,32.4389876 24.9270528,31.0583296 L32.3123631,31.0592864 C31.9880662,32.4399444 31.6101453,33.8456917 31.1571084,35.2799302 C30.2733778,38.0773918 29.6358491,40.8411529 29.1807907,43.5311342 L21.7954804,43.5301774 C22.2505388,40.8403024 22.8880675,38.076435 23.7717981,35.2789734" id="Fill-8" fill="#DFC3A5"></path>
                            <path d="M41.8840075,11.1908669 L42.2031974,11.1908669 C42.2026654,14.9886064 44.4457195,18.0784226 47.2033077,18.0788479 L47.2038397,18.0788479 C48.520711,18.0788479 49.7654453,17.3754958 50.7085452,16.0982782 C51.67335,14.7917189 52.2048012,13.0493917 52.2051204,11.1922489 C52.2053332,9.33499976 51.6743075,7.59245995 50.709822,6.28568798 C49.7668285,5.00815148 48.5222005,4.3044805 47.2050101,4.30437419 L47.2044781,4.30437419 C45.8875004,4.30437419 44.6428725,5.00772623 43.6996662,6.28494381 C42.7349678,7.59150316 42.2034102,9.33372403 42.2031974,11.1908669 L41.8840075,11.1908669 Z M47.2038397,18.7167125 L47.2032013,18.7167125 C44.093653,18.7162872 41.5642855,15.3401762 41.5648175,11.1908669 C41.5650303,9.19839042 42.140849,7.32158011 43.1860896,5.90615854 C44.2526096,4.46192675 45.6798142,3.66650958 47.2044781,3.66650958 L47.2051165,3.66650958 C48.7300996,3.6667222 50.1571978,4.46235199 51.2236113,5.90722165 C52.2684264,7.32274953 52.8437131,9.19977246 52.8435003,11.1922489 C52.8431811,13.1848316 52.2674688,15.0615356 51.2223346,16.4770635 C50.1557082,17.9212953 48.7285036,18.7167125 47.2038397,18.7167125 Z" id="Fill-10" fill="#7FA260"></path>
                            <path d="M37.7656061,62.0907832 C37.7651805,65.8885228 40.0082346,68.9783389 42.7657165,68.9787642 C45.5233047,68.9790831 47.7669972,65.8896922 47.7675291,62.0921652 C47.7680611,58.2944256 45.5250071,55.2046094 42.7674188,55.2041842 C40.009937,55.2038653 37.7661381,58.2931499 37.7656061,62.0907832 M42.766142,69.6166288 L42.7656101,69.6166288 C39.6561681,69.6162036 37.1268007,66.2400925 37.1272263,62.0907832 C37.1277582,57.9416865 39.6577641,54.5663196 42.7670996,54.5663196 L42.7675252,54.5663196 C45.8770735,54.5667448 48.406441,57.9427496 48.405909,62.0921652 C48.405377,66.2412619 45.8753712,69.6166288 42.766142,69.6166288" id="Fill-12" fill="#7FA260"></path>
                            <path d="M51.912253,48.0908775 L51.9135763,48.0908775 L51.912253,48.0908775 Z M35.5431292,50.6288345 L48.9051646,50.6306418 C49.1261505,49.1804566 50.225015,48.0309182 51.6044475,47.8056457 C51.7579779,44.1299509 52.1178113,39.350644 52.9596216,36.8588259 C53.2910471,35.8775775 53.6656697,34.9214184 54.0280567,33.9968337 C54.8524179,31.8929436 55.7040166,29.7196325 56.2131246,26.8963374 C54.9288107,26.5241434 53.9884771,25.3581269 53.8511191,23.9649243 L40.6553816,23.9632233 C40.4932331,25.5963694 39.2251979,26.8958059 37.6638271,27.015937 C37.34485,30.025276 36.7087044,34.1882994 35.4674812,37.4888235 C34.1811457,40.9094788 33.1985727,44.7631378 32.8146936,47.8755982 C34.1826353,48.0788644 35.2902244,49.1923634 35.5431292,50.6288345 Z M49.1910524,51.2685064 L49.190946,51.2685064 L35.2641572,51.2666991 C35.0993488,51.2666991 34.9616715,51.1412524 34.9463504,50.9772149 C34.8183552,49.5995336 33.7444939,48.5266454 32.4484764,48.4815696 C32.3596352,48.4784866 32.2761138,48.43862 32.2180212,48.3713253 C32.1599287,48.3041369 32.1324783,48.2156864 32.1423732,48.1274484 C32.5014619,44.9119729 33.5211673,40.8510079 34.8699576,37.2644015 C36.126502,33.923054 36.753391,29.6577596 37.0582174,26.6680882 C37.0747089,26.5050075 37.2121733,26.3814744 37.3755986,26.3814744 L37.381344,26.3814744 C37.4024105,26.3818996 37.4227323,26.3839195 37.4430541,26.3871089 C38.8570655,26.3780724 40.0179593,25.1496515 40.0343444,23.6408891 C40.0362595,23.4660079 40.1786182,23.3253587 40.3535343,23.3253587 L54.1531791,23.3270597 C54.3280952,23.3270597 54.4703475,23.4678151 54.4722627,23.64259 C54.486307,24.9798732 55.3966367,26.1149533 56.6366896,26.3415015 C56.8084138,26.3728632 56.9231094,26.5363692 56.8939567,26.70838 C56.3812313,29.7412136 55.4871803,32.022749 54.6224947,34.2293353 C54.2462762,35.1893216 53.8910178,36.0960461 53.5643801,37.0628362 C52.6817135,39.675636 52.350288,45.1016313 52.2312301,48.1035285 C52.2247399,48.2662903 52.096532,48.3981156 51.9338515,48.4090656 C50.6438986,48.4965594 49.6016371,49.5980453 49.5094976,50.9708362 C49.4983259,51.138382 49.3589463,51.2685064 49.1910524,51.2685064 Z" id="Fill-14" fill="#7FA260"></path>
                            <path d="M31.1482349,35.2798027 C31.6012718,33.8457767 31.9791927,32.4398168 32.3033833,31.0591588 L32.6258715,31.0591588 L59.842346,31.0625608 C59.6620037,31.7106312 59.4698514,32.368057 59.2636547,33.0362202 C58.1514906,36.6406868 57.4017134,40.1619121 56.9151616,43.5344086 L29.1719172,43.5310067 C29.6269757,40.8412379 30.2645044,38.0772642 31.1482349,35.2798027" id="Fill-16" fill="#EED2B0"></path>
                            <path d="M35.1184151,35.2968869 L53.7663422,34.9981429" id="Fill-18" fill="#D5B599"></path>
                            <path d="M35.1183193,35.6182536 C34.9444672,35.6182536 34.8021085,35.4787739 34.7992358,35.3045305 C34.7964694,35.1283736 34.9370194,34.9832594 35.1133187,34.980389 L53.7611394,34.6792106 C53.9327572,34.6779349 54.0825637,34.8167767 54.0854364,34.9929337 C54.0883091,35.1690906 53.9477591,35.3142048 53.7714599,35.3170752 L35.1235327,35.6182536 L35.1183193,35.6182536 Z" id="Fill-20" fill="#D5B599"></path>
                            <path d="M33.9289857,39.5043695 L52.5769128,39.2056255" id="Fill-22" fill="#D5B599"></path>
                            <path d="M33.9288899,39.8257362 C33.7550378,39.8257362 33.6126791,39.6862564 33.6098064,39.5120131 C33.6070401,39.3358562 33.74759,39.190742 33.9238893,39.1878716 L52.57171,38.8866932 L52.5770299,38.8866932 C52.750882,38.8866932 52.8932407,39.0261729 52.896007,39.2004162 C52.8988797,39.3765732 52.7583298,39.5216874 52.5820305,39.5245578 L33.9341034,39.8257362 L33.9288899,39.8257362 Z" id="Fill-24" fill="#D5B599"></path>
                            <g id="Group-30" transform="translate(0.485435, 67.940023)">
                                <polygon id="Clip-29" points="0.040207293 0.076572103 23.7643184 0.076572103 23.7643184 7.54806458 0.040207293 7.54806458"></polygon>
                            </g>
                        </g>
                    </g>
                </g>
            </g>
        </g>
    </g>
</svg>