<?xml version="1.0" encoding="UTF-8"?>
<svg width="68px" height="75px" viewBox="0 0 68 75" version="1.1" xmlns="http://www.w3.org/2000/svg" xmlns:xlink="http://www.w3.org/1999/xlink">
    <!-- Generator: Sketch 51.3 (57544) - http://www.bohemiancoding.com/sketch -->
    <title>review-documents-graphic</title>
    <desc>Created with Sketch.</desc>
    <defs></defs>
    <g id="---▶︎--My-Claims" stroke="none" stroke-width="1" fill="none" fill-rule="evenodd">
        <g id="Dashboard-New---Standard---state-1" transform="translate(-672.000000, -351.000000)">
            <g id="Canvas-Area" transform="translate(0.000000, 120.000000)">
                <g id="Message-Banner-2" transform="translate(187.000000, 33.000000)">
                    <g id="Group-2">
                        <g id="Process---style-1" transform="translate(46.000000, 165.000000)">
                            <g id="review-documents-graphic" transform="translate(439.000000, 33.000000)">
                                <polyline id="Fill-4" fill="#F4F4F1" points="12.0740016 0 12.0740016 12.0751342 0 12.0751342 0 75 57 75 57 0 12.0740016 0"></polyline>
                                <polyline id="Fill-5" fill="#C7C6C1" points="12 0 0 12 12 12 12 0"></polyline>
                                <polygon id="Fill-6" fill="#D8D8D2" points="7 50 50 50 50 47 7 47"></polygon>
                                <polygon id="Fill-7" fill="#D8D8D2" points="7 57 50 57 50 54 7 54"></polygon>
                                <polygon id="Fill-8" fill="#D8D8D2" points="7 64 32 64 32 61 7 61"></polygon>
                                <polyline id="Fill-9" fill="#27333F" points="38 35.9455924 41.945437 32 50 40.0546391 46.054563 44 38 35.9455924"></polyline>
                                <path d="M30.5,9 C39.6127451,9 47,16.3872549 47,25.5 C47,34.6127451 39.6127451,42 30.5,42 C21.3872549,42 14,34.6127451 14,25.5 C14,16.3872549 21.3872549,9 30.5,9" id="Fill-10" fill="#2F424F"></path>
                                <path d="M44,25.5 C44,32.9558376 37.9558376,39 30.5,39 C23.0441624,39 17,32.9558376 17,25.5 C17,18.0441624 23.0441624,12 30.5,12 C37.9558376,12 44,18.0441624 44,25.5 Z" id="Fill-11" fill="#E0E7F3"></path>
                                <path d="M50.3417533,37.153789 L44.1604755,43.0775136 C43.9465082,43.2825656 43.9465082,43.6471025 44.1604755,43.8521545 L60.8499257,59.846211 C61.063893,60.051263 61.4442793,60.051263 61.6582467,59.846211 L67.8395245,53.9224864 C68.0534918,53.7174344 68.0534918,53.3528975 67.8395245,53.1478455 L51.1500743,37.153789 C50.936107,36.948737 50.5794948,36.948737 50.3417533,37.153789" id="Fill-12" fill="#E6E9E9"></path>
                                <polygon id="Fill-13" fill="#4B76B6" points="65 50.5709878 58.1928106 57 47 46.4290122 53.8071894 40"></polygon>
                                <path d="M28.3827156,28.1922267 L35.4626626,21.0551183 L36.1182157,20.3942725 L37.4293218,21.7159641 L36.7737687,22.3768099 L29.3570325,29.8534266 L28.7014795,30.5142724 L28.4993605,30.3105216 L28.4184952,30.3886123 L27.8975014,29.8491075 L24.9503156,26.7972072 L24.4293218,26.2577023 L25.5083315,25.2157148 L26.0293253,25.7552196 L28.3827156,28.1922267 Z" id="Combined-Shape" stroke="#24D2AA" stroke-width="1.5" fill="#24D2AA" stroke-linecap="square" transform="translate(30.929322, 25.454272) rotate(-5.000000) translate(-30.929322, -25.454272) "></path>
                            </g>
                        </g>
                    </g>
                </g>
            </g>
        </g>
    </g>
</svg>