<?xml version="1.0" encoding="UTF-8"?>
<svg width="23px" height="35px" viewBox="0 0 23 35" version="1.1" xmlns="http://www.w3.org/2000/svg" xmlns:xlink="http://www.w3.org/1999/xlink">
    <!-- Generator: Sketch 51.3 (57544) - http://www.bohemiancoding.com/sketch -->
    <title>Group 9</title>
    <desc>Created with Sketch.</desc>
    <defs></defs>
    <g id="---▶︎--Map-Landing-Pages" stroke="none" stroke-width="1" fill="none" fill-rule="evenodd">
        <g id="Map-Landing-Page" transform="translate(-95.000000, -427.000000)">
            <g id="Hero-Banner" transform="translate(76.000000, 167.000000)">
                <g id="Group-14" transform="translate(16.000000, 165.000000)">
                    <g id="Group-12" transform="translate(3.000000, 95.000000)">
                        <g id="Group-9">
                            <path d="M17.0043303,19.7064124 C18.5737253,26.0846796 19.0929236,29.3750074 18.9867239,29.8282606 C18.2315264,32.9501334 9.90075311,32.276313 9.78275349,30.4923857 C9.67655383,28.7084585 6.70296337,21.4442872 6.03036553,20.4541591 C5.35776769,19.4676667 16.0721333,15.9240503 17.0043303,19.7064124" id="Fill-2318" fill="#F4C8A5"></path>
                            <path d="M13.2140477,3 L21.7196058,18.167555 C21.7196058,18.167555 23.7386605,21.7676128 22.7059256,23.0813097 C21.661587,24.3890024 17.9599867,26.2730887 15.8016868,25.9668797 C13.6317832,25.6630723 10.3711259,25.5598017 8.21282602,22.506117 C6.05452616,19.4464281 2.00481298,11.4477674 2.00481298,11.4477674 C2.00481298,11.4477674 1.64509634,8.23197191 7.14527985,6.98912341 C12.6454634,5.74387326 13.2140477,3 13.2140477,3" id="Fill-2320" fill="#F4C8A5"></path>
                            <path d="M10.3081412,0.139304553 C11.0561191,-0.0590762345 12.4352033,-0.185425903 13.323427,0.77459541 C14.2583994,1.77004186 14.1882765,4.09393109 13.3351142,4.91225184 C12.4936391,5.72939175 6.17088856,9.48918002 5.23591621,9.66394405 C4.30094386,9.83516556 2.65305509,10.3807127 1.27397088,9.55766862 C0.385747148,9.022749 1.79989283,5.91360248 3.4711559,5.50503253 C7.69021863,4.45999088 7.52659847,0.877328318 10.3081412,0.139304553" id="Fill-2321" fill="#233770"></path>
                            <path d="M2.91583585,8.28658224 L6.56217077,14.9107973 L8,18.7198119 L7.26383143,19.1724282 L5.90652064,20 C5.90652064,20 -1.31713341,12.2654797 0.212716894,9.94051246 C1.73106456,7.6216125 2.51324366,7.83881977 2.91583585,8.28658224" id="Fill-2322" fill="#233770"></path>
                            <path d="M7.85586999,19.9177173 C8.15263175,20.4728235 7.97677293,21.1813452 7.46018765,21.5022294 L6.91062884,21.8430225 C6.39404356,22.1639067 5.72358182,21.9777001 5.42682006,21.4225939 L4.15184363,19.0815446 C3.8440907,18.5264383 4.01994952,17.8167456 4.53653479,17.4946903 L5.0860936,17.1585816 C5.61367006,16.8341841 6.27314063,17.0239039 6.58089356,17.5778391 L7.85586999,19.9177173" id="Fill-2323" fill="#F1BA8E"></path>
                            <polyline id="Fill-2325" fill="#B8B8B8" points="18.3067885 31.0210601 19 35 10 31.0778514 10.2114883 30 18.3067885 31.0210601"></polyline>
                            <polyline id="Fill-2326" fill="#B8B8B8" points="19.201278 29 22 33 18 31.4594595 19.201278 29"></polyline>
                        </g>
                    </g>
                </g>
            </g>
        </g>
    </g>
</svg>