<?xml version="1.0" encoding="UTF-8" standalone="no"?>
<svg width="86px" height="64px" viewBox="0 0 86 64" version="1.1" xmlns="http://www.w3.org/2000/svg" xmlns:xlink="http://www.w3.org/1999/xlink">
    <!-- Generator: Sketch 49.3 (51167) - http://www.bohemiancoding.com/sketch -->
    <title>Group 64</title>
    <desc>Created with Sketch.</desc>
    <defs>
        <polygon id="path-1" points="0.146510736 0.0678080406 32.498598 0.0678080406 32.498598 27.4275778 0.146510736 27.4275778"></polygon>
        <polygon id="path-3" points="0 0.0692429066 14.4667571 0.0692429066 14.4667571 17.1779857 0 17.1779857"></polygon>
        <polygon id="path-5" points="0.0724670307 0.135980096 42.8312751 0.135980096 42.8312751 13.4041839 0.0724670307 13.4041839"></polygon>
        <polygon id="path-7" points="0.191129636 0.00555046488 42.9499377 0.00555046488 42.9499377 18.1239669 0.191129636 18.1239669"></polygon>
        <polygon id="path-9" points="0.0729272605 0.146313275 42.8317353 0.146313275 42.8317353 10.5342537 0.0729272605 10.5342537"></polygon>
        <polygon id="path-11" points="0.073581908 0.135980096 43.4902178 0.135980096 43.4902178 13.4041839 0.073581908 13.4041839"></polygon>
        <polygon id="path-13" points="0.194070092 0.00555046488 43.610706 0.00555046488 43.610706 18.1239669 0.194070092 18.1239669"></polygon>
        <polygon id="path-15" points="0.0740492184 0.146313275 43.4906851 0.146313275 43.4906851 10.5342537 0.0740492184 10.5342537"></polygon>
    </defs>
    <g id="HomePage" stroke="none" stroke-width="1" fill="none" fill-rule="evenodd">
        <g id="Home-page-desktop-2" transform="translate(-749.000000, -675.000000)">
            <g id="Group-64" transform="translate(749.000000, 675.000000)">
                <g id="Page-1" transform="translate(44.000000, 0.000000)">
                    <path d="M14.5918281,11.2156863 L5.14285714,17.0684606 L15.9784654,26.3758891 C15.9786637,26.3758891 15.9786637,26.3760869 15.9788621,26.3762847 L26.4520402,35.372549 L30.8571429,25.1872143 L22.7245847,18.2013514 L14.5918281,11.2156863 Z" id="Fill-1" fill="#D8E7A6"></path>
                    <polygon id="Fill-3" fill="#D0D769" points="26.5714286 36.2018238 40.8949045 38.8235294 41.7951151 30.8926746 42 28.3733841 30.8880073 25.8823529"></polygon>
                    <g id="Group-7" transform="translate(9.428571, 0.000000)">
                        <mask id="mask-2" fill="white">
                            <use xlink:href="#path-1"></use>
                        </mask>
                        <g id="Clip-6"></g>
                        <path d="M12.6399801,17.9447803 L20.9337583,24.9587613 L32.4986385,27.4275778 L28.7567681,16.0326888 L20.3288603,8.90529711 C20.3284557,8.90509849 20.3284557,8.90489987 20.3280511,8.90450264 L12.1791248,2.01306859 L0.146510736,0.0678080406 L4.34599965,10.9307992 L12.6399801,17.9447803 Z" id="Fill-5" fill="#C5DD8E" mask="url(#mask-2)"></path>
                    </g>
                    <polygon id="Fill-8" fill="#D8E483" points="0.857142857 44 41.1428571 38.8498462 26.3532439 36.2352941"></polygon>
                    <path d="M18.00722,28.6812 C18.00722,28.6812 18.00722,28.6812 18.00722,28.6812 L4.82639148,17.254902 L0.857142857,44 L26.5714286,36.0916313 L18.00722,28.6812 Z" id="Fill-10" fill="#B6D890"></path>
                    <g id="Group-14">
                        <mask id="mask-4" fill="white">
                            <use xlink:href="#path-3"></use>
                        </mask>
                        <g id="Clip-13"></g>
                        <polygon id="Fill-12" fill="#EBF2D7" mask="url(#mask-4)" points="10.265531 0.0692429066 -4.04761905e-05 2.77805952 4.82674524 17.1779857 14.4667571 11.1718588"></polygon>
                    </g>
                    <polygon id="Fill-15" fill="#D8E483" points="0 2.58823529 0.914716981 44 5.14285714 17.1081644"></polygon>
                    <path d="M4.28571429,15.5294118 C4.28571429,15.5294118 6.20900613,16.2352978 7.71428571,15.5294118 C7.71428571,15.5294118 6.32047607,17.1764112 7.21245328,19.0588421 C7.21245328,19.0588421 4.75946152,18.1700015 4.45291919,19.8431373 C4.45291919,19.8431373 5.03835408,16.6275475 4.28571429,15.5294118" id="Fill-17" fill="#FEFEFE"></path>
                </g>
                <g id="Group-60" transform="translate(0.000000, 14.000000)">
                    <g id="Page-1">
                        <path d="M55.4200774,21.4886059 L55.4200774,20.819907 L55.4200774,20.6092159 L55.4200774,19.8285638 L55.4200774,19.6197606 L55.4200774,19.2869215 L55.4200774,18.6286061 L55.4200774,18.4075315 L55.4200774,18.0867751 L55.4200774,17.4180762 L55.4200774,17.2073851 L55.4200774,16.4269217 L55.4200774,16.2181185 L55.4200774,15.5154372 C55.4676344,15.3804514 55.4931389,15.2441441 55.4931389,15.1061377 C55.4931389,13.3826617 51.6973929,11.8649682 45.9389582,10.9768939 L45.9389582,10.5190749 L45.9389582,10.3102717 L45.9389582,9.97743259 L45.9389582,9.31911725 L45.9389582,9.09804261 L45.9389582,8.77747495 L45.9389582,8.10877608 L45.9389582,7.89808497 L45.9389582,7.11743285 L45.9389582,6.90844086 L45.9389582,6.20613714 C45.9865153,6.07115134 46.0118279,5.93465522 46.0118279,5.79683755 C46.0118279,3.05955217 36.4400051,0.840687758 24.6324239,0.840687758 C13.2200651,0.840687758 3.8969582,2.91361648 3.28581126,5.5238453 C3.23173425,5.6543001 3.19875111,5.78626524 3.18916299,5.91936312 L3.18015015,5.91728642 L3.18015015,6.00299768 L3.18015015,6.90844086 L3.18015015,6.99415212 L3.18015015,7.11743285 L3.18015015,7.89808497 L3.18015015,7.98341865 L3.18015015,8.10877608 L3.18015015,8.77747495 L3.18015015,8.86280863 L3.18015015,9.09804261 L3.18015015,9.31911725 L3.18015015,9.40445093 L3.18015015,9.97743259 L3.18015015,10.3102717 L3.18015015,10.3956054 L3.18015015,10.5190749 L3.18015015,11.2995382 L3.18015015,11.3850607 L3.18015015,11.5102293 L3.18015015,12.1789282 L3.18015015,12.2646395 L3.18015015,12.4998735 L3.18015015,13.3792634 C3.18015015,13.4576118 3.1901218,13.5353939 3.20565456,13.6127983 C3.21044862,13.63753 3.21850264,13.6620728 3.22502257,13.6866157 C3.23921299,13.7396661 3.25608808,13.7925276 3.27718195,13.8453892 C3.28849594,13.8731415 3.30076874,13.9012714 3.31400034,13.9290238 C3.33816241,13.9796198 3.36615973,14.0296495 3.39664996,14.079868 C3.41294977,14.1062988 3.428099,14.1329184 3.44593291,14.159538 C3.4873536,14.2199512 3.5343354,14.2799868 3.58515245,14.3400225 C3.59723349,14.3543706 3.60701337,14.3690963 3.61986146,14.3834445 C3.68314307,14.4546188 3.75428693,14.525038 3.83060839,14.5950795 C3.86186567,14.6239646 3.89657467,14.6520945 3.92994134,14.680602 C3.98056663,14.7236464 4.03195897,14.7665021 4.08718655,14.8089801 C4.128799,14.8408858 4.17232908,14.8727916 4.21643444,14.9045085 C4.27031969,14.943022 4.32669785,14.9813466 4.38422659,15.0194824 C4.43350954,15.0519545 4.4822172,15.0844267 4.53399307,15.1165212 C4.5961241,15.1550346 4.66228215,15.1927929 4.72844019,15.2309287 C4.81511682,15.2805808 4.90486165,15.3300442 4.99844172,15.3791299 C5.07687257,15.4202864 5.15511165,15.4616317 5.23833655,15.5022218 C5.31101452,15.5377146 5.38829479,15.572641 5.46423272,15.6075674 C5.52751433,15.6366413 5.59041241,15.6655263 5.65618693,15.6944114 C5.73826126,15.7302818 5.82282851,15.7659633 5.90854632,15.8012673 C5.97317027,15.8278869 6.03875303,15.8543177 6.1052946,15.8807485 C6.19638176,15.9166188 6.28804421,15.9526779 6.38277487,15.9879819 C6.44548119,16.011392 6.51106395,16.0344246 6.57549613,16.0576459 C6.65392697,16.0859646 6.73811069,16.1131506 6.81884268,16.1410917 L6.81884268,16.1201358 C7.2155992,16.2585199 7.64112008,16.3919954 8.09444651,16.5201847 L8.09444651,16.5367983 C9.22968023,16.8547229 10.5286791,17.1401754 11.9693904,17.3840938 C11.983389,17.3863592 11.9977712,17.388436 12.0117699,17.3908902 C12.2250097,17.4267606 12.4422766,17.4614982 12.6612693,17.4956694 L12.6612693,18.0867751 L12.6612693,18.1724863 L12.6612693,18.4075315 L12.6612693,18.6286061 L12.6612693,18.7141286 L12.6612693,19.2869215 L12.6612693,19.6197606 L12.6612693,19.7052831 L12.6612693,19.8285638 L12.6612693,20.1734855 C9.11634862,21.0077544 6.83706011,22.1316291 6.54519766,23.378407 C6.49112065,23.5088618 6.45813751,23.6406382 6.44854939,23.7739248 L6.43953655,23.7718481 L6.43953655,23.8573706 L6.43953655,24.7630026 L6.43953655,24.8485251 L6.43953655,24.9719946 L6.43953655,25.7524579 L6.43953655,25.8377916 L6.43953655,25.963149 L6.43953655,26.6318479 L6.43953655,26.7173704 L6.43953655,26.9524155 L6.43953655,27.1734902 L6.43953655,27.2588239 L6.43953655,27.8319943 L6.43953655,28.1646446 L6.43953655,28.2501671 L6.43953655,28.3736366 L6.43953655,29.1540999 L6.43953655,29.2396224 L6.43953655,29.3647911 L6.43953655,30.0336787 L6.43953655,30.1190124 L6.43953655,30.3542464 L6.43953655,31.2336364 C6.43953655,31.3119848 6.4495082,31.3897668 6.46504096,31.4671712 C6.46983502,31.4919029 6.4780808,31.5164458 6.48460073,31.5409886 C6.49859939,31.594039 6.51547448,31.6470894 6.53656835,31.6997621 C6.54788234,31.7277033 6.5603469,31.7556444 6.57338674,31.7833967 C6.59754881,31.8339928 6.62554613,31.8840225 6.65622812,31.934241 C6.67233617,31.9608605 6.6874854,31.9874801 6.70531931,32.0139109 C6.74674,32.0743241 6.7937218,32.1345486 6.84453885,32.1943954 C6.85661989,32.2087435 6.86639977,32.2234693 6.87924785,32.2380062 C6.94252946,32.3089917 7.0138651,32.3795997 7.08999479,32.4496413 C7.12125207,32.4783376 7.15615284,32.5064675 7.1895195,32.5351637 C7.23995303,32.5780194 7.29153713,32.620875 7.34676471,32.663353 C7.3881854,32.6954476 7.43171548,32.7271645 7.47601261,32.7588815 C7.52970609,32.7973949 7.58608425,32.8357195 7.64380475,32.8740442 C7.69289594,32.9065163 7.7416036,32.9387996 7.79337946,32.9710829 C7.8555105,33.0094075 7.92166854,33.0473546 7.98782659,33.0853017 C8.07450322,33.1351426 8.16424805,33.1846059 8.25782812,33.2336916 C8.33625897,33.2748481 8.41449805,33.3160046 8.49791471,33.3565948 C8.57040092,33.3922763 8.64768119,33.4270139 8.72361912,33.4619403 C8.78709249,33.4910142 8.84979881,33.5200881 8.91557333,33.5487843 C8.99764766,33.5846547 9.0822149,33.6203363 9.16812448,33.6556402 C9.23255667,33.6824486 9.29813943,33.7088794 9.364681,33.7351214 C9.45576816,33.7711805 9.54743061,33.8070509 9.64216126,33.8425436 C9.70505935,33.8659538 9.77045034,33.8889863 9.83488253,33.9122076 C9.91331337,33.9403376 9.99749709,33.9677123 10.0782291,33.9954646 L10.0782291,33.9746976 C10.4751774,34.1128928 10.9006982,34.2463683 11.3538329,34.3745576 L11.3538329,34.3911712 C12.4892584,34.7090958 13.7880655,34.9945483 15.2287768,35.2382779 C15.2427754,35.2407322 15.2571576,35.2429977 15.2711563,35.245452 C15.5614846,35.2943489 15.8575659,35.341358 16.1586329,35.3868567 C16.2100252,35.3945971 16.2619929,35.4021488 16.313577,35.4098892 C16.5837703,35.4501018 16.8579906,35.4886152 17.1364297,35.5259959 C17.2008618,35.5346803 17.2651023,35.5433647 17.329918,35.5518603 C17.6100829,35.5884858 17.8944666,35.623601 18.1823021,35.6573946 C18.2216134,35.6619256 18.2607329,35.6668342 18.3000442,35.6713652 L18.3000442,35.6638135 C19.3487931,35.7859615 20.4462496,35.8890416 21.584935,35.9704106 L21.584935,35.9736201 C21.9870609,36.00175 22.3926385,36.0283696 22.8045442,36.0514021 C22.8762634,36.0551779 22.9481743,36.0591426 23.0200852,36.0627296 C23.5037101,36.088594 23.9921291,36.1116265 24.487835,36.1295617 C24.4928208,36.1297505 24.4976149,36.1299393 24.502409,36.1301281 C24.876921,36.1437211 25.2562272,36.153727 25.6370674,36.1624114 C25.6915279,36.1635442 25.7459885,36.1648657 25.8006408,36.1661872 C25.8616212,36.1675088 25.9224099,36.1692079 25.9837739,36.1705294 C26.0349745,36.1712846 26.0861751,36.1720398 26.1373756,36.1729837 C26.4238687,36.1784587 26.7120877,36.1824233 27.001649,36.1852552 C27.1191994,36.1863879 27.2384756,36.1867655 27.3521908,36.1897862 C27.4609201,36.192618 27.5692659,36.1907301 27.6781869,36.1894086 C27.725744,36.1888422 27.7719588,36.1897862 27.8189406,36.1897862 C27.8252687,36.1897862 27.8312134,36.1895974 27.8375415,36.1895974 C27.855759,36.1895974 27.8737846,36.1897862 27.8918103,36.1897862 C39.6993915,36.1897862 49.2714061,33.970733 49.2714061,31.2336364 C49.2714061,31.0948747 49.246477,30.6668848 49.1983446,30.0914489 L49.1983446,30.0336787 L49.1983446,29.3647911 L49.1983446,29.1540999 L49.1983446,28.3736366 L49.1983446,28.1646446 L49.1983446,27.8319943 L49.1983446,27.1734902 L49.1983446,26.9524155 L49.1983446,26.6318479 L49.1983446,26.2006485 C53.0863283,25.3031346 55.4931389,24.0610764 55.4931389,22.6885635 C55.4931389,22.5499907 55.4682097,22.121812 55.4200774,21.5465648 L55.4200774,21.4886059 Z" id="Fill-1" fill="#293348" opacity="0.203577899"></path>
                        <g id="Group-5" transform="translate(3.259962, 23.830185)">
                            <mask id="mask-6" fill="white">
                                <use xlink:href="#path-5"></use>
                            </mask>
                            <g id="Clip-4"></g>
                            <path d="M42.8312751,8.2102703 C42.8312751,11.0787657 33.2592605,13.4042972 21.4518711,13.4042972 C9.64428983,13.4042972 0.0724670307,11.0787657 0.0724670307,8.2102703 C0.0724670307,7.56158332 0.561844808,1.9794015 1.45584136,1.25765227 C4.51560305,-1.21305976 12.3141984,1.25765227 21.4518711,1.25765227 C30.8002906,1.25765227 38.7473101,-1.26611012 41.651936,1.25765227 C42.4161094,1.92144256 42.8312751,7.61274576 42.8312751,8.2102703" id="Fill-3" fill="#FECF75" mask="url(#mask-6)"></path>
                        </g>
                        <g id="Group-8" transform="translate(3.068199, 19.110402)">
                            <mask id="mask-8" fill="white">
                                <use xlink:href="#path-7"></use>
                            </mask>
                            <g id="Clip-7"></g>
                            <path d="M42.9409248,5.11216694 C42.7480118,2.28426173 33.2574963,0.00555046488 21.5707254,0.00555046488 C9.88376278,0.00555046488 0.393247261,2.28426173 0.200334234,5.11216694 L0.191129636,5.10990145 L0.191129636,5.19957732 L0.191129636,6.14882009 L0.191129636,6.23830718 L0.191129636,6.36762924 L0.191129636,7.18566204 L0.191129636,7.27514912 L0.191129636,7.40635909 L0.191129636,8.10734127 L0.191129636,8.19701715 L0.191129636,8.44338982 L0.191129636,8.67503678 L0.191129636,8.76452386 L0.191129636,9.36488027 L0.191129636,9.71376663 L0.191129636,9.80344251 L0.191129636,9.93257577 L0.191129636,10.7506086 L0.191129636,10.8402845 L0.191129636,10.9714944 L0.191129636,11.6722878 L0.191129636,11.7619637 L0.191129636,12.0083364 L0.191129636,12.9300156 C0.191129636,13.0121398 0.201293046,13.0935089 0.216825805,13.1746892 C0.221619866,13.2007424 0.229673889,13.2262292 0.236193812,13.2520936 C0.250192471,13.307787 0.267067567,13.3632917 0.288161437,13.4184187 C0.299475421,13.4476814 0.311939981,13.4769441 0.32517159,13.5062067 C0.349333659,13.5590683 0.377330977,13.6117411 0.407821207,13.6642251 C0.424121015,13.6919774 0.439078487,13.7201073 0.457104157,13.7476708 C0.498524847,13.8111047 0.545506648,13.874161 0.596323697,13.9368397 C0.608404732,13.951943 0.618184617,13.9672351 0.631032701,13.9823384 C0.69431431,14.0570998 0.76545818,14.1309172 0.841779636,14.2041682 C0.873036916,14.2343748 0.907937682,14.2640151 0.941112586,14.2938441 C0.991546111,14.3387764 1.04313021,14.3837088 1.0983578,14.4284523 C1.13997025,14.4618684 1.18350033,14.4952845 1.22760569,14.5285117 C1.28149094,14.5689131 1.33767734,14.6091256 1.39539784,14.6491494 C1.44448902,14.682943 1.49319669,14.7171143 1.54516431,14.7507191 C1.60729534,14.7911205 1.67326163,14.8307666 1.73941967,14.8704128 C1.82628807,14.922708 1.91603289,14.9744368 2.00942121,15.0259769 C2.08785205,15.0690213 2.16628289,15.1124433 2.2495078,15.1549213 C2.32218577,15.1921132 2.39927427,15.2285499 2.47540397,15.2651755 C2.53868557,15.2955709 2.60158366,15.3261551 2.66716642,15.3563617 C2.74943251,15.3939311 2.83399975,15.431123 2.91971757,15.4681261 C2.98414975,15.496256 3.04992427,15.5238196 3.11646584,15.5513831 C3.20755301,15.5891414 3.2990237,15.6267108 3.39394611,15.6640915 C3.45665243,15.6884456 3.52223519,15.7126109 3.58666738,15.736965 C3.66509822,15.7666052 3.74928193,15.7951127 3.83001393,15.8243754 L3.83001393,7.79791229 L5.105426,7.79791229 L5.105426,16.2391499 C6.24104324,16.5723666 7.53985033,16.871412 8.98036987,17.1270355 C8.99456029,17.129301 9.00894247,17.1317553 9.02294113,17.1342096 C9.31326948,17.185372 9.60935071,17.2348353 9.91041776,17.2825995 C9.9618101,17.2907176 10.013586,17.2986468 10.0653618,17.3067648 C10.3355551,17.3486765 10.6097754,17.3892666 10.8882145,17.4283464 C10.9526467,17.4374084 11.0166953,17.4464704 11.0815111,17.4553436 C11.361676,17.493857 11.6460597,17.5304825 11.9338952,17.5659753 C11.9732065,17.5708839 12.0125178,17.5757925 12.0516373,17.580701 L12.0516373,9.47626715 L15.3365281,9.47626715 L15.3365281,17.8973041 C15.7388457,17.9269443 16.1444233,17.9546966 16.5561373,17.9788619 C16.6278565,17.9830153 16.6997674,17.9867912 16.7718701,17.9909446 C17.255495,18.0179417 17.7439139,18.0419182 18.2396199,18.0607974 C18.2444139,18.0609862 18.249208,18.0613637 18.2541938,18.0615525 C18.742421,18.0798653 19.2369764,18.0932695 19.7355588,18.1034642 C19.8456304,18.1059185 19.9562773,18.1078064 20.0669243,18.1098831 C20.5643561,18.1181899 21.0644725,18.1240425 21.5707254,18.1240425 C22.0505151,18.1240425 22.5249354,18.1187563 22.9970545,18.1112046 C23.1077015,18.1095055 23.2177731,18.10724 23.3282283,18.1049745 C23.781363,18.0959126 24.2314294,18.0845851 24.6761266,18.0687266 C24.6876323,18.068349 24.6995216,18.0681602 24.7112191,18.0675939 C25.2055827,18.0498475 25.6934264,18.0275701 26.1760925,18.0017057 C26.2125273,17.9998178 26.2485787,17.9977411 26.2850135,17.9956644 C26.5285519,17.982449 26.7678714,17.9664017 27.0083415,17.9509208 L27.0083415,8.39430408 L31.816018,8.39430408 L31.816018,17.4876269 C32.7957323,17.3573609 33.7301907,17.2095373 34.6092298,17.0449113 C34.6193932,17.0430233 34.6293649,17.0411354 34.6397201,17.0392475 C34.9442388,16.981855 35.2418542,16.9227633 35.5329496,16.8614061 C35.555194,16.8568751 35.5776302,16.8521553 35.5998747,16.8474355 C35.89423,16.7851344 36.1820655,16.7211341 36.4620386,16.6550572 C36.4654904,16.654302 36.4689421,16.6533581 36.4725856,16.6526029 C37.4369589,16.4247318 38.3110122,16.1743945 39.0857325,15.906122 L39.0857325,7.11108946 L40.3613363,7.11108946 L40.3613363,15.405825 C41.5161298,14.8904247 42.3255591,14.3227292 42.7040982,13.7202961 C42.7081252,13.7138772 42.7102346,13.7072695 42.7140699,13.7008506 C42.7629693,13.6213694 42.8059241,13.5413219 42.839866,13.460708 C42.8553988,13.4233273 42.8626858,13.3855691 42.8749586,13.3481884 C42.8914501,13.2977811 42.911777,13.2477514 42.9221321,13.1969665 C42.9407331,13.1084234 42.9499377,13.0195027 42.9499377,12.9300156 L42.9499377,12.0083364 L42.9499377,11.6722878 L42.9499377,10.9714944 L42.9499377,10.7506086 L42.9499377,9.93257577 L42.9499377,9.71376663 L42.9499377,9.36488027 L42.9499377,8.67503678 L42.9499377,8.44338982 L42.9499377,8.10734127 L42.9499377,7.40635909 L42.9499377,7.18566204 L42.9499377,6.36762924 L42.9499377,6.14882009 L42.9499377,5.10990145 L42.9409248,5.11216694 Z" id="Fill-6" fill="#E9A12A" mask="url(#mask-8)"></path>
                        </g>
                        <path d="M46.0912368,24.0940583 C46.0912368,26.9625536 36.5192222,29.2880851 24.7118327,29.2880851 C12.9042515,29.2880851 3.33242872,26.9625536 3.33242872,24.0940583 C3.33242872,21.2255629 12.9042515,18.9000314 24.7118327,18.9000314 C36.5192222,18.9000314 46.0912368,21.2255629 46.0912368,24.0940583" id="Fill-9" fill="#F8B32A"></path>
                        <path d="M43.7554359,24.0940583 C43.7554359,26.2611939 35.2292937,28.0178971 24.7116985,28.0178971 C14.1942951,28.0178971 5.66815291,26.2611939 5.66815291,24.0940583 C5.66815291,21.9269227 14.1942951,20.1702194 24.7116985,20.1702194 C35.2292937,20.1702194 43.7554359,21.9269227 43.7554359,24.0940583" id="Fill-11" fill="#FECF75"></path>
                        <path d="M41.1939881,24.0940583 C41.1939881,25.6912329 33.8147772,26.9861526 24.7118136,26.9861526 C15.6090417,26.9861526 8.22963904,25.6912329 8.22963904,24.0940583 C8.22963904,22.4966949 15.6090417,21.201964 24.7118136,21.201964 C33.8147772,21.201964 41.1939881,22.4966949 41.1939881,24.0940583" id="Fill-13" fill="#F8B32A"></path>
                        <path d="M37.991977,24.0192214 C37.991977,25.1880285 31.9794571,26.1357609 24.5628525,26.1357609 C17.1460561,26.1357609 11.133728,25.1880285 11.133728,24.0192214 C11.133728,22.8504143 17.1460561,21.9026819 24.5628525,21.9026819 C31.9794571,21.9026819 37.991977,22.8504143 37.991977,24.0192214" id="Fill-15" fill="#FECF75"></path>
                        <path d="M52.3129312,23.0854029 C52.3129312,25.9538982 42.7411084,28.2794298 30.9335271,28.2794298 C19.1261377,28.2794298 9.55412312,25.9538982 9.55412312,23.0854029 C9.55412312,22.4365271 10.0435009,16.8545341 10.9374975,16.1327849 C13.9972591,13.6620728 21.7960463,16.1327849 30.9335271,16.1327849 C40.2819467,16.1327849 48.2289662,13.6088337 51.1337839,16.1327849 C51.8977655,16.7963864 52.3129312,22.4878784 52.3129312,23.0854029" id="Fill-17" fill="#FECF75"></path>
                        <path d="M52.2308185,15.2675165 C52.0380972,12.4396113 42.5473899,10.1609 30.8606191,10.1609 C19.1736564,10.1609 9.6831409,12.4396113 9.49022787,15.2675165 L9.48121504,15.265251 L9.48121504,15.3549269 L9.48121504,16.3041696 L9.48121504,16.3936567 L9.48121504,16.5229788 L9.48121504,17.3410116 L9.48121504,17.4304987 L9.48121504,17.5617086 L9.48121504,18.2626908 L9.48121504,18.3523667 L9.48121504,18.5987394 L9.48121504,18.8301975 L9.48121504,18.9198734 L9.48121504,19.5202298 L9.48121504,19.8691162 L9.48121504,19.958792 L9.48121504,20.0879253 L9.48121504,20.9059581 L9.48121504,20.995634 L9.48121504,21.126844 L9.48121504,21.8276373 L9.48121504,21.9173132 L9.48121504,22.1634971 L9.48121504,23.0851763 C9.48121504,23.1674894 9.49118669,23.2488584 9.50671944,23.3300387 C9.51151351,23.3560919 9.51956753,23.3815787 9.52608745,23.4074431 C9.54027787,23.4631366 9.55696121,23.5186412 9.57824684,23.5737683 C9.58936906,23.6030309 9.60183362,23.6322936 9.61506523,23.6615562 C9.63941906,23.7144178 9.66722462,23.7670906 9.69790661,23.8195746 C9.71401466,23.8473269 9.72916389,23.875268 9.7469978,23.9030204 C9.78841849,23.9664542 9.83520852,24.0295105 9.88621734,24.0921893 C9.89829837,24.1072926 9.90807826,24.1225847 9.92092634,24.137688 C9.98420795,24.2124493 10.0553518,24.2862667 10.1316733,24.3595178 C10.1629306,24.3895356 10.1978313,24.4193646 10.2310062,24.4491936 C10.2816315,24.494126 10.3330239,24.5390583 10.3882514,24.5838019 C10.4300557,24.6172179 10.473394,24.650634 10.5176911,24.6838613 C10.5713846,24.7242626 10.627571,24.7644752 10.6854832,24.8044989 C10.7343827,24.8382926 10.7830903,24.8724638 10.835058,24.9060686 C10.897189,24.94647 10.963347,24.9861162 11.0295051,25.0257623 C11.1161817,25.0780575 11.2059265,25.1297864 11.2993148,25.1813264 C11.3779375,25.2243708 11.4561765,25.2677928 11.5394014,25.3102709 C11.6120794,25.3474628 11.6891679,25.3838995 11.7652976,25.420525 C11.828771,25.4509204 11.8916691,25.4815046 11.9570601,25.5117112 C12.0393261,25.5492807 12.1238934,25.5864726 12.2096112,25.6234757 C12.2742352,25.6516056 12.3398179,25.6791691 12.4063595,25.7067326 C12.4974466,25.7444909 12.5891091,25.7820604 12.6838398,25.8194411 C12.7467378,25.8437951 12.8121288,25.8679604 12.876561,25.8923145 C12.9549919,25.9219548 13.0391756,25.9504622 13.1199076,25.9797249 L13.1199076,17.9532618 L14.3955114,17.9532618 L14.3955114,26.3944994 C15.5309369,26.7277161 16.8299357,27.0267616 18.2704553,27.282385 C18.2844539,27.2846505 18.2988361,27.2871048 18.3128348,27.2895591 C18.6031631,27.3407215 18.8992443,27.3901849 19.2003114,27.4379491 C19.2517037,27.4460671 19.3036714,27.4539963 19.3552555,27.4621144 C19.6254488,27.504026 19.8996691,27.5446162 20.1781081,27.583696 C20.2425403,27.592758 20.306589,27.6018199 20.3714047,27.6106931 C20.6517614,27.6492066 20.9359534,27.6858321 21.2237888,27.7213248 C21.2632919,27.7262334 21.3024114,27.731142 21.3417227,27.7360506 L21.3417227,19.6316167 L24.6266135,19.6316167 L24.6266135,28.0526536 C25.0287394,28.0822939 25.434317,28.1100462 25.8460309,28.1340227 C25.9177501,28.1383649 25.9898528,28.1421407 26.0617637,28.1462941 C26.5455804,28.1732913 27.0338076,28.1972678 27.5295135,28.2161469 C27.5344993,28.2163357 27.5392934,28.2167133 27.5440875,28.2169021 C28.0323147,28.2352148 28.5270618,28.248619 29.0254524,28.2588137 C29.1357158,28.261268 29.246171,28.2631559 29.3568179,28.2650439 C29.8542497,28.2735395 30.3543662,28.279392 30.8606191,28.279392 C31.3404087,28.279392 31.8150208,28.2741058 32.2869482,28.2665542 C32.3975951,28.2646663 32.5078585,28.2625896 32.6181219,28.2603241 C33.0712566,28.2512621 33.5213231,28.2399346 33.9660202,28.2240761 C33.9777177,28.2236986 33.9894152,28.2235098 34.0011127,28.2229434 C34.4954763,28.205197 34.98332,28.1829196 35.4661779,28.1570552 C35.5026127,28.1551673 35.5384723,28.1530906 35.5749072,28.1510139 C35.8186373,28.1376097 36.057765,28.1215624 36.2982352,28.1062704 L36.2982352,18.5494648 L41.1061034,18.5494648 L41.1061034,27.6429764 C42.085626,27.5127104 43.0202761,27.3648868 43.8993152,27.2002608 C43.9094786,27.1983729 43.9194503,27.196485 43.9296137,27.1945971 C44.2341325,27.1372045 44.5317478,27.077924 44.8228432,27.0167556 C44.8452794,27.0122246 44.8675239,27.0075049 44.8897683,27.0027851 C45.1843154,26.9404839 45.4721509,26.8764837 45.7519323,26.8104067 C45.755384,26.8096515 45.7590275,26.8087076 45.7624792,26.8079524 C46.7270443,26.5800813 47.6009058,26.329744 48.3756261,26.0614715 L48.3756261,17.266439 L49.65123,17.266439 L49.65123,25.5611745 C50.8060235,25.0457742 51.6154528,24.4780787 51.9941836,23.8756456 C51.9980189,23.8692267 52.0001283,23.862619 52.0041553,23.8562001 C52.0528629,23.776719 52.0960095,23.6966714 52.1297597,23.6160575 C52.1452924,23.5786769 52.1525794,23.5409186 52.1648522,23.5035379 C52.1815355,23.4531306 52.2016706,23.4031009 52.2120258,23.3523161 C52.2306267,23.2637729 52.2398313,23.1748522 52.2398313,23.0851763 L52.2398313,22.1634971 L52.2398313,21.8276373 L52.2398313,21.126844 L52.2398313,20.9059581 L52.2398313,20.0879253 L52.2398313,19.8691162 L52.2398313,19.5202298 L52.2398313,18.8301975 L52.2398313,18.5987394 L52.2398313,18.2626908 L52.2398313,17.5617086 L52.2398313,17.3410116 L52.2398313,16.5229788 L52.2398313,16.3041696 L52.2398313,15.265251 L52.2308185,15.2675165 Z" id="Fill-19" fill="#E9A12A"></path>
                        <path d="M52.3129312,15.1390062 C52.3129312,18.0075016 42.7411084,20.3330331 30.9335271,20.3330331 C19.1261377,20.3330331 9.55412312,18.0075016 9.55412312,15.1390062 C9.55412312,12.2705109 19.1261377,9.94497936 30.9335271,9.94497936 C42.7411084,9.94497936 52.3129312,12.2705109 52.3129312,15.1390062" id="Fill-21" fill="#F8B32A"></path>
                        <path d="M49.9772261,15.1390062 C49.9772261,17.3061418 41.451084,19.0628451 30.9334888,19.0628451 C20.4160853,19.0628451 11.8899432,17.3061418 11.8899432,15.1390062 C11.8899432,12.9718706 20.4160853,11.2151674 30.9334888,11.2151674 C41.451084,11.2151674 49.9772261,12.9718706 49.9772261,15.1390062" id="Fill-23" fill="#FECF75"></path>
                        <path d="M47.4156825,15.1390062 C47.4156825,16.7361808 40.0364716,18.0311005 30.933508,18.0311005 C21.8307361,18.0311005 14.4515252,16.7361808 14.4515252,15.1390062 C14.4515252,13.5416428 21.8307361,12.246912 30.933508,12.246912 C40.0364716,12.246912 47.4156825,13.5416428 47.4156825,15.1390062" id="Fill-25" fill="#F8B32A"></path>
                        <path d="M44.2137865,15.0641693 C44.2137865,16.2329764 38.2012666,17.1807089 30.784662,17.1807089 C23.3678656,17.1807089 17.3555374,16.2329764 17.3555374,15.0641693 C17.3555374,13.8953623 23.3678656,12.9476298 30.784662,12.9476298 C38.2012666,12.9476298 44.2137865,13.8953623 44.2137865,15.0641693" id="Fill-27" fill="#FECF75"></path>
                        <path d="M42.8317353,13.3290827 C42.8317353,16.197578 33.2599125,18.5231096 21.4523313,18.5231096 C9.64494182,18.5231096 0.0729272605,16.197578 0.0729272605,13.3290827 C0.0729272605,12.6803957 0.562305038,7.09821389 1.45630159,6.37646467 C4.51606328,3.90575263 12.3148504,6.37646467 21.4523313,6.37646467 C30.8007508,6.37646467 38.7477704,3.85270227 41.652588,6.37646467 C42.4165696,7.04025496 42.8317353,12.731747 42.8317353,13.3290827" id="Fill-29" fill="#FECF75"></path>
                        <path d="M42.7496226,5.51138507 C42.5569014,2.68329106 33.0661941,0.404768595 21.3794232,0.404768595 C9.69246056,0.404768595 0.201945038,2.68329106 0.00903201149,5.51138507 L1.91762452e-05,5.50911958 L1.91762452e-05,5.59879545 L1.91762452e-05,6.54784943 L1.91762452e-05,6.63752531 L1.91762452e-05,6.76684737 L1.91762452e-05,7.58469137 L1.91762452e-05,7.67436725 L1.91762452e-05,7.80557722 L1.91762452e-05,8.50637061 L1.91762452e-05,8.59604649 L1.91762452e-05,8.84260795 L1.91762452e-05,9.07406612 L1.91762452e-05,9.16374199 L1.91762452e-05,9.7640984 L1.91762452e-05,10.112796 L1.91762452e-05,10.2024718 L1.91762452e-05,10.3317939 L1.91762452e-05,11.1496379 L1.91762452e-05,11.2393138 L1.91762452e-05,11.3705238 L1.91762452e-05,12.0713171 L1.91762452e-05,12.160993 L1.91762452e-05,12.4073657 L1.91762452e-05,13.3290449 C1.91762452e-05,13.4111692 0.00999082375,13.4925382 0.0255235824,13.5737185 C0.0303176437,13.5997717 0.0385634291,13.6254473 0.04489159,13.6511229 C0.0590820115,13.7068164 0.0757653448,13.762321 0.097050977,13.8174481 C0.108173199,13.8467107 0.120637759,13.8759734 0.133869368,13.9052361 C0.158223199,13.9580976 0.186028755,14.0109592 0.216710747,14.0632544 C0.232818793,14.0910067 0.247968027,14.1191366 0.265801935,14.1467002 C0.307222625,14.210134 0.354204425,14.2731903 0.405021475,14.3358691 C0.41710251,14.3509724 0.426882395,14.3664533 0.439730479,14.3813678 C0.503012088,14.4561291 0.574155958,14.5301353 0.650477414,14.6033864 C0.681734693,14.6334042 0.71663546,14.6632332 0.749810364,14.6928735 C0.800435651,14.7379946 0.851827989,14.7827381 0.907055575,14.8274817 C0.948859789,14.8608977 0.992198103,14.8943138 1.03649523,14.9275411 C1.09018872,14.9679424 1.14637511,15.008155 1.20428738,15.0481787 C1.2531868,15.0819724 1.30189446,15.1161436 1.35386209,15.1499372 C1.41599312,15.1901498 1.48215117,15.229796 1.54830921,15.2696309 C1.63498584,15.3217373 1.72473067,15.3734662 1.81811898,15.4250062 C1.89674159,15.4680506 1.97498067,15.5114726 2.05820557,15.5539507 C2.13088354,15.5913314 2.20797205,15.6277681 2.28410174,15.6642048 C2.34757511,15.6946002 2.4104732,15.7253732 2.4758642,15.755391 C2.55813029,15.7929605 2.64269753,15.8301524 2.72841534,15.8673443 C2.79303929,15.8952854 2.85881381,15.9228489 2.92516362,15.9506012 C3.01625079,15.9881707 3.10791324,16.025929 3.20264389,16.0631209 C3.26554197,16.0876637 3.33093297,16.1116402 3.39536515,16.1359943 C3.473796,16.1658233 3.55797971,16.1943308 3.6387117,16.2234047 L3.6387117,8.19694163 L4.91431554,8.19694163 L4.91431554,16.6381792 C6.04974102,16.9713959 7.34873987,17.2704414 8.78925941,17.5260648 C8.80325807,17.5283303 8.81764025,17.5307846 8.83163891,17.5334277 C9.12196726,17.5845901 9.41804849,17.6338647 9.71911554,17.6816289 C9.77050787,17.6897469 9.8224755,17.6976761 9.8740596,17.7057942 C10.1442529,17.7477058 10.4184732,17.788296 10.6969123,17.8273758 C10.7613445,17.8364378 10.8253931,17.8454997 10.8904006,17.8545617 C11.1705655,17.8928864 11.4547575,17.9297007 11.7425929,17.9651934 C11.782096,17.9699132 11.8212155,17.9750106 11.8605268,17.9797304 L11.8605268,9.87548528 L15.1454176,9.87548528 L15.1454176,18.2963334 C15.5475435,18.3259737 15.9531211,18.353726 16.3648351,18.3778913 C16.4365542,18.3822335 16.5086569,18.3860093 16.5805678,18.3899739 C17.0643845,18.4169711 17.5526117,18.4409476 18.0483176,18.4600155 C18.0533035,18.4602043 18.0580975,18.4603931 18.0628916,18.4605819 C18.5511188,18.4790834 19.0458659,18.4924876 19.5442565,18.5026823 C19.6545199,18.5049478 19.7649751,18.5070245 19.875622,18.5089124 C20.3730539,18.5172193 20.8731703,18.5230718 21.3794232,18.5230718 C21.8592129,18.5230718 22.3338249,18.5179744 22.8057523,18.5104228 C22.9163993,18.5085349 23.0266627,18.5062694 23.1369261,18.5040039 C23.5900607,18.4951307 24.0401272,18.4836144 24.4848243,18.4679447 C24.4965219,18.4673784 24.5084111,18.4671896 24.5199169,18.466812 C25.0142805,18.4490656 25.5021242,18.4265994 25.984982,18.400735 C26.0214169,18.3990359 26.0572765,18.3967704 26.0937113,18.3946937 C26.3374414,18.3814783 26.5765692,18.365431 26.8170393,18.3499502 L26.8170393,8.79333342 L31.6249075,8.79333342 L31.6249075,17.8866563 C32.6044301,17.7563902 33.5390803,17.6085666 34.4181194,17.4439406 C34.4282828,17.4420527 34.4382544,17.4401648 34.4484178,17.4382769 C34.7529366,17.3808843 35.0505519,17.3217926 35.3416473,17.2604354 C35.3640835,17.2559044 35.386328,17.2511847 35.4085724,17.2464649 C35.7031196,17.1841637 35.990955,17.1201635 36.2707364,17.0540865 C36.2741881,17.0533314 36.2778316,17.0525762 36.2812834,17.0516322 C37.2458485,16.8237611 38.11971,16.5734238 38.8944303,16.3051513 L38.8944303,7.5101188 L40.1700341,7.5101188 L40.1700341,15.8048543 C41.3248276,15.289454 42.1342569,14.7217585 42.5129878,14.1193254 C42.516823,14.1130953 42.5189324,14.1062988 42.5229594,14.1000687 C42.5716671,14.0203988 42.6148136,13.9403512 42.6485638,13.8597373 C42.6640966,13.8223567 42.6713835,13.7845984 42.6836563,13.7472177 C42.7003397,13.6968104 42.7204747,13.6467807 42.7308299,13.5961847 C42.7494309,13.5076415 42.7586355,13.4187208 42.7586355,13.3290449 L42.7586355,12.4073657 L42.7586355,12.0713171 L42.7586355,11.3705238 L42.7586355,11.1496379 L42.7586355,10.3317939 L42.7586355,10.112796 L42.7586355,9.7640984 L42.7586355,9.07406612 L42.7586355,8.84260795 L42.7586355,8.50637061 L42.7586355,7.80557722 L42.7586355,7.58469137 L42.7586355,6.76684737 L42.7586355,6.54784943 L42.7586355,5.50911958 L42.7496226,5.51138507 Z" id="Fill-31" fill="#E9A12A"></path>
                        <g id="Group-35" transform="translate(0.000000, 0.042478)">
                            <mask id="mask-10" fill="white">
                                <use xlink:href="#path-9"></use>
                            </mask>
                            <g id="Clip-34"></g>
                            <path d="M42.8317353,5.34022686 C42.8317353,8.20872221 33.2599125,10.5342537 21.4523313,10.5342537 C9.64494182,10.5342537 0.0729272605,8.20872221 0.0729272605,5.34022686 C0.0729272605,2.47173151 9.64494182,0.1462 21.4523313,0.1462 C33.2599125,0.1462 42.8317353,2.47173151 42.8317353,5.34022686" id="Fill-33" fill="#F8B32A" mask="url(#mask-10)"></path>
                        </g>
                        <path d="M40.4960303,5.38270491 C40.4960303,7.5498405 31.9698881,9.30654375 21.4522929,9.30654375 C10.9348895,9.30654375 2.40874734,7.5498405 2.40874734,5.38270491 C2.40874734,3.21556932 10.9348895,1.45886606 21.4522929,1.45886606 C31.9698881,1.45886606 40.4960303,3.21556932 40.4960303,5.38270491" id="Fill-36" fill="#FECF75"></path>
                        <path d="M37.9344866,5.38270491 C37.9344866,6.98006829 30.5552757,8.27479917 21.4523121,8.27479917 C12.3495403,8.27479917 4.97032935,6.98006829 4.97032935,5.38270491 C4.97032935,3.78553032 12.3495403,2.49061064 21.4523121,2.49061064 C30.5552757,2.49061064 37.9344866,3.78553032 37.9344866,5.38270491" id="Fill-38" fill="#F8B32A"></path>
                        <path d="M34.7325906,5.30784915 C34.7325906,6.47684502 28.7200707,7.42438866 21.3034661,7.42438866 C13.8866697,7.42438866 7.87434157,6.47684502 7.87434157,5.30784915 C7.87434157,4.13904207 13.8866697,3.19130963 21.3034661,3.19130963 C28.7200707,3.19130963 34.7325906,4.13904207 34.7325906,5.30784915" id="Fill-40" fill="#FECF75"></path>
                    </g>
                    <g id="Page-1" transform="translate(20.533333, 12.750000)">
                        <path d="M56.2726939,21.4886059 L56.2726939,20.819907 L56.2726939,20.6092159 L56.2726939,19.8285638 L56.2726939,19.6197606 L56.2726939,19.2869215 L56.2726939,18.6286061 L56.2726939,18.4075315 L56.2726939,18.0867751 L56.2726939,17.4180762 L56.2726939,17.2073851 L56.2726939,16.4269217 L56.2726939,16.2181185 L56.2726939,15.5154372 C56.3209827,15.3804514 56.3468794,15.2441441 56.3468794,15.1061377 C56.3468794,13.3826617 52.4927374,11.8649682 46.6457114,10.9768939 L46.6457114,10.5190749 L46.6457114,10.3102717 L46.6457114,9.97743259 L46.6457114,9.31911725 L46.6457114,9.09804261 L46.6457114,8.77747495 L46.6457114,8.10877608 L46.6457114,7.89808497 L46.6457114,7.11743285 L46.6457114,6.90844086 L46.6457114,6.20613714 C46.6940001,6.07115134 46.7197022,5.93465522 46.7197022,5.79683755 C46.7197022,3.05955217 37.0006206,0.840687758 25.0113843,0.840687758 C13.4234507,0.840687758 3.9569114,2.91361648 3.33636221,5.5238453 C3.28145324,5.6543001 3.24796267,5.78626524 3.23822703,5.91936312 L3.22907554,5.91728642 L3.22907554,6.00299768 L3.22907554,6.90844086 L3.22907554,6.99415212 L3.22907554,7.11743285 L3.22907554,7.89808497 L3.22907554,7.98341865 L3.22907554,8.10877608 L3.22907554,8.77747495 L3.22907554,8.86280863 L3.22907554,9.09804261 L3.22907554,9.31911725 L3.22907554,9.40445093 L3.22907554,9.97743259 L3.22907554,10.3102717 L3.22907554,10.3956054 L3.22907554,10.5190749 L3.22907554,11.2995382 L3.22907554,11.3850607 L3.22907554,11.5102293 L3.22907554,12.1789282 L3.22907554,12.2646395 L3.22907554,12.4998735 L3.22907554,13.3792634 C3.22907554,13.4576118 3.2392006,13.5353939 3.25497232,13.6127983 C3.25984014,13.63753 3.26801807,13.6620728 3.2746383,13.6866157 C3.28904703,13.7396661 3.30618175,13.7925276 3.32760014,13.8453892 C3.33908818,13.8731415 3.35154979,13.9012714 3.36498497,13.9290238 C3.38951876,13.9796198 3.4179468,14.0296495 3.44890611,14.079868 C3.46545669,14.1062988 3.48083899,14.1329184 3.49894726,14.159538 C3.5410052,14.2199512 3.58870979,14.2799868 3.64030864,14.3400225 C3.65257554,14.3543706 3.66250589,14.3690963 3.67555163,14.3834445 C3.7398068,14.4546188 3.8120452,14.525038 3.88954083,14.5950795 C3.92127899,14.6239646 3.95652198,14.6520945 3.99040198,14.680602 C4.04180611,14.7236464 4.0939891,14.7665021 4.15006634,14.8089801 C4.19231899,14.8408858 4.23651876,14.8727916 4.28130267,14.9045085 C4.33601692,14.943022 4.39326244,14.9813466 4.45167623,15.0194824 C4.50171738,15.0519545 4.55117439,15.0844267 4.6037468,15.1165212 C4.6668337,15.1550346 4.73400956,15.1927929 4.80118543,15.2309287 C4.88919554,15.2805808 4.98032106,15.3300442 5.07534083,15.3791299 C5.1549783,15.4202864 5.23442106,15.4616317 5.31892634,15.5022218 C5.39272244,15.5377146 5.47119163,15.572641 5.54829784,15.6075674 C5.61255301,15.6366413 5.67641876,15.6655263 5.7432052,15.6944114 C5.82654221,15.7302818 5.91241048,15.7659633 5.99944703,15.8012673 C6.0650652,15.8278869 6.13165692,15.8543177 6.19922221,15.8807485 C6.29171071,15.9166188 6.38478336,15.9526779 6.4809714,15.9879819 C6.54464244,16.011392 6.61123416,16.0344246 6.67665761,16.0576459 C6.75629508,16.0859646 6.84177393,16.1131506 6.92374795,16.1410917 L6.92374795,16.1201358 C7.32660841,16.2585199 7.75867577,16.3919954 8.21897646,16.5201847 L8.21897646,16.5367983 C9.37167531,16.8547229 10.6906588,17.1401754 12.1535349,17.3840937 C12.1677489,17.3863592 12.1823523,17.388436 12.1965663,17.3908902 C12.4130868,17.4267606 12.6336962,17.4614982 12.8560581,17.4956694 L12.8560581,18.0867751 L12.8560581,18.1724863 L12.8560581,18.4075315 L12.8560581,18.6286061 L12.8560581,18.7141286 L12.8560581,19.2869215 L12.8560581,19.6197606 L12.8560581,19.7052831 L12.8560581,19.8285638 L12.8560581,20.1734855 C9.25660014,21.0077544 6.94224566,22.1316291 6.64589301,23.378407 C6.59098405,23.5088618 6.55749347,23.6406382 6.54775784,23.7739248 L6.53860634,23.7718481 L6.53860634,23.8573706 L6.53860634,24.7630026 L6.53860634,24.8485251 L6.53860634,24.9719946 L6.53860634,25.7524579 L6.53860634,25.8377916 L6.53860634,25.963149 L6.53860634,26.6318479 L6.53860634,26.7173704 L6.53860634,26.9524155 L6.53860634,27.1734902 L6.53860634,27.2588239 L6.53860634,27.8319943 L6.53860634,28.1646446 L6.53860634,28.2501671 L6.53860634,28.3736366 L6.53860634,29.1540999 L6.53860634,29.2396224 L6.53860634,29.3647911 L6.53860634,30.0336787 L6.53860634,30.1190124 L6.53860634,30.3542464 L6.53860634,31.2336364 C6.53860634,31.3119848 6.5487314,31.3897668 6.56450313,31.4671712 C6.56937094,31.4919029 6.57774359,31.5164458 6.58436382,31.5409886 C6.59857784,31.594039 6.61571255,31.6470894 6.63713094,31.6997621 C6.64861899,31.7277033 6.66127531,31.7556444 6.67451577,31.7833967 C6.69904956,31.8339928 6.72747761,31.8840225 6.75863163,31.934241 C6.77498749,31.9608605 6.79036979,31.9874801 6.80847807,32.0139109 C6.850536,32.0743241 6.8982406,32.1345486 6.94983945,32.1943954 C6.96210634,32.2087435 6.97203669,32.2234693 6.98508244,32.2380062 C7.04933761,32.3089917 7.12177071,32.3795997 7.19907163,32.4496413 C7.23080979,32.4783376 7.26624749,32.5064675 7.30012749,32.5351637 C7.35133692,32.5780194 7.40371462,32.620875 7.45979186,32.663353 C7.50184979,32.6954476 7.54604956,32.7271645 7.59102818,32.7588815 C7.64554772,32.7973949 7.70279324,32.8357195 7.76140175,32.8740442 C7.81124818,32.9065163 7.8607052,32.9387996 7.91327761,32.9710829 C7.97636451,33.0094075 8.04354037,33.0473546 8.11071623,33.0853017 C8.19872634,33.1351426 8.28985186,33.1846059 8.38487163,33.2336916 C8.4645091,33.2748481 8.54395186,33.3160046 8.62865186,33.3565948 C8.70225324,33.3922763 8.78072244,33.4270139 8.85782864,33.4619403 C8.92227853,33.4910142 8.98594956,33.5200881 9.052736,33.5487843 C9.13607301,33.5846547 9.22194129,33.6203363 9.30917255,33.6556402 C9.374596,33.6824486 9.44118772,33.7088794 9.50875301,33.7351214 C9.60124152,33.7711805 9.69431416,33.8070509 9.79050221,33.8425436 C9.85436795,33.8659538 9.92076497,33.8889863 9.98618841,33.9122076 C10.0658259,33.9403376 10.1513047,33.9677123 10.2332788,33.9954646 L10.2332788,33.9746976 C10.6363339,34.1128928 11.0684013,34.2463683 11.5285073,34.3745576 L11.5285073,34.3911712 C12.6814008,34.7090958 14.0001896,34.9945483 15.4630657,35.2382779 C15.4772797,35.2407322 15.4918831,35.2429977 15.5060971,35.245452 C15.8008921,35.2943489 16.1015284,35.341358 16.4072273,35.3868567 C16.4594103,35.3945971 16.5121774,35.4021488 16.5645551,35.4098892 C16.8389052,35.4501018 17.1173443,35.4886152 17.400067,35.5259959 C17.4654905,35.5346803 17.5307192,35.5433647 17.5965321,35.5518603 C17.8810073,35.5884858 18.1697661,35.623601 18.4620298,35.6573946 C18.5019459,35.6619256 18.5416673,35.6668342 18.5815834,35.6713652 L18.5815834,35.6638135 C19.6464668,35.7859615 20.7608073,35.8890416 21.9170109,35.9704106 L21.9170109,35.9736201 C22.3253234,36.00175 22.7371406,36.0283696 23.1553834,36.0514021 C23.2282059,36.0551779 23.3012231,36.0591426 23.3742404,36.0627296 C23.8653057,36.088594 24.3612388,36.1116265 24.8645709,36.1295617 C24.8696335,36.1297505 24.8745013,36.1299393 24.8793691,36.1301281 C25.2596429,36.1437211 25.6447845,36.153727 26.0314838,36.1624114 C26.0867822,36.1635442 26.1420806,36.1648657 26.1975737,36.1661872 C26.2594923,36.1675088 26.3212162,36.1692079 26.3835243,36.1705294 C26.4355126,36.1712846 26.4875008,36.1720398 26.5394891,36.1729837 C26.8303898,36.1784587 27.1230429,36.1824233 27.417059,36.1852552 C27.5364178,36.1863879 27.6575291,36.1867655 27.7729937,36.1897862 C27.8833958,36.192618 27.9934084,36.1907301 28.1040052,36.1894086 C28.1522939,36.1888422 28.1992197,36.1897862 28.2469243,36.1897862 C28.2533498,36.1897862 28.2593859,36.1895974 28.2658114,36.1895974 C28.2843091,36.1895974 28.3026121,36.1897862 28.3209151,36.1897862 C40.3101514,36.1897862 50.0294277,33.970733 50.0294277,31.2336364 C50.0294277,31.0948747 50.0041151,30.6668848 49.9552422,30.0914489 L49.9552422,30.0336787 L49.9552422,29.3647911 L49.9552422,29.1540999 L49.9552422,28.3736366 L49.9552422,28.1646446 L49.9552422,27.8319943 L49.9552422,27.1734902 L49.9552422,26.9524155 L49.9552422,26.6318479 L49.9552422,26.2006485 C53.9030411,25.3031346 56.3468794,24.0610764 56.3468794,22.6885635 C56.3468794,22.5499907 56.3215668,22.121812 56.2726939,21.5465648 L56.2726939,21.4886059 Z" id="Fill-1" fill="#293348" opacity="0.203577899"></path>
                        <g id="Group-5" transform="translate(3.310115, 23.830185)">
                            <mask id="mask-12" fill="white">
                                <use xlink:href="#path-11"></use>
                            </mask>
                            <g id="Clip-4"></g>
                            <path d="M43.4902178,8.2102703 C43.4902178,11.0787657 33.7709414,13.4042972 21.7818998,13.4042972 C9.79266352,13.4042972 0.073581908,11.0787657 0.073581908,8.2102703 C0.073581908,7.56158332 0.570488575,1.9794015 1.47823892,1.25765227 C4.58507386,-1.21305976 12.5036477,1.25765227 21.7818998,1.25765227 C31.2741412,1.25765227 39.3434226,-1.26611012 42.292735,1.25765227 C43.0686649,1.92144256 43.4902178,7.61274576 43.4902178,8.2102703" id="Fill-3" fill="#FECF75" mask="url(#mask-12)"></path>
                        </g>
                        <g id="Group-8" transform="translate(3.115402, 19.110402)">
                            <mask id="mask-14" fill="white">
                                <use xlink:href="#path-13"></use>
                            </mask>
                            <g id="Clip-7"></g>
                            <path d="M43.6015545,5.11216694 C43.4056735,2.28426173 33.7691501,0.00555046488 21.9025827,0.00555046488 C10.0358207,0.00555046488 0.399297218,2.28426173 0.203416299,5.11216694 L0.194070092,5.10990145 L0.194070092,5.19957732 L0.194070092,6.14882009 L0.194070092,6.23830718 L0.194070092,6.36762924 L0.194070092,7.18566204 L0.194070092,7.27514912 L0.194070092,7.40635909 L0.194070092,8.10734127 L0.194070092,8.19701715 L0.194070092,8.44338982 L0.194070092,8.67503678 L0.194070092,8.76452386 L0.194070092,9.36488027 L0.194070092,9.71376663 L0.194070092,9.80344251 L0.194070092,9.93257577 L0.194070092,10.7506086 L0.194070092,10.8402845 L0.194070092,10.9714944 L0.194070092,11.6722878 L0.194070092,11.7619637 L0.194070092,12.0083364 L0.194070092,12.9300156 C0.194070092,13.0121398 0.204389862,13.0935089 0.220161586,13.1746892 C0.225029402,13.2007424 0.233207333,13.2262292 0.239827563,13.2520936 C0.254041586,13.307787 0.271176299,13.3632917 0.29259469,13.4184187 C0.304082736,13.4476814 0.316739057,13.4769441 0.33017423,13.5062067 C0.354708023,13.5590683 0.383136069,13.6117411 0.414095379,13.6642251 C0.430645954,13.6919774 0.44583354,13.7201073 0.464136529,13.7476708 C0.50619446,13.8111047 0.553899057,13.874161 0.605497908,13.9368397 C0.617764805,13.951943 0.627695149,13.9672351 0.640740897,13.9823384 C0.704996069,14.0570998 0.77723446,14.1309172 0.854730092,14.2041682 C0.886468253,14.2343748 0.921905954,14.2640151 0.955591241,14.2938441 C1.00680067,14.3387764 1.05917837,14.3837088 1.11525561,14.4284523 C1.15750825,14.4618684 1.20170802,14.4952845 1.24649193,14.5285117 C1.30120618,14.5689131 1.35825699,14.6091256 1.41686549,14.6491494 C1.46671193,14.682943 1.51616894,14.7171143 1.56893607,14.7507191 C1.63202297,14.7911205 1.69900411,14.8307666 1.76617998,14.8704128 C1.8543848,14.922708 1.94551032,14.9744368 2.04033538,15.0259769 C2.11997285,15.0690213 2.19961032,15.1124433 2.28411561,15.1549213 C2.3579117,15.1921132 2.43618618,15.2285499 2.5134871,15.2651755 C2.57774228,15.2955709 2.64160802,15.3261551 2.70819975,15.3563617 C2.79173147,15.3939311 2.87759975,15.431123 2.9646363,15.4681261 C3.03005975,15.496256 3.09684618,15.5238196 3.16441147,15.5513831 C3.25689998,15.5891414 3.34977791,15.6267108 3.44616067,15.6640915 C3.5098317,15.6884456 3.57642343,15.7126109 3.64184687,15.736965 C3.72148434,15.7666052 3.8069632,15.7951127 3.88893722,15.8243754 L3.88893722,7.79791229 L5.18397101,7.79791229 L5.18397101,16.2391499 C6.33705929,16.5723666 7.65584802,16.871412 9.1185294,17.1270355 C9.13293814,17.129301 9.14754159,17.1317553 9.16175561,17.1342096 C9.45655055,17.185372 9.75718687,17.2348353 10.0628857,17.2825995 C10.1150687,17.2907176 10.1676411,17.2986468 10.2202135,17.3067648 C10.4945637,17.3486765 10.7730027,17.3892666 11.0557255,17.4283464 C11.1211489,17.4374084 11.186183,17.4464704 11.2519958,17.4553436 C11.536471,17.493857 11.8252299,17.5304825 12.1174935,17.5659753 C12.1574096,17.5708839 12.1973257,17.5757925 12.2370471,17.580701 L12.2370471,9.47626715 L15.5724747,9.47626715 L15.5724747,17.8973041 C15.9809818,17.9269443 16.3927991,17.9546966 16.8108471,17.9788619 C16.8836696,17.9830153 16.9566869,17.9867912 17.0298988,17.9909446 C17.5209641,18.0179417 18.0168972,18.0419182 18.5202294,18.0607974 C18.5250972,18.0609862 18.529965,18.0613637 18.5350276,18.0615525 C19.030766,18.0798653 19.5329299,18.0932695 20.0391827,18.1034642 C20.1509478,18.1059185 20.263297,18.1078064 20.3756462,18.1098831 C20.8807308,18.1181899 21.3885414,18.1240425 21.9025827,18.1240425 C22.3897538,18.1240425 22.8714729,18.1187563 23.3508554,18.1112046 C23.4632046,18.1095055 23.5749696,18.10724 23.6871241,18.1049745 C24.1472301,18.0959126 24.6042207,18.0845851 25.0557593,18.0687266 C25.067442,18.068349 25.0795142,18.0681602 25.0913917,18.0675939 C25.5933609,18.0498475 26.0887099,18.0275701 26.5788016,18.0017057 C26.615797,17.9998178 26.652403,17.9977411 26.6893984,17.9956644 C26.9366834,17.982449 27.1796848,17.9664017 27.4238545,17.9509208 L27.4238545,8.39430408 L32.3054951,8.39430408 L32.3054951,17.4876269 C33.300282,17.3573609 34.2491168,17.2095373 35.1416795,17.0449113 C35.1519993,17.0430233 35.1621243,17.0411354 35.1726388,17.0392475 C35.4818425,16.981855 35.7840365,16.9227633 36.0796103,16.8614061 C36.102197,16.8568751 36.1249784,16.8521553 36.147565,16.8474355 C36.4464489,16.7851344 36.7387126,16.7211341 37.0229931,16.6550572 C37.0264979,16.654302 37.0300027,16.6533581 37.0337023,16.6526029 C38.0129122,16.4247318 38.9004124,16.1743945 39.6870515,15.906122 L39.6870515,7.11108946 L40.98228,7.11108946 L40.98228,15.405825 C42.1548395,14.8904247 42.9767216,14.3227292 43.3610843,13.7202961 C43.3651733,13.7138772 43.3673151,13.7072695 43.3712094,13.7008506 C43.4208611,13.6213694 43.4644768,13.5413219 43.4989409,13.460708 C43.5147126,13.4233273 43.5221117,13.3855691 43.5345733,13.3481884 C43.5513186,13.2977811 43.5719581,13.2477514 43.5824726,13.1969665 C43.6013597,13.1084234 43.610706,13.0195027 43.610706,12.9300156 L43.610706,12.0083364 L43.610706,11.6722878 L43.610706,10.9714944 L43.610706,10.7506086 L43.610706,9.93257577 L43.610706,9.71376663 L43.610706,9.36488027 L43.610706,8.67503678 L43.610706,8.44338982 L43.610706,8.10734127 L43.610706,7.40635909 L43.610706,7.18566204 L43.610706,6.36762924 L43.610706,6.14882009 L43.610706,5.10990145 L43.6015545,5.11216694 Z" id="Fill-6" fill="#E9A12A" mask="url(#mask-14)"></path>
                        </g>
                        <path d="M46.8003327,24.0940583 C46.8003327,26.9625536 37.0810564,29.2880851 25.0920148,29.2880851 C13.1027785,29.2880851 3.38369685,26.9625536 3.38369685,24.0940583 C3.38369685,21.2255629 13.1027785,18.9000314 25.0920148,18.9000314 C37.0810564,18.9000314 46.8003327,21.2255629 46.8003327,24.0940583" id="Fill-9" fill="#F8B32A"></path>
                        <path d="M44.4285964,24.0940583 C44.4285964,26.2611939 35.7712829,28.0178971 25.0918785,28.0178971 C14.4126688,28.0178971 5.75535526,26.2611939 5.75535526,24.0940583 C5.75535526,21.9269227 14.4126688,20.1702194 25.0918785,20.1702194 C35.7712829,20.1702194 44.4285964,21.9269227 44.4285964,24.0940583" id="Fill-11" fill="#FECF75"></path>
                        <path d="M41.8277417,24.0940583 C41.8277417,25.6912329 34.3350045,26.9861526 25.0919953,26.9861526 C15.8491808,26.9861526 8.35624887,25.6912329 8.35624887,24.0940583 C8.35624887,22.4966949 15.8491808,21.201964 25.0919953,21.201964 C34.3350045,21.201964 41.8277417,22.4966949 41.8277417,24.0940583" id="Fill-13" fill="#F8B32A"></path>
                        <path d="M38.576469,24.0192214 C38.576469,25.1880285 32.4714487,26.1357609 24.9407425,26.1357609 C17.4098416,26.1357609 11.3050161,25.1880285 11.3050161,24.0192214 C11.3050161,22.8504143 17.4098416,21.9026819 24.9407425,21.9026819 C32.4714487,21.9026819 38.576469,22.8504143 38.576469,24.0192214" id="Fill-15" fill="#FECF75"></path>
                        <path d="M53.1177455,23.0854029 C53.1177455,25.9538982 43.3986639,28.2794298 31.4094276,28.2794298 C19.420386,28.2794298 9.70110963,25.9538982 9.70110963,23.0854029 C9.70110963,22.4365271 10.1980163,16.8545341 11.1057666,16.1327849 C14.2126016,13.6620728 22.1313701,16.1327849 31.4094276,16.1327849 C40.9016689,16.1327849 48.9709503,13.6088337 51.9204574,16.1327849 C52.6961926,16.7963864 53.1177455,22.4878784 53.1177455,23.0854029" id="Fill-17" fill="#FECF75"></path>
                        <path d="M53.0343695,15.2675165 C52.8386833,12.4396113 43.2019652,10.1609 31.3353978,10.1609 C19.4686357,10.1609 9.8321123,12.4396113 9.63623138,15.2675165 L9.62707989,15.265251 L9.62707989,15.3549269 L9.62707989,16.3041696 L9.62707989,16.3936567 L9.62707989,16.5229788 L9.62707989,17.3410116 L9.62707989,17.4304987 L9.62707989,17.5617086 L9.62707989,18.2626908 L9.62707989,18.3523667 L9.62707989,18.5987394 L9.62707989,18.8301975 L9.62707989,18.9198734 L9.62707989,19.5202298 L9.62707989,19.8691162 L9.62707989,19.958792 L9.62707989,20.0879253 L9.62707989,20.9059581 L9.62707989,20.995634 L9.62707989,21.126844 L9.62707989,21.8276373 L9.62707989,21.9173132 L9.62707989,22.1634971 L9.62707989,23.0851763 C9.62707989,23.1674894 9.63720494,23.2488584 9.65297667,23.3300387 C9.65784448,23.3560919 9.66602241,23.3815787 9.67264264,23.4074431 C9.68705138,23.4631366 9.70399138,23.5186412 9.72560448,23.5737683 C9.73689782,23.6030309 9.74955414,23.6322936 9.76298931,23.6615562 C9.78771782,23.7144178 9.81595115,23.7670906 9.84710517,23.8195746 C9.86346103,23.8473269 9.87884333,23.875268 9.89695161,23.9030204 C9.93900954,23.9664542 9.98651943,24.0295105 10.038313,24.0921893 C10.0505799,24.1072926 10.0605102,24.1225847 10.073556,24.137688 C10.1378111,24.2124493 10.2100495,24.2862667 10.2875452,24.3595178 C10.3192833,24.3895356 10.354721,24.4193646 10.3884063,24.4491936 C10.4398105,24.494126 10.4919934,24.5390583 10.5480707,24.5838019 C10.590518,24.6172179 10.6345231,24.650634 10.6795017,24.6838613 C10.7340213,24.7242626 10.7910721,24.7644752 10.8498753,24.8044989 C10.899527,24.8382926 10.948984,24.8724638 11.0017511,24.9060686 C11.064838,24.94647 11.1320139,24.9861162 11.1991898,25.0257623 C11.2871999,25.0780575 11.3783254,25.1297864 11.4731505,25.1813264 C11.5529826,25.2243708 11.6324254,25.2677928 11.7169307,25.3102709 C11.7907268,25.3474628 11.8690013,25.3838995 11.9463022,25.420525 C12.0107521,25.4509204 12.0746178,25.4815046 12.1410148,25.5117112 C12.2245466,25.5492807 12.3104148,25.5864726 12.3974514,25.6234757 C12.4630695,25.6516056 12.5296613,25.6791691 12.5972266,25.7067326 C12.6897151,25.7444909 12.7827877,25.7820604 12.8789757,25.8194411 C12.9428415,25.8437951 13.0092385,25.8679604 13.074662,25.8923145 C13.1542994,25.9219548 13.2397783,25.9504622 13.3217523,25.9797249 L13.3217523,17.9532618 L14.6169808,17.9532618 L14.6169808,26.3944994 C15.7698744,26.7277161 17.0888578,27.0267616 18.5515392,27.282385 C18.5657532,27.2846505 18.5803567,27.2871048 18.5945707,27.2895591 C18.8893656,27.3407215 19.190002,27.3901849 19.4957008,27.4379491 C19.5478838,27.4460671 19.6006509,27.4539963 19.6530286,27.4621144 C19.9273787,27.504026 20.2058178,27.5446162 20.4885406,27.583696 C20.553964,27.592758 20.618998,27.6018199 20.6848109,27.6106931 C20.9694808,27.6492066 21.2580449,27.6858321 21.5503086,27.7213248 C21.5904194,27.7262334 21.6301408,27.731142 21.6700569,27.7360506 L21.6700569,19.6316167 L25.0054845,19.6316167 L25.0054845,28.0526536 C25.4137969,28.0822939 25.8256141,28.1100462 26.2436622,28.1340227 C26.3164847,28.1383649 26.3896967,28.1421407 26.4627139,28.1462941 C26.9539739,28.1732913 27.4497123,28.1972678 27.9530445,28.2161469 C27.958107,28.2163357 27.9629748,28.2167133 27.9678426,28.2169021 C28.463581,28.2352148 28.9659397,28.248619 29.4719978,28.2588137 C29.5839576,28.261268 29.6961121,28.2631559 29.8084613,28.2650439 C30.3135459,28.2735395 30.8213564,28.279392 31.3353978,28.279392 C31.8225689,28.279392 32.3044826,28.2741058 32.7836705,28.2665542 C32.8960197,28.2646663 33.0079794,28.2625896 33.1199392,28.2603241 C33.5800452,28.2512621 34.0370357,28.2399346 34.4885744,28.2240761 C34.5004518,28.2236986 34.5123293,28.2235098 34.5242068,28.2229434 C35.026176,28.205197 35.5215249,28.1829196 36.0118114,28.1570552 C36.0488068,28.1551673 36.085218,28.1530906 36.1222134,28.1510139 C36.3696932,28.1376097 36.6124999,28.1215624 36.8566695,28.1062704 L36.8566695,18.5494648 L41.7385049,18.5494648 L41.7385049,27.6429764 C42.7330971,27.5127104 43.6821266,27.3648868 44.5746893,27.2002608 C44.5850091,27.1983729 44.5951341,27.196485 44.6054539,27.1945971 C44.9146576,27.1372045 45.2168516,27.077924 45.5124254,27.0167556 C45.5352068,27.0122246 45.5577934,27.0075049 45.5803801,27.0027851 C45.8794587,26.9404839 46.1717224,26.8764837 46.4558082,26.8104067 C46.459313,26.8096515 46.4630125,26.8087076 46.4665174,26.8079524 C47.445922,26.5800813 48.3332275,26.329744 49.1198666,26.0614715 L49.1198666,17.266439 L50.4150951,17.266439 L50.4150951,25.5611745 C51.5876546,25.0457742 52.4095367,24.4780787 52.7940941,23.8756456 C52.7979884,23.8692267 52.8001302,23.862619 52.8042192,23.8562001 C52.8536762,23.776719 52.8974866,23.6966714 52.931756,23.6160575 C52.9475277,23.5786769 52.9549268,23.5409186 52.9673884,23.5035379 C52.9843284,23.4531306 53.0047732,23.4031009 53.0152877,23.3523161 C53.0341748,23.2637729 53.043521,23.1748522 53.043521,23.0851763 L53.043521,22.1634971 L53.043521,21.8276373 L53.043521,21.126844 L53.043521,20.9059581 L53.043521,20.0879253 L53.043521,19.8691162 L53.043521,19.5202298 L53.043521,18.8301975 L53.043521,18.5987394 L53.043521,18.2626908 L53.043521,17.5617086 L53.043521,17.3410116 L53.043521,16.5229788 L53.043521,16.3041696 L53.043521,15.265251 L53.0343695,15.2675165 Z" id="Fill-19" fill="#E9A12A"></path>
                        <path d="M53.1177455,15.1390062 C53.1177455,18.0075016 43.3986639,20.3330331 31.4094276,20.3330331 C19.420386,20.3330331 9.70110963,18.0075016 9.70110963,15.1390062 C9.70110963,12.2705109 19.420386,9.94497936 31.4094276,9.94497936 C43.3986639,9.94497936 53.1177455,12.2705109 53.1177455,15.1390062" id="Fill-21" fill="#F8B32A"></path>
                        <path d="M50.7461066,15.1390062 C50.7461066,17.3061418 42.088793,19.0628451 31.4093886,19.0628451 C20.730179,19.0628451 12.0728654,17.3061418 12.0728654,15.1390062 C12.0728654,12.9718706 20.730179,11.2151674 31.4093886,11.2151674 C42.088793,11.2151674 50.7461066,12.9718706 50.7461066,15.1390062" id="Fill-23" fill="#FECF75"></path>
                        <path d="M48.1451545,15.1390062 C48.1451545,16.7361808 40.6524173,18.0311005 31.4094081,18.0311005 C22.1665936,18.0311005 14.6738564,16.7361808 14.6738564,15.1390062 C14.6738564,13.5416428 22.1665936,12.246912 31.4094081,12.246912 C40.6524173,12.246912 48.1451545,13.5416428 48.1451545,15.1390062" id="Fill-25" fill="#F8B32A"></path>
                        <path d="M44.8939986,15.0641693 C44.8939986,16.2329764 38.7889783,17.1807089 31.2582721,17.1807089 C23.7273712,17.1807089 17.6225457,16.2329764 17.6225457,15.0641693 C17.6225457,13.8953623 23.7273712,12.9476298 31.2582721,12.9476298 C38.7889783,12.9476298 44.8939986,13.8953623 44.8939986,15.0641693" id="Fill-27" fill="#FECF75"></path>
                        <path d="M43.4906851,13.3290827 C43.4906851,16.197578 33.7716035,18.5231096 21.7823671,18.5231096 C9.79332554,18.5231096 0.0740492184,16.197578 0.0740492184,13.3290827 C0.0740492184,12.6803957 0.570955885,7.09821389 1.47870623,6.37646467 C4.58554117,3.90575263 12.5043097,6.37646467 21.7823671,6.37646467 C31.2746085,6.37646467 39.3438899,3.85270227 42.293397,6.37646467 C43.0691322,7.04025496 43.4906851,12.731747 43.4906851,13.3290827" id="Fill-29" fill="#FECF75"></path>
                        <path d="M43.4073091,5.51138507 C43.2116229,2.68329106 33.5749048,0.404768595 21.7083374,0.404768595 C9.84157533,0.404768595 0.205051885,2.68329106 0.00917096552,5.51138507 L1.94712644e-05,5.50911958 L1.94712644e-05,5.59879545 L1.94712644e-05,6.54784943 L1.94712644e-05,6.63752531 L1.94712644e-05,6.76684737 L1.94712644e-05,7.58469137 L1.94712644e-05,7.67436725 L1.94712644e-05,7.80557722 L1.94712644e-05,8.50637061 L1.94712644e-05,8.59604649 L1.94712644e-05,8.84260795 L1.94712644e-05,9.07406612 L1.94712644e-05,9.16374199 L1.94712644e-05,9.7640984 L1.94712644e-05,10.112796 L1.94712644e-05,10.2024718 L1.94712644e-05,10.3317939 L1.94712644e-05,11.1496379 L1.94712644e-05,11.2393138 L1.94712644e-05,11.3705238 L1.94712644e-05,12.0713171 L1.94712644e-05,12.160993 L1.94712644e-05,12.4073657 L1.94712644e-05,13.3290449 C1.94712644e-05,13.4111692 0.0101445287,13.4925382 0.0259162529,13.5737185 C0.030784069,13.5997717 0.0391567126,13.6254473 0.0455822299,13.6511229 C0.0599909655,13.7068164 0.0769309655,13.762321 0.098544069,13.8174481 C0.109837402,13.8467107 0.122493724,13.8759734 0.135928897,13.9052361 C0.160657402,13.9580976 0.188890736,14.0109592 0.220044759,14.0632544 C0.236400621,14.0910067 0.25178292,14.1191366 0.269891195,14.1467002 C0.311949126,14.210134 0.359653724,14.2731903 0.411252575,14.3358691 C0.423519471,14.3509724 0.433449816,14.3664533 0.446495563,14.3813678 C0.510750736,14.4561291 0.582989126,14.5301353 0.660484759,14.6033864 C0.69222292,14.6334042 0.727660621,14.6632332 0.761345908,14.6928735 C0.812750046,14.7379946 0.864933034,14.7827381 0.921010276,14.8274817 C0.963457632,14.8608977 1.00746269,14.8943138 1.05244131,14.9275411 C1.10696085,14.9679424 1.16401166,15.008155 1.22281487,15.0481787 C1.2724666,15.0819724 1.32192361,15.1161436 1.37469074,15.1499372 C1.43777763,15.1901498 1.50495349,15.229796 1.57212936,15.2696309 C1.66013947,15.3217373 1.75126499,15.3734662 1.84609005,15.4250062 C1.92592223,15.4680506 2.00536499,15.5114726 2.08987028,15.5539507 C2.16366637,15.5913314 2.24194085,15.6277681 2.31924177,15.6642048 C2.38369166,15.6946002 2.4475574,15.7253732 2.51395441,15.755391 C2.59748614,15.7929605 2.68335441,15.8301524 2.77039097,15.8673443 C2.83600913,15.8952854 2.90279556,15.9228489 2.97016614,15.9506012 C3.06265464,15.9881707 3.15572729,16.025929 3.25191533,16.0631209 C3.31578108,16.0876637 3.38217809,16.1116402 3.44760154,16.1359943 C3.52723901,16.1658233 3.61271786,16.1943308 3.69469189,16.2234047 L3.69469189,8.19694163 L4.98992039,8.19694163 L4.98992039,16.6381792 C6.14281395,16.9713959 7.4617974,17.2704414 8.92447878,17.5260648 C8.9386928,17.5283303 8.95329625,17.5307846 8.96751028,17.5334277 C9.26230522,17.5845901 9.56294154,17.6338647 9.86864039,17.6816289 C9.92082338,17.6897469 9.97359051,17.6976761 10.0259682,17.7057942 C10.3003183,17.7477058 10.5787574,17.788296 10.8614802,17.8273758 C10.9269036,17.8364378 10.9919376,17.8454997 11.0579452,17.8545617 C11.3424204,17.8928864 11.6309845,17.9297007 11.9232482,17.9651934 C11.963359,17.9699132 12.0030804,17.9750106 12.0429965,17.9797304 L12.0429965,9.87548528 L15.3784241,9.87548528 L15.3784241,18.2963334 C15.7867365,18.3259737 16.1985537,18.353726 16.6166018,18.3778913 C16.6894243,18.3822335 16.7626363,18.3860093 16.8356535,18.3899739 C17.3269135,18.4169711 17.8226519,18.4409476 18.3259841,18.4600155 C18.3310466,18.4602043 18.3359144,18.4603931 18.3407822,18.4605819 C18.8365206,18.4790834 19.3388792,18.4924876 19.8449374,18.5026823 C19.9568972,18.5049478 20.0690517,18.5070245 20.1814009,18.5089124 C20.6864854,18.5172193 21.194296,18.5230718 21.7083374,18.5230718 C22.1955084,18.5230718 22.6774222,18.5179744 23.15661,18.5104228 C23.2689592,18.5085349 23.380919,18.5062694 23.4928788,18.5040039 C23.9529848,18.4951307 24.4099753,18.4836144 24.861514,18.4679447 C24.8733914,18.4673784 24.8854636,18.4671896 24.8971464,18.466812 C25.3991156,18.4490656 25.8944645,18.4265994 26.384751,18.400735 C26.4217464,18.3990359 26.4581576,18.3967704 26.495153,18.3946937 C26.7426328,18.3814783 26.9854395,18.365431 27.2296091,18.3499502 L27.2296091,8.79333342 L32.1114445,8.79333342 L32.1114445,17.8866562 C33.1060367,17.7563902 34.0550661,17.6085666 34.9476289,17.4439406 C34.9579487,17.4420527 34.9680737,17.4401648 34.9783935,17.4382769 C35.2875972,17.3808843 35.5897912,17.3217926 35.885365,17.2604354 C35.9081464,17.2559044 35.930733,17.2511847 35.9533197,17.2464649 C36.2523983,17.1841637 36.544662,17.1201635 36.8287477,17.0540865 C36.8322526,17.0533314 36.8359521,17.0525762 36.8394569,17.0516322 C37.8188615,16.8237611 38.7061671,16.5734238 39.4928061,16.3051513 L39.4928061,7.5101188 L40.7880346,7.5101188 L40.7880346,15.8048543 C41.9605942,15.289454 42.7824763,14.7217585 43.1670337,14.1193254 C43.170928,14.1130953 43.1730698,14.1062988 43.1771588,14.1000687 C43.2266158,14.0203988 43.2704261,13.9403512 43.3046956,13.8597373 C43.3204673,13.8223567 43.3278664,13.7845984 43.340328,13.7472177 C43.357268,13.6968104 43.3777128,13.6467807 43.3882273,13.5961847 C43.4071144,13.5076415 43.4164606,13.4187208 43.4164606,13.3290449 L43.4164606,12.4073657 L43.4164606,12.0713171 L43.4164606,11.3705238 L43.4164606,11.1496379 L43.4164606,10.3317939 L43.4164606,10.112796 L43.4164606,9.7640984 L43.4164606,9.07406612 L43.4164606,8.84260795 L43.4164606,8.50637061 L43.4164606,7.80557722 L43.4164606,7.58469137 L43.4164606,6.76684737 L43.4164606,6.54784943 L43.4164606,5.50911958 L43.4073091,5.51138507 Z" id="Fill-31" fill="#E9A12A"></path>
                        <g id="Group-35" transform="translate(0.000000, 0.042478)">
                            <mask id="mask-16" fill="white">
                                <use xlink:href="#path-15"></use>
                            </mask>
                            <g id="Clip-34"></g>
                            <path d="M43.4906851,5.34022686 C43.4906851,8.20872221 33.7716035,10.5342537 21.7823671,10.5342537 C9.79332554,10.5342537 0.0740492184,8.20872221 0.0740492184,5.34022686 C0.0740492184,2.47173151 9.79332554,0.1462 21.7823671,0.1462 C33.7716035,0.1462 43.4906851,2.47173151 43.4906851,5.34022686" id="Fill-33" fill="#F8B32A" mask="url(#mask-16)"></path>
                        </g>
                        <path d="M41.1190461,5.38270491 C41.1190461,7.5498405 32.4617326,9.30654375 21.7823282,9.30654375 C11.1031186,9.30654375 2.44580499,7.5498405 2.44580499,5.38270491 C2.44580499,3.21556932 11.1031186,1.45886606 21.7823282,1.45886606 C32.4617326,1.45886606 41.1190461,3.21556932 41.1190461,5.38270491" id="Fill-36" fill="#FECF75"></path>
                        <path d="M38.5180941,5.38270491 C38.5180941,6.98006829 31.0253569,8.27479917 21.7823477,8.27479917 C12.5395332,8.27479917 5.04679595,6.98006829 5.04679595,5.38270491 C5.04679595,3.78553032 12.5395332,2.49061064 21.7823477,2.49061064 C31.0253569,2.49061064 38.5180941,3.78553032 38.5180941,5.38270491" id="Fill-38" fill="#F8B32A"></path>
                        <path d="M35.2669382,5.30784915 C35.2669382,6.47684502 29.1619179,7.42438866 21.6312117,7.42438866 C14.1003108,7.42438866 7.99548529,6.47684502 7.99548529,5.30784915 C7.99548529,4.13904207 14.1003108,3.19130963 21.6312117,3.19130963 C29.1619179,3.19130963 35.2669382,4.13904207 35.2669382,5.30784915" id="Fill-40" fill="#FECF75"></path>
                    </g>
                </g>
            </g>
        </g>
    </g>
</svg>