<?xml version="1.0" encoding="UTF-8" standalone="no"?>
<svg width="170px" height="86px" viewBox="0 0 170 86" version="1.1" xmlns="http://www.w3.org/2000/svg" xmlns:xlink="http://www.w3.org/1999/xlink">
    <!-- Generator: Sketch 50 (54983) - http://www.bohemiancoding.com/sketch -->
    <title>Group 2</title>
    <desc>Created with Sketch.</desc>
    <defs></defs>
    <g id="Success" stroke="none" stroke-width="1" fill="none" fill-rule="evenodd">
        <g id="Dashboard-New---Standard---state-1" transform="translate(-707.000000, -189.000000)">
            <g id="Group-5" transform="translate(142.000000, 150.000000)">
                <g id="Group-2" transform="translate(644.000000, 81.000000) rotate(30.000000) translate(-644.000000, -81.000000) translate(559.000000, 38.000000)">
                    <polyline id="Fill-8" fill="#7FD6F6" points="107.463959 41.6068721 136.0374 63.9225272 137.109189 27.7924031 107.463959 41.6068721"></polyline>
                    <polyline id="Fill-9" fill="#91E8D4" points="73.1866616 50.7312092 97.2498997 77.8187288 104.684719 42.6150182 73.1866616 50.7312092"></polyline>
                    <polyline id="Fill-10" fill-opacity="0.5" fill="#00ADEE" points="70.4074213 51.8791525 57.2371639 85.2300363 37.982951 54.6777936 70.4074213 51.8791525"></polyline>
                    <polyline id="Fill-11" fill="#91E8D4" points="38.9093644 53.477612 16.9214508 82.450796 6.48489407 48.1734988 38.9093644 53.477612"></polyline>
                    <polyline id="Fill-12" fill="#91E8D4" points="136.182775 28.0131854 169.533659 42.6150182 161.02142 7.41130751 136.182775 28.0131854"></polyline>
                    <path d="M41.6249521,58.3640466 C41.2531954,58.3640466 40.8817761,58.3626884 40.5123808,58.3596323 L37.982951,54.2859454 C39.2422683,54.3199012 40.5154169,54.3368792 41.8044209,54.3368792 C50.7947256,54.3368792 60.4735562,53.5097139 70.4074213,51.8791525 L68.7665642,56.1260145 C59.3107202,57.6180359 50.1662477,58.3640466 41.6249521,58.3640466" id="Fill-14" fill="#00ADEE"></path>
                    <path d="M76.0897157,54.6583929 L73.1866616,51.1768355 C78.2665938,50.2369752 83.3798489,49.0530089 88.525767,47.6256331 C93.7350318,46.1293087 98.8456474,44.4592198 103.758305,42.6150182 L103.397362,44.4296206 L102.84176,47.1732884 C98.5536594,48.6703093 94.1002643,50.0628625 89.5812131,51.3161257 C85.0291689,52.6045596 80.5427808,53.7185326 76.0897157,54.6583929" id="Fill-16" fill="#24D2AA"></path>
                    <path d="M35.0983568,57.4376332 C24.7429357,56.9256147 15.4434526,55.2638002 7.82670459,52.5163525 L6.48489407,48.1734988 L7.0811806,48.264289 L7.73251918,48.3695159 C15.8198626,51.603317 26.222708,53.3645837 37.982951,53.7171578 L35.0983568,57.4376332" id="Fill-18" fill="#24D2AA"></path>
                    <path d="M109.812299,44.1335692 L105.932253,41.3208081 C117.500259,37.3076037 128.203388,32.5984276 137.43031,27.4581274 L137.279551,32.1736094 C129.070429,36.6122958 119.818621,40.6540427 109.812299,44.1335692" id="Fill-20" fill="#00ADEE"></path>
                    <path d="M141.435222,29.64523 L138.04468,28.1886486 L137.109189,27.7822291 C147.429456,21.4584066 155.720255,14.5166306 161.034937,7.41130751 L162.122352,11.8744141 C156.973046,18.1345805 149.924538,24.1345731 141.435222,29.64523" id="Fill-22" fill="#24D2AA"></path>
                    <path d="M89.5459021,47.8864777 C54.1521642,57.420076 20.1844079,56.724797 1.0776486,46.8273362 C0.0162909984,46.1320572 -0.348664725,45.0729157 0.381246722,44.0134431 C0.746202446,42.9543015 2.13933798,42.5901078 2.86891765,43.3184952 C20.9143193,52.8517624 54.5171199,53.2159561 88.4845445,44.3776368 C122.451969,35.1754548 151.444052,18.2268725 162.423579,0.914427545 C163.120312,-0.144714001 164.18167,-0.144714001 164.911582,0.219479716 C165.972939,0.914427545 165.972939,1.97390018 165.608315,2.70195652 C153.931723,21.4049593 124.906794,38.7170732 89.5459021,47.8864777" id="Fill-30" fill="#F4F4F1"></path>
                </g>
            </g>
        </g>
    </g>
</svg>