<?xml version="1.0" encoding="UTF-8" standalone="no"?>
<svg width="368px" height="78px" viewBox="0 0 368 78" version="1.1" xmlns="http://www.w3.org/2000/svg" xmlns:xlink="http://www.w3.org/1999/xlink">
    <!-- Generator: Sketch 50 (54983) - http://www.bohemiancoding.com/sketch -->
    <title>Group 2</title>
    <desc>Created with Sketch.</desc>
    <defs></defs>
    <g id="Success" stroke="none" stroke-width="1" fill="none" fill-rule="evenodd">
        <g id="Dashboard-New---Tablet" transform="translate(-199.000000, -183.000000)">
            <g id="Group-5" transform="translate(60.000000, 101.000000)">
                <g id="Group-2" transform="translate(330.704892, 107.912112) scale(-1, 1) rotate(13.000000) translate(-330.704892, -107.912112) translate(142.204892, 41.412112)">
                    <g id="Group-4" transform="translate(293.348453, 27.504556)">
                        <polyline id="Fill-8" fill="#7FD6F6" points="1.01315968 18.8217912 37.9751736 47.6888622 39.3616175 0.951679228 1.01315968 18.8217912"></polyline>
                        <path d="M0.00614639195,18.2267937 C14.4211384,13.0353952 27.7583993,6.94370219 39.2561464,0.294315903 L39.068285,6.39416614 C28.8388271,12.1359593 17.3100693,17.3642797 4.84110569,21.8653234 L0.00614639195,18.2267937 Z" id="Fill-20" fill="#00ADEE"></path>
                    </g>
                    <g id="Group-4" transform="translate(234.500297, 78.944824) rotate(10.000000) translate(-234.500297, -78.944824) translate(214.500297, 54.944824)">
                        <polyline id="Fill-8" fill="#7FD6F6" points="1.01315968 18.8217912 37.9751736 47.6888622 39.3616175 0.951679228 1.01315968 18.8217912"></polyline>
                        <path d="M0.00614639195,18.2267937 C14.4211384,13.0353952 27.7583993,6.94370219 39.2561464,0.294315903 L39.068285,6.39416614 C28.8388271,12.1359593 17.3100693,17.3642797 4.84110569,21.8653234 L0.00614639195,18.2267937 Z" id="Fill-20" fill="#00ADEE"></path>
                    </g>
                    <g id="Group-4" transform="translate(154.152050, 95.442071) rotate(15.000000) translate(-154.152050, -95.442071) translate(134.152050, 71.442071)">
                        <polyline id="Fill-8" fill="#7FD6F6" points="1.01315968 18.8217912 37.9751736 47.6888622 39.3616175 0.951679228 1.01315968 18.8217912"></polyline>
                        <path d="M0.00614639195,18.2267937 C14.4211384,13.0353952 27.7583993,6.94370219 39.2561464,0.294315903 L39.068285,6.39416614 C28.8388271,12.1359593 17.3100693,17.3642797 4.84110569,21.8653234 L0.00614639195,18.2267937 Z" id="Fill-20" fill="#00ADEE"></path>
                    </g>
                    <g id="Group-4" transform="translate(70.579921, 102.420568) rotate(25.000000) translate(-70.579921, -102.420568) translate(50.579921, 78.420568)">
                        <polyline id="Fill-8" fill="#7FD6F6" points="1.01315968 18.8217912 37.9751736 47.6888622 39.3616175 0.951679228 1.01315968 18.8217912"></polyline>
                        <path d="M0.00614639195,18.2267937 C14.4211384,13.0353952 27.7583993,6.94370219 39.2561464,0.294315903 L39.068285,6.39416614 C28.8388271,12.1359593 17.3100693,17.3642797 4.84110569,21.8653234 L0.00614639195,18.2267937 Z" id="Fill-20" fill="#00ADEE"></path>
                    </g>
                    <g id="Group-3" transform="translate(352.292721, 26.764479) rotate(5.000000) translate(-352.292721, -26.764479) translate(330.292721, 3.264479)">
                        <polyline id="Fill-12" fill="#91E8D4" points="0.746907715 27.5730829 43.8889228 46.4617124 32.8776657 0.922918726 0.746907715 27.5730829"></polyline>
                        <path d="M2.25937974,28.1584264 L1.0117166,27.6326905 C14.7758349,19.4523242 25.833255,10.472586 32.9214346,1.28128668 L34.3717172,7.05466924 C27.5040996,15.1526913 18.1035201,22.9141579 6.78133811,30.0426301 L2.25937974,28.1584264 Z" id="Fill-22" fill="#24D2AA"></path>
                    </g>
                    <g id="Group-3" transform="translate(277.417864, 62.524175) rotate(20.000000) translate(-277.417864, -62.524175) translate(255.417864, 39.024175)">
                        <polygon id="Fill-12" fill="#91E8D4" points="43.8889228 46.4617124 32.8776657 0.922918726 27.6804694 7.16336577 19.5261928 14.5643724 9.53902 22.4031712 0.746907715 27.5730829"></polygon>
                        <path d="M2.00447471,28.1349491 L0.746907715,27.6026625 C14.6202844,19.3203684 25.7654774,10.2287422 32.9099224,0.922918726 L34.3717172,6.76823796 C27.449585,14.9671618 17.9743846,22.8253368 6.562328,30.0426301 L2.00447471,28.1349491 Z" id="Fill-22" fill="#24D2AA"></path>
                    </g>
                    <g id="Group-3" transform="translate(197.220002, 84.118223) rotate(28.000000) translate(-197.220002, -84.118223) translate(175.220002, 60.618223)">
                        <polygon id="Fill-12" fill="#91E8D4" points="43.8889228 46.4617124 32.8776657 0.922918726 27.6804694 7.16336577 19.5261928 14.5643724 9.53902 22.4031712 0.746907715 27.5730829"></polygon>
                        <path d="M2.00447471,28.1349491 L0.746907715,27.6026625 C14.6202844,19.3203684 25.7654774,10.2287422 32.9099224,0.922918726 L34.3717172,6.76823796 C27.449585,14.9671618 17.9743846,22.8253368 6.562328,30.0426301 L2.00447471,28.1349491 Z" id="Fill-22" fill="#24D2AA"></path>
                    </g>
                    <g id="Group-3" transform="translate(115.971950, 96.717989) rotate(35.000000) translate(-115.971950, -96.717989) translate(93.971950, 73.217989)">
                        <polygon id="Fill-12" fill="#91E8D4" points="43.8889228 46.4617124 32.8776657 0.922918726 27.6804694 7.16336577 19.5261928 14.5643724 9.53902 22.4031712 0.746907715 27.5730829"></polygon>
                        <path d="M2.00447471,28.1349491 L0.746907715,27.6026625 C14.6202844,19.3203684 25.7654774,10.2287422 32.9099224,0.922918726 L34.3717172,6.76823796 C27.449585,14.9671618 17.9743846,22.8253368 6.562328,30.0426301 L2.00447471,28.1349491 Z" id="Fill-22" fill="#24D2AA"></path>
                    </g>
                    <g id="Group-3" transform="translate(32.998856, 97.400363) rotate(45.000000) translate(-32.998856, -97.400363) translate(10.998856, 73.900363)">
                        <polygon id="Fill-12" fill="#91E8D4" points="43.8889228 46.4617124 32.8776657 0.922918726 27.6804694 7.16336577 19.5261928 14.5643724 9.53902 22.4031712 0.746907715 27.5730829"></polygon>
                        <path d="M2.00447471,28.1349491 L0.746907715,27.6026625 C14.6202844,19.3203684 25.7654774,10.2287422 32.9099224,0.922918726 L34.3717172,6.76823796 C27.449585,14.9671618 17.9743846,22.8253368 6.562328,30.0426301 L2.00447471,28.1349491 Z" id="Fill-22" fill="#24D2AA"></path>
                    </g>
                    <path d="M11.7904684,73.2367745 C9.46771468,72.3373761 8.66901848,70.9672924 10.2664109,69.5967805 C11.0651071,68.2266969 14.1139483,67.7555834 15.7106146,68.6978103 C55.2025113,81.029848 128.741375,81.5009615 203.078208,70.067894 C277.415042,58.1641413 340.863468,36.2398049 364.89188,13.8447834 C366.416664,12.4746997 368.739418,12.4746997 370.33681,12.9458132 C372.659564,13.8447834 372.659564,15.2152953 371.861594,16.157094 C346.307672,40.3509124 282.787363,62.7455057 205.400962,74.6068582 C127.942679,86.9393242 53.6051189,86.0399257 11.7904684,73.2367745 Z" id="Fill-30" fill="#F4F4F1" transform="translate(190.887221, 48.014383) rotate(-4.000000) translate(-190.887221, -48.014383) "></path>
                </g>
            </g>
        </g>
    </g>
</svg>