<?xml version="1.0" encoding="UTF-8"?>
<svg width="53px" height="70px" viewBox="0 0 53 70" version="1.1" xmlns="http://www.w3.org/2000/svg" xmlns:xlink="http://www.w3.org/1999/xlink">
    <!-- Generator: Sketch 51.3 (57544) - http://www.bohemiancoding.com/sketch -->
    <title>Group 5</title>
    <desc>Created with Sketch.</desc>
    <defs></defs>
    <g id="Privacy-&amp;-TOS" stroke="none" stroke-width="1" fill="none" fill-rule="evenodd">
        <g id="PP-option-1" transform="translate(-386.000000, -740.000000)">
            <g id="Group-5" transform="translate(386.000000, 740.000000)">
                <g id="Group-20">
                    <polygon id="Fill-16" fill="#E4E4E4" points="0 69.9876179 53 69.9876179 53 0.660377358 0 0.660377358"></polygon>
                    <polygon id="Fill-17" fill="#A9A9A9" points="0 13.8679245 53 13.8679245 53 0.660377358 0 0.660377358"></polygon>
                </g>
                <g id="Group-9" transform="translate(37.000000, 24.000000)">
                    <polygon id="Fill-18" fill="#E8C14C" points="0 45.9876786 6.5 45.9876786 6.5 18.0714286 0 18.0714286"></polygon>
                    <polygon id="Fill-19" fill="#DB9D3D" points="6.5 45.9876786 13 45.9876786 13 18.0714286 6.5 18.0714286"></polygon>
                    <polyline id="Fill-21" fill="#E0C090" points="13 18.4 6.5 0 0 18.4"></polyline>
                    <polygon id="Fill-22" fill="#F1DCB9" points="0 18.4 13 18.4 6.5 7.88571429"></polygon>
                    <polygon id="Fill-23" fill="#797979" points="2.6 10.5142857 10.4 10.5142857 6.5 0"></polygon>
                </g>
                <path d="M16,25.5 C16,28.537375 13.537375,31 10.5,31 C7.462625,31 5,28.537375 5,25.5 C5,22.462625 7.462625,20 10.5,20 C13.537375,20 16,22.462625 16,25.5 Z" id="Fill-27" fill="#24D2AA"></path>
                <path d="M16,42.5 C16,45.537375 13.537375,48 10.5,48 C7.462625,48 5,45.537375 5,42.5 C5,39.462625 7.462625,37 10.5,37 C13.537375,37 16,39.462625 16,42.5 Z" id="Fill-27" stroke="#E36A57"></path>
                <path d="M16,59.5 C16,62.537375 13.537375,65 10.5,65 C7.462625,65 5,62.537375 5,59.5 C5,56.462625 7.462625,54 10.5,54 C13.537375,54 16,56.462625 16,59.5 Z" id="Fill-27" stroke="#E36A57"></path>
                <polygon id="Fill-33" fill="#E4E4E4" points="5 8 8 8 8 5 5 5"></polygon>
                <polygon id="Fill-34" fill="#E4E4E4" points="12 8 15 8 15 5 12 5"></polygon>
                <polygon id="Fill-35" fill="#E4E4E4" points="19 8 22 8 22 5 19 5"></polygon>
                <polygon id="Fill-18" fill="#C6C6C6" points="20 24 32 24 32 21 20 21"></polygon>
                <polygon id="Fill-18" fill="#C6C6C6" points="20 28 29 28 29 25 20 25"></polygon>
                <polygon id="Fill-18" fill="#C6C6C6" points="20 41 32 41 32 38 20 38"></polygon>
                <polygon id="Fill-18" fill="#C6C6C6" points="20 45 29 45 29 42 20 42"></polygon>
                <polygon id="Fill-18" fill="#C6C6C6" points="20 60 32 60 32 57 20 57"></polygon>
                <polygon id="Fill-18" fill="#C6C6C6" points="20 64 29 64 29 61 20 61"></polygon>
            </g>
        </g>
    </g>
</svg>