<?xml version="1.0" encoding="UTF-8"?>
<svg width="63px" height="75px" viewBox="0 0 63 75" version="1.1" xmlns="http://www.w3.org/2000/svg" xmlns:xlink="http://www.w3.org/1999/xlink">
    <!-- Generator: Sketch 51.3 (57544) - http://www.bohemiancoding.com/sketch -->
    <title>Group 12</title>
    <desc>Created with Sketch.</desc>
    <defs>
        <polygon id="path-1" points="0.00851776314 0 41.3746086 0 41.3746086 72.6849121 0.00851776314 72.6849121"></polygon>
    </defs>
    <g id="My-Claims" stroke="none" stroke-width="1" fill="none" fill-rule="evenodd">
        <g id="Dashboard-New---Standard---state-1" transform="translate(-216.000000, -1339.000000)">
            <g id="Canvas-Area" transform="translate(0.000000, 120.000000)">
                <g id="Family-Claims-Loading" transform="translate(191.517969, 1154.821875)">
                    <g id="top-group" transform="translate(0.000000, 40.000000)">
                        <g id="Group-12" transform="translate(25.000000, 24.000000)">
                            <g id="sand-clock" transform="translate(20.482031, 0.178125)">
                                <path d="M38.6392709,19.0271213 L38.6392709,1.17232813 L2.73547963,1.17232813 L2.73547963,19.0271213 C2.73547963,27.2971595 8.32795898,34.259721 15.9368768,36.3424561 C8.32781702,38.4251911 2.73547963,45.3877527 2.73547963,53.6577909 L2.73547963,71.512584 L38.6392709,71.512584 L38.6391289,53.6577909 C38.6391289,45.3877527 33.0466496,38.4251911 25.4377318,36.3424561 C33.0467915,34.259721 38.6392709,27.2970175 38.6392709,19.0271213" id="Fill-1" fill-opacity="0.35" fill="#24D2AA"></path>
                                <path d="M39.811599,19.0271213 L39.811599,1.17232813 L37.4669428,1.17232813 L37.4669428,19.0271213 C37.4669428,26.567755 32.3930532,33.2232512 25.128395,35.211723 C24.6187488,35.3512724 24.2655456,35.8140708 24.2655456,36.3424561 C24.2655456,36.8708413 24.6187488,37.3337817 25.128395,37.4731891 C32.3930532,39.4616609 37.4669428,46.1168732 37.4669428,53.6575069 L37.4669428,71.512584 L39.811599,71.512584 L39.811599,53.6575069 C39.811599,46.1698253 35.4218278,39.4480325 28.814457,36.3424561 C35.4218278,33.2368796 39.811599,26.5149449 39.811599,19.0271213" id="Fill-2" fill="#FBF9F7"></path>
                                <g id="Group-7">
                                    <mask id="mask-2" fill="white">
                                        <use xlink:href="#path-1"></use>
                                    </mask>
                                    <g id="Clip-4"></g>
                                    <path d="M16.2464975,35.211723 C8.98169731,33.2232512 3.90780777,26.567755 3.90780777,19.0271213 L3.90780777,1.17232813 L1.5631515,1.17232813 L1.5631515,19.0271213 C1.5631515,26.5149449 5.9529227,33.2368796 12.5602935,36.3424561 C5.9529227,39.4480325 1.5631515,46.1698253 1.5631515,53.6575069 L1.5631515,71.512584 L3.90780777,71.512584 L3.90780777,53.6575069 C3.90780777,46.1168732 8.98169731,39.4616609 16.2464975,37.4731891 C16.7561436,37.3336398 17.1093469,36.8708413 17.1093469,36.3424561 C17.1093469,35.8140708 16.7561436,35.3511304 16.2464975,35.211723" id="Fill-3" fill="#FBF9F7" mask="url(#mask-2)"></path>
                                    <path d="M40.2024224,72.6849121 L1.17232813,72.6849121 C0.524836172,72.6849121 0,72.1602179 0,71.512584 C0,70.8649501 0.524836172,70.3402559 1.17232813,70.3402559 L40.2022804,70.3402559 C40.8497724,70.3402559 41.3746086,70.8649501 41.3746086,71.512584 C41.3746086,72.1602179 40.8499144,72.6849121 40.2024224,72.6849121" id="Fill-5" fill="#3D3330" mask="url(#mask-2)"></path>
                                    <path d="M40.2024224,2.34465627 L1.17232813,2.34465627 C0.524836172,2.34465627 0,1.81996206 0,1.17232813 C0,0.524694209 0.524836172,0 1.17232813,0 L40.2022804,0 C40.8497724,0 41.3746086,0.524694209 41.3746086,1.17232813 C41.3746086,1.81996206 40.8499144,2.34465627 40.2024224,2.34465627" id="Fill-6" fill="#3D3330" mask="url(#mask-2)"></path>
                                </g>
                                <path d="M21.8597034,47.6399912 L21.8597034,32.2584726 C22.8229204,32.1694619 23.5703542,31.9834908 24.1996749,31.8193819 C28.6608533,30.6565652 32.0608605,27.1963659 33.3670594,22.9252756 L8.00769109,22.9249916 C9.31389007,27.196224 12.7137552,30.6564233 17.1750756,31.8193819 C17.8043964,31.9833488 18.5518301,32.16932 19.5150471,32.2584726 L19.5150471,47.6399912 C12.7400183,48.2339632 7.42493413,53.9187183 7.42493413,60.8480606 L7.42493413,66.8232715 L33.9499584,66.8232715 L33.9499584,60.8480606 C33.9499584,53.9187183 28.6348742,48.2338213 21.8597034,47.6399912" id="Fill-8" fill="#24D2AA"></path>
                            </g>
                            <g id="Group-9" transform="translate(0.000000, 49.000000)">
                                <path d="M28,3.03684211 L28,6.64736842 C28,8.48947368 23.9749553,10 19.0161002,10 C17.9856887,10 17.019678,9.92631579 16.0858676,9.81578947 C14.6046512,7.78947368 12.4472272,6.42631579 10,6.16842105 L10,3 C10,4.84210526 14.0250447,6.35263158 18.9838998,6.35263158 C23.9749553,6.38947368 28,4.87894737 28,3.03684211" id="Fill-4" fill="#F0AF50"></path>
                                <path d="M28,9 L28,13.1481481 C28,13.1904762 28,13.2328042 28,13.2328042 L28,13.1481481 C28,15.2645503 23.2229299,17 17.3375796,17 C16.9936306,17 16.6878981,17 16.3821656,17 C16.3821656,16.7460317 16.4203822,16.4497354 16.4203822,16.1957672 C16.4203822,15.0529101 16.2675159,13.9100529 16,12.8941799 C16.4585987,12.8941799 16.9171975,12.9365079 17.3757962,12.9365079 C22.1910828,12.9365079 26.2420382,11.7936508 27.5796178,10.2275132 C27.7324841,10.0582011 27.8471338,9.84656085 27.9617834,9.63492063 C27.9617834,9.38095238 28,9.21164021 28,9" id="Fill-5" fill="#F0AF50"></path>
                                <path d="M28,16 L28,19.6489362 C28,19.6861702 28,19.7234043 28,19.7234043 L28,19.6117021 C28,21.4734043 23.5583756,23 18.0862944,23 C16.6294416,23 15.2436548,22.8882979 14,22.7021277 C14.9593909,21.7712766 15.7766497,20.6170213 16.3096447,19.3510638 C16.8781726,19.3882979 17.4822335,19.3882979 18.0862944,19.3882979 C23.5583756,19.3882979 28,17.8989362 28,16" id="Fill-6" fill="#F0AF50"></path>
                                <path d="M28,6.44067797 C28,8.13559322 23.9443801,9.52542373 18.9478563,9.52542373 C17.9096176,9.52542373 16.9362688,9.45762712 15.995365,9.3559322 C14.3406721,7.28813559 11.8424102,6 9.08458864,6 C4.05561993,6 0,10.2372881 0,15.4576271 C0,20.6779661 4.05561993,24.9152542 9.05214368,24.9152542 C9.83082271,24.9152542 10.6095017,24.8135593 11.3232908,24.6101695 C12.9455388,25.4576271 15.7358053,26 18.9154114,26 C23.9119351,26 27.967555,24.6101695 27.967555,22.9152542 L27.967555,19.5932203 C27.967555,21.2881356 23.9119351,22.6779661 18.9154114,22.6779661 C17.585168,22.6779661 16.3198146,22.5762712 15.184241,22.4067797 C16.0602549,21.559322 16.806489,20.5084746 17.2931634,19.3559322 C17.8122827,19.3898305 18.363847,19.3898305 18.9154114,19.3898305 C23.9119351,19.3898305 27.967555,18 27.967555,16.3050847 L27.967555,13.0508475 C27.967555,14.7457627 23.9119351,16.1355932 18.9154114,16.1355932 C18.6234067,16.1355932 18.363847,16.1355932 18.0718424,16.1355932 C18.0718424,15.9322034 18.1042874,15.7288136 18.1042874,15.4915254 C18.1042874,14.5762712 17.9745075,13.6610169 17.7473928,12.8135593 C18.1367323,12.8135593 18.5260718,12.8474576 18.9154114,12.8474576 C23.9443801,12.8474576 28,11.4576271 28,9.76271186 L28,6.44067797 Z" id="Fill-7" fill="#FACB5F"></path>
                                <path d="M9,8 C12.8659606,8 16,11.3578993 16,15.5 C16,19.6421007 12.8659606,23 9,23 C5.13403935,23 2,19.6421007 2,15.5 C2,11.3578993 5.13403935,8 9,8" id="Fill-8" fill="#F0AF50"></path>
                                <path d="M12,17.6171429 C12,15.9457143 10.6666667,14.6085714 9,14.6085714 C8.2962963,14.6085714 7.7037037,14.0142857 7.7037037,13.3085714 C7.7037037,12.6028571 8.2962963,12.0085714 9,12.0085714 C9.37037037,12.0085714 9.7037037,12.1571429 9.92592593,12.4171429 C10.2592593,12.7514286 10.7777778,12.7885714 11.1481481,12.4542857 C11.4814815,12.12 11.5185185,11.6 11.1851852,11.2285714 C10.8148148,10.8571429 10.3703704,10.56 9.85185185,10.4114286 L9.85185185,9.85428571 C9.85185185,9.37142857 9.48148148,9 9,9 C8.51851852,9 8.14814815,9.37142857 8.14814815,9.85428571 L8.14814815,10.4485714 C6.88888889,10.82 6,11.9714286 6,13.3457143 C6,15.0171429 7.33333333,16.3542857 9,16.3542857 C9.7037037,16.3542857 10.2962963,16.9485714 10.2962963,17.6542857 C10.2962963,18.36 9.7037037,18.9542857 9,18.9542857 C8.62962963,18.9542857 8.2962963,18.8057143 8.07407407,18.5457143 C7.74074074,18.2114286 7.22222222,18.1742857 6.85185185,18.5085714 C6.51851852,18.8428571 6.48148148,19.3628571 6.81481481,19.7342857 C7.18518519,20.1057143 7.62962963,20.4028571 8.14814815,20.5514286 L8.14814815,21.1457143 C8.14814815,21.6285714 8.51851852,22 9,22 C9.48148148,22 9.85185185,21.6285714 9.85185185,21.1457143 L9.85185185,20.5514286 C11.1111111,20.1428571 12,18.9914286 12,17.6171429" id="Fill-9" fill="#FACB5F"></path>
                                <path d="M19,0 C23.9705645,0 28,1.56701923 28,3.5 C28,5.43298077 23.9705645,7 19,7 C14.0294355,7 10,5.43298077 10,3.5 C10,1.56701923 14.0294355,0 19,0" id="Fill-10" fill="#FACB5F"></path>
                                <path d="M19,1 C22.8659606,1 26,1.89542857 26,3 C26,4.10457143 22.8659606,5 19,5 C15.1340394,5 12,4.10457143 12,3 C12,1.89542857 15.1340394,1 19,1" id="Fill-11" fill="#F0AF50"></path>
                                <path d="M17.0114286,5 C18.5542857,5 19.7885714,4.33333333 19.7885714,3.55555556 C19.7885714,3.22222222 20.3371429,2.94444444 20.9885714,2.94444444 C21.64,2.94444444 22.1885714,3.22222222 22.1885714,3.55555556 C22.1885714,3.72222222 22.0514286,3.88888889 21.8114286,4 C21.5028571,4.16666667 21.4685714,4.44444444 21.7771429,4.61111111 C22.0857143,4.77777778 22.5657143,4.77777778 22.9085714,4.61111111 C23.2514286,4.44444444 23.5257143,4.22222222 23.6628571,3.94444444 L24.2114286,3.94444444 C24.6571429,3.94444444 25,3.77777778 25,3.5 C25,3.27777778 24.6571429,3.05555556 24.2114286,3.05555556 L23.6628571,3.05555556 C23.32,2.44444444 22.2571429,2 20.9885714,2 C19.4457143,2 18.2114286,2.66666667 18.2114286,3.44444444 C18.2114286,3.77777778 17.6628571,4.05555556 17.0114286,4.05555556 C16.36,4.05555556 15.8114286,3.77777778 15.8114286,3.44444444 C15.8114286,3.27777778 15.9485714,3.11111111 16.1885714,3 C16.4971429,2.83333333 16.5314286,2.55555556 16.2228571,2.38888889 C15.9142857,2.22222222 15.4342857,2.22222222 15.0914286,2.38888889 C14.7485714,2.55555556 14.4742857,2.77777778 14.3371429,3.05555556 L13.7885714,3.05555556 C13.3428571,3.05555556 13,3.22222222 13,3.5 C13,3.72222222 13.3428571,3.94444444 13.7885714,3.94444444 L14.3371429,3.94444444 C14.68,4.55555556 15.7428571,5 17.0114286,5" id="Fill-12" fill="#FACB5F"></path>
                            </g>
                        </g>
                    </g>
                </g>
            </g>
        </g>
    </g>
</svg>