<?xml version="1.0" encoding="UTF-8"?>
<svg width="20px" height="28px" viewBox="0 0 20 28" version="1.1" xmlns="http://www.w3.org/2000/svg" xmlns:xlink="http://www.w3.org/1999/xlink">
    <!-- Generator: Sketch 51.3 (57544) - http://www.bohemiancoding.com/sketch -->
    <title>id-card</title>
    <desc>Created with Sketch.</desc>
    <defs>
        <filter x="-1.1%" y="-0.7%" width="102.1%" height="102.0%" filterUnits="objectBoundingBox" id="filter-1">
            <feOffset dx="0" dy="2" in="SourceAlpha" result="shadowOffsetOuter1"></feOffset>
            <feGaussianBlur stdDeviation="2" in="shadowOffsetOuter1" result="shadowBlurOuter1"></feGaussianBlur>
            <feColorMatrix values="0 0 0 0 0   0 0 0 0 0   0 0 0 0 0  0 0 0 0.1 0" type="matrix" in="shadowBlurOuter1" result="shadowMatrixOuter1"></feColorMatrix>
            <feMerge>
                <feMergeNode in="shadowMatrixOuter1"></feMergeNode>
                <feMergeNode in="SourceGraphic"></feMergeNode>
            </feMerge>
        </filter>
    </defs>
    <g id="---▶︎--Sign-Up-Pages" stroke="none" stroke-width="1" fill="none" fill-rule="evenodd">
        <g id="profile-signup---Desktop" transform="translate(-448.000000, -429.000000)">
            <g id="Profile-Component---Names" filter="url(#filter-1)" transform="translate(437.000000, 331.000000)">
                <g id="Side-NavBar" transform="translate(1.000000, 49.000000)">
                    <g id="Group-12" transform="translate(0.000000, 40.000000)">
                        <g id="id-card" transform="translate(14.000000, 11.000000)">
                            <g id="Group-3">
                                <polygon id="Clip-2" points="0.0225 0 12 0 12 19.5922449 0.0225 19.5922449"></polygon>
                                <path d="M11.10075,1.30612245 L7.5,1.30612245 L8.040375,0.521632653 C8.140125,0.378367347 8.112375,0.174285714 7.980375,0.0657142857 C7.84725,-0.0428571429 7.65975,-0.013877551 7.56,0.131020408 L6.75,1.30612245 L5.28525,1.30612245 L4.768125,0.180408163 C4.695,0.0195918367 4.513125,-0.0457142857 4.365375,0.033877551 C4.21725,0.115102041 4.15725,0.311428571 4.231875,0.472244898 L4.614375,1.30612245 L0.89925,1.30612245 C0.40425,1.30612245 0,1.74612245 0,2.28489796 L0,18.6114286 C0,19.1522449 0.40425,19.5922449 0.89925,19.5922449 L11.10075,19.5922449 C11.59575,19.5922449 12,19.1522449 12,18.6114286 L12,2.28489796 C12,1.74612245 11.59575,1.30612245 11.10075,1.30612245 Z M0.89925,1.96 L4.914375,1.96 L5.21475,2.61183673 C4.96275,2.85265306 4.800375,3.20040816 4.800375,3.59265306 C4.800375,4.31142857 5.33775,4.89836735 6,4.89836735 C6.66225,4.89836735 7.199625,4.31142857 7.199625,3.59265306 C7.199625,2.87183673 6.66225,2.28489796 6,2.28489796 C5.91375,2.28489796 5.830125,2.29632653 5.7495,2.3155102 L5.585625,1.96 L11.10075,1.96 C11.266125,1.96 11.39925,2.10489796 11.39925,2.28489796 L11.39925,13.0616327 L8.956125,13.0616327 C8.863875,12.6759184 8.6265,12.3440816 8.292375,12.162449 L7.199625,11.5546939 L7.199625,11.4289796 C7.689,11.1387755 8.03175,10.6604082 8.22375,10.0036735 C8.513625,9.83591837 8.699625,9.50938776 8.699625,9.14244898 L8.699625,8.8155102 C8.699625,8.51428571 8.570625,8.23387755 8.353875,8.04897959 C8.167875,6.81469388 7.3755,6.18979592 6,6.18979592 C5.9355,6.18979592 5.871,6.19142857 5.8095,6.19755102 C5.550375,6.21836735 5.170875,6.19632653 4.84125,5.9555102 C4.71975,5.86612245 4.626,5.77836735 4.5675,5.69714286 C4.46625,5.55673469 4.297875,5.50734694 4.147125,5.57428571 C3.996,5.64285714 3.90825,5.80530612 3.927375,5.98244898 C3.939,6.10367347 3.958125,6.24571429 3.987375,6.40163265 C4.044375,6.72081633 4.044375,6.72081633 3.96375,6.91061224 C3.933,6.98204082 3.895125,7.07142857 3.85125,7.18938776 C3.7515,7.45428571 3.681,7.74408163 3.640125,8.05346939 C3.427875,8.23714286 3.300375,8.51755102 3.300375,8.8155102 L3.300375,9.14244898 C3.300375,9.50938776 3.486375,9.83591837 3.77625,10.0036735 C3.96825,10.6604082 4.311,11.1387755 4.800375,11.4289796 L4.800375,11.5518367 L3.669375,12.1591837 C3.34575,12.3506122 3.1215,12.6804082 3.03675,13.0616327 L0.60075,13.0616327 L0.60075,2.28489796 C0.60075,2.10489796 0.733875,1.96 0.89925,1.96 Z M5.499,3.23387755 L5.731875,3.73755102 C5.78475,3.8522449 5.890125,3.91755102 6,3.91755102 C6.045375,3.91755102 6.09075,3.90653061 6.134625,3.88408163 C6.28275,3.80285714 6.34275,3.60693878 6.268125,3.44571429 L6.03675,2.94367347 C6.35025,2.9644898 6.60075,3.24653061 6.60075,3.59265306 C6.60075,3.95142857 6.331125,4.2444898 6,4.2444898 C5.668875,4.2444898 5.39925,3.95142857 5.39925,3.59265306 C5.39925,3.45836735 5.4375,3.33591837 5.499,3.23387755 Z M5.103375,12.117551 C5.28375,12.0220408 5.39925,11.8179592 5.39925,11.5979592 L5.39925,11.0093878 L5.21925,10.924898 C4.763625,10.7114286 4.46775,10.304898 4.314,9.68 L4.271625,9.50612245 L4.113375,9.45183673 C3.987375,9.41061224 3.89925,9.28285714 3.89925,9.14244898 L3.89925,8.8155102 C3.89925,8.69755102 3.96225,8.5877551 4.062,8.53020408 L4.202625,8.44897959 L4.22025,8.27510204 C4.2495,7.96897959 4.3125,7.68693878 4.40625,7.43673469 C4.445625,7.33142857 4.479375,7.25142857 4.5075,7.18612245 C4.609875,6.94857143 4.646625,6.82571429 4.62,6.57387755 C4.97325,6.79387755 5.398125,6.88653061 5.857875,6.84816327 C5.90325,6.84489796 5.951625,6.84204082 6,6.84204082 C7.1235,6.84204082 7.671375,7.28489796 7.77825,8.27836735 L7.797375,8.44897959 L7.9365,8.52857143 C8.03775,8.5877551 8.10075,8.69755102 8.10075,8.8155102 L8.10075,9.14244898 C8.10075,9.28285714 8.012625,9.41061224 7.886625,9.45183673 L7.728375,9.50612245 L7.686,9.68 C7.53225,10.304898 7.236375,10.7114286 6.78075,10.924898 L6.60075,11.0093878 L6.60075,11.6012245 C6.60075,11.8195918 6.710625,12.0171429 6.889125,12.1159184 L8.021625,12.7457143 C8.15025,12.8159184 8.253,12.9277551 8.319,13.0616327 L3.667875,13.0616327 C3.72675,12.9244898 3.824625,12.8097959 3.946125,12.7379592 L5.103375,12.117551 Z M11.10075,18.9383673 L0.89925,18.9383673 C0.733875,18.9383673 0.60075,18.7918367 0.60075,18.6114286 L0.60075,13.7134694 L11.39925,13.7134694 L11.39925,18.6114286 C11.39925,18.7918367 11.266125,18.9383673 11.10075,18.9383673 Z" id="Fill-1" fill="#245AAA"></path>
                            </g>
                            <path d="M8.699625,16 L3.300375,16 C3.134625,16 3,16.1465306 3,16.3269388 C3,16.5069388 3.134625,16.6538776 3.300375,16.6538776 L8.699625,16.6538776 C8.865375,16.6538776 9,16.5069388 9,16.3269388 C9,16.1465306 8.865375,16 8.699625,16 Z" id="Fill-4" fill="#245AAA"></path>
                            <path d="M4.5,15.3461224 L7.5,15.3461224 C7.665375,15.3461224 7.800375,15.2012245 7.800375,15.0212245 C7.800375,14.8391837 7.665375,14.6942857 7.5,14.6942857 L4.5,14.6942857 C4.334625,14.6942857 4.199625,14.8391837 4.199625,15.0212245 C4.199625,15.2012245 4.334625,15.3461224 4.5,15.3461224 Z" id="Fill-5" fill="#245AAA"></path>
                            <path d="M3.60075,17.3057143 L3.300375,17.3057143 C3.134625,17.3057143 3,17.4526531 3,17.6326531 C3,17.8126531 3.134625,17.9595918 3.300375,17.9595918 L3.60075,17.9595918 C3.766125,17.9595918 3.89925,17.8126531 3.89925,17.6326531 C3.89925,17.4526531 3.766125,17.3057143 3.60075,17.3057143 Z" id="Fill-6" fill="#245AAA"></path>
                            <path d="M5.39925,17.3057143 L4.800375,17.3057143 C4.634625,17.3057143 4.5,17.4526531 4.5,17.6326531 C4.5,17.8126531 4.634625,17.9595918 4.800375,17.9595918 L5.39925,17.9595918 C5.5665,17.9595918 5.699625,17.8126531 5.699625,17.6326531 C5.699625,17.4526531 5.5665,17.3057143 5.39925,17.3057143 Z" id="Fill-7" fill="#245AAA"></path>
                            <path d="M6.89925,17.3057143 L6.60075,17.3057143 C6.4335,17.3057143 6.300375,17.4526531 6.300375,17.6326531 C6.300375,17.8126531 6.4335,17.9595918 6.60075,17.9595918 L6.89925,17.9595918 C7.0665,17.9595918 7.199625,17.8126531 7.199625,17.6326531 C7.199625,17.4526531 7.0665,17.3057143 6.89925,17.3057143 Z" id="Fill-8" fill="#245AAA"></path>
                            <path d="M8.699625,17.3057143 L8.10075,17.3057143 C7.9335,17.3057143 7.800375,17.4526531 7.800375,17.6326531 C7.800375,17.8126531 7.9335,17.9595918 8.10075,17.9595918 L8.699625,17.9595918 C8.865375,17.9595918 9,17.8126531 9,17.6326531 C9,17.4526531 8.865375,17.3057143 8.699625,17.3057143 Z" id="Fill-9" fill="#245AAA"></path>
                        </g>
                    </g>
                </g>
            </g>
        </g>
    </g>
</svg>