<?xml version="1.0" encoding="UTF-8"?>
<svg width="47px" height="43px" viewBox="0 0 47 43" version="1.1" xmlns="http://www.w3.org/2000/svg" xmlns:xlink="http://www.w3.org/1999/xlink">
    <!-- Generator: Sketch 51.3 (57544) - http://www.bohemiancoding.com/sketch -->
    <title>chat</title>
    <desc>Created with Sketch.</desc>
    <defs></defs>
    <g id="LegalFound" stroke="none" stroke-width="1" fill="none" fill-rule="evenodd">
        <g id="Artboard" transform="translate(-1036.000000, -171.000000)">
            <g id="chat" transform="translate(1036.000000, 171.000000)">
                <path d="M35.199,13.286 L35.199,30.2 C35.199,32.376 33.434,34.142 31.258,34.142 L17.602,34.2 L9.602,43.001 L9.602,34.2 L3.941,34.2 C1.766,34.2 0,32.435 0,30.255 L0,13.345 C0,11.165 1.766,9.399 3.941,9.399 L31.258,9.345 C33.434,9.345 35.199,11.11 35.199,13.286 Z" id="Fill-1" fill-opacity="0.8" fill="#245AAA"></path>
                <path d="M17.602,18.146 L7.199,18.146 C6.758,18.146 6.398,17.786 6.398,17.345 C6.398,16.903 6.758,16.544 7.199,16.544 L17.602,16.544 C18.043,16.544 18.398,16.903 18.398,17.345 C18.398,17.786 18.043,18.146 17.602,18.146 Z" id="Fill-2" fill="#FFFFFF"></path>
                <path d="M28,22.942 L7.199,22.942 C6.758,22.942 6.398,22.587 6.398,22.146 C6.398,21.704 6.758,21.345 7.199,21.345 L28,21.345 C28.441,21.345 28.801,21.704 28.801,22.146 C28.801,22.587 28.441,22.942 28,22.942 Z" id="Fill-3" fill="#FFFFFF"></path>
                <path d="M28,27.743 L7.199,27.743 C6.758,27.743 6.398,27.384 6.398,26.942 C6.398,26.501 6.758,26.146 7.199,26.146 L28,26.146 C28.441,26.146 28.801,26.501 28.801,26.942 C28.801,27.384 28.441,27.743 28,27.743 Z" id="Fill-4" fill="#FFFFFF"></path>
                <path d="M42.457,0.599 L15.145,0.544 C12.965,0.544 11.199,2.31 11.199,4.485 L11.199,9.384 L31.258,9.345 C33.434,9.345 35.199,11.11 35.199,13.286 L35.199,28.04 L40.801,34.2 L40.801,25.399 L42.457,25.399 C44.633,25.399 46.398,23.634 46.398,21.458 L46.398,4.544 C46.398,2.364 44.633,0.599 42.457,0.599 Z" id="Fill-5" fill-opacity="0.8" fill="#24D2AA"></path>
            </g>
        </g>
    </g>
</svg>