<?xml version="1.0" encoding="UTF-8"?>
<svg width="140px" height="100px" viewBox="0 0 140 100" version="1.1" xmlns="http://www.w3.org/2000/svg" xmlns:xlink="http://www.w3.org/1999/xlink">
    <!-- Generator: Sketch 51.3 (57544) - http://www.bohemiancoding.com/sketch -->
    <title>Group 2</title>
    <desc>Created with Sketch.</desc>
    <defs>
        <polygon id="path-1" points="0.0124481328 0.134848421 99.9755187 1.13484842 99.9755187 99.9874947 0.0124481328 99.9874947"></polygon>
        <polygon id="path-3" points="0.0736390728 0.135899543 62.901745 0.135899543 62.901745 45.9873973 0.0736390728 45.9873973"></polygon>
    </defs>
    <g id="LegalFound" stroke="none" stroke-width="1" fill="none" fill-rule="evenodd">
        <g id="Jump-Off-Page" transform="translate(-410.000000, -380.000000)">
            <g id="Overview-" transform="translate(381.000000, 115.000000)">
                <g id="Group-9" transform="translate(0.000000, 209.000000)">
                    <g id="Group-2" transform="translate(29.000000, 56.000000)">
                        <g id="review-documents-graphic" transform="translate(72.000000, 0.000000)">
                            <polyline id="Fill-4" fill="#F4F4F1" points="12.0740016 0 12.0740016 12.0751342 0 12.0751342 0 75 57 75 57 0 12.0740016 0"></polyline>
                            <polyline id="Fill-5" fill="#C7C6C1" points="12 0 0 12 12 12 12 0"></polyline>
                            <polygon id="Fill-6" fill="#D8D8D2" points="7 50 50 50 50 47 7 47"></polygon>
                            <polygon id="Fill-7" fill="#D8D8D2" points="7 57 50 57 50 54 7 54"></polygon>
                            <polygon id="Fill-8" fill="#D8D8D2" points="7 64 32 64 32 61 7 61"></polygon>
                            <polyline id="Fill-9" fill="#27333F" points="38 35.9455924 41.945437 32 50 40.0546391 46.054563 44 38 35.9455924"></polyline>
                            <path d="M30.5,9 C39.6127451,9 47,16.3872549 47,25.5 C47,34.6127451 39.6127451,42 30.5,42 C21.3872549,42 14,34.6127451 14,25.5 C14,16.3872549 21.3872549,9 30.5,9" id="Fill-10" fill="#2F424F"></path>
                            <path d="M44,25.5 C44,32.9558376 37.9558376,39 30.5,39 C23.0441624,39 17,32.9558376 17,25.5 C17,18.0441624 23.0441624,12 30.5,12 C37.9558376,12 44,18.0441624 44,25.5 Z" id="Fill-11" fill="#E0E7F3"></path>
                            <path d="M50.3417533,37.153789 L44.1604755,43.0775136 C43.9465082,43.2825656 43.9465082,43.6471025 44.1604755,43.8521545 L60.8499257,59.846211 C61.063893,60.051263 61.4442793,60.051263 61.6582467,59.846211 L67.8395245,53.9224864 C68.0534918,53.7174344 68.0534918,53.3528975 67.8395245,53.1478455 L51.1500743,37.153789 C50.936107,36.948737 50.5794948,36.948737 50.3417533,37.153789" id="Fill-12" fill="#E6E9E9"></path>
                            <polygon id="Fill-13" fill-opacity="0.8" fill="#245AAA" points="65 50.5709878 58.1928106 57 47 46.4290122 53.8071894 40"></polygon>
                            <path d="M28.3827156,28.1922267 L35.4626626,21.0551183 L36.1182157,20.3942725 L37.4293218,21.7159641 L36.7737687,22.3768099 L29.3570325,29.8534266 L28.7014795,30.5142724 L28.4993605,30.3105216 L28.4184952,30.3886123 L27.8975014,29.8491075 L24.9503156,26.7972072 L24.4293218,26.2577023 L25.5083315,25.2157148 L26.0293253,25.7552196 L28.3827156,28.1922267 Z" id="Combined-Shape" stroke="#24D2AA" stroke-width="1.5" fill="#24D2AA" stroke-linecap="square" transform="translate(30.929322, 25.454272) rotate(-5.000000) translate(-30.929322, -25.454272) "></path>
                        </g>
                        <g id="Group">
                            <path d="M50,3 C42.8762252,3 37.4032393,3.99677797 33.1777632,5.51939724 C28.8874412,7.06377118 25.8897123,9.15429077 23.8035302,11.3272709 C19.0078227,16.3240064 19,21.7199917 19,21.7199917 L22.1000412,81 L40.7000823,81 L40.7000823,26.6699029 C46.0289665,28.7133909 52.9063272,29.8303375 59.3001235,30.4371891 L59.3001235,81 L77.9001647,81 L81,21.7199917 C81,21.7199917 81,3 50,3" id="Fill-1" fill="#613428"></path>
                            <g id="Group-8">
                                <mask id="mask-2" fill="white">
                                    <use xlink:href="#path-1"></use>
                                </mask>
                                <g id="Clip-3"></g>
                                <path d="M33.0340249,5.66924842 C28.710166,7.22281895 25.6890041,9.32578737 23.5865145,11.5117074 C18.7533195,16.5381979 18.7454357,21.9663158 18.7454357,21.9663158 L21.8697095,81.5993305 L40.6151452,81.5993305 L40.6151452,26.9457032 C43.4128631,28.0159453 46.6354772,28.8287874 49.9877593,29.4534253 L49.9877593,3.13484842 C42.8082988,3.13484842 37.2925311,4.13756211 33.0340249,5.66924842 Z" id="Fill-2" fill="#613428" mask="url(#mask-2)"></path>
                                <path d="M49.9877593,73.3221053 L39.0529046,71.7529032 L13.6842324,77.8306695 C9.97883817,78.9463474 6.99979253,81.7208484 5.61120332,85.3459158 L0,100 L49.9877593,100 L49.9877593,73.3221053" id="Fill-4" fill="#333333" mask="url(#mask-2)"></path>
                                <path d="M49.9877593,73.3221053 L60.9226141,71.7529032 L86.2914938,77.8306695 C89.9952282,78.9463474 92.9757261,81.7208484 94.3645228,85.3459158 L99.9755187,100 L49.9877593,100 L49.9877593,73.3221053" id="Fill-5" fill="#333333" mask="url(#mask-2)"></path>
                                <path d="M34.3665975,58.8795726 L34.3665975,80.1685326 L47.663483,99 L50.9877595,99 L50.9877595,70.7529032 C45.5310365,69.0328042 39.09043,65.7766421 34.3665975,58.8795726" id="Fill-6" fill="#F4C9CA" mask="url(#mask-2)"></path>
                                <path d="M49.9877593,70.7529032 L49.9877593,99 L53.1120332,99 L65.6089212,80.1685326 L65.6089212,58.8795726 C61.1695021,65.7766421 55.1161826,69.0328042 49.9877593,70.7529032" id="Fill-7" fill="#F4C9CA" mask="url(#mask-2)"></path>
                            </g>
                            <path d="M71.323706,34.3414286 C71.3206006,32.7298953 71.2955505,31.1765047 71.2286812,29.652915 C58.6398692,29.4409753 31.5950814,27.6270886 30.8390239,16 C28.0783377,20.8644006 27.6887155,27.3886826 27.676294,34.3085018 C27.1042823,34.3414286 26.5492467,34.3414286 26.1173913,34.3414286 C24.5586957,34.3414286 23,36.0846687 23,37.829576 C23,42.67793 24.3467015,49.0171555 29.512611,49.9163882 C33.3189835,64.1967862 42.3241825,69.5913486 49.5007246,72 C56.6774737,69.5913486 65.6824657,64.1967862 69.487389,49.9163882 C74.6547477,49.0171555 76,42.67793 76,37.829576 C76,36.0846687 74.4413043,34.3414286 72.8824017,34.3414286 C72.4507533,34.3414286 71.8957177,34.3414286 71.323706,34.3414286 Z" id="Fill-9" fill="#FCEAEA"></path>
                            <path d="M27.5881875,34.3085018 C27.0269531,34.3414286 26.4825781,34.3414286 26.0588594,34.3414286 C24.5295313,34.3414286 23,36.0846687 23,37.829576 C23,42.67793 24.3215312,49.0171555 29.3899062,49.9163882 C33.1231406,64.1967862 41.9586719,69.5913486 49,72 L49,27.7087802 C39.4886719,25.9042714 31.1044844,22.4694736 30.6915313,16 C27.9828594,20.8644006 27.6005781,27.3886826 27.5881875,34.3085018 Z" id="Fill-10" fill="#FCEAEA"></path>
                            <g id="Group-15" transform="translate(17.000000, 54.000000)">
                                <mask id="mask-4" fill="white">
                                    <use xlink:href="#path-3"></use>
                                </mask>
                                <g id="Clip-12"></g>
                                <path d="M25.6341788,0.135899543 L41.3412053,0.135899543 C41.3412053,0.135899543 41.3412053,4.88041096 33.4876921,4.88041096 C25.6341788,4.88041096 25.6341788,0.135899543 25.6341788,0.135899543" id="Fill-11" fill="#D76C6B" mask="url(#mask-4)"></path>
                                <polyline id="Fill-13" fill="#FFFFFE" mask="url(#mask-4)" points="17.763351 9.62492237 20.9221126 27.0217443 33.4876921 46 30.346245 46 9.92715232 33.3478995 16.2100464 25.4403105 2.07363907 22.2772329 17.763351 9.62492237"></polyline>
                                <polygon id="Fill-14" fill="#FFFFFE" mask="url(#mask-4)" points="45.0532715 27.0217443 32.4876921 46 35.6291391 46 56.0482318 33.3478995 49.7655464 25.4403105 63.901745 22.2772329 48.213702 9.62492237"></polygon>
                            </g>
                            <path d="M45,36.9999004 C45,35.3439586 43.6540751,34 41.9955109,34 C41.9925182,34 41.9895255,34 41.9865328,34 C41.9865328,34.0314772 41.9955109,34.0613607 41.9955109,34.0944317 C41.9955109,35.748979 40.6539753,37.0885546 39,37.0945313 C39.0496791,38.7054487 40.3670735,40 41.9955109,40 C43.6540751,40 45,38.6560414 45,36.9999004" id="Fill-16" fill="#1B1C1A"></path>
                            <path d="M61,36.9999004 C61,35.3439586 59.6540751,34 57.9955109,34 C57.9925182,34 57.9895255,34 57.9835401,34 C57.9865328,34.0314772 57.9955109,34.0613607 57.9955109,34.0944317 C57.9955109,35.748979 56.6539753,37.0885546 55,37.0945313 C55.0496791,38.7054487 56.3670735,40 57.9955109,40 C59.6540751,40 61,38.6560414 61,36.9999004" id="Fill-17" fill="#1B1C1A"></path>
                            <path d="M74.5001019,49 C75.8808039,49 77,50.1192417 77,51.5 C77,52.8807583 75.8808039,54 74.5001019,54 C73.1193999,54 72,52.8807583 72,51.5 C72,50.1192417 73.1193999,49 74.5001019,49" id="Fill-18" fill="#50E3C2"></path>
                            <path d="M28,51.5 C28,52.880673 26.880673,54 25.5,54 C24.119327,54 23,52.880673 23,51.5 C23,50.119327 24.119327,49 25.5,49 C26.880673,49 28,50.119327 28,51.5 Z" id="Fill-19" fill="#50E3C2"></path>
                        </g>
                    </g>
                </g>
            </g>
        </g>
    </g>
</svg>