<?xml version="1.0" encoding="UTF-8" standalone="no"?>
<svg width="40px" height="40px" viewBox="0 0 40 40" version="1.1" xmlns="http://www.w3.org/2000/svg" xmlns:xlink="http://www.w3.org/1999/xlink">
    <!-- Generator: Sketch 39.1 (31720) - http://www.bohemiancoding.com/sketch -->
    <title>Life Preserver</title>
    <desc>Created with Sketch.</desc>
    <defs></defs>
    <g id="Symbols" stroke="none" stroke-width="1" fill="none" fill-rule="evenodd" fill-opacity="0.8">
        <g id="Life-Preserver" fill="#245AAA">
            <path d="M20,40 C31.045695,40 40,31.045695 40,20 C40,8.954305 31.045695,0 20,0 C8.954305,0 0,8.954305 0,20 C0,31.045695 8.954305,40 20,40 Z M20,30 C25.5228475,30 30,25.5228475 30,20 C30,14.4771525 25.5228475,10 20,10 C14.4771525,10 10,14.4771525 10,20 C10,25.5228475 14.4771525,30 20,30 Z M20.5,2 L29,2.89591132 L23.7266486,9 C23.7266486,9 21.4554067,8.39801025 20.5,8.39801025 C19.3043076,8.39801025 17.2733514,9 17.2733514,9 L12,2.89591132 L20.5,2 Z M20.5,38 L29,37.1040887 L23.7266486,31 C23.7266486,31 21.4554067,31.6019897 20.5,31.6019897 C19.3043076,31.6019897 17.2733514,31 17.2733514,31 L12,37.1040887 L20.5,38 Z M38,20.5 L37.1040887,12 L31,17.2733514 C31,17.2733514 31.6019897,19.5445933 31.6019897,20.5 C31.6019897,21.6956924 31,23.7266486 31,23.7266486 L37.1040887,29 L38,20.5 Z M2,20.5 L2.89591132,29 L9,23.7266486 C9,23.7266486 8.39801025,21.4554067 8.39801025,20.5 C8.39801025,19.3043076 9,17.2733514 9,17.2733514 L2.89591132,12 L2,20.5 Z"></path>
        </g>
    </g>
</svg>