<?xml version="1.0" encoding="UTF-8" standalone="no"?>
<svg width="17px" height="12px" viewBox="0 0 17 12" version="1.1" xmlns="http://www.w3.org/2000/svg" xmlns:xlink="http://www.w3.org/1999/xlink">
    <!-- Generator: Sketch 49.3 (51167) - http://www.bohemiancoding.com/sketch -->
    <title>Shape</title>
    <desc>Created with Sketch.</desc>
    <defs></defs>
    <g id="HomePage" stroke="none" stroke-width="1" fill="none" fill-rule="evenodd">
        <g id="Home-page-desktop-1" transform="translate(-1010.000000, -6734.000000)" fill="#2592D2" fill-rule="nonzero">
            <g id="Group-57" transform="translate(523.000000, 6732.000000)">
                <path d="M503.574051,7.02699361 L498.386246,2.20855737 C498.121968,1.96382554 497.717935,1.93075888 497.415221,2.12908728 C497.058948,2.36303158 496.965007,2.83300719 497.20527,3.17944191 L499.578029,6.60715164 L487.750513,7.24516148 C487.332239,7.25798785 487,7.59103682 487,7.99750329 C487,8.40396975 487.332239,8.73701872 487.750513,8.74984509 L499.578029,9.38785493 L497.20527,12.8155647 C496.977705,13.1351248 497.037023,13.570265 497.342369,13.8212912 C497.647715,14.0723173 498.099362,14.0572425 498.386246,13.7864492 L503.573279,8.96801296 C503.845852,8.7145829 504,8.36399694 504,7.99750329 C504,7.63100963 503.845852,7.28042367 503.573279,7.02699361" id="Shape"></path>
            </g>
        </g>
    </g>
</svg>