<?xml version="1.0" encoding="UTF-8"?>
<svg width="50px" height="71px" viewBox="0 0 50 71" version="1.1" xmlns="http://www.w3.org/2000/svg" xmlns:xlink="http://www.w3.org/1999/xlink">
    <!-- Generator: Sketch 51.3 (57544) - http://www.bohemiancoding.com/sketch -->
    <title>Group 2</title>
    <desc>Created with Sketch.</desc>
    <defs></defs>
    <g id="Privacy-&amp;-TOS" stroke="none" stroke-width="1" fill="none" fill-rule="evenodd">
        <g id="PP-option-1" transform="translate(-389.000000, -612.000000)">
            <g id="Group-3" transform="translate(389.000000, 612.000000)">
                <g id="Group-2">
                    <path d="M36.1272334,33 L36.1272334,18.744 C36.1272334,12.8141538 31.3595019,7.98092308 25.5100162,7.98092308 C19.6605306,7.98092308 14.8927991,12.8141538 14.8927991,18.744 L14.8927991,33 L7,33 L7,18.744 C7,8.40738462 15.2934488,0 25.4899838,0 C35.6865187,0 44,8.40738462 44,18.744 L44,33 L36.1272334,33" id="Fill-4" fill-opacity="0.8" fill="#245AAA"></path>
                    <polygon id="Fill-5" fill="#E4E4E4" points="4 69 46 69 46 36 4 36"></polygon>
                    <path d="M49.2592593,38 L0.740740741,38 C0.329218107,38 0,37.7494407 0,37.4362416 L0,31.5637584 C0,31.2505593 0.329218107,31 0.740740741,31 L49.2592593,31 C49.6707819,31 50,31.2505593 50,31.5637584 L50,37.4362416 C50,37.7494407 49.6707819,38 49.2592593,38" id="Fill-6" fill="#A9A9A9"></path>
                    <path d="M49.2592593,49 L0.740740741,49 C0.329218107,49 0,48.7494407 0,48.4362416 L0,42.5637584 C0,42.2505593 0.329218107,42 0.740740741,42 L49.2592593,42 C49.6707819,42 50,42.2505593 50,42.5637584 L50,48.4362416 C50,48.7494407 49.6707819,49 49.2592593,49" id="Fill-7" fill="#A9A9A9"></path>
                    <path d="M49.2592593,61 L0.740740741,61 C0.329218107,61 0,60.7494407 0,60.4362416 L0,54.5637584 C0,54.2505593 0.329218107,54 0.740740741,54 L49.2592593,54 C49.6707819,54 50,54.2505593 50,54.5637584 L50,60.4362416 C50,60.7494407 49.6707819,61 49.2592593,61" id="Fill-8" fill="#A9A9A9"></path>
                    <path d="M49.2592593,71 L0.740740741,71 C0.329218107,71 0,70.75 0,70.4375 L0,64.5625 C0,64.25 0.329218107,64 0.740740741,64 L49.2592593,64 C49.6707819,64 50,64.25 50,64.5625 L50,70.421875 C50,70.75 49.6707819,71 49.2592593,71" id="Fill-9" fill="#A9A9A9"></path>
                    <path d="M3.5,33 C4.32846154,33 5,33.6715385 5,34.5 C5,35.3284615 4.32846154,36 3.5,36 C2.67153846,36 2,35.3284615 2,34.5 C2,33.6715385 2.67153846,33 3.5,33" id="Fill-10" fill="#24D2AA"></path>
                    <path d="M9.5,33 C10.3284615,33 11,33.6715385 11,34.5 C11,35.3284615 10.3284615,36 9.5,36 C8.67153846,36 8,35.3284615 8,34.5 C8,33.6715385 8.67153846,33 9.5,33" id="Fill-11" fill="#E36A57"></path>
                    <path d="M3.5,44 C4.32846154,44 5,44.6715385 5,45.5 C5,46.3284615 4.32846154,47 3.5,47 C2.67153846,47 2,46.3284615 2,45.5 C2,44.6715385 2.67153846,44 3.5,44" id="Fill-12" fill="#24D2AA"></path>
                    <path d="M9.5,44 C10.3284615,44 11,44.6715385 11,45.5 C11,46.3284615 10.3284615,47 9.5,47 C8.67153846,47 8,46.3284615 8,45.5 C8,44.6715385 8.67153846,44 9.5,44" id="Fill-13" fill="#E36A57"></path>
                    <path d="M3.5,56 C4.32846154,56 5,56.6715385 5,57.5 C5,58.3284615 4.32846154,59 3.5,59 C2.67153846,59 2,58.3284615 2,57.5 C2,56.6715385 2.67153846,56 3.5,56" id="Fill-14" fill="#24D2AA"></path>
                    <path d="M9.5,56 C10.3284615,56 11,56.6715385 11,57.5 C11,58.3284615 10.3284615,59 9.5,59 C8.67153846,59 8,58.3284615 8,57.5 C8,56.6715385 8.67153846,56 9.5,56" id="Fill-15" fill="#E36A57"></path>
                    <path d="M3.5,66 C4.32846154,66 5,66.6715385 5,67.5 C5,68.3284615 4.32846154,69 3.5,69 C2.67153846,69 2,68.3284615 2,67.5 C2,66.6715385 2.67153846,66 3.5,66" id="Fill-16" fill="#24D2AA"></path>
                    <path d="M9.5,66 C10.3284615,66 11,66.6715385 11,67.5 C11,68.3284615 10.3284615,69 9.5,69 C8.67153846,69 8,68.3284615 8,67.5 C8,66.6715385 8.67153846,66 9.5,66" id="Fill-17" fill="#E36A57"></path>
                </g>
            </g>
        </g>
    </g>
</svg>