<svg version="1.1" id="ClaimFoundLogo" xmlns="http://www.w3.org/2000/svg" xmlns:xlink="http://www.w3.org/1999/xlink" x="0px"
       y="0px" width="65px" height="65px" viewBox="0 0 1000 1000" style="enable-background:new 0 0 1000 1000;" xml:space="preserve">
    <style type="text/css">
      .st0{fill:none;stroke:#F6F7F9;stroke-width:98.1207;stroke-miterlimit:10;}
      .st1{fill:none;stroke:#315C99;stroke-width:98.1207;stroke-miterlimit:10;}
      .st2{fill-rule:evenodd;clip-rule:evenodd;fill:#24D2AA;}
        html, body {
        height: 100%;
        }

        body{
        display: flex;
        align-items: center;
        justify-content: center;
        }



        #CircleBlue {
        stroke-dasharray: 2250;
        -webkit-animation: progress 3s ease-in-out infinite;
        animation: progress 3s ease-in-out infinite;
        }

        .st1 {
        -webkit-animation: spin 6s linear infinite;
        animation: spin 6s linear infinite;
        -webkit-transform-origin: center;
        -ms-transform-origin: center;
        transform-origin: center;
        }



        @-webkit-keyframes progress {
        0% {
            stroke-dashoffset: -2250;
        }
        50% {
            stroke-dashoffset: 0;
        }
        100% {
            stroke-dashoffset: 2250;
        }
        }



        @keyframes progress {
        0% {
            stroke-dashoffset: -2250;
        }
        50% {
            stroke-dashoffset: 0;
        }
        100% {
            stroke-dashoffset: 2250;
        }
        }

        @-webkit-keyframes spin {
        0% {
            -webkit-transform: rotate(0deg);
            transform: rotate(0deg);
        }

        100% {
            -webkit-transform: rotate(360deg);
            transform: rotate(360deg);
        }
        }

        @keyframes spin {
        0% {
            -webkit-transform: rotate(0deg);
            transform: rotate(0deg);
        }

        100% {
            -webkit-transform: rotate(360deg);
            transform: rotate(360deg);
        }
        }

    </style>
    <g id="CircleGrey">
      <path class="st0" d="M500,857.4c197.4,0,357.4-160,357.4-357.4S697.4,142.6,500,142.6S142.6,302.6,142.6,500S302.6,857.4,500,857.4
        L500,857.4z"/>
    </g>
    <g id="CircleBlue">
      <path class="st1" d="M500,857.4c197.4,0,357.4-160,357.4-357.4S697.4,142.6,500,142.6S142.6,302.6,142.6,500S302.6,857.4,500,857.4
        L500,857.4z"/>
    </g>
    <path id="CenterSymbal" class="st2" d="M662.3,349l-73.9,74c-21.1-21.4-50.3-34.6-82.7-34.6c-64.2,0-116.2,52-116.2,116.2
      c0,64.2,52,116.2,116.2,116.2c32.8,0,62.4-13.6,83.5-35.5l73.9,74c-40.1,40.8-95.8,66.1-157.5,66.1c-121.9,0-220.7-98.9-220.7-220.8
      c0-121.9,98.8-220.8,220.7-220.8C566.9,283.7,622.3,308.7,662.3,349L662.3,349z"/>
    </svg>