<?xml version="1.0" encoding="UTF-8"?>
<svg width="100px" height="117px" viewBox="0 0 100 117" version="1.1" xmlns="http://www.w3.org/2000/svg" xmlns:xlink="http://www.w3.org/1999/xlink">
    <!-- Generator: Sketch 51.3 (57544) - http://www.bohemiancoding.com/sketch -->
    <title>teamwork</title>
    <desc>Created with Sketch.</desc>
    <defs></defs>
    <g id="---▶︎--Graphics" stroke="none" stroke-width="1" fill="none" fill-rule="evenodd">
        <g id="Artboard-6" transform="translate(-1185.000000, -2081.000000)">
            <g id="teamwork" transform="translate(1185.000000, 2081.000000)">
                <g id="Group-3" transform="translate(2.000000, 9.000000)">
                    <polygon id="Clip-2" points="0.0111156082 0.0074015748 94.1121495 0.0074015748 94.1121495 94 0.0111156082 94"></polygon>
                </g>
                <g id="e-sign-documents-graphic" transform="translate(27.000000, 27.000000)">
                    <path d="M34.166695,0 L1.58331762,0 C0.750081646,0 0,0.669372079 0,1.58962592 L0,61.4103741 C0,62.2469299 0.666715731,63 1.58331762,63 L44.4166824,63 C45.2499184,63 46,62.3306279 46,61.4103741 L46,11.8804516 C46,11.4621737 45.8332682,11.0438958 45.5000161,10.7928016 L35.3333947,0.418277888 C34.999931,0.167396128 34.583313,0 34.166695,0" id="Fill-4" fill="#F4F4F1"></path>
                    <path d="M45.7889276,11.5352113 C45.965387,11.5352113 46.0536168,11.2708186 45.965387,11.1826131 L34.852695,0.0729734755 C34.6762355,-0.103213656 34.5,0.0729734755 34.5,0.249384479 L34.5,9.85997835 C34.5,10.7418095 35.20539,11.5352113 36.1756932,11.5352113 L45.7889276,11.5352113 Z" id="Fill-11" fill="#C7C6C1"></path>
                    <polygon id="Fill-12" fill-opacity="0.5" fill="#888A8D" points="4.42307692 9.76056338 27.4230769 9.76056338 27.4230769 6.21126761 4.42307692 6.21126761"></polygon>
                    <polygon id="Fill-13" fill="#D8D8D2" points="4.42307692 18.6338028 43.3461538 18.6338028 43.3461538 16.8591549 4.42307692 16.8591549"></polygon>
                    <polygon id="Fill-14" fill="#D8D8D2" points="4.42307692 22.1830986 43.3461538 22.1830986 43.3461538 20.4084507 4.42307692 20.4084507"></polygon>
                    <polygon id="Fill-15" fill="#D8D8D2" points="4.42307692 27.5070423 32.7307692 27.5070423 32.7307692 25.7323944 4.42307692 25.7323944"></polygon>
                    <polygon id="Fill-16" fill="#D8D8D2" points="4.42307692 31.943662 38.9230769 31.943662 38.9230769 30.1690141 4.42307692 30.1690141"></polygon>
                    <polygon id="Fill-17" fill="#D8D8D2" points="4.42307692 36.3802817 41.5769231 36.3802817 41.5769231 34.6056338 4.42307692 34.6056338"></polygon>
                    <polygon id="Fill-18" fill="#D8D8D2" points="4.42307692 41.7042254 32.7307692 41.7042254 32.7307692 39.9295775 4.42307692 39.9295775"></polygon>
                    <polygon id="Fill-19" fill="#D8D8D2" points="4.42307692 45.2535211 43.3461538 45.2535211 43.3461538 43.4788732 4.42307692 43.4788732"></polygon>
                    <polygon id="Fill-20" fill="#24D2AA" points="13.9466948 54.3626369 14.5345856 52.7621086 13.1067594 52.2566898 13.1067594 50.7404336 11.5111167 50.7404336 10.839211 49.3082356 9.49561291 49.8979265 8.40384615 48.8028169 7.3120794 49.9821986 5.7164367 49.3925077 5.21256076 50.7404336 3.78473455 50.7404336 3.78473455 52.4252341 2.27310671 53.099197 2.86099752 54.446909 1.76923077 55.4577465 2.94501239 56.6371282 2.35712158 58.1533844 3.78473455 58.7430752 3.78473455 60.1752732 5.38037725 60.1752732 6.05228292 61.6915294 7.39609426 61.1018386 8.40384615 62.1126761 9.57962777 60.9332944 11.0912556 61.6072573 11.6791464 60.1752732 13.1067594 60.1752732 13.1067594 58.5747449 14.6183872 57.9007819 14.0307096 56.5528561 15.0384615 55.4577465"></polygon>
                    <path d="M8.40384615,50.5774648 C11.0909578,50.5774648 13.2692308,52.7624073 13.2692308,55.4577465 C13.2692308,58.1530857 11.0909578,60.3380282 8.40384615,60.3380282 C5.71673447,60.3380282 3.53846154,58.1530857 3.53846154,55.4577465 C3.53846154,52.7624073 5.71673447,50.5774648 8.40384615,50.5774648" id="Fill-21" fill="#91E8D4"></path>
                    <path d="M25.7726973,58.9484654 C25.5197668,58.529756 25.6883157,57.860246 26.1100094,57.5252784 C26.1943909,57.4415365 26.363154,57.3580072 26.4475356,57.2742653 C26.5319171,57.2742653 26.5319171,57.1905234 26.6162987,57.1905234 C27.0379923,56.8557684 27.2065412,56.2697877 27.3753043,55.6838071 C27.7128306,54.1768782 27.9657611,52.6701618 28.1345242,50.9122198 C28.1345242,50.7449486 28.3030731,50.5774648 28.4718362,50.5774648 C28.6405993,50.5774648 28.8093625,50.6612067 28.8935298,50.9122198 C29.2310561,52.3354068 29.4839866,53.7583813 29.7371312,55.1815683 C29.9058943,55.0140845 30.0744433,54.9303426 30.3275879,54.7628588 C30.4961369,54.5955876 30.7492815,54.6793295 30.8336631,54.7628588 C30.8336631,54.7628588 30.8336631,54.7628588 30.8336631,54.8466007 L32.0989581,54.0933488 C32.1831255,54.0096069 32.3518886,54.0096069 32.5206517,54.0933488 C32.6050333,54.1768782 32.6892006,54.2606201 32.6892006,54.4281038 C32.6892006,54.5955876 32.6892006,54.6793295 32.6892006,54.8466007 C32.7735822,54.8466007 32.8579638,54.8466007 32.8579638,54.9303426 C32.9423453,55.0140845 33.0267269,55.1815683 33.0267269,55.2650976 C33.0267269,55.3488395 33.0267269,55.4325814 32.9423453,55.6000652 C33.6171836,55.0978264 34.2076403,54.5955876 34.798097,54.0933488 C36.1475594,52.9213875 37.5816175,51.7494261 39.2683919,50.9122198 C39.437155,50.8286905 39.6902997,50.9122198 39.7746813,51.0797036 C39.8588487,51.2471873 39.7746813,51.4982005 39.6059182,51.5819424 C38.0876927,52.4191487 36.6536346,53.5908975 35.3041722,54.679117 C34.2920219,55.5163233 33.2796574,56.3533171 32.0989581,57.1067815 C31.8458134,57.3580072 31.5085014,57.6090203 31.1709752,57.860246 C30.4961369,58.2787429 29.6527497,58.529756 28.7249809,58.6134979 C28.5562178,58.6134979 28.3874547,58.6134979 28.3030731,58.6134979 C28.0501426,58.6134979 27.8813795,58.4462267 27.8813795,58.195001 C27.8813795,57.9437753 28.0501426,57.7765041 28.2189057,57.7765041 C28.3874547,57.7765041 28.4718362,57.7765041 28.6405993,57.7765041 C29.0622929,57.6927622 29.4839866,57.5252784 30.0744433,57.2742653 C30.4119695,57.1067815 30.6649,56.9392978 31.0024262,56.7720265 C30.9180447,56.6882846 30.9180447,56.6045427 31.0024262,56.5208009 C31.0865936,56.0185621 31.3397383,55.6000652 31.7614319,55.2650976 C31.7614319,55.1815683 31.7614319,55.1815683 31.7614319,55.0978264 L31.0865936,55.5163233 C31.0024262,55.6000652 30.7492815,55.6838071 30.4961369,55.6838071 C30.4119695,55.6838071 30.4119695,55.6838071 30.3275879,55.6000652 C29.9058943,55.9348202 29.399605,56.2697877 28.8935298,56.6045427 C28.7249809,56.6882846 28.4718362,56.6882846 28.3874547,56.5208009 C28.3030731,56.437059 28.2189057,56.2697877 28.3030731,56.102304 C28.3030731,55.9348202 28.4718362,55.6838071 28.6405993,55.6000652 C28.7249809,55.6000652 28.7249809,55.5163233 28.8093625,55.5163233 L28.8935298,55.4325814 L28.8935298,55.3488395 C28.8093625,54.7628588 28.7249809,54.1768782 28.5562178,53.5073682 C28.4718362,54.3443619 28.3030731,55.1815683 28.0501426,55.9348202 C27.8813795,56.6882846 27.628449,57.4415365 26.9536107,57.860246 C26.8692292,57.9439879 26.7848476,57.9439879 26.7004661,58.0275172 C26.6162987,58.1112591 26.5319171,58.1112591 26.4475356,58.195001 C26.2787725,58.3624848 26.2787725,58.529756 26.2787725,58.6972398 C26.2787725,58.6972398 26.363154,58.7809817 26.4475356,58.7809817 C26.5319171,58.6134979 26.8692292,58.529756 27.0379923,58.6972398 C27.2067554,58.7809817 27.2909228,59.0322073 27.2067554,59.1994786 C27.2065412,59.3669623 26.9536107,59.4507042 26.6162987,59.4507042 C26.1943909,59.4507042 25.9414604,59.2832204 25.7726973,58.9484654 Z" id="Fill-22" fill-opacity="0.8" fill="#000000"></path>
                </g>
                <g id="Group-9" transform="translate(39.000000, 0.000000)">
                    <path d="M21.2410072,19.192248 C21.2410072,19.192248 21.8384523,24.9568177 19.2993106,27.3956742 C16.7601688,29.9084353 17.0588914,32.1994822 17.0588914,32.1994822 C16.9842107,32.7168154 16.6108075,33.0863391 16.3867656,33.2341486 C15.7146398,33.677577 14.6691109,33.5297676 14.445069,32.8646249 C13.9223045,31.4604348 14.1463464,29.6867211 14.6691109,27.9130073 L7.87317263,35.4512908 C7.27572751,36.1164335 6.30487919,36.1903382 5.63275343,35.5991003 C4.88594703,35.0078624 4.81126639,33.973196 5.40871151,33.2341486 L11.2338014,26.5088173 C11.3084821,26.4349125 11.3084821,26.3610078 11.2338014,26.2871031 C11.1591208,26.2131983 11.0844402,26.2131983 11.0097595,26.2871031 L4.51254383,33.677577 C3.98977935,34.268815 3.09361167,34.4905292 2.42148591,34.0471007 C2.34680527,34.0471007 2.34680527,33.973196 2.27212463,33.973196 C1.59999887,33.3819581 1.52531823,32.3472917 2.12276335,31.6821491 L8.32125647,24.6611988 C8.39593711,24.587294 8.39593711,24.5133893 8.32125647,24.4394846 C8.24657583,24.3655798 8.17189519,24.3655798 8.09721455,24.4394846 L3.31765359,29.8345306 C2.72020847,30.573578 1.59999887,30.573578 0.927873108,29.8345306 C0.405108628,29.2432927 0.479789268,28.3564358 1.00255375,27.7651979 L6.23019855,21.8528187 C6.30487919,21.7789139 6.30487919,21.7050092 6.23019855,21.6311044 C6.15551791,21.5571997 6.08083727,21.5571997 6.00615663,21.6311044 L2.64552783,25.3263414 C2.12276335,25.9175794 1.15191503,25.9914841 0.554469908,25.4741509 C-0.117655852,24.9568177 -0.192336492,23.9221514 0.405108628,23.2570087 L4.73658575,18.5271054 C6.60360175,16.5316774 8.69465967,14.6840589 10.9350789,13.1320594 L12.8767755,11.801774 C12.8767755,11.801774 14.221027,10.9149172 15.7893205,9.65853659 L22.4358974,16.3838679 C21.7637717,17.492439 21.2410072,18.5271054 21.2410072,19.192248" id="Fill-4" fill="#F4C8A5"></path>
                    <path d="M21.8717006,0 L14.3589744,7.6450799 L24.1482843,17.5609756 L35,6.50967199 C31.0539216,3.70899916 26.6525264,1.51387721 21.8717006,0" id="Fill-5" fill="#507BBB"></path>
                </g>
                <g id="Group-8" transform="translate(22.000000, 82.000000)">
                    <path d="M29.2879979,17.3873595 C27.4255064,19.4553089 25.339516,21.227837 23.1045263,22.7787991 L21.1675351,24.1081952 C21.1675351,24.1081952 19.8265413,24.9944593 18.2620485,26.25 L11.6315789,19.5291643 C12.3765755,18.4213342 12.8980731,17.3873595 12.8235735,16.7226614 C12.8235735,16.7226614 12.2275762,10.9619451 14.7605646,8.52471891 C17.2935529,6.01363742 16.9955543,3.72412194 16.9955543,3.72412194 C17.070054,3.20713458 17.4425523,2.83785789 17.6660512,2.69014721 C18.3365482,2.24701519 19.3795434,2.39472586 19.6030423,3.0594239 C20.1245399,4.46267532 19.901041,6.23520343 19.3795434,8.00773154 L26.0845126,0.548342414 C26.6805098,-0.116355627 27.6490054,-0.190210965 28.3195023,0.400631738 C29.0644989,0.991474441 29.1389985,2.02544917 28.5430013,2.76400255 L22.732028,9.4848383 C22.6575283,9.55869364 22.6575283,9.63254897 22.732028,9.70640431 C22.8065276,9.78025965 22.8810273,9.78025965 22.9555269,9.70640431 L29.4369972,2.32087052 C29.9584948,1.73002782 30.8524907,1.50846181 31.5229876,1.95159383 C31.5974872,1.95159383 31.5974872,2.02544917 31.6719869,2.02544917 C32.3424838,2.61629187 32.4169835,3.65026661 31.8209862,4.31496465 L25.6375146,11.3312217 C25.563015,11.4050771 25.563015,11.4789324 25.6375146,11.5527878 C25.7120143,11.6266431 25.7865139,11.6266431 25.8610136,11.5527878 L30.6289917,6.16134809 C31.224989,5.42279471 32.3424838,5.42279471 33.0129807,6.16134809 C33.5344783,6.7521908 33.4599787,7.63845485 32.9384811,8.22929755 L27.723505,14.1377246 C27.6490054,14.2115799 27.6490054,14.2854353 27.723505,14.3592906 C27.7980047,14.4331459 27.8725044,14.4331459 27.947004,14.3592906 L31.224989,10.6665237 C31.7464866,10.075681 32.7149821,10.0018257 33.3109794,10.518813 C34.1304756,11.0358004 34.2049753,11.9959198 33.608978,12.6606178 L29.2879979,17.3873595 Z" id="Fill-6" fill="#F4C8A5"></path>
                    <path d="M0,28.512931 C3.93421053,31.3038793 8.39802632,33.4913793 13.0888158,35 L20.5789474,27.3814655 L10.8190789,17.5 L0,28.512931" id="Fill-7" fill="#DF817F"></path>
                </g>
                <g id="Group-7" transform="translate(65.000000, 48.000000)">
                    <path d="M26.25,15.7893205 L19.5480205,22.4358974 C18.4432986,21.689091 17.4122249,21.1663266 16.7493917,21.2410072 C16.7493917,21.2410072 11.0048379,21.8384523 8.57444972,19.2993106 C6.07041342,16.7601688 3.78732151,17.0588914 3.78732151,17.0588914 C3.27178463,16.9842107 2.903544,16.6108075 2.75624775,16.3867656 C2.31435899,15.7146398 2.46165524,14.6691109 3.12448838,14.445069 C4.52380277,13.9223045 6.2913578,14.1463464 8.05891283,14.6691109 L0.546803961,7.87317263 C-0.116029175,7.27572751 -0.189677301,6.30487919 0.399507708,5.63275343 C0.988692718,4.88594703 2.01976648,4.81126639 2.75624775,5.40871151 L9.45822723,11.2338014 C9.53187536,11.3084821 9.60552348,11.3084821 9.67917161,11.2338014 C9.75281973,11.1591208 9.75281973,11.0844402 9.67917161,11.0097595 L2.31435899,4.51254383 C1.72517398,3.98977935 1.5042296,3.09361167 1.94611836,2.42148591 C1.94611836,2.34680527 2.01976648,2.34680527 2.01976648,2.27212463 C2.60895149,1.59999887 3.64002526,1.52531823 4.3028584,2.12276335 L11.2994304,8.32125647 C11.3730785,8.39593711 11.4467266,8.39593711 11.5203748,8.32125647 C11.5940229,8.24657583 11.5940229,8.17189519 11.5203748,8.09721455 L6.14406155,3.31765359 C5.40758029,2.72020847 5.40758029,1.59999887 6.14406155,0.927873108 C6.73324656,0.405108628 7.61702407,0.479789268 8.20620908,1.00255375 L14.0980592,6.23019855 C14.1717073,6.30487919 14.2453554,6.30487919 14.3190036,6.23019855 C14.3926517,6.15551791 14.3926517,6.08083727 14.3190036,6.00615663 L10.6365972,2.64552783 C10.0474122,2.12276335 9.97376411,1.15191503 10.489301,0.554469908 C11.0048379,-0.117655852 12.0359116,-0.192336492 12.6987448,0.405108628 L17.4122249,4.73658575 C19.4743724,6.60360175 21.2419274,8.69465967 22.7885381,10.9350789 L24.1142043,12.8767755 C24.1142043,12.8767755 24.9979819,14.1463464 26.25,15.7893205" id="Fill-8" fill="#F4C8A5"></path>
                    <path d="M35,21.8717006 L27.3814655,14.3589744 L17.5,24.1482843 L28.512931,35 C31.3038793,31.0539216 33.4913793,26.5766403 35,21.8717006 Z" id="Fill-9" fill="#FECF75"></path>
                </g>
                <g id="Group-6" transform="translate(0.000000, 34.000000)">
                    <path d="M35.6597069,28.4586432 C35.0670876,29.2032036 34.0300039,29.2776596 33.2892298,28.6820113 L26.5481857,22.8744405 C26.4741083,22.7999844 26.4000309,22.7999844 26.3259535,22.8744405 C26.251876,22.9488965 26.251876,23.0233525 26.3259535,23.0978086 L33.7336943,29.5754838 C34.3263136,30.096676 34.5485458,30.9901485 34.1040813,31.6602528 C34.1040813,31.7347088 34.0300039,31.7347088 34.0300039,31.8091649 C33.4373847,32.4792692 32.4003009,32.5537252 31.7336043,31.9580769 L24.6962505,25.7782259 C24.6221731,25.7037699 24.5480957,25.7037699 24.4740182,25.7782259 C24.3999408,25.8526819 24.3999408,25.927138 24.4740182,26.001594 L29.8816691,30.7667804 C30.6224431,31.3624286 30.6224431,32.4792692 29.8816691,33.1493735 C29.2890498,33.6705658 28.4001209,33.5961097 27.8075016,33.0749175 L21.881309,27.8629949 C21.8072315,27.7885389 21.7331541,27.7885389 21.6590767,27.8629949 C21.5849993,27.937451 21.5849993,28.011907 21.6590767,28.086363 L25.3629471,31.3624286 C25.9555664,31.8836209 26.0296438,32.8515494 25.511102,33.4471977 C24.9925601,34.117302 23.9554764,34.191758 23.3628571,33.5961097 L18.5478256,29.2776596 C16.5477356,27.4162587 14.6958004,25.3314897 13.1401748,23.0978086 L11.8067814,21.1619516 C11.8067814,21.1619516 10.9178525,19.821743 9.65853659,18.2581662 L16.3995807,11.6315789 C17.5107419,12.3761393 18.5478256,12.8973316 19.2145223,12.8228755 C19.2145223,12.8228755 24.9925601,12.2272272 27.4371146,14.7587325 C29.9557465,17.2902377 32.2521461,16.9924136 32.2521461,16.9924136 C32.770688,17.0668696 33.141075,17.4391498 33.2892298,17.6625179 C33.7336943,18.3326222 33.5855395,19.3750068 32.9188428,19.5983749 C31.511372,20.1195671 29.7335142,19.896199 27.9556564,19.3750068 L35.4374747,26.1505061 C36.1041714,26.7461544 36.1782488,27.7140829 35.6597069,28.4586432" id="Fill-10" fill="#F4C8A5"></path>
                    <path d="M0,13.1162522 L7.6450799,20.5789474 L17.5609756,10.8548294 L6.50967199,0 C3.70899916,3.99518026 1.51387721,8.36726431 0,13.1162522" id="Fill-11" fill="#24D2AA"></path>
                </g>
            </g>
        </g>
    </g>
</svg>