<?xml version="1.0" encoding="UTF-8"?>
<svg width="52px" height="59px" viewBox="0 0 52 59" version="1.1" xmlns="http://www.w3.org/2000/svg" xmlns:xlink="http://www.w3.org/1999/xlink">
    <!-- Generator: Sketch 51.3 (57544) - http://www.bohemiancoding.com/sketch -->
    <title>No-Data-Icon</title>
    <desc>Created with Sketch.</desc>
    <defs></defs>
    <g id="---▶︎--Claim-Forms" stroke="none" stroke-width="1" fill="none" fill-rule="evenodd">
        <g id="ClaimForm-Redesign---Multiple-Views" transform="translate(-1409.000000, -391.000000)">
            <g id="E-sign:-State-2---Desktop/Tablet" transform="translate(1082.000000, 254.000000)">
                <g id="SSN-Opt-out-modal" transform="translate(1.000000, 22.000000)">
                    <g id="Group-5" transform="translate(148.000000, 50.000000)">
                        <g id="No-Data-Icon" transform="translate(178.000000, 65.000000)">
                            <g id="review-documents-graphic">
                                <polygon id="Fill-4" fill="#F4F4F1" points="9.50570525 9.60874124 0.840897235 9.60874124 0.840897235 55.3580247 41.7464789 55.3580247 41.7464789 0.829561043 9.50570525 0.829561043"></polygon>
                                <polyline id="Fill-5" fill="#C7C6C1" points="10.0769243 0.681060365 0.637174702 10.028797 10.0769243 10.028797 10.0769243 0.681060365"></polyline>
                                <polyline id="Fill-5-Copy" fill="#C7C6C1" points="10.0769243 0.681060365 0.637174702 10.028797 10.0769243 10.028797 10.0769243 0.681060365"></polyline>
                                <g id="Group-2" transform="translate(36.619718, 37.148148)">
                                    <path d="M11.4221006,10.1975309 L11.4221006,5.79219753 C11.4221006,3.95977968 9.91210719,2.46623362 8.05951028,2.46623362 C6.20691338,2.46623362 4.69692001,3.95977968 4.69692001,5.79219753 L4.69692001,10.1975309 L2.1971831,10.1975309 L2.1971831,5.79219753 C2.1971831,2.59801709 4.82381021,0 8.05316577,0 C11.2825213,0 13.915493,2.59801709 13.915493,5.79219753 L13.915493,10.1975309 L11.4221006,10.1975309" id="Fill-4" fill-opacity="0.8" fill="#245AAA"></path>
                                    <polygon id="Fill-5" fill="#E4E4E4" points="1.46478873 21.1234568 14.6478873 21.1234568 14.6478873 10.9259259 1.46478873 10.9259259"></polygon>
                                    <path d="M15.1524257,11.654321 L0.227856025,11.654321 C0.101269344,11.654321 0,11.5761041 0,11.4783329 L0,9.64512387 C0,9.54735272 0.101269344,9.4691358 0.227856025,9.4691358 L15.1524257,9.4691358 C15.2790123,9.4691358 15.3802817,9.54735272 15.3802817,9.64512387 L15.3802817,11.4783329 C15.3802817,11.5761041 15.2790123,11.654321 15.1524257,11.654321" id="Fill-6" fill="#A9A9A9"></path>
                                    <path d="M15.1524257,15.2962963 L0.227856025,15.2962963 C0.101269344,15.2962963 0,15.2180794 0,15.1203082 L0,13.2870992 C0,13.189328 0.101269344,13.1111111 0.227856025,13.1111111 L15.1524257,13.1111111 C15.2790123,13.1111111 15.3802817,13.189328 15.3802817,13.2870992 L15.3802817,15.1203082 C15.3802817,15.2180794 15.2790123,15.2962963 15.1524257,15.2962963" id="Fill-7" fill="#A9A9A9"></path>
                                    <path d="M15.1524257,18.9382716 L0.227856025,18.9382716 C0.101269344,18.9382716 0,18.8600547 0,18.7622835 L0,16.9290745 C0,16.8313033 0.101269344,16.7530864 0.227856025,16.7530864 L15.1524257,16.7530864 C15.2790123,16.7530864 15.3802817,16.8313033 15.3802817,16.9290745 L15.3802817,18.7622835 C15.3802817,18.8600547 15.2790123,18.9382716 15.1524257,18.9382716" id="Fill-8" fill="#A9A9A9"></path>
                                    <path d="M15.1524257,21.8518519 L0.227856025,21.8518519 C0.101269344,21.8518519 0,21.7738095 0,21.6762566 L0,19.8422619 C0,19.744709 0.101269344,19.6666667 0.227856025,19.6666667 L15.1524257,19.6666667 C15.2790123,19.6666667 15.3802817,19.744709 15.3802817,19.8422619 L15.3802817,21.671379 C15.3802817,21.7738095 15.2790123,21.8518519 15.1524257,21.8518519" id="Fill-9" fill="#A9A9A9"></path>
                                    <path d="M1.09859155,10.1975309 C1.30084507,10.1975309 1.46478873,10.3605793 1.46478873,10.5617284 C1.46478873,10.7628775 1.30084507,10.9259259 1.09859155,10.9259259 C0.896338028,10.9259259 0.732394366,10.7628775 0.732394366,10.5617284 C0.732394366,10.3605793 0.896338028,10.1975309 1.09859155,10.1975309" id="Fill-10" fill="#24D2AA"></path>
                                    <path d="M2.56338028,10.1975309 C2.7656338,10.1975309 2.92957746,10.3605793 2.92957746,10.5617284 C2.92957746,10.7628775 2.7656338,10.9259259 2.56338028,10.9259259 C2.36112676,10.9259259 2.1971831,10.7628775 2.1971831,10.5617284 C2.1971831,10.3605793 2.36112676,10.1975309 2.56338028,10.1975309" id="Fill-11" fill="#E36A57"></path>
                                    <path d="M1.09859155,13.8395062 C1.30084507,13.8395062 1.46478873,14.0025546 1.46478873,14.2037037 C1.46478873,14.4048528 1.30084507,14.5679012 1.09859155,14.5679012 C0.896338028,14.5679012 0.732394366,14.4048528 0.732394366,14.2037037 C0.732394366,14.0025546 0.896338028,13.8395062 1.09859155,13.8395062" id="Fill-12" fill="#24D2AA"></path>
                                    <path d="M2.56338028,13.8395062 C2.7656338,13.8395062 2.92957746,14.0025546 2.92957746,14.2037037 C2.92957746,14.4048528 2.7656338,14.5679012 2.56338028,14.5679012 C2.36112676,14.5679012 2.1971831,14.4048528 2.1971831,14.2037037 C2.1971831,14.0025546 2.36112676,13.8395062 2.56338028,13.8395062" id="Fill-13" fill="#E36A57"></path>
                                    <path d="M1.09859155,17.4814815 C1.30084507,17.4814815 1.46478873,17.6445299 1.46478873,17.845679 C1.46478873,18.0468281 1.30084507,18.2098765 1.09859155,18.2098765 C0.896338028,18.2098765 0.732394366,18.0468281 0.732394366,17.845679 C0.732394366,17.6445299 0.896338028,17.4814815 1.09859155,17.4814815" id="Fill-14" fill="#24D2AA"></path>
                                    <path d="M2.56338028,17.4814815 C2.7656338,17.4814815 2.92957746,17.6445299 2.92957746,17.845679 C2.92957746,18.0468281 2.7656338,18.2098765 2.56338028,18.2098765 C2.36112676,18.2098765 2.1971831,18.0468281 2.1971831,17.845679 C2.1971831,17.6445299 2.36112676,17.4814815 2.56338028,17.4814815" id="Fill-15" fill="#E36A57"></path>
                                    <path d="M1.09859155,20.3950617 C1.30084507,20.3950617 1.46478873,20.5581102 1.46478873,20.7592593 C1.46478873,20.9604084 1.30084507,21.1234568 1.09859155,21.1234568 C0.896338028,21.1234568 0.732394366,20.9604084 0.732394366,20.7592593 C0.732394366,20.5581102 0.896338028,20.3950617 1.09859155,20.3950617" id="Fill-16" fill="#24D2AA"></path>
                                    <path d="M2.56338028,20.3950617 C2.7656338,20.3950617 2.92957746,20.5581102 2.92957746,20.7592593 C2.92957746,20.9604084 2.7656338,21.1234568 2.56338028,21.1234568 C2.36112676,21.1234568 2.1971831,20.9604084 2.1971831,20.7592593 C2.1971831,20.5581102 2.36112676,20.3950617 2.56338028,20.3950617" id="Fill-17" fill="#E36A57"></path>
                                </g>
                                <polygon id="Fill-6" fill="#D8D8D2" points="5.56077204 40.3045267 37.0266041 40.3045267 37.0266041 38.7465706 5.56077204 38.7465706"></polygon>
                                <polygon id="Fill-7" fill="#D8D8D2" points="5.56077204 44.9783951 37.0266041 44.9783951 37.0266041 43.420439 5.56077204 43.420439"></polygon>
                                <polygon id="Fill-6" fill="#D8D8D2" points="5.56077204 25.7568587 37.0266041 25.7568587 37.0266041 24.1989026 5.56077204 24.1989026"></polygon>
                                <rect id="Rectangle-2" stroke="#D8D8D2" x="6.35915493" y="28.9074074" width="30.4929577" height="7.01234568"></rect>
                                <text id="23-2984" font-family="Graphik-Semibold, Graphik" font-size="5" font-weight="500" letter-spacing="0.5357142" fill="#9D9EA1">
                                    <tspan x="8.38776573" y="34.37981">23-2984</tspan>
                                </text>
                                <polygon id="Fill-7" fill="#D8D8D2" points="5.56077204 21.0829904 37.0266041 21.0829904 37.0266041 19.5250343 5.56077204 19.5250343"></polygon>
                                <polygon id="Fill-8" fill="#D8D8D2" points="5.56077204 49.6522634 22.8669797 49.6522634 22.8669797 48.0943073 5.56077204 48.0943073"></polygon>
                                <polygon id="Fill-8" fill="#D8D8D2" points="5.56077204 16.4091221 22.8669797 16.4091221 22.8669797 14.851166 5.56077204 14.851166"></polygon>
                            </g>
                        </g>
                    </g>
                </g>
            </g>
        </g>
    </g>
</svg>