<?xml version="1.0" encoding="UTF-8" standalone="no"?>
<svg width="502px" height="41px" viewBox="0 0 502 41" version="1.1" xmlns="http://www.w3.org/2000/svg" xmlns:xlink="http://www.w3.org/1999/xlink">
    <!-- Generator: Sketch 39.1 (31720) - http://www.bohemiancoding.com/sketch -->
    <title>Progress Bar</title>
    <desc>Created with Sketch.</desc>
    <defs>
        <path d="M477.834489,16 L345.165511,16 C344.953,15.4494655 344.70264,14.9177521 344.41762,14.4080499 C342.279702,10.5848045 338.191708,8 333.5,8 C328.182809,8 323.641032,11.3199399 321.834489,16 L189.165511,16 C188.953,15.4494655 188.70264,14.9177521 188.41762,14.4080499 C186.279702,10.5848045 182.191708,8 177.5,8 C172.182809,8 167.641032,11.3199399 165.834489,16 L33.5267405,16 C33.1606595,14.482051 32.5908853,13.0435186 31.8479629,11.7149478 C28.9403951,6.51533406 23.3807227,3 17,3 C7.61115925,3 0,10.6111593 0,20 C0,29.3888407 7.61115925,37 17,37 C24.1621784,37 30.2898812,32.5708832 32.793542,26.3022158 C32.8335897,26.2019444 32.8727101,26.1012024 32.9108927,26.0000002 L166.271896,26 C168.3066,30.1459658 172.570002,33 177.5,33 C182.429998,33 186.6934,30.1459658 188.728104,26 L322.271896,26 C324.3066,30.1459658 328.570002,33 333.5,33 C338.429998,33 342.6934,30.1459658 344.728104,26 L478.271896,26 C480.3066,30.1459658 484.570002,33 489.5,33 C494.766308,33 499.271971,29.7432965 501.112899,25.1339822 C501.685228,23.7009844 502,22.1372517 502,20.5 C502,18.2881485 501.425516,16.2104748 500.41762,14.4080499 C498.279702,10.5848045 494.191708,8 489.5,8 C484.182809,8 479.641032,11.3199399 477.834489,16 Z" id="path-1"></path>
        <filter x="-50%" y="-50%" width="200%" height="200%" filterUnits="objectBoundingBox" id="filter-2">
            <feGaussianBlur stdDeviation="0.5" in="SourceAlpha" result="shadowBlurInner1"></feGaussianBlur>
            <feOffset dx="1" dy="1" in="shadowBlurInner1" result="shadowOffsetInner1"></feOffset>
            <feComposite in="shadowOffsetInner1" in2="SourceAlpha" operator="arithmetic" k2="-1" k3="1" result="shadowInnerInner1"></feComposite>
            <feColorMatrix values="0 0 0 0 0   0 0 0 0 0   0 0 0 0 0  0 0 0 0.25 0" type="matrix" in="shadowInnerInner1"></feColorMatrix>
        </filter>
    </defs>
    <g id="Symbols" stroke="none" stroke-width="1" fill="none" fill-rule="evenodd">
        <g id="Desktop-HD" transform="translate(-140.000000, -140.000000)">
            <g id="Progress-Bar" transform="translate(140.000000, 139.000000)">
                <g id="Combined-Shape">
                    <use fill-opacity="0.15" fill="#888A8D" fill-rule="evenodd" xlink:href="#path-1"></use>
                    <use fill="black" fill-opacity="1" filter="url(#filter-2)" xlink:href="#path-1"></use>
                </g>
                <path d="M17.125,33.25 C24.3737373,33.25 30.25,27.3737373 30.25,20.125 C30.25,12.8762627 24.3737373,7 17.125,7 C9.87626266,7 4,12.8762627 4,20.125 C4,27.3737373 9.87626266,33.25 17.125,33.25 Z" id="Combined-Shape" fill-opacity="0.6" fill="#245AAA"></path>
                <path d="M482.150027,19 L340.849973,19 C340.155067,15.5766395 337.128437,13 333.5,13 C329.871563,13 326.844933,15.5766395 326.150027,19 L184.849973,19 C184.155067,15.5766395 181.128437,13 177.5,13 C173.871563,13 170.844933,15.5766395 170.150027,19 L30,19 L30,23 L170.426764,23 C171.456355,25.9129809 174.234453,28 177.5,28 C180.765547,28 183.543645,25.9129809 184.573236,23 L326.426764,23 C327.456355,25.9129809 330.234453,28 333.5,28 C336.765547,28 339.543645,25.9129809 340.573236,23 L482.426764,23 C483.456355,25.9129809 486.234453,28 489.5,28 C493.642136,28 497,24.6421356 497,20.5 C497,16.3578644 493.642136,13 489.5,13 C485.871563,13 482.844933,15.5766395 482.150027,19 Z" id="Combined-Shape" fill-opacity="0.4" fill="#888A8D"></path>
                <text id="Start" font-family="Lato-Regular, Lato" font-size="7" font-weight="normal" letter-spacing="0.291666657" fill="#FFFFFF">
                    <tspan x="9.11983336" y="23">Start</tspan>
                </text>
                <g id="Status" transform="translate(64.000000, 0.000000)" font-weight="normal" font-family="Lato-Regular, Lato" letter-spacing="0.37499997" font-size="9" fill-opacity="0.8">
                    <text id="Documentation" fill="#245AAA">
                        <tspan x="0.719500194" y="9">Documentation</tspan>
                    </text>
                    <text id="Not-Started" fill="#000000">
                        <tspan x="8.77600016" y="41">Not Started</tspan>
                    </text>
                    <text id="Not-Started" fill="#000000">
                        <tspan x="165.776" y="41">Not Started</tspan>
                    </text>
                    <text id="Not-Started" fill="#000000">
                        <tspan x="324.776" y="41">Not Started</tspan>
                    </text>
                    <text id="Claim-Forms" fill="#245AAA">
                        <tspan x="164.354" y="9">Claim Forms</tspan>
                    </text>
                    <text id="Final-Review" fill="#245AAA">
                        <tspan x="321.7885" y="9">Final Review</tspan>
                    </text>
                </g>
                <text id="3" font-family="Lato-Regular, Lato" font-size="7" font-weight="normal" letter-spacing="0.291666657" fill="#FFFFFF">
                    <tspan x="487.824167" y="23">3</tspan>
                </text>
                <text id="2" font-family="Lato-Regular, Lato" font-size="7" font-weight="normal" letter-spacing="0.291666657" fill="#FFFFFF">
                    <tspan x="331.824167" y="23">2</tspan>
                </text>
                <text id="1" font-family="Lato-Regular, Lato" font-size="7" font-weight="normal" letter-spacing="0.291666657" fill="#FFFFFF">
                    <tspan x="174.824167" y="23">1</tspan>
                </text>
            </g>
        </g>
    </g>
</svg>