<?xml version="1.0" encoding="UTF-8"?>
<svg width="75px" height="132px" viewBox="0 0 75 132" version="1.1" xmlns="http://www.w3.org/2000/svg" xmlns:xlink="http://www.w3.org/1999/xlink">
    <!-- Generator: Sketch 51.3 (57544) - http://www.bohemiancoding.com/sketch -->
    <title>Group</title>
    <desc>Created with Sketch.</desc>
    <defs>
        <filter x="-1.6%" y="-1.0%" width="103.5%" height="102.8%" filterUnits="objectBoundingBox" id="filter-1">
            <feOffset dx="0" dy="2" in="SourceAlpha" result="shadowOffsetOuter1"></feOffset>
            <feGaussianBlur stdDeviation="2" in="shadowOffsetOuter1" result="shadowBlurOuter1"></feGaussianBlur>
            <feColorMatrix values="0 0 0 0 0   0 0 0 0 0   0 0 0 0 0  0 0 0 0.1 0" type="matrix" in="shadowBlurOuter1" result="shadowMatrixOuter1"></feColorMatrix>
            <feMerge>
                <feMergeNode in="shadowMatrixOuter1"></feMergeNode>
                <feMergeNode in="SourceGraphic"></feMergeNode>
            </feMerge>
        </filter>
        <path d="M1.8931,18.9203056 C1.8931,18.9203056 3.99025,12.8830556 5.24865,12.0787222 C6.5065,11.2733333 11.12045,9.26144444 10.7008,8.85875 C10.28115,8.45605556 7.34525,9.66413889 6.92615,9.26144444 C6.5065,8.85875 8.18455,2.01716667 7.34525,0.406916667 C6.5065,-1.20227778 5.6683,3.22419444 5.24865,3.62688889 C4.829,4.02958333 1.8931,9.66413889 1.474,12.0787222 C1.05435,14.4933056 0.21615,17.3105833 0.21615,17.3105833 L1.8931,18.9203056" id="path-2"></path>
        <path d="M1.24013514,10.2864 C1.24013514,10.2864 10.2466486,8.25333333 11.4215676,7.03306667 C12.595973,5.8128 15.7289189,0.525866667 16.1207297,0.525866667 C16.512027,0.525866667 17.2951351,0.525866667 17.6864324,1.3392 C18.0782432,2.15253333 19.2531622,8.25333333 18.0782432,10.2864 C16.9033243,12.32 6.72240541,15.9802667 3.98127027,15.9802667 C1.24013514,15.9802667 -0.717378378,11.1002667 1.24013514,10.2864" id="path-4"></path>
        <path d="M6.6305,28.8379107 C2.818,28.4427857 0.149,17.780625 0.5305,16.2011607 C0.797,15.0991607 1.9945,15.3441071 3.5995,14.1079821 C4.2935,13.57925 5.0635,12.7693214 5.868,11.4627679 C8.537,7.11846429 13.4935,0.405482143 13.4935,0.405482143 L16.5435,5.14439286 C16.5435,5.14439286 8.156,14.2270893 7.393,15.8060357 C6.699,17.2436071 6.0055,21.2994643 5.887,24.099 C5.8755,24.3750179 5.868,24.6401607 5.868,24.88925 C5.868,27.6525357 10.4435,29.2325179 6.6305,28.8379107" id="path-6"></path>
        <path d="M16.7345806,21.4755814 C16.3161613,21.8649302 7.11696774,21.4755814 2.93496774,21.4755814 C-0.465032258,21.4755814 0.00329032258,18.6350233 0.300516129,15.6895814 C0.367419355,15.0106512 0.425548387,14.3276279 0.425548387,13.6727442 C0.425548387,10.1609302 1.68025806,0.407767442 1.68025806,0.407767442 L8.37112903,0.407767442 C8.37112903,0.407767442 4.60754839,15.2326977 6.69854839,16.403814 C7.37580645,16.781907 8.71441935,17.4096744 10.1945161,18.0926977 C13.2885161,19.5201395 17.0186452,21.2100465 16.7345806,21.4755814" id="path-8"></path>
        <path d="M7.02052941,14.8381034 C2.98376471,14.4434483 0.157764706,3.79396552 0.561705882,2.21637931 C0.843882353,1.11568966 2.11182353,1.36034483 3.81123529,0.125689655 C4.24694118,1.065 4.59847059,2.01155172 4.59847059,2.61103448 C4.59847059,4.18862069 5.00188235,10.1048276 5.00188235,10.1048276 L6.23329412,10.1048276 C6.22111765,10.3805172 6.21317647,10.6453448 6.21317647,10.8941379 C6.21317647,13.6541379 11.0578235,15.2322414 7.02052941,14.8381034" id="path-10"></path>
        <path d="M16.7345806,6.44807692 C16.3161613,6.85784615 7.11696774,6.44807692 2.93496774,6.44807692 C-0.465032258,6.44807692 0.00329032258,3.45853846 0.300516129,0.358615385 C0.300516129,0.358615385 2.51654839,2.75207692 6.28012903,3.57376923 C8.36290323,4.02876923 9.55016129,3.47469231 10.1945161,2.88776923 C13.2885161,4.39007692 17.0186452,6.16861538 16.7345806,6.44807692" id="path-12"></path>
        <path d="M16.7345806,6.44807692 C16.3161613,6.85784615 7.11696774,6.44807692 2.93496774,6.44807692 C-0.465032258,6.44807692 0.00329032258,3.45853846 0.300516129,0.358615385 C0.300516129,0.358615385 2.51654839,2.75207692 6.28012903,3.57376923 C8.36290323,4.02876923 9.55016129,3.47469231 10.1945161,2.88776923 C13.2885161,4.39007692 17.0186452,6.16861538 16.7345806,6.44807692" id="path-14"></path>
        <path d="M0.92,0.333272727 C0.92,0.333272727 4.3515,1.16563636 5.8765,1.99690909 C7.402,2.82927273 5.8765,5.74036364 5.8765,5.74036364 L0.1575,4.49290909 L0.92,0.333272727" id="path-16"></path>
        <path d="M10.50005,0.545066667 C10.50005,0.545066667 10.9197,5.01866667 10.50005,7.0528 C10.08095,9.08586667 8.82255,11.1194667 6.72595,10.7125333 L4.62825,15.9994667 L0.01485,13.9664 L2.95075,0.138666667 L10.50005,0.545066667" id="path-18"></path>
        <path d="M7.01485714,0.29398374 C7.01485714,0.29398374 -0.0442285714,7.43596748 0.347657143,11.4034472 C0.739542857,15.3714472 5.05388571,20.926439 5.05388571,26.0844228 C5.05388571,31.2424065 0.739542857,62.1903089 1.52434286,62.5873171 C2.30862857,62.9843252 9.93085714,65.0573008 16.0344,62.5873171 C19.9563429,60.9998049 15.642,54.6518374 16.0344,46.3198699 C16.4262857,37.9873821 17.6034857,2.67499187 17.6034857,2.67499187 L7.01485714,0.29398374" id="path-20"></path>
        <path d="M6.30421053,0.21883871 C6.30421053,0.21883871 14.7321053,1.79354839 15.5347368,4.54864516 C16.3373684,7.30322581 17.9426316,13.6005161 19.1468421,15.1747097 C20.3505263,16.7489032 19.1468421,19.8978065 17.9426316,20.6843871 C16.7389474,21.472 17.9426316,31.7047742 15.9357895,31.7047742 C13.9294737,31.7047742 3.61315789,28.4836129 1.54684211,29.3068387 C-0.518947368,30.1305806 2.29052632,25.8007742 2.29052632,23.4394839 C2.29052632,21.0781935 -0.920526316,8.87741935 0.685263158,6.12232258 C2.29052632,3.36722581 6.30421053,0.21883871 6.30421053,0.21883871" id="path-22"></path>
        <path d="M2.222,3.445 C2.222,3.445 4.21928571,0.013 5.01757143,0.3945 C5.81638095,0.776 7.81366667,0.013 8.61247619,0.776 C9.41180952,1.538 11.4085714,4.5885 10.210619,5.351 C9.01214286,6.114 2.62114286,8.02 1.42319048,7.6385 C0.224714286,7.2575 0.224714286,3.445 0.224714286,3.445 L2.222,3.445" id="path-24"></path>
        <path d="M16.8006216,18.8908571 C16.8006216,18.8908571 17.975027,20.104898 18.3668378,21.7227347 C18.7581351,23.341102 18.3668378,25.7691837 17.5837297,25.7691837 C16.8006216,25.7691837 4.26986486,26.1735102 3.09494595,25.3648571 C1.92054054,24.5551429 -0.428783784,18.8908571 0.745621622,12.4168571 C1.92054054,5.94285714 1.13743243,-0.126285714 5.05297297,0.278040816 C8.96902703,0.682897959 9.75213514,3.11044898 8.96902703,6.75257143 C8.18540541,10.3936327 6.6197027,17.6768163 8.57721622,18.486 C10.5352432,19.2951837 16.017,17.6768163 16.8006216,18.8908571" id="path-26"></path>
        <path d="M25.6970204,5.73622642 C25.2921633,8.45558491 20.0322041,8.84377358 19.223551,10.3975472 C18.4138367,11.9518302 15.5814286,21.2749811 13.1538776,23.2169434 C10.7263265,25.1599245 8.70310204,27.1018868 6.27555102,26.325 C3.84746939,25.5481132 2.22910204,26.7136981 0.610734694,25.1599245 C-1.00763265,23.6056415 1.8242449,24.7712264 3.84746939,22.440566 C5.87069388,20.1099057 7.89391837,15.0598868 8.29877551,11.9518302 C8.70310204,8.84377358 7.08473469,3.40556604 11.9398367,1.07439623 C15.1808163,-0.482943396 18.0620408,0.732566038 19.6199184,1.71169811 C20.3962041,2.20126415 20.8413878,2.62816981 20.8413878,2.62816981 C20.8413878,2.62816981 21.326898,2.66383019 21.9869796,2.79118868 C23.5124898,3.07901887 25.9803673,3.84062264 25.6970204,5.73622642" id="path-28"></path>
    </defs>
    <g id="---▶︎--Sign-Up-Pages" stroke="none" stroke-width="1" fill="none" fill-rule="evenodd">
        <g id="Claim-Results---Horizontal-Mobile" transform="translate(-358.000000, -392.000000)">
            <g id="Pick-Claims" filter="url(#filter-1)" transform="translate(23.000000, 320.000000)">
                <g id="Claim-Instructions">
                    <g id="Group" transform="translate(372.000000, 135.500000) scale(-1, 1) translate(-372.000000, -135.500000) translate(338.000000, 73.000000)">
                        <g id="Group-448" transform="translate(57.000000, 0.000000)">
                            <mask id="mask-3" fill="white">
                                <use xlink:href="#path-2"></use>
                            </mask>
                            <g id="Clip-447"></g>
                            <path d="M1.8931,18.9203056 C1.8931,18.9203056 3.99025,12.8830556 5.24865,12.0787222 C6.5065,11.2733333 11.12045,9.26144444 10.7008,8.85875 C10.28115,8.45605556 7.34525,9.66413889 6.92615,9.26144444 C6.5065,8.85875 8.18455,2.01716667 7.34525,0.406916667 C6.5065,-1.20227778 5.6683,3.22419444 5.24865,3.62688889 C4.829,4.02958333 1.8931,9.66413889 1.474,12.0787222 C1.05435,14.4933056 0.21615,17.3105833 0.21615,17.3105833 L1.8931,18.9203056" id="Fill-446" fill="#F1BA8E" mask="url(#mask-3)"></path>
                        </g>
                        <g id="Group-451" transform="translate(41.000000, 14.000000)">
                            <mask id="mask-5" fill="white">
                                <use xlink:href="#path-4"></use>
                            </mask>
                            <g id="Clip-450"></g>
                            <path d="M1.24013514,10.2864 C1.24013514,10.2864 10.2466486,8.25333333 11.4215676,7.03306667 C12.595973,5.8128 15.7289189,0.525866667 16.1207297,0.525866667 C16.512027,0.525866667 17.2951351,0.525866667 17.6864324,1.3392 C18.0782432,2.15253333 19.2531622,8.25333333 18.0782432,10.2864 C16.9033243,12.32 6.72240541,15.9802667 3.98127027,15.9802667 C1.24013514,15.9802667 -0.717378378,11.1002667 1.24013514,10.2864" id="Fill-449" fill="#747CB9" mask="url(#mask-5)"></path>
                        </g>
                        <g id="Group-457" transform="translate(0.000000, 94.000000)">
                            <mask id="mask-7" fill="white">
                                <use xlink:href="#path-6"></use>
                            </mask>
                            <g id="Clip-456"></g>
                            <path d="M6.6305,28.8379107 C2.818,28.4427857 0.149,17.780625 0.5305,16.2011607 C0.797,15.0991607 1.9945,15.3441071 3.5995,14.1079821 C4.2935,13.57925 5.0635,12.7693214 5.868,11.4627679 C8.537,7.11846429 13.4935,0.405482143 13.4935,0.405482143 L16.5435,5.14439286 C16.5435,5.14439286 8.156,14.2270893 7.393,15.8060357 C6.699,17.2436071 6.0055,21.2994643 5.887,24.099 C5.8755,24.3750179 5.868,24.6401607 5.868,24.88925 C5.868,27.6525357 10.4435,29.2325179 6.6305,28.8379107" id="Fill-455" fill="#F1BA8E" mask="url(#mask-7)"></path>
                        </g>
                        <g id="Group-460" transform="translate(31.000000, 103.000000)">
                            <mask id="mask-9" fill="white">
                                <use xlink:href="#path-8"></use>
                            </mask>
                            <g id="Clip-459"></g>
                            <path d="M16.7345806,21.4755814 C16.3161613,21.8649302 7.11696774,21.4755814 2.93496774,21.4755814 C-0.465032258,21.4755814 0.00329032258,18.6350233 0.300516129,15.6895814 C0.367419355,15.0106512 0.425548387,14.3276279 0.425548387,13.6727442 C0.425548387,10.1609302 1.68025806,0.407767442 1.68025806,0.407767442 L8.37112903,0.407767442 C8.37112903,0.407767442 4.60754839,15.2326977 6.69854839,16.403814 C7.37580645,16.781907 8.71441935,17.4096744 10.1945161,18.0926977 C13.2885161,19.5201395 17.0186452,21.2100465 16.7345806,21.4755814" id="Fill-458" fill="#F1BA8E" mask="url(#mask-9)"></path>
                        </g>
                        <g id="Group-463" transform="translate(0.000000, 108.000000)">
                            <mask id="mask-11" fill="white">
                                <use xlink:href="#path-10"></use>
                            </mask>
                            <g id="Clip-462"></g>
                            <path d="M7.02052941,14.8381034 C2.98376471,14.4434483 0.157764706,3.79396552 0.561705882,2.21637931 C0.843882353,1.11568966 2.11182353,1.36034483 3.81123529,0.125689655 C4.24694118,1.065 4.59847059,2.01155172 4.59847059,2.61103448 C4.59847059,4.18862069 5.00188235,10.1048276 5.00188235,10.1048276 L6.23329412,10.1048276 C6.22111765,10.3805172 6.21317647,10.6453448 6.21317647,10.8941379 C6.21317647,13.6541379 11.0578235,15.2322414 7.02052941,14.8381034" id="Fill-461" fill="#170F47" mask="url(#mask-11)"></path>
                        </g>
                        <g id="Group-466" transform="translate(31.000000, 118.000000)">
                            <mask id="mask-13" fill="white">
                                <use xlink:href="#path-12"></use>
                            </mask>
                            <g id="Clip-465"></g>
                            <path d="M16.7345806,6.44807692 C16.3161613,6.85784615 7.11696774,6.44807692 2.93496774,6.44807692 C-0.465032258,6.44807692 0.00329032258,3.45853846 0.300516129,0.358615385 C0.300516129,0.358615385 2.51654839,2.75207692 6.28012903,3.57376923 C8.36290323,4.02876923 9.55016129,3.47469231 10.1945161,2.88776923 C13.2885161,4.39007692 17.0186452,6.16861538 16.7345806,6.44807692" id="Fill-464" mask="url(#mask-13)"></path>
                        </g>
                        <g id="Group-466" transform="translate(31.000000, 118.000000)">
                            <mask id="mask-15" fill="white">
                                <use xlink:href="#path-14"></use>
                            </mask>
                            <g id="Clip-465"></g>
                            <path d="M16.7345806,6.44807692 C16.3161613,6.85784615 7.11696774,6.44807692 2.93496774,6.44807692 C-0.465032258,6.44807692 0.00329032258,3.45853846 0.300516129,0.358615385 C0.300516129,0.358615385 2.51654839,2.75207692 6.28012903,3.57376923 C8.36290323,4.02876923 9.55016129,3.47469231 10.1945161,2.88776923 C13.2885161,4.39007692 17.0186452,6.16861538 16.7345806,6.44807692" id="Fill-464" fill="#170F47" mask="url(#mask-15)"></path>
                        </g>
                        <g id="Group-454" transform="translate(39.000000, 18.000000)">
                            <mask id="mask-17" fill="white">
                                <use xlink:href="#path-16"></use>
                            </mask>
                            <g id="Clip-453"></g>
                            <path d="M0.92,0.333272727 C0.92,0.333272727 4.3515,1.16563636 5.8765,1.99690909 C7.402,2.82927273 5.8765,5.74036364 5.8765,5.74036364 L0.1575,4.49290909 L0.92,0.333272727" id="Fill-452" fill="#F1BA8E" mask="url(#mask-17)"></path>
                        </g>
                        <g id="Group-445" transform="translate(39.000000, 7.000000)">
                            <mask id="mask-19" fill="white">
                                <use xlink:href="#path-18"></use>
                            </mask>
                            <g id="Clip-444"></g>
                            <path d="M10.50005,0.545066667 C10.50005,0.545066667 10.9197,5.01866667 10.50005,7.0528 C10.08095,9.08586667 8.82255,11.1194667 6.72595,10.7125333 L4.62825,15.9994667 L0.01485,13.9664 L2.95075,0.138666667 L10.50005,0.545066667" id="Fill-443" fill="#F1BA8E" mask="url(#mask-19)"></path>
                        </g>
                        <g id="Group-472" transform="translate(27.000000, 49.000000)">
                            <mask id="mask-21" fill="white">
                                <use xlink:href="#path-20"></use>
                            </mask>
                            <g id="Clip-471"></g>
                            <path d="M7.01485714,0.29398374 C7.01485714,0.29398374 -0.0442285714,7.43596748 0.347657143,11.4034472 C0.739542857,15.3714472 5.05388571,20.926439 5.05388571,26.0844228 C5.05388571,31.2424065 0.739542857,62.1903089 1.52434286,62.5873171 C2.30862857,62.9843252 9.93085714,65.0573008 16.0344,62.5873171 C19.9563429,60.9998049 15.642,54.6518374 16.0344,46.3198699 C16.4262857,37.9873821 17.6034857,2.67499187 17.6034857,2.67499187 L7.01485714,0.29398374" id="Fill-470" fill="#464B50" mask="url(#mask-21)"></path>
                        </g>
                        <path d="M33.5717037,49 C33.5717037,49 26.4782427,56.1428821 26.4782427,58.920525 C26.4782427,61.6976476 27.6606585,68.0464715 26.4782427,70.8241144 C25.295827,73.601237 21.7496133,83.5212417 19.7790926,85.5053467 C17.8085719,87.4894517 10.3208001,95.0283223 9.13890118,96.6153981 C7.95648542,98.2029943 14.6561523,110.106584 16.626673,108.916537 C18.5966769,107.72597 37.1184341,76.7759091 39.4827489,72.4106699 C41.8470636,68.0464715 45,52.1746721 45,52.1746721 L33.5717037,49" id="Fill-467" fill="#6B6F73"></path>
                        <g id="Group-475" transform="translate(32.000000, 21.000000)">
                            <mask id="mask-23" fill="white">
                                <use xlink:href="#path-22"></use>
                            </mask>
                            <g id="Clip-474"></g>
                            <path d="M6.30421053,0.21883871 C6.30421053,0.21883871 14.7321053,1.79354839 15.5347368,4.54864516 C16.3373684,7.30322581 17.9426316,13.6005161 19.1468421,15.1747097 C20.3505263,16.7489032 19.1468421,19.8978065 17.9426316,20.6843871 C16.7389474,21.472 17.9426316,31.7047742 15.9357895,31.7047742 C13.9294737,31.7047742 3.61315789,28.4836129 1.54684211,29.3068387 C-0.518947368,30.1305806 2.29052632,25.8007742 2.29052632,23.4394839 C2.29052632,21.0781935 -0.920526316,8.87741935 0.685263158,6.12232258 C2.29052632,3.36722581 6.30421053,0.21883871 6.30421053,0.21883871" id="Fill-473" fill="#515BA8" mask="url(#mask-23)"></path>
                        </g>
                        <g id="Group-481" transform="translate(51.000000, 39.000000)">
                            <mask id="mask-25" fill="white">
                                <use xlink:href="#path-24"></use>
                            </mask>
                            <g id="Clip-480"></g>
                            <path d="M2.222,3.445 C2.222,3.445 4.21928571,0.013 5.01757143,0.3945 C5.81638095,0.776 7.81366667,0.013 8.61247619,0.776 C9.41180952,1.538 11.4085714,4.5885 10.210619,5.351 C9.01214286,6.114 2.62114286,8.02 1.42319048,7.6385 C0.224714286,7.2575 0.224714286,3.445 0.224714286,3.445 L2.222,3.445" id="Fill-479" fill="#F1BA8E" mask="url(#mask-25)"></path>
                        </g>
                        <g id="Group-484" transform="translate(36.000000, 24.000000)">
                            <mask id="mask-27" fill="white">
                                <use xlink:href="#path-26"></use>
                            </mask>
                            <g id="Clip-483"></g>
                            <path d="M16.8006216,18.8908571 C16.8006216,18.8908571 17.975027,20.104898 18.3668378,21.7227347 C18.7581351,23.341102 18.3668378,25.7691837 17.5837297,25.7691837 C16.8006216,25.7691837 4.26986486,26.1735102 3.09494595,25.3648571 C1.92054054,24.5551429 -0.428783784,18.8908571 0.745621622,12.4168571 C1.92054054,5.94285714 1.13743243,-0.126285714 5.05297297,0.278040816 C8.96902703,0.682897959 9.75213514,3.11044898 8.96902703,6.75257143 C8.18540541,10.3936327 6.6197027,17.6768163 8.57721622,18.486 C10.5352432,19.2951837 16.017,17.6768163 16.8006216,18.8908571" id="Fill-482" fill="#747CB9" mask="url(#mask-27)"></path>
                        </g>
                        <g id="Group-487" transform="translate(27.000000, 2.000000)">
                            <mask id="mask-29" fill="white">
                                <use xlink:href="#path-28"></use>
                            </mask>
                            <g id="Clip-486"></g>
                            <path d="M25.6970204,5.73622642 C25.2921633,8.45558491 20.0322041,8.84377358 19.223551,10.3975472 C18.4138367,11.9518302 15.5814286,21.2749811 13.1538776,23.2169434 C10.7263265,25.1599245 8.70310204,27.1018868 6.27555102,26.325 C3.84746939,25.5481132 2.22910204,26.7136981 0.610734694,25.1599245 C-1.00763265,23.6056415 1.8242449,24.7712264 3.84746939,22.440566 C5.87069388,20.1099057 7.89391837,15.0598868 8.29877551,11.9518302 C8.70310204,8.84377358 7.08473469,3.40556604 11.9398367,1.07439623 C15.1808163,-0.482943396 18.0620408,0.732566038 19.6199184,1.71169811 C20.3962041,2.20126415 20.8413878,2.62816981 20.8413878,2.62816981 C20.8413878,2.62816981 21.326898,2.66383019 21.9869796,2.79118868 C23.5124898,3.07901887 25.9803673,3.84062264 25.6970204,5.73622642" id="Fill-485" fill="#233770" mask="url(#mask-29)"></path>
                        </g>
                    </g>
                </g>
            </g>
        </g>
    </g>
</svg>