<?xml version="1.0" encoding="UTF-8" standalone="no"?>
<svg width="44px" height="181px" viewBox="0 0 44 181" version="1.1" xmlns="http://www.w3.org/2000/svg" xmlns:xlink="http://www.w3.org/1999/xlink">
    <!-- Generator: Sketch 39.1 (31720) - http://www.bohemiancoding.com/sketch -->
    <title>Group</title>
    <desc>Created with Sketch.</desc>
    <defs></defs>
    <g id="Symbols" stroke="none" stroke-width="1" fill="none" fill-rule="evenodd">
        <g id="Desktop-HD" transform="translate(-847.000000, -237.000000)">
            <g id="Group" transform="translate(849.000000, 239.000000)">
                <path d="M20,177 C31.045695,177 40,168.045695 40,157 C40,145.954305 31.045695,137 20,137 C8.954305,137 0,145.954305 0,157 C0,168.045695 8.954305,177 20,177 Z M19,39.975435 C8.41888847,39.4544037 0,30.7103702 0,20 C0,8.954305 8.954305,0 20,0 C31.045695,0 40,8.954305 40,20 C40,31.045695 31.045695,40 20,40 L20,67 L19,67 L19,39.975435 Z M19.0535714,110 L20.0535714,110 L20.0535714,136 L19.0535714,136 L19.0535714,110 Z M20,109 C31.045695,109 40,100.045695 40,89 C40,77.954305 31.045695,69 20,69 C8.954305,69 0,77.954305 0,89 C0,100.045695 8.954305,109 20,109 Z" id="Combined-Shape" stroke-opacity="0.8" stroke="#245AAA" stroke-width="3"></path>
                <g id="Checkbox" transform="translate(11.000000, 13.000000)" stroke="#24D2AA" stroke-width="3" stroke-linecap="square">
                    <path d="M0,10.1111111 L6.01394351,15.0608589" id="Line"></path>
                    <path d="M6.75,15.6666667 L17.0650554,0.385103112" id="Line"></path>
                </g>
                <g id="Checkbox" transform="translate(11.000000, 83.000000)" stroke="#24D2AA" stroke-width="3" stroke-linecap="square">
                    <path d="M0,10.1111111 L6.01394351,15.0608589" id="Line"></path>
                    <path d="M6.75,15.6666667 L17.0650554,0.385103112" id="Line"></path>
                </g>
                <text id="3" font-family="Lato-Regular, Lato" font-size="28" font-weight="normal" letter-spacing="0.378000081" fill-opacity="0.8" fill="#245AAA">
                    <tspan x="11" y="167">3</tspan>
                </text>
            </g>
        </g>
    </g>
</svg>