<?xml version="1.0" encoding="UTF-8" standalone="no"?>
<svg width="433px" height="597px" viewBox="0 0 433 597" version="1.1" xmlns="http://www.w3.org/2000/svg" xmlns:xlink="http://www.w3.org/1999/xlink">
    <!-- Generator: Sketch 49.3 (51167) - http://www.bohemiancoding.com/sketch -->
    <title>Group 18</title>
    <desc>Created with Sketch.</desc>
    <defs>
        <polygon id="path-1" points="0.130424645 0.0613576037 28.9304265 0.0613576037 28.9304265 24.8184498 0.130424645 24.8184498"></polygon>
        <polygon id="path-3" points="0 0.0613036866 12.8736796 0.0613036866 12.8736796 15.2084005 0 15.2084005"></polygon>
        <polygon id="path-5" points="0 0.144086455 71.3886242 0.144086455 71.3886242 155.773328 0 155.773328"></polygon>
        <polygon id="path-7" points="0.0926089043 0.14597464 71.4812522 0.14597464 71.4812522 155.775216 0.0926089043 155.775216"></polygon>
        <polygon id="path-9" points="0.0125566125 0.201069131 29.2182295 0.201069131 29.2182295 62.0998152 0.0125566125 62.0998152"></polygon>
        <polygon id="path-11" points="0.331091415 0.398613678 87.5826787 0.398613678 87.5826787 63.1370919 0.331091415 63.1370919"></polygon>
        <polygon id="path-13" points="0.423051697 0.191316073 53.5875008 0.191316073 53.5875008 76.5664639 0.423051697 76.5664639"></polygon>
        <polygon id="path-15" points="0.0938234483 0.178247811 55.4538786 0.178247811 55.4538786 17.5707071 0.0938234483 17.5707071"></polygon>
        <polygon id="path-17" points="0.247456552 0.00727575758 55.6075117 0.00727575758 55.6075117 23.7575758 0.247456552 23.7575758"></polygon>
        <polygon id="path-19" points="0.0944193103 0.191792929 55.4544745 0.191792929 55.4544745 13.8086949 0.0944193103 13.8086949"></polygon>
    </defs>
    <g id="Customer-Stories" stroke="none" stroke-width="1" fill="none" fill-rule="evenodd">
        <g id="customer-stories" transform="translate(-178.000000, -150.000000)">
            <g id="Group-18" transform="translate(178.000000, 150.000000)">
                <g id="Page-1" transform="translate(395.000000, 544.000000)">
                    <path d="M12.8736436,10.009323 L4.29536872,15.3268023 L14.1325062,23.7829728 C14.1326863,23.7829728 14.1326863,23.7831525 14.1328664,23.7833323 L23.6409706,31.9567977 L27.6401555,22.7030143 L20.2569896,16.3560788 L12.8736436,10.009323 Z" id="Fill-1" fill="#D8E7A6"></path>
                    <polygon id="Fill-3" fill="#D0D769" points="23.6409886 31.9568336 36.911273 34.3077968 37.7452919 27.1959581 37.9351118 24.9368336 27.6401735 22.7030502"></polygon>
                    <g id="Group-7" transform="translate(9.004739, 0.118438)">
                        <mask id="mask-2" fill="white">
                            <use xlink:href="#path-1"></use>
                        </mask>
                        <g id="Clip-6"></g>
                        <path d="M11.2521782,16.2377309 L18.6353441,22.5844866 L28.9304626,24.8184498 L25.5994294,14.5075327 L18.0968607,8.05815484 C18.0965005,8.05797512 18.0965005,8.05779539 18.0961403,8.05743594 L10.8419223,1.82156959 L0.130424645,0.0613576037 L3.86883223,9.89097512 L11.2521782,16.2377309 Z" id="Fill-5" fill="#C5DD8E" mask="url(#mask-2)"></path>
                    </g>
                    <polygon id="Fill-8" fill="#D8E483" points="0.764016114 38.9386783 36.9112009 34.3077429 23.6409166 31.9567797"></polygon>
                    <path d="M16.0217725,25.4144848 C16.0217725,25.4144848 16.0217725,25.4144848 16.0217725,25.4144848 L4.29526066,15.3267843 L0.763962085,38.9386783 L23.6410427,31.9567797 L16.0217725,25.4144848 Z" id="Fill-10" fill="#B6D890"></path>
                    <g id="Group-14" transform="translate(0.000000, 0.118438)">
                        <mask id="mask-4" fill="white">
                            <use xlink:href="#path-3"></use>
                        </mask>
                        <g id="Clip-13"></g>
                        <polygon id="Fill-12" fill="#EBF2D7" mask="url(#mask-4)" points="9.13509194 0.0613036866 -3.60189573e-05 2.4595341 4.29522464 15.2084005 12.8736796 9.8909212"></polygon>
                    </g>
                    <polygon id="Fill-15" fill="#D8E483" points="3.60189573e-05 2.57800783 0.763998104 38.9385885 4.29529668 15.3268742"></polygon>
                    <path d="M3.83538863,13.8786442 C3.83538863,13.8786442 5.42634597,14.4999484 6.67152133,13.8786442 C6.67152133,13.8786442 5.5185545,15.328294 6.25640284,16.985165 C6.25640284,16.985165 4.22727488,16.2028286 3.97370142,17.6754829 C3.97370142,17.6754829 4.4579763,14.8451972 3.83538863,13.8786442" id="Fill-17" fill="#FEFEFE"></path>
                </g>
                <g id="Page-1" transform="translate(0.000000, 430.000000)">
                    <g id="Group-3" transform="translate(0.000000, 0.080697)">
                        <mask id="mask-6" fill="white">
                            <use xlink:href="#path-5"></use>
                        </mask>
                        <g id="Clip-2"></g>
                        <path d="M64.5347838,155.773328 L5.283075,155.76591 C5.283075,155.76591 -7.16353067,116.800976 6.15195387,74.5132876 C19.4674384,32.2255988 4.8731884,0.143996542 4.8731884,0.143996542 L64.1248972,0.151639193 C64.1248972,0.151639193 79.5788327,23.6802156 65.4041111,69.7692242 C51.2296137,115.858008 64.5347838,155.773328 64.5347838,155.773328" id="Fill-1" fill="#81A260" mask="url(#mask-6)"></path>
                    </g>
                    <path d="M72.7228964,155.854902 L13.4749995,155.847484 C13.4749995,155.847484 0.634875773,117.039225 13.5218629,74.5894669 C26.4086258,32.1394841 11.4979918,0.225570605 11.4979918,0.225570605 L70.7461129,0.233213256 C70.7461129,0.233213256 86.4298809,22.8498415 72.7224479,69.1114841 C59.0147907,115.372902 72.7228964,155.854902 72.7228964,155.854902" id="Fill-4" fill="#8BB167"></path>
                    <g id="Group-8" transform="translate(15.471649, 0.080697)">
                        <mask id="mask-8" fill="white">
                            <use xlink:href="#path-7"></use>
                        </mask>
                        <g id="Clip-7"></g>
                        <path d="M64.6274119,155.775306 L5.37570309,155.767888 C5.37570309,155.767888 -7.07090258,116.802954 6.24458196,74.5152657 C19.5600665,32.2275769 4.96581649,0.14597464 4.96581649,0.14597464 L64.2175253,0.153617291 C64.2175253,0.153617291 79.6714608,23.6821937 65.4967392,69.7712023 C51.3222418,115.859986 64.6274119,155.775306 64.6274119,155.775306" id="Fill-6" fill="#99C577" mask="url(#mask-8)"></path>
                    </g>
                    <path d="M6.15193144,74.593985 C7.10668918,71.5614259 7.90314278,68.5891089 8.58658608,65.6698409 L24.1508412,65.671864 C23.4673979,68.591132 22.6709443,71.563449 21.7161866,74.5960081 C19.8537588,80.5109706 18.5101918,86.3546767 17.5511737,92.0423827 L1.98691856,92.0403597 C2.9459366,86.3528784 4.28950361,80.5089476 6.15193144,74.593985" id="Fill-9" fill="#DFC3A5"></path>
                    <path d="M44.3227106,23.6620081 L44.995391,23.6620081 C44.9942698,31.691962 49.7214193,38.2250801 55.5329296,38.2259793 L55.5340508,38.2259793 C58.3093059,38.2259793 60.9325353,36.7388092 62.9200817,34.0382559 C64.9533704,31.2756622 66.0733832,27.5916795 66.0740559,23.6649303 C66.0745044,19.7379562 64.9553884,16.0535239 62.9227724,13.2904807 C60.9354503,10.589253 58.3124451,9.10140865 55.5365173,9.10118386 L55.5353961,9.10118386 C52.7599168,9.10118386 50.1369116,10.5883539 48.149141,13.2889072 C46.1160765,16.0515009 44.9958394,19.7352588 44.995391,23.6620081 L44.3227106,23.6620081 Z M55.5340508,39.5746824 L55.5327054,39.5746824 C48.9794528,39.5737833 43.648909,32.4353222 43.6500302,23.6620081 C43.6504786,19.4491089 44.8639941,15.4807746 47.0667982,12.4880023 C49.3144477,9.43431354 52.322226,7.75248069 55.5353961,7.75248069 L55.5367415,7.75248069 C58.7505843,7.75293026 61.7581384,9.43521268 64.0055637,12.4902501 C66.2074709,15.4832473 67.4198652,19.4520311 67.4194168,23.6649303 C67.4187441,27.8780542 66.2054528,31.8461637 64.0028729,34.8391608 C61.7549992,37.8928496 58.7472209,39.5746824 55.5340508,39.5746824 Z" id="Fill-11" fill="#7FA260"></path>
                    <path d="M35.6433394,131.284969 C35.6424425,139.314923 40.369592,145.848041 46.1808781,145.848941 C51.9923884,145.849615 56.7208832,139.317396 56.7220044,131.287892 C56.7231255,123.257938 51.995976,116.72482 46.1844657,116.72392 C40.3731796,116.723246 35.6444606,123.25524 35.6433394,131.284969 M46.181775,147.197644 L46.1806539,147.197644 C39.6276255,147.196745 34.2970817,140.058284 34.2979786,131.284969 C34.2990997,122.512105 39.6309889,115.375217 46.183793,115.375217 L46.1846899,115.375217 C52.7379425,115.376116 58.0684863,122.514353 58.0673652,131.287892 C58.0662441,140.060756 52.7343549,147.197644 46.181775,147.197644" id="Fill-13" fill="#7FA260"></path>
                    <path d="M65.4568716,101.68352 L65.4591139,101.68352 L65.4568716,101.68352 Z M30.9595778,107.049785 L59.1195495,107.053606 C59.5852686,103.98733 61.901083,101.556742 64.8081835,101.080425 C65.1317428,93.3085228 65.8900778,83.2031395 67.6641603,77.9344305 C68.3626268,75.8596755 69.1521294,73.8379695 69.9158459,71.8830242 C71.6531552,67.4345516 73.4478665,62.8392951 74.5207918,56.8697101 C71.81415,56.0827418 69.8324335,53.6173124 69.5429567,50.6715199 L41.7334515,50.6679233 C41.3917299,54.121053 38.7193948,56.8685862 35.4288665,57.1225919 C34.7566345,63.4855487 33.4159825,72.2878599 30.8001526,79.2664997 C28.0892505,86.4991452 26.018516,94.6473354 25.2095057,101.228333 C28.0923897,101.658119 30.4265907,104.012505 30.9595778,107.049785 Z M59.7220469,108.40231 L59.7218227,108.40231 L30.3716552,108.398488 C30.0243278,108.398488 29.7341784,108.133243 29.7018897,107.786402 C29.4321448,104.873428 27.1690237,102.604909 24.437717,102.509601 C24.2504876,102.503082 24.0744696,102.418788 23.9520418,102.2765 C23.8296139,102.134436 23.7717634,101.947416 23.7926165,101.760846 C24.549382,94.9620329 26.6983716,86.3755141 29.5408948,78.791981 C32.1890134,71.7270242 33.5101577,62.7084709 34.1525675,56.3870991 C34.1873227,56.0422807 34.4770237,55.7810818 34.8214361,55.7810818 L34.8335443,55.7810818 C34.877717,55.781981 34.9207686,55.7862519 34.9635959,55.7929954 C37.9435701,55.7738888 40.3901088,53.1765112 40.4246397,49.9863787 C40.4286758,49.6166092 40.7286912,49.3192202 41.0973201,49.3192202 L70.1795366,49.3228167 C70.5481655,49.3228167 70.8479567,49.6204305 70.8519928,49.9899752 C70.8815907,52.8175314 72.8000753,55.2175487 75.4134387,55.6965631 C75.7753407,55.7628744 76.0170572,56.1085919 75.9556191,56.4722922 C74.8750701,62.8849262 72.9908923,67.7090127 71.168601,72.3746265 C70.3757351,74.4044248 69.6270418,76.3216063 68.9386655,78.3657908 C67.0784799,83.8903037 66.3800134,95.3630473 66.1291036,101.710269 C66.1154258,102.054413 65.8452325,102.333145 65.5023897,102.356298 C62.7838639,102.541295 60.5873381,104.870281 60.3931577,107.772915 C60.3696139,108.127174 60.0758768,108.40231 59.7220469,108.40231 Z" id="Fill-15" fill="#7FA260"></path>
                    <path d="M21.6974861,74.5957608 C22.6522438,71.5636513 23.4486974,68.5908847 24.1319165,65.6716167 L24.8115479,65.6716167 L82.1692129,65.6788098 C81.7891485,67.0490922 81.3841948,68.4391556 80.9496433,69.8519222 C78.6058005,77.473219 77.0256742,84.9185101 76.0002851,92.0493285 L17.5324732,92.0421354 C18.4914912,86.354879 19.8350582,80.5107233 21.6974861,74.5957608" id="Fill-17" fill="#EED2B0"></path>
                    <path d="M30.0645093,74.6370311 L69.3642928,74.0002184" id="Fill-19" fill="#D5B599"></path>
                    <path d="M30.0642851,75.3113827 C29.6978985,75.3113827 29.397883,75.0164663 29.3918289,74.6480455 C29.385999,74.2755787 29.6822026,73.9687487 30.0537464,73.9626795 L69.3533057,73.3258669 C69.7152077,73.3231695 70.0306948,73.6167372 70.036749,73.989204 C70.0428031,74.3616709 69.7465995,74.6685009 69.3750557,74.67457 L30.0752722,75.3113827 L30.0642851,75.3113827 Z" id="Fill-21" fill="#D5B599"></path>
                    <path d="M27.557833,83.5333245 L66.8576165,82.8965118" id="Fill-23" fill="#D5B599"></path>
                    <path d="M27.5576088,84.2076761 C27.1912222,84.2076761 26.8912067,83.9127597 26.8851526,83.5443389 C26.8793227,83.171872 27.1755263,82.8650421 27.5470701,82.8589729 L66.8466294,82.2221602 L66.8578407,82.2221602 C67.2242273,82.2221602 67.5242428,82.5170767 67.5300727,82.8854974 C67.5361268,83.2579643 67.2399232,83.5647942 66.8683794,83.5708634 L27.5685959,84.2076761 L27.5576088,84.2076761 Z" id="Fill-25" fill="#D5B599"></path>
                </g>
                <g id="Page-1" transform="translate(217.000000, 122.000000)">
                    <path d="M98.7546499,268.698264 L97.0076429,236.637556 C96.6637009,234.547561 95.0603181,232.889328 92.9819677,232.473092 L41.657339,222.19767 C40.8354898,222.03319 40.0505965,222.61097 39.964506,223.443443 L36.9702369,252.396223 L98.7546499,268.698264 Z" id="Fill-3" fill="#D74C27"></path>
                    <path d="M96.1125118,237.082492 L92.8855884,276.189851 L36.9704469,252.396391 L39.9462381,223.622357 C40.0419875,222.693797 40.9171708,222.049722 41.8330896,222.232664 L92.5777624,232.392278 C94.7770594,232.832431 96.2968715,234.849417 96.1125118,237.082492" id="Fill-5" fill="#F05A28"></path>
                    <path d="M90.6348471,268.305314 C90.6348471,269.546052 89.6286383,270.551817 88.3864155,270.551817 C87.1450327,270.551817 86.1384039,269.546052 86.1384039,268.305314 C86.1384039,267.064577 87.1450327,266.058812 88.3864155,266.058812 C89.6286383,266.058812 90.6348471,267.064577 90.6348471,268.305314" id="Fill-7" fill="#F48D79"></path>
                    <path d="M42.6047123,244.494189 C42.6047123,244.494189 0,272.406797 0,378.513982 L0,453.452095 L136.500457,453.452095 C136.500457,453.452095 126.589552,364.246969 122.210276,337.172709 C115.130278,293.40157 98.5198538,268.28765 98.5198538,268.28765 L42.6047123,244.494189 Z" id="Fill-9" fill="#FAAF3F"></path>
                    <path d="M50.3826729,297.746501 C50.3826729,297.746501 67.1808167,312.851862 74.7399814,338.447056 C80.9351369,359.423366 86.001877,385.190594 87.6287773,393.806943 C87.9374432,395.442518 86.8590023,397.017671 85.2220232,397.323974 L83.7454664,397.600906 C82.5049234,397.833361 81.7154107,399.060671 82.0190371,400.285045 L95.2828515,453.450459 L61.0213573,453.450459 L50.3826729,297.746501 Z" id="Fill-11" fill="#D78F30" opacity="0.42895154"></path>
                    <g id="Group-16" transform="translate(21.837587, 387.725231)">
                        <path d="M0.409832715,12.5065251 C0.409832715,12.5065251 2.03211346,19.9077322 28.6151761,14.115246 C54.9324081,8.38066377 55.4531506,1.17708521 55.4531506,1.17708521 C55.4531506,1.17708521 22.1075752,-4.41693327 0.409832715,12.5065251" id="Fill-13" fill="#8A5D3B"></path>
                        <path d="M0.409832715,12.5065251 C0.409832715,12.5065251 2.03211346,19.9077322 28.6151761,14.115246 C54.9324081,8.38066377 55.4531506,1.17708521 55.4531506,1.17708521 C55.4531506,1.17708521 22.1075752,-4.41693327 0.409832715,12.5065251" id="Stroke-15" stroke="#F05A28" stroke-width="2.51999981" stroke-linecap="round" stroke-linejoin="round"></path>
                    </g>
                    <path d="M27.729368,396.750474 L38.9396093,453.601177 L83.7809944,453.601177 L70.0632102,388.460149 C70.0632102,388.460149 40.7097137,386.138958 27.729368,396.750474" id="Fill-17" fill="#CE763A"></path>
                    <g id="Group-21" transform="translate(27.716937, 391.501571)">
                        <mask id="mask-10" fill="white">
                            <use xlink:href="#path-9"></use>
                        </mask>
                        <g id="Clip-20"></g>
                        <path d="M14.3203756,0.201069131 L29.2182295,62.0998991 L11.2227979,62.0998991 L0.0125566125,5.24877708 C0.0125566125,5.24877708 7.60909722,1.89580665 14.3203756,0.201069131" id="Fill-19" fill="#C55E28" opacity="0.507982337" mask="url(#mask-10)"></path>
                    </g>
                    <g id="Group-25" transform="translate(10.918794, 293.736322)">
                        <path d="M19.6561381,0.268665619 C19.6561381,0.268665619 -9.28370418,4.16836617 3.66262529,66.9592516 L11.3284582,106.495435 C11.3284582,106.495435 19.7313097,99.8025011 37.8300499,96.2716231 C55.421906,92.8393495 66.3721961,95.1659946 66.3721961,95.1659946 L59.1523538,57.7953329 C59.1523538,57.7953329 54.1376879,15.942575 36.0981613,2.95280425" id="Fill-22" fill="#FAAF3F"></path>
                        <path d="M19.6561381,0.268665619 C19.6561381,0.268665619 -9.28370418,4.16836617 3.66262529,66.9592516 L11.3284582,106.495435 C11.3284582,106.495435 19.7313097,99.8025011 37.8300499,96.2716231 C55.421906,92.8393495 66.3721961,95.1659946 66.3721961,95.1659946 L59.1523538,57.7953329 C59.1523538,57.7953329 54.1376879,15.942575 36.0981613,2.95280425" id="Stroke-24" stroke="#F05A28" stroke-width="2.51999981" stroke-linecap="round" stroke-linejoin="round"></path>
                    </g>
                    <path d="M74.1933278,373.64863 C74.1933278,373.64863 63.2430378,371.321984 45.6511817,374.754258 C27.5524415,378.285136 19.15001,384.97807 19.15001,384.97807 L21.755822,398.903114 C21.755822,398.903114 44.643293,385.476127 74.2500216,388.623077 L77.2909056,388.902526 L74.1933278,373.64863 Z" id="Fill-26" fill="#F05A28"></path>
                    <path d="M128.183192,192.934643 L126.870417,175.233258 C126.717974,173.179349 124.911334,171.649931 122.85902,171.841685 C120.397252,172.071623 116.965392,172.258342 113.197568,172.087987 C88.3930088,170.97061 80.7494334,150.110526 80.7494334,150.110526 C80.7494334,150.110526 101.59635,161.980822 113.99212,159.164092 C119.763123,157.852443 122.574712,155.209425 123.94754,153.936798 C124.735373,153.019148 125.134329,151.824146 125.043619,150.603968 L123.799297,133.827367 L133.115127,127.478501 C134.673995,126.456791 135.325763,125.225284 134.775204,123.732791 C130.633201,112.510767 126.464742,96.8326614 136.340371,54.3723323 C136.340371,54.3723323 76.5125216,19.9073545 37.5399879,52.9469738 L37.6592548,148.969652 L40.8895378,230.332159 C40.8895378,230.332159 64.8453708,245.185343 86.1617954,240.761571 L84.3123197,203.888547 L123.719925,198.451037 C126.431566,198.077599 128.38519,195.662 128.183192,192.934643" id="Fill-28" fill="#CE763A"></path>
                    <path d="M66.3054234,188.282234 C66.3054234,188.282234 62.8391265,238.833162 86.734906,250.622896 L82.309855,181.060613 L66.3054234,188.282234 Z" id="Fill-30" fill="#C55E28" opacity="0.450747283"></path>
                    <path d="M95.9827042,267.255911 L93.6481821,237.686329 C93.3042401,235.596754 91.7008573,233.938521 89.622087,233.522285 L38.2974582,223.246444 C37.476029,223.082383 36.6911357,223.660163 36.6050452,224.492636 L33.6107761,253.445416 L95.9827042,267.255911 Z" id="Fill-32" fill="#D74C27"></path>
                    <path d="M92.7528831,238.131476 L89.5259596,277.238834 L33.6108181,253.445374 L36.5866093,224.671341 C36.6823587,223.742781 37.557542,223.098705 38.4734608,223.281648 L89.2181336,233.441261 C91.4174306,233.881415 92.9372427,235.8984 92.7528831,238.131476" id="Fill-34" fill="#F05A28"></path>
                    <path d="M87.2752183,269.354298 C87.2752183,270.595035 86.2690095,271.600801 85.0267868,271.600801 C83.7854039,271.600801 82.7787752,270.595035 82.7787752,269.354298 C82.7787752,268.11356 83.7854039,267.107795 85.0267868,267.107795 C86.2690095,267.107795 87.2752183,268.11356 87.2752183,269.354298" id="Fill-36" fill="#F48D79"></path>
                    <path d="M107.38562,147.458319 L81.1297014,146.426539 L75.8193882,148.93235 L88.6523302,182.386947 L128.478629,194.324378 C143.376903,162.343812 124.772539,134.977515 124.020822,133.827409" id="Fill-38" fill="#90191C"></path>
                    <path d="M118.927583,92.9283872 C118.927583,97.3236275 117.590451,100.886395 115.940873,100.886395 C114.291295,100.886395 112.953743,97.3236275 112.953743,92.9283872 C112.953743,88.533147 114.291295,84.9703799 115.940873,84.9703799 C117.590451,84.9703799 118.927583,88.533147 118.927583,92.9283872" id="Fill-40" fill="#404042"></path>
                    <path d="M74.4920828,111.792884 C74.4920828,111.792884 80.6872383,135.152485 93.0775492,135.004788 C103.549512,134.880169 103.145097,129.809803 120.513538,130.804659 C120.513538,130.804659 128.073122,131.468036 133.115085,127.478543 L122.283642,135.373191 L98.6830898,144.731801 L82.7521501,141.636881 L73.2381014,117.982726 L74.4920828,111.792884 Z" id="Fill-42" fill="#C55E28" opacity="0.450747283"></path>
                    <path d="M60.11031,86.1489336 C60.11031,86.1489336 70.7309364,170.375584 66.3054654,188.28215 C66.3054654,188.28215 72.4493865,200.70463 84.3122357,203.888505 C96.1750849,207.072799 121.398338,208.620259 134.23128,196.240577 C147.064222,183.860895 128.921387,143.847634 128.921387,143.847634 L108.565396,149.374518 L80.970665,150.110484 L72.943252,126.604446" id="Fill-44" fill="#90191C"></path>
                    <path d="M88.8736457,154.901191 C88.8736457,154.901191 114.557588,163.656007 129.363892,158.221853 C129.363892,158.221853 125.815284,170.707692 109.815052,168.816585 C100.426989,167.7076 96.5768545,164.885835 88.8736457,154.901191" id="Fill-46" fill="#CE763A"></path>
                    <path d="M97.5417399,157.330259 L96.7295497,157.132211 C96.7295497,157.132211 97.2078768,163.817592 114.899262,164.406701 C125.061299,164.745733 125.419939,161.367587 124.522079,159.451723 C115.738749,160.938343 104.953501,159.09381 97.5417399,157.330259" id="Fill-48" fill="#FEFEFE"></path>
                    <path d="M128.404214,192.934643 L127.091439,175.233258 C126.939416,173.179349 125.132355,171.649931 123.080462,171.841685 C120.618274,172.071623 117.186413,172.258342 113.41901,172.087987 C88.6140304,170.97061 80.970455,150.110526 80.970455,150.110526 C80.970455,150.110526 101.817371,161.980822 114.213142,159.164092 C119.984564,157.852443 122.796153,155.209425 124.168562,153.936798 C124.956395,153.019148 125.355351,151.824146 125.264641,150.603968 L124.020738,133.827367 C103.107889,133.457706 103.248573,143.650467 88.8735617,139.426421 C77.5898285,136.110375 73.3117613,105.013473 73.3117613,105.013473 L63.3424828,106.251273 C63.3424828,106.251273 68.7393065,172.80717 79.359513,194.029782 C81.440803,198.188791 84.8772833,201.163708 89.0512021,203.265031 L123.941367,198.451037 C126.652587,198.077599 128.606631,195.662 128.404214,192.934643" id="Fill-50" fill="#90191C"></path>
                    <path d="M69.4032111,83.0540131 C69.4032111,83.0540131 67.4928422,61.5662183 86.4398886,63.6004068 C104.287916,65.5162701 118.300928,73.474697 134.895394,62.052527 C150.100234,51.5870298 104.583144,52.9893107 104.583144,52.9893107 L75.5983666,52.9893107 L64.535529,58.9576065 L69.4032111,83.0540131 Z" id="Fill-52" fill="#C55E28" opacity="0.450747283"></path>
                    <g id="Group-56" transform="translate(89.870070, 0.020980)">
                        <mask id="mask-12" fill="white">
                            <use xlink:href="#path-11"></use>
                        </mask>
                        <g id="Clip-55"></g>
                        <path d="M0.331091415,7.64922865 C0.331091415,7.64922865 27.2509568,14.7970013 46.1316506,6.10176839 C62.852523,-1.59902828 80.3524093,-3.18299316 86.400161,12.0704837 C92.1069104,26.4642139 77.5500589,63.1370919 34.1835508,63.1370919 C6.30157169,63.1370919 6.74756241,53.6312046 6.74756241,53.6312046" id="Fill-54" fill="#90191C" mask="url(#mask-12)"></path>
                    </g>
                    <path d="M124.119595,135.398703 C124.119595,135.398703 133.568551,149.664876 137.992762,161.7542" id="Stroke-63" stroke="#90191C" stroke-width="1.67999987" stroke-linecap="round" stroke-linejoin="round"></path>
                    <path d="M137.181412,177.671096 C137.181412,177.671096 141.163832,190.197635 133.641203,201.251403" id="Stroke-65" stroke="#90191C" stroke-width="1.67999987" stroke-linecap="round" stroke-linejoin="round"></path>
                    <path d="M99.2728306,209.062343 C99.2728306,209.062343 115.642202,207.294176 123.941325,198.451246" id="Stroke-67" stroke="#90191C" stroke-width="1.67999987" stroke-linecap="round" stroke-linejoin="round"></path>
                    <path d="M64.8673763,121.741023 C64.8673763,121.741023 66.1948497,140.310546 62.2124297,150.921642" id="Stroke-69" stroke="#90191C" stroke-width="1.67999987" stroke-linecap="round" stroke-linejoin="round"></path>
                    <path d="M69.5690928,87.1438314 C69.5690928,87.1438314 72.7771183,102.397728 77.7556682,108.587149" id="Stroke-71" stroke="#90191C" stroke-width="1.67999987" stroke-linecap="round" stroke-linejoin="round"></path>
                    <path d="M43.7372432,107.92436 C43.7372432,107.92436 43.6637513,123.877718 57.8237466,124.172692 C57.8237466,124.172692 49.5636794,126.236252 50.1537142,137.141903 C50.743749,148.047973 59.1516399,173.839118 40.860981,182.976602 C40.860981,182.976602 46.6139253,174.575923 43.6637513,152.469228 C40.7135773,130.362533 43.7372432,107.92436 43.7372432,107.92436" id="Fill-79" fill="#C55E28" opacity="0.450747283"></path>
                    <path d="M12.208135,40.7197719 C12.208135,40.7197719 4.0244993,58.7303967 13.7594436,88.7955187 C23.4948079,118.860221 26.1501745,137.430164 24.3800701,158.652356 C23.0651954,174.416898 32.0648009,180.609676 36.7808798,182.752119 C38.6471536,183.600118 40.824193,183.333676 42.4254761,182.054755 C45.8438984,179.324881 50.8195086,172.621458 48.7180608,157.326021 C45.620903,134.777495 42.1886223,100.297411 43.7374111,81.1752839" id="Fill-81" fill="#90191C"></path>
                    <path d="M43.6810534,80.2070303 C43.6810534,80.2070303 43.8154385,58.5413279 51.9453202,60.7181782 C58.8564965,62.5685848 64.1668097,115.624485 64.1668097,115.624485 L75.6718585,119.604328 L69.2990626,80.0177937 C66.2989142,47.4854628 102.456919,60.1479508 102.456919,60.1479508 C157.175613,74.6243409 142.549049,33.8381893 157.832,10.3967678 C159.579007,7.71766433 156.483109,4.50064214 153.749631,6.16223179 C136.788965,16.4724795 154.900724,24.4795793 100.970703,10.2113076 C36.3700812,-6.88040776 15.4240557,28.0557734 11.4181183,36.4337937 C10.9108144,37.4949453 10.7575313,38.6891079 10.9885058,39.8421505 L38.6899049,177.973539 L43.6810534,80.2070303" id="Fill-83" fill="#90191C"></path>
                    <path d="M42.9260608,121.077646 C42.9260608,121.077646 46.9084807,143.037064 52.218794,151.585019" id="Stroke-85" stroke="#90191C" stroke-width="1.67999987" stroke-linecap="round" stroke-linejoin="round"></path>
                    <g id="Group-90" transform="translate(36.116009, 258.910074)">
                        <path d="M12.0969733,0.128941035 C12.0969733,0.128941035 1.45828886,19.1503662 0.0581635731,35.3747821" id="Fill-87" fill="#FAAF3F"></path>
                        <path d="M12.0969733,0.128941035 C12.0969733,0.128941035 1.45828886,19.1503662 0.0581635731,35.3747821" id="Stroke-89" stroke="#F05A28" stroke-width="2.51999981" stroke-linecap="round" stroke-linejoin="round"></path>
                    </g>
                    <path d="M70.0710633,351.531487 C70.0710633,351.531487 107.597697,351.388405 122.210402,337.172583" id="Stroke-91" stroke="#F05A28" stroke-width="2.51999981" stroke-linecap="round" stroke-linejoin="round"></path>
                    <path d="M84.608891,350.929958 L85.2001856,354.151595 C85.2984548,354.686577 85.8166775,355.037777 86.3504385,354.930361 L94.8154432,353.227651 C95.3571833,353.118557 95.6998654,352.581477 95.5700998,352.044398 L94.8276218,348.971716 L84.608891,350.929958 Z" id="Fill-93" fill="#F05A28"></path>
                </g>
                <g id="Page-1" transform="translate(53.000000, 0.000000)">
                    <path d="M46.51393,257.957471 L16.627601,88.4863611 L149.760301,15.7357095 C149.760301,15.7357095 117.751444,59.5006999 164.01392,145.986775 L149.33369,151.701736 C149.33369,151.701736 154.959841,173.047265 141.424593,178.384898 C135.488134,180.726431 126.719799,183.389242 112.091705,184.056822 C112.091705,184.056822 120.647486,196.722816 147.77864,191.087925 C149.265512,190.779657 150.621544,192.011226 150.446087,193.516033 L146.333377,228.82168 C146.522369,230.487126 145.365356,232.006945 143.707037,232.270173 L92.6601023,244.669937 L96.5752982,271.658365 L50.012541,276.89491 L46.51393,257.957471 Z" id="Fill-1" fill="#F8B5AF"></path>
                    <polygon id="Fill-3" fill="#F18076" opacity="0.304404438" points="92.6602026 244.670087 68.6070642 249.047887 100.615419 287.565823"></polygon>
                    <path d="M42.7609567,263.941666 C51.0941577,260.885513 79.4795781,251.748081 106.575139,257.850378 C108.065521,258.18567 108.838534,259.878139 108.063014,261.192279 C105.819171,264.993579 103.371296,267.047362 104.872205,274.016912 C107.145625,284.573075 113.723756,317.374549 113.723756,317.374549 C113.723756,317.374549 126.406283,336.585225 120.439745,355.920008 C120.439745,355.920008 96.6066799,350.301631 88.0318496,327.510848 C88.0318496,327.510848 64.8996094,329.187303 50.0865337,316.824571 L46.5638601,281.564464 C46.5638601,281.564464 46.0655624,271.922594 41.9929567,266.610983 C41.2831081,265.685179 41.6646016,264.343515 42.7609567,263.941666" id="Fill-5" fill="#61C3AF"></path>
                    <path d="M161.164595,440.150275 C156.329504,402.307425 156.817274,369.940329 141.413661,351.903172 C126.010548,333.866014 114.723655,317.374699 114.723655,317.374699 L104.377713,321.209027 L52.4930966,316.440888 C52.4930966,316.440888 4.17974184,347.698031 11.8231854,512.656715 C11.9219426,514.788065 14.1071332,573.516044 14.223436,575.693434 L46.8082924,575.693434 L78.9750601,575.693434 L192.938841,575.693434 C192.938841,575.693434 165.999687,477.992624 161.164595,440.150275" id="Fill-7" fill="#61C3AF"></path>
                    <path d="M148.409633,410.678892 C151.925289,442.405432 145.90862,469.104609 134.970135,470.312658 C124.032652,471.520206 112.315137,446.77973 108.799482,415.052689 C105.283827,383.325648 111.300996,356.626472 122.238981,355.418923 C133.176965,354.210875 144.893978,378.951851 148.409633,410.678892 Z" id="Stroke-9" stroke="#298673" stroke-width="2" stroke-linecap="round" stroke-linejoin="round"></path>
                    <path d="M149.33389,151.701685 L146.125034,152.587955 C144.439144,153.052858 143.316721,154.640737 143.448564,156.381748 C143.890715,162.230325 144.237619,175.013922 139.335854,179.1355 C139.335854,179.1355 154.709389,176.341574 149.33389,151.701685" id="Fill-11" fill="#F18076" opacity="0.310688406"></path>
                    <path d="M138.997673,61.0125623 C138.997673,61.0125623 111.046885,61.0000514 89.577976,71.6883295 C89.577976,71.6883295 75.9951039,74.7379767 72.6072815,99.961372 L76.7736313,39.7145745 L104.83972,40.3861574 L136.676629,40.3636379 L139.975219,40.4967534 L139.007699,56.1953807 L138.997673,61.0125623 Z" id="Fill-13" fill="#F18076" opacity="0.417629076"></path>
                    <path d="M144.329408,100.912948 L141.903591,95.5382825 C140.766128,93.3939211 139.4111,94.5834537 139.362473,96.3524893 C139.202557,102.19356 136.166651,118.881546 127.114076,120.465421 C127.114076,120.465421 135.758087,112.420437 134.904865,96.9760306 C134.904865,96.9760306 136.578724,91.2455562 140.430254,90.7195997 C144.281784,90.1931427 144.466264,93.7442252 144.466264,93.7442252 L144.329408,100.912948 Z" id="Fill-15" fill="#F18076"></path>
                    <path d="M159.188203,91.5918568 C160.224902,101.588534 157.997101,110.009344 154.211242,110.400684 C150.425884,110.791523 146.517205,103.005264 145.480004,93.0085866 C144.443304,83.0119089 145.940704,82.9363434 149.726062,82.5450036 C153.511419,82.1541644 158.151503,81.5951791 159.188203,91.5918568" id="Fill-17" fill="#FCDEDC"></path>
                    <path d="M158.174312,92.3273953 C159.211012,102.324073 156.98321,110.744883 153.197351,111.136222 C149.411994,111.527062 145.503315,103.740803 144.466615,93.7441251 C143.429414,83.7474474 145.559962,81.8312841 149.34532,81.4404448 C153.130678,81.0491051 157.137613,82.3307176 158.174312,92.3273953 Z" id="Stroke-21" stroke="#58585B" stroke-width="4" stroke-linecap="round" stroke-linejoin="round"></path>
                    <path d="M39.6478997,135.669218 C39.6478997,135.669218 45.4720668,148.435801 60.4966935,141.195516 L40.8415081,225.650327 L26.994448,146.365003 L39.6478997,135.669218 Z" id="Fill-23" fill="#F18076" opacity="0.227524909"></path>
                    <path d="M46.6130381,272.407515 C46.6130381,272.407515 75.8912836,259.167021 103.830542,268.261416" id="Stroke-25" stroke="#1D705F" stroke-width="2" stroke-linecap="round" stroke-linejoin="round"></path>
                    <path d="M50.0866841,316.824521 C68.3286893,317.444059 88.8451175,300.568911 113.723405,317.374999" id="Stroke-27" stroke="#298673" stroke-width="2" stroke-linecap="round" stroke-linejoin="round"></path>
                    <path d="M52.9922005,270.50156 L58.3190726,316.29281" id="Stroke-29" stroke="#298673" stroke-width="2" stroke-linecap="round" stroke-linejoin="round"></path>
                    <path d="M64.399106,267.669552 L69.7254768,313.461302" id="Stroke-31" stroke="#298673" stroke-width="2" stroke-linecap="round" stroke-linejoin="round"></path>
                    <path d="M75.4667781,265.166379 L80.7936501,310.958129" id="Stroke-33" stroke="#298673" stroke-width="2" stroke-linecap="round" stroke-linejoin="round"></path>
                    <path d="M87.1627363,265.342332 L93.5067572,310.147725" id="Stroke-35" stroke="#298673" stroke-width="2" stroke-linecap="round" stroke-linejoin="round"></path>
                    <path d="M96.4965932,266.983857 L105.162661,312.992295" id="Stroke-37" stroke="#298673" stroke-width="2" stroke-linecap="round" stroke-linejoin="round"></path>
                    <path d="M41.7236052,264.159655 C41.7236052,264.159655 74.0046705,250.912656 106.574989,257.850679" id="Stroke-39" stroke="#298673" stroke-width="2" stroke-linecap="round" stroke-linejoin="round"></path>
                    <path d="M81.1786527,363.056503 L80.3214204,366.996924 C80.4587781,367.130039 80.5745796,367.297184 80.6487728,367.512371 C83.9909765,377.19978 83.9518747,388.162296 82.8530131,398.237542 C82.5602507,400.921372 82.0358851,403.46508 81.0583394,405.844145 C81.1891802,408.618554 81.402235,411.39096 81.4102559,414.168371 C81.4192794,417.626373 80.880376,421.004806 80.3805744,424.416767 C79.4055352,431.06704 78.9678956,437.776865 78.2194465,444.45266 C78.0500052,445.967475 77.8845744,447.461772 77.6253995,448.907527 C77.8073734,449.108201 77.9111436,449.389445 77.86753,449.758766 C77.0268407,456.789369 77.5271436,463.948083 77.2038016,471.014717 C77.0423812,474.542279 76.9536501,478.055829 76.9035196,481.585393 C76.8568982,484.834213 76.3450653,488.058512 76.3555927,491.308833 C76.3696292,495.466442 77.3231123,500.871634 72.49153,502.381445 C67.4072898,503.970324 62.0814204,504.992211 56.7450235,505.253438 C56.7450235,525.115179 51.617671,575.693084 52.5836867,575.693084 L70.8186736,575.693084 L74.880752,512.914088 C74.9228616,511.290679 76.1249922,509.930498 77.7336815,509.687287 L84.8266527,508.616357 C86.646893,508.341619 87.894141,506.633136 87.5813264,504.822064 C84.6702454,487.962929 86.0548512,450.554456 88.9022663,427.235214 C91.9522089,402.256531 81.1786527,363.056503 81.1786527,363.056503" id="Fill-41" fill="#46A390" opacity="0.599184783"></path>
                    <path d="M64.899459,575.693234 L69.6292762,503.248848 C69.6292762,503.248848 38.5678872,509.309609 16.4648272,499.359472 L19.6566392,575.651197 L64.899459,575.693234 Z" id="Fill-43" fill="#F8B5AF"></path>
                    <g id="Group-47" transform="translate(16.041775, 499.168306)">
                        <mask id="mask-14" fill="white">
                            <use xlink:href="#path-13"></use>
                        </mask>
                        <g id="Clip-46"></g>
                        <path d="M53.5875008,4.08069227 C53.5875008,4.08069227 42.069506,13.9812865 23.0183937,13.9457557 L22.580754,76.5666141 L3.61486371,76.4830415 L0.423051697,0.191316073 C0.423051697,0.191316073 19.736848,10.5152778 53.5875008,4.08069227" id="Fill-45" fill="#F18076" opacity="0.304404438" mask="url(#mask-14)"></path>
                    </g>
                    <path d="M45.6287749,331.671359 C45.6287749,331.671359 90.6465086,330.323689 82.1032606,406.797573 C75.8494747,462.777667 76.2129211,489.096513 76.6355217,497.631422 C76.7327749,499.596628 75.447929,501.360659 73.5434695,501.865597 C64.461318,504.271686 38.2716157,509.488214 14.1838872,497.731509 C12.8905191,497.09996 12.0528376,495.806838 11.9921796,494.371092 C11.3304564,478.767547 8.67754778,387.500322 34.4431457,338.652419" id="Stroke-48" stroke="#298673" stroke-width="2" stroke-linecap="round" stroke-linejoin="round"></path>
                    <path d="M11.5417567,477.518663 C11.5417567,477.518663 47.7615791,492.974579 76.1394799,481.263413" id="Stroke-50" stroke="#298673" stroke-width="2" stroke-linecap="round" stroke-linejoin="round"></path>
                    <path d="M128.626665,152.415205 C125.162143,164.725891 112.356796,171.90112 100.025182,168.442618 C87.6935687,164.984115 80.5053493,152.201019 83.9698715,139.890833 C87.4343937,127.580647 100.239741,120.404918 112.571355,123.86342 C124.902968,127.321923 132.091187,140.105019 128.626665,152.415205" id="Fill-52" fill="#F18076" opacity="0.154211957"></path>
                    <path d="M72.6535018,105.217485 L107.698264,100.238162 C107.698264,100.238162 109.975695,107.154166 113.042682,111.579507 L111.229961,98.7894047 L108.250703,96.8677366 L71.9541807,101.703935 L72.6535018,105.217485 Z" id="Fill-54" fill="#F18076"></path>
                    <path d="M49.4595509,104.819689 L110.393734,96.4269039" id="Stroke-56" stroke="#58585B" stroke-width="4" stroke-linecap="round" stroke-linejoin="round"></path>
                    <path d="M134.913788,95.7683823 C135.827668,108.473911 131.217663,119.156685 124.617475,119.630096 C118.017287,120.103006 111.925924,110.186898 111.012044,97.4818697 C110.098665,84.7763406 114.610415,80.5982137 121.210603,80.1248028 C127.810791,79.6518923 133.999908,83.0628532 134.913788,95.7683823 Z" id="Stroke-58" stroke="#58585B" stroke-width="4" stroke-linecap="round" stroke-linejoin="round"></path>
                    <path d="M134.735373,93.693331 C134.735373,93.693331 138.752836,88.5959062 143.998496,91.5029296" id="Stroke-60" stroke="#58585B" stroke-width="4" stroke-linecap="round" stroke-linejoin="round"></path>
                    <g id="Group-64" transform="translate(0.000000, 0.235204)" fill="#4F55A4">
                        <path d="M173.219843,0.265830756 C168.665984,1.32875343 164.683112,1.28521564 150.28211,1.13558575 C79.853201,0.403950652 25.5878851,25.9486248 0.276469974,48.7464146 C0.0413577023,48.9580983 -0.0734412533,49.2648646 0.050381201,49.555617 L15.9918956,87.0001209 C16.0119478,87.0471618 16.0264856,87.0962043 16.0355091,87.1457474 L40.7608982,225.205091 L48.6795196,155.605174 C49.2750705,152.021563 48.2965222,148.359384 45.9880104,145.550946 C39.4549974,137.604048 29.0097963,116.671878 45.3934621,109.887989 C50.052094,107.958314 53.8209086,108.36867 55.6622037,112.291575 L77.0744648,157.875645 C77.4855352,158.751405 78.8109869,158.317528 78.6144752,157.371207 C75.1639896,140.76329 68.2961044,99.5990575 78.701201,74.5733338 C80.2517389,70.8440966 83.1954047,67.8685136 86.8905274,66.2255875 C96.9697755,61.7441974 112.520773,54.5894867 137.627154,50.4759159 C181.407666,43.3031896 155.698214,37.5942339 173.219843,0.265830756" id="Fill-62"></path>
                    </g>
                    <path d="M17.8861285,56.3845449 C17.8861285,56.3845449 28.9313922,37.2814624 47.7368648,38.6376396 C66.5423373,39.9943173 28.281199,59.7354537 32.2324888,53.4429915 C32.2324888,53.4429915 35.0302747,46.3178064 44.6583478,43.5599124" id="Stroke-65" stroke="#5879BC" stroke-width="2" stroke-linecap="round" stroke-linejoin="round"></path>
                    <path d="M120.653051,350.944439 L120.955839,415.4109 C120.958847,416.014424 121.620069,416.309179 121.983014,415.867796 L128.350596,408.117569 C128.699004,407.693701 129.334158,407.94592 129.375766,408.524422 L134.052445,472.977371 C134.113604,473.820102 135.223996,473.790577 135.232017,472.945843 L136.055662,384.339928 C136.061176,383.7309 135.393938,383.427136 135.028487,383.873023 L127.867338,392.6021 C127.529458,393.013458 126.913354,392.790264 126.845677,392.231779 L121.829113,350.866372 C121.729354,350.043657 120.64904,350.11572 120.653051,350.944439" id="Fill-67" fill="#1D705F"></path>
                </g>
                <g id="Page-1" transform="translate(13.000000, 535.000000)">
                    <path d="M71.7526676,28.1680707 L71.7526676,27.2915152 L71.7526676,27.0153333 L71.7526676,25.9920253 L71.7526676,25.7183182 L71.7526676,25.2820202 L71.7526676,24.4190758 L71.7526676,24.1292828 L71.7526676,23.7088232 L71.7526676,22.8322677 L71.7526676,22.5560859 L71.7526676,21.5330253 L71.7526676,21.2593182 L71.7526676,20.3382172 C71.81424,20.1612727 71.8472607,19.982596 71.8472607,19.8016919 C71.8472607,17.5424949 66.9328883,15.5530455 59.4774124,14.3889242 L59.4774124,13.788798 L59.4774124,13.5150909 L59.4774124,13.0787929 L59.4774124,12.2158485 L59.4774124,11.9260556 L59.4774124,11.5058434 L59.4774124,10.6292879 L59.4774124,10.3531061 L59.4774124,9.32979798 L59.4774124,9.05584343 L59.4774124,8.13523737 C59.5389848,7.95829293 59.5717572,7.77936869 59.5717572,7.59871212 C59.5717572,4.01057576 47.1790676,1.10200505 31.8917297,1.10200505 C17.1160883,1.10200505 5.04541241,3.81927778 4.25415724,7.24086364 C4.18414345,7.41186869 4.14144,7.58485354 4.12902621,7.75932323 L4.11735724,7.75660101 L4.11735724,7.86895455 L4.11735724,9.05584343 L4.11735724,9.16819697 L4.11735724,9.32979798 L4.11735724,10.3531061 L4.11735724,10.4649646 L4.11735724,10.6292879 L4.11735724,11.5058434 L4.11735724,11.617702 L4.11735724,11.9260556 L4.11735724,12.2158485 L4.11735724,12.3277071 L4.11735724,13.0787929 L4.11735724,13.5150909 L4.11735724,13.6269495 L4.11735724,13.788798 L4.11735724,14.8118586 L4.11735724,14.9239646 L4.11735724,15.0880404 L4.11735724,15.964596 L4.11735724,16.0769495 L4.11735724,16.385303 L4.11735724,17.5380404 C4.11735724,17.6407424 4.13026759,17.742702 4.15037793,17.8441667 C4.15658483,17.8765859 4.16701241,17.9087576 4.17545379,17.9409293 C4.19382621,18.0104697 4.21567448,18.0797626 4.24298483,18.1490556 C4.2576331,18.1854343 4.27352276,18.2223081 4.29065379,18.2586869 C4.32193655,18.3250101 4.35818483,18.3905909 4.39766069,18.4564192 C4.41876414,18.4910657 4.43837793,18.5259596 4.46146759,18.5608535 C4.51509517,18.6400455 4.57592276,18.7187424 4.64171586,18.7974394 C4.65735724,18.8162475 4.67001931,18.8355505 4.68665379,18.8543586 C4.76858483,18.9476566 4.86069517,19.0399646 4.95950897,19.1317778 C4.99997793,19.1696414 5.04491586,19.2065152 5.08811586,19.2438838 C5.15366069,19.3003081 5.22019862,19.3564848 5.29170207,19.4121667 C5.34557793,19.4539899 5.40193655,19.4958131 5.45904,19.5373889 C5.52880552,19.5878737 5.60179862,19.6381111 5.67628138,19.688101 C5.74008828,19.7306667 5.80315034,19.7732323 5.87018483,19.815303 C5.95062621,19.8657879 6.03628138,19.9152828 6.12193655,19.9652727 C6.23415724,20.0303586 6.35035034,20.095197 6.47150897,20.1595404 C6.57305379,20.2134899 6.67435034,20.2676869 6.78210207,20.3208939 C6.87619862,20.3674192 6.97625379,20.413202 7.07457103,20.4589848 C7.15650207,20.497096 7.23793655,20.5349596 7.32309517,20.5728232 C7.42935724,20.6198434 7.5388469,20.6666162 7.64982621,20.7128939 C7.73349517,20.7477879 7.81840552,20.7824343 7.90455724,20.8170808 C8.02248828,20.864101 8.14116414,20.9113687 8.26381241,20.9576465 C8.34499862,20.9883333 8.42990897,21.0185253 8.51332966,21.0489646 C8.61487448,21.0860859 8.72386759,21.1217222 8.82839172,21.1583485 L8.82839172,21.1308788 C9.34207448,21.3122778 9.89299862,21.4872424 10.4799228,21.6552778 L10.4799228,21.6770556 C11.9497159,22.093803 13.6315366,22.4679848 15.4968331,22.7877222 C15.5149572,22.7906919 15.5335779,22.7934141 15.5517021,22.7966313 C15.8277848,22.8436515 16.1090814,22.8891869 16.3926124,22.9339798 L16.3926124,23.7088232 L16.3926124,23.8211768 L16.3926124,24.1292828 L16.3926124,24.4190758 L16.3926124,24.5311818 L16.3926124,25.2820202 L16.3926124,25.7183182 L16.3926124,25.8304242 L16.3926124,25.9920253 L16.3926124,26.4441616 C11.8029848,27.5377525 8.85197793,29.0109697 8.47410207,30.6452929 C8.40408828,30.816298 8.36138483,30.9890354 8.34897103,31.1637525 L8.33730207,31.1610303 L8.33730207,31.2731364 L8.33730207,32.4602727 L8.33730207,32.5723788 L8.33730207,32.7342273 L8.33730207,33.7572879 L8.33730207,33.8691465 L8.33730207,34.0334697 L8.33730207,34.9100253 L8.33730207,35.0221313 L8.33730207,35.3302374 L8.33730207,35.6200303 L8.33730207,35.7318889 L8.33730207,36.4832222 L8.33730207,36.9192727 L8.33730207,37.0313788 L8.33730207,37.1932273 L8.33730207,38.2162879 L8.33730207,38.3283939 L8.33730207,38.4924697 L8.33730207,39.3692727 L8.33730207,39.4811313 L8.33730207,39.7894848 L8.33730207,40.9422222 C8.33730207,41.0449242 8.35021241,41.1468838 8.37032276,41.2483485 C8.37652966,41.2807677 8.38720552,41.3129394 8.3956469,41.3451111 C8.41377103,41.4146515 8.43561931,41.4841919 8.46292966,41.5532374 C8.47757793,41.5898636 8.49371586,41.6264899 8.51059862,41.6628687 C8.54188138,41.7291919 8.57812966,41.7947727 8.61785379,41.860601 C8.63870897,41.8954949 8.65832276,41.9303889 8.68141241,41.9650354 C8.73504,42.0442273 8.79586759,42.1231717 8.86166069,42.2016212 C8.87730207,42.2204293 8.88996414,42.2397323 8.90659862,42.2587879 C8.98852966,42.3518384 9.08088828,42.4443939 9.17945379,42.5362071 C9.21992276,42.5738232 9.26510897,42.610697 9.30830897,42.6483131 C9.37360552,42.7044899 9.44039172,42.7606667 9.51189517,42.8163485 C9.56552276,42.8584192 9.62188138,42.8999949 9.6792331,42.9415707 C9.74875034,42.9920556 9.82174345,43.0422929 9.89647448,43.0925303 C9.9600331,43.135096 10.0230952,43.1774141 10.0901297,43.2197323 C10.170571,43.2699697 10.2562262,43.3197121 10.3418814,43.3694545 C10.4541021,43.4347879 10.5702952,43.4996263 10.6914538,43.5639697 C10.7929986,43.6179192 10.8942952,43.6718687 11.0022952,43.7250758 C11.0961434,43.7718485 11.1961986,43.8173838 11.2945159,43.8631667 C11.3766952,43.9012778 11.4578814,43.9393889 11.54304,43.9770051 C11.6493021,44.0240253 11.7587917,44.070798 11.8700193,44.1170758 C11.95344,44.1522172 12.0383503,44.1868636 12.1245021,44.2212626 C12.2424331,44.2685303 12.361109,44.3155505 12.4837572,44.3620758 C12.5651917,44.3927626 12.6498538,44.4229545 12.7332745,44.4533939 C12.8348193,44.4902677 12.9438124,44.5261515 13.0483366,44.5625303 L13.0483366,44.5353081 C13.5622676,44.7164596 14.1131917,44.8914242 14.6998676,45.0594596 L14.6998676,45.0812374 C16.169909,45.4979848 17.8514814,45.8721667 19.7167779,46.1916566 C19.7349021,46.1948737 19.7535228,46.1978434 19.7716469,46.2010606 C20.1475366,46.2651566 20.5308745,46.3267778 20.9206676,46.3864192 C20.9872055,46.3965657 21.0544883,46.4064646 21.1212745,46.4166111 C21.4710952,46.4693232 21.8261297,46.5198081 22.1866262,46.5688081 C22.2700469,46.5801919 22.3532193,46.5915758 22.4371366,46.6027121 C22.7998676,46.6507222 23.1680607,46.6967525 23.5407228,46.7410505 C23.5916193,46.7469899 23.6422676,46.7534242 23.6931641,46.7593636 L23.6931641,46.7494646 C25.0509848,46.9095808 26.4718676,47.044702 27.9461297,47.1513636 L27.9461297,47.1555707 C28.4667641,47.1924444 28.9918676,47.2273384 29.5251641,47.2575303 C29.6180193,47.2624798 29.7111228,47.2676768 29.8042262,47.2723788 C30.4303779,47.3062828 31.0627366,47.3364747 31.7045297,47.3599848 C31.7109848,47.3602323 31.7171917,47.3604798 31.7233986,47.3607273 C32.2082814,47.3785455 32.699371,47.3916616 33.1924469,47.4030455 C33.2629572,47.4045303 33.3334676,47.4062626 33.4042262,47.4079949 C33.4831779,47.4097273 33.5618814,47.4119545 33.6413297,47.4136869 C33.7076193,47.4146768 33.773909,47.4156667 33.8401986,47.416904 C34.2111228,47.4240808 34.5842814,47.4292778 34.9591779,47.4329899 C35.111371,47.4344747 35.2657986,47.4349697 35.4130262,47.4389293 C35.5537986,47.4426414 35.6940745,47.4401667 35.8350952,47.4384343 C35.8966676,47.4376919 35.9565021,47.4389293 36.0173297,47.4389293 C36.0255228,47.4389293 36.0332193,47.4386818 36.0414124,47.4386818 C36.0649986,47.4386818 36.0883366,47.4389293 36.1116745,47.4389293 C51.3990124,47.4389293 63.7919503,44.5301111 63.7919503,40.9422222 C63.7919503,40.7603283 63.7596745,40.199303 63.6973572,39.445 L63.6973572,39.3692727 L63.6973572,38.4924697 L63.6973572,38.2162879 L63.6973572,37.1932273 L63.6973572,36.9192727 L63.6973572,36.4832222 L63.6973572,35.6200303 L63.6973572,35.3302374 L63.6973572,34.9100253 L63.6973572,34.3447929 C68.7311503,33.168298 71.8472607,31.5401616 71.8472607,29.7410202 C71.8472607,29.5593737 71.8149848,28.998101 71.7526676,28.2440455 L71.7526676,28.1680707 Z" id="Fill-1" fill="#293348" opacity="0.203577899"></path>
                    <g id="Group-5" transform="translate(4.220690, 31.237500)">
                        <mask id="mask-16" fill="white">
                            <use xlink:href="#path-15"></use>
                        </mask>
                        <g id="Clip-4"></g>
                        <path d="M55.4538786,10.7623303 C55.4538786,14.5224616 43.0609407,17.5708556 27.773851,17.5708556 C12.4865131,17.5708556 0.0938234483,14.5224616 0.0938234483,10.7623303 C0.0938234483,9.91200707 0.727423448,2.59467374 1.88488552,1.64857778 C5.84637517,-1.59012424 15.9432579,1.64857778 27.773851,1.64857778 C39.8772993,1.64857778 50.1663476,-1.65966465 53.9269821,1.64857778 C54.9163614,2.51869899 55.4538786,9.97907273 55.4538786,10.7623303" id="Fill-3" fill="#FECF75" mask="url(#mask-16)"></path>
                    </g>
                    <g id="Group-8" transform="translate(3.972414, 25.050631)">
                        <mask id="mask-18" fill="white">
                            <use xlink:href="#path-17"></use>
                        </mask>
                        <g id="Clip-7"></g>
                        <path d="M55.5958428,6.7012202 C55.3460772,2.99429596 43.0586566,0.00727575758 27.9277324,0.00727575758 C12.79656,0.00727575758 0.50913931,2.99429596 0.259373793,6.7012202 L0.247456552,6.69825051 L0.247456552,6.81580101 L0.247456552,8.06010404 L0.247456552,8.17740707 L0.247456552,8.34692727 L0.247456552,9.41923535 L0.247456552,9.53653838 L0.247456552,9.70853333 L0.247456552,10.6274071 L0.247456552,10.7449576 L0.247456552,11.0679121 L0.247456552,11.3715636 L0.247456552,11.4888667 L0.247456552,12.2758364 L0.247456552,12.7331697 L0.247456552,12.8507202 L0.247456552,13.0199929 L0.247456552,14.092301 L0.247456552,14.2098515 L0.247456552,14.3818465 L0.247456552,15.3004727 L0.247456552,15.4180232 L0.247456552,15.7409778 L0.247456552,16.9491495 C0.247456552,17.056801 0.260615172,17.1634626 0.280725517,17.2698768 C0.286932414,17.3040283 0.29736,17.3374374 0.305801379,17.3713414 C0.323925517,17.4443465 0.345773793,17.517104 0.373084138,17.5893667 C0.387732414,17.6277253 0.403870345,17.6660838 0.421001379,17.7044424 C0.452284138,17.7737354 0.488532414,17.8427808 0.528008276,17.9115788 C0.549111724,17.9479576 0.568477241,17.9848313 0.591815172,18.0209626 C0.645442759,18.1041141 0.706270345,18.1867707 0.772063448,18.2689323 C0.787704828,18.2887303 0.800366897,18.3087758 0.817001379,18.3285737 C0.898932414,18.4265737 0.991042759,18.5233364 1.08985655,18.6193566 C1.13032552,18.6589525 1.17551172,18.6978061 1.21846345,18.7369071 C1.28376,18.7958061 1.35054621,18.8547051 1.42204966,18.9133566 C1.47592552,18.9571596 1.53228414,19.0009626 1.58938759,19.0445182 C1.6591531,19.0974778 1.73189793,19.1501899 1.80662897,19.2026545 C1.87018759,19.2469525 1.93324966,19.2917455 2.00053241,19.335796 C2.08097379,19.3887556 2.16638069,19.4407253 2.25203586,19.4926949 C2.36450483,19.5612455 2.48069793,19.6290535 2.60160828,19.6966141 C2.7031531,19.7530384 2.80469793,19.8099576 2.91244966,19.8656394 C3.00654621,19.9143919 3.1063531,19.9621545 3.20491862,20.0101646 C3.28684966,20.0500081 3.36828414,20.090099 3.45319448,20.1296949 C3.55970483,20.1789424 3.66919448,20.2276949 3.78017379,20.2762 C3.86359448,20.3130737 3.9487531,20.3492051 4.03490483,20.3853364 C4.15283586,20.4348313 4.27126345,20.4840788 4.39416,20.5330788 C4.47534621,20.565003 4.56025655,20.5966798 4.64367724,20.628604 C4.74522207,20.6674576 4.85421517,20.7048263 4.95873931,20.7431848 L4.95873931,10.221796 L6.61002207,10.221796 L6.61002207,21.2868869 C8.08031172,21.7236798 9.76188414,22.1156798 11.6269324,22.4507606 C11.6453048,22.4537303 11.6639255,22.4569475 11.6820497,22.4601646 C12.0579393,22.5272303 12.4412772,22.5920687 12.8310703,22.6546798 C12.8976083,22.6653212 12.9646428,22.6757152 13.0316772,22.6863566 C13.3814979,22.741296 13.7365324,22.794503 14.097029,22.8457303 C14.1804497,22.8576091 14.2633738,22.8694879 14.347291,22.8811192 C14.7100221,22.931604 15.0782152,22.9796141 15.4508772,23.0261394 C15.5017738,23.0325737 15.5526703,23.0390081 15.6033186,23.0454424 L15.6033186,12.4218465 L19.8562841,12.4218465 L19.8562841,23.4604576 C20.3771669,23.4993111 20.9022703,23.5356899 21.4353186,23.5673667 C21.5281738,23.5728111 21.6212772,23.5777606 21.714629,23.5832051 C22.3407807,23.6185939 22.9731393,23.6500232 23.6149324,23.6747707 C23.6211393,23.6750182 23.6273462,23.6755131 23.6338014,23.6757606 C24.2659117,23.6997657 24.9062152,23.7173364 25.5517324,23.7307 C25.6942428,23.7339172 25.8374979,23.7363919 25.9807531,23.7391141 C26.6247807,23.750003 27.2722841,23.7576747 27.9277324,23.7576747 C28.5489186,23.7576747 29.1631531,23.7507455 29.7744083,23.7408465 C29.9176634,23.7386192 30.0601738,23.7356495 30.2031807,23.7326798 C30.7898566,23.720801 31.37256,23.7059525 31.9483117,23.6851646 C31.9632083,23.6846697 31.9786014,23.6844222 31.9937462,23.6836798 C32.6338014,23.6604172 33.2654152,23.6312152 33.8903255,23.5973111 C33.9374979,23.5948364 33.9841738,23.5921141 34.0313462,23.5893919 C34.3466566,23.5720687 34.6565048,23.5510333 34.9678428,23.5307404 L34.9678428,11.0035687 L41.1923669,11.0035687 L41.1923669,22.9234374 C42.4608083,22.7526798 43.6706566,22.5589071 44.8087531,22.3431091 C44.8219117,22.3406343 44.8348221,22.3381596 44.848229,22.3356848 C45.242491,22.2604525 45.6278152,22.1829929 46.0046979,22.1025636 C46.0334979,22.0966242 46.0625462,22.0904374 46.0913462,22.0842505 C46.4724497,22.0025838 46.8451117,21.9186899 47.2075945,21.8320737 C47.2120634,21.8310838 47.2165324,21.8298465 47.2212497,21.8288566 C48.469829,21.5301545 49.6014703,21.202003 50.6045048,20.8503414 L50.6045048,9.32148283 L52.2560359,9.32148283 L52.2560359,20.1945333 C53.7511531,19.5189273 54.7991255,18.7747707 55.2892221,17.9850788 C55.2944359,17.9766646 55.2971669,17.968003 55.3021324,17.9595889 C55.3654428,17.855402 55.4210566,17.7504727 55.4650014,17.644801 C55.4851117,17.595801 55.4945462,17.5463061 55.5104359,17.4973061 C55.5317876,17.4312303 55.5581048,17.3656495 55.5715117,17.2990788 C55.5955945,17.1830131 55.6075117,17.0664525 55.6075117,16.9491495 L55.6075117,15.7409778 L55.6075117,15.3004727 L55.6075117,14.3818465 L55.6075117,14.092301 L55.6075117,13.0199929 L55.6075117,12.7331697 L55.6075117,12.2758364 L55.6075117,11.3715636 L55.6075117,11.0679121 L55.6075117,10.6274071 L55.6075117,9.70853333 L55.6075117,9.41923535 L55.6075117,8.34692727 L55.6075117,8.06010404 L55.6075117,6.69825051 L55.5958428,6.7012202 Z" id="Fill-6" fill="#E9A12A" mask="url(#mask-18)"></path>
                    </g>
                    <path d="M59.6745683,31.5833955 C59.6745683,35.3435268 47.2816303,38.3919207 31.9945407,38.3919207 C16.7072028,38.3919207 4.3145131,35.3435268 4.3145131,31.5833955 C4.3145131,27.8232641 16.7072028,24.7748702 31.9945407,24.7748702 C47.2816303,24.7748702 59.6745683,27.8232641 59.6745683,31.5833955" id="Fill-9" fill="#F8B32A"></path>
                    <path d="M56.6503945,31.5833955 C56.6503945,34.4241581 45.6115531,36.7269106 31.9943669,36.7269106 C18.377429,36.7269106 7.33858759,34.4241581 7.33858759,31.5833955 C7.33858759,28.7426328 18.377429,26.4398803 31.9943669,26.4398803 C45.6115531,26.4398803 56.6503945,28.7426328 56.6503945,31.5833955" id="Fill-11" fill="#FECF75"></path>
                    <path d="M53.3340745,31.5833955 C53.3340745,33.6770318 43.780171,35.3744611 31.9945159,35.3744611 C20.209109,35.3744611 10.6549572,33.6770318 10.6549572,31.5833955 C10.6549572,29.4895116 20.209109,27.7923298 31.9945159,27.7923298 C43.780171,27.7923298 53.3340745,29.4895116 53.3340745,31.5833955" id="Fill-13" fill="#F8B32A"></path>
                    <path d="M49.1884138,31.4852965 C49.1884138,33.0174126 41.4039724,34.2597359 31.8016552,34.2597359 C22.1990897,34.2597359 14.4148966,33.0174126 14.4148966,31.4852965 C14.4148966,29.9531803 22.1990897,28.7108571 31.8016552,28.7108571 C41.4039724,28.7108571 49.1884138,29.9531803 49.1884138,31.4852965" id="Fill-15" fill="#FECF75"></path>
                    <path d="M67.729829,30.2612121 C67.729829,34.0213434 55.3371393,37.0697374 40.0498014,37.0697374 C24.7627117,37.0697374 12.3697738,34.0213434 12.3697738,30.2612121 C12.3697738,29.4106414 13.0033738,22.0935556 14.1608359,21.1474596 C18.1223255,17.9087576 28.2194566,21.1474596 40.0498014,21.1474596 C52.1532497,21.1474596 62.4422979,17.8389697 66.2031807,21.1474596 C67.1923117,22.0173333 67.729829,29.4779545 67.729829,30.2612121" id="Fill-17" fill="#FECF75"></path>
                    <path d="M67.6235172,20.0132333 C67.374,16.3063091 55.086331,13.3192889 39.9554069,13.3192889 C24.8242345,13.3192889 12.5368138,16.3063091 12.2870483,20.0132333 L12.2753793,20.0102636 L12.2753793,20.1278141 L12.2753793,21.3721172 L12.2753793,21.4894202 L12.2753793,21.6589404 L12.2753793,22.7312485 L12.2753793,22.8485515 L12.2753793,23.0205465 L12.2753793,23.9394202 L12.2753793,24.0569707 L12.2753793,24.3799253 L12.2753793,24.6833293 L12.2753793,24.8008798 L12.2753793,25.5878495 L12.2753793,26.0451828 L12.2753793,26.1627333 L12.2753793,26.3320061 L12.2753793,27.4043141 L12.2753793,27.5218646 L12.2753793,27.6938596 L12.2753793,28.6124859 L12.2753793,28.7300364 L12.2753793,29.0527434 L12.2753793,30.2609152 C12.2753793,30.3688141 12.2882897,30.4754758 12.3084,30.5818899 C12.3146069,30.6160414 12.3250345,30.6494505 12.3334759,30.6833545 C12.3518483,30.7563596 12.3734483,30.8291172 12.4010069,30.9013798 C12.4154069,30.9397384 12.4315448,30.978097 12.4486759,31.0164556 C12.4802069,31.0857485 12.5162069,31.1547939 12.555931,31.2235919 C12.5767862,31.2599707 12.5964,31.296597 12.6194897,31.3329758 C12.6731172,31.4161273 12.7336966,31.4987838 12.7997379,31.5809455 C12.8153793,31.6007434 12.8280414,31.6207889 12.8446759,31.6405869 C12.9266069,31.7385869 13.0187172,31.8353495 13.117531,31.9313697 C13.158,31.9707182 13.2031862,32.0098192 13.2461379,32.0489202 C13.3116828,32.1078192 13.3782207,32.1667182 13.4497241,32.2253697 C13.5038483,32.2691727 13.5599586,32.3129758 13.6173103,32.3565313 C13.6868276,32.4094909 13.7595724,32.462203 13.8345517,32.5146677 C13.8978621,32.5589657 13.9609241,32.6037586 14.0282069,32.6478091 C14.1086483,32.7007687 14.1943034,32.7527384 14.2799586,32.8047081 C14.3921793,32.8732586 14.5083724,32.9410667 14.6292828,33.0086273 C14.7310759,33.0650515 14.8323724,33.1219707 14.9401241,33.1776525 C15.0342207,33.2264051 15.1340276,33.2741677 15.2325931,33.3221778 C15.3147724,33.3620212 15.3962069,33.4021121 15.480869,33.4417081 C15.5873793,33.4909556 15.696869,33.5397081 15.8078483,33.5882131 C15.8915172,33.6250869 15.9764276,33.6612182 16.0625793,33.6973495 C16.1805103,33.7468444 16.2991862,33.7960919 16.4218345,33.8450919 C16.503269,33.8770162 16.587931,33.9086929 16.6713517,33.9406172 C16.7728966,33.9794707 16.8818897,34.0168394 16.9864138,34.055198 L16.9864138,23.5338091 L18.6379448,23.5338091 L18.6379448,34.5989 C20.1079862,35.0356929 21.7898069,35.4276929 23.6548552,35.7627737 C23.6729793,35.7657434 23.6916,35.7689606 23.7097241,35.7721778 C24.0856138,35.8392434 24.4689517,35.9040818 24.8587448,35.9666929 C24.9252828,35.9773343 24.9925655,35.9877283 25.0593517,35.9983697 C25.4091724,36.0533091 25.7642069,36.1065162 26.1247034,36.1577434 C26.2081241,36.1696222 26.2910483,36.181501 26.3749655,36.1931323 C26.7379448,36.2436172 27.1058897,36.2916273 27.4785517,36.3381525 C27.5296966,36.3445869 27.5803448,36.3510212 27.6312414,36.3574556 L27.6312414,25.7338596 L31.8842069,25.7338596 L31.8842069,36.7724707 C32.4048414,36.8113242 32.9299448,36.847703 33.4629931,36.8791323 C33.5558483,36.8848242 33.6492,36.8897737 33.7423034,36.8952182 C34.3687034,36.9306071 35.0008138,36.9620364 35.6426069,36.9867838 C35.6490621,36.9870313 35.655269,36.9875263 35.6614759,36.9877737 C36.2935862,37.0117788 36.9341379,37.0293495 37.5794069,37.0427131 C37.7221655,37.0459303 37.8651724,37.0484051 38.0084276,37.0508798 C38.6524552,37.0620162 39.2999586,37.0696879 39.9554069,37.0696879 C40.5765931,37.0696879 41.1910759,37.0627586 41.8020828,37.0528596 C41.9453379,37.0503848 42.0880966,37.0476626 42.2308552,37.0446929 C42.817531,37.0328141 43.4002345,37.0179657 43.9759862,36.9971778 C43.991131,36.9966828 44.0062759,36.9964354 44.0214207,36.9956929 C44.6614759,36.9724303 45.2930897,36.9432283 45.9182483,36.9093242 C45.9654207,36.9068495 46.0118483,36.9041273 46.0590207,36.9014051 C46.3745793,36.8838343 46.6841793,36.862799 46.9955172,36.8427535 L46.9955172,24.3153343 L53.2202897,24.3153343 L53.2202897,36.2354505 C54.4884828,36.0646929 55.6985793,35.8709202 56.8366759,35.6551222 C56.8498345,35.6526475 56.8627448,35.6501727 56.8759034,35.647698 C57.2701655,35.5724657 57.6554897,35.4947586 58.0323724,35.4145768 C58.0614207,35.4086374 58.0902207,35.4024505 58.1190207,35.3962636 C58.5003724,35.314597 58.8730345,35.230703 59.235269,35.1440869 C59.2397379,35.143097 59.2444552,35.1418596 59.2489241,35.1408697 C60.4977517,34.8421677 61.6291448,34.5140162 62.6321793,34.1623545 L62.6321793,22.633496 L64.2837103,22.633496 L64.2837103,33.5065465 C65.7788276,32.8309404 66.8268,32.0867838 67.3171448,31.2970919 C67.3221103,31.2886778 67.3248414,31.2800162 67.3300552,31.271602 C67.3931172,31.1674152 67.4489793,31.0624859 67.4926759,30.9568141 C67.5127862,30.9078141 67.5222207,30.8583192 67.5381103,30.8093192 C67.5597103,30.7432434 67.5857793,30.6776626 67.5991862,30.6110919 C67.623269,30.4950263 67.6351862,30.3784657 67.6351862,30.2609152 L67.6351862,29.0527434 L67.6351862,28.6124859 L67.6351862,27.6938596 L67.6351862,27.4043141 L67.6351862,26.3320061 L67.6351862,26.0451828 L67.6351862,25.5878495 L67.6351862,24.6833293 L67.6351862,24.3799253 L67.6351862,23.9394202 L67.6351862,23.0205465 L67.6351862,22.7312485 L67.6351862,21.6589404 L67.6351862,21.3721172 L67.6351862,20.0102636 L67.6235172,20.0132333 Z" id="Fill-19" fill="#E9A12A"></path>
                    <path d="M67.729829,19.8447773 C67.729829,23.6049086 55.3371393,26.6533025 40.0498014,26.6533025 C24.7627117,26.6533025 12.3697738,23.6049086 12.3697738,19.8447773 C12.3697738,16.084646 24.7627117,13.036252 40.0498014,13.036252 C55.3371393,13.036252 67.729829,16.084646 67.729829,19.8447773" id="Fill-21" fill="#F8B32A"></path>
                    <path d="M64.7057793,19.8447773 C64.7057793,22.6855399 53.6669379,24.9882924 40.0497517,24.9882924 C26.4328138,24.9882924 15.3939724,22.6855399 15.3939724,19.8447773 C15.3939724,17.0040146 26.4328138,14.7012621 40.0497517,14.7012621 C53.6669379,14.7012621 64.7057793,17.0040146 64.7057793,19.8447773" id="Fill-23" fill="#FECF75"></path>
                    <path d="M61.3893352,19.8447773 C61.3893352,21.9384136 51.8354317,23.6358429 40.0497766,23.6358429 C28.2643697,23.6358429 18.7104662,21.9384136 18.7104662,19.8447773 C18.7104662,17.7508934 28.2643697,16.0537116 40.0497766,16.0537116 C51.8354317,16.0537116 61.3893352,17.7508934 61.3893352,19.8447773" id="Fill-25" fill="#F8B32A"></path>
                    <path d="M57.2438234,19.7466783 C57.2438234,21.2787944 49.4593821,22.5211177 39.8570648,22.5211177 C30.2544993,22.5211177 22.4703062,21.2787944 22.4703062,19.7466783 C22.4703062,18.2145621 30.2544993,16.9722389 39.8570648,16.9722389 C49.4593821,16.9722389 57.2438234,18.2145621 57.2438234,19.7466783" id="Fill-27" fill="#FECF75"></path>
                    <path d="M55.4544745,17.4722616 C55.4544745,21.2323929 43.0617848,24.2807869 27.7744469,24.2807869 C12.4873572,24.2807869 0.0944193103,21.2323929 0.0944193103,17.4722616 C0.0944193103,16.6219384 0.72801931,9.30460505 1.88548138,8.35850909 C5.84697103,5.11980707 15.9441021,8.35850909 27.7744469,8.35850909 C39.8778952,8.35850909 50.1669434,5.05026667 53.9278262,8.35850909 C54.9169572,9.2286303 55.4544745,16.6892515 55.4544745,17.4722616" id="Fill-29" fill="#FECF75"></path>
                    <path d="M55.3481628,7.2245303 C55.0986455,3.51735859 42.8109766,0.530585859 27.6800524,0.530585859 C12.54888,0.530585859 0.26145931,3.51735859 0.0116937931,7.2245303 L2.48275862e-05,7.22156061 L2.48275862e-05,7.33911111 L2.48275862e-05,8.58316667 L2.48275862e-05,8.70071717 L2.48275862e-05,8.87023737 L2.48275862e-05,9.94229798 L2.48275862e-05,10.0598485 L2.48275862e-05,10.2318434 L2.48275862e-05,11.1504697 L2.48275862e-05,11.2680202 L2.48275862e-05,11.5912222 L2.48275862e-05,11.8946263 L2.48275862e-05,12.0121768 L2.48275862e-05,12.7991465 L2.48275862e-05,13.2562323 L2.48275862e-05,13.3737828 L2.48275862e-05,13.543303 L2.48275862e-05,14.6153636 L2.48275862e-05,14.7329141 L2.48275862e-05,14.9049091 L2.48275862e-05,15.8235354 L2.48275862e-05,15.9410859 L2.48275862e-05,16.2640404 L2.48275862e-05,17.4722121 C2.48275862e-05,17.5798636 0.0129351724,17.6865253 0.0330455172,17.7929394 C0.0392524138,17.8270909 0.0499282759,17.8607475 0.0581213793,17.894404 C0.0764937931,17.9674091 0.0980937931,18.0401667 0.125652414,18.1124293 C0.140052414,18.1507879 0.156190345,18.1891465 0.173321379,18.2275051 C0.204852414,18.296798 0.240852414,18.3660909 0.280576552,18.4346414 C0.301431724,18.4710202 0.321045517,18.5078939 0.344135172,18.5440253 C0.397762759,18.6271768 0.458590345,18.7098333 0.524383448,18.7919949 C0.540024828,18.8117929 0.552686897,18.8320859 0.569321379,18.8516364 C0.651252414,18.9496364 0.743362759,19.0466465 0.842176552,19.1426667 C0.882645517,19.1820152 0.927831724,19.2211162 0.970783448,19.2599697 C1.03632828,19.3191162 1.10286621,19.3777677 1.17436966,19.4364192 C1.22849379,19.4802222 1.28460414,19.5240253 1.34195586,19.5675808 C1.4114731,19.6205404 1.48421793,19.6732525 1.55919724,19.7257172 C1.62250759,19.7700152 1.68556966,19.8148081 1.75285241,19.8591061 C1.83329379,19.9118182 1.91894897,19.9637879 2.00460414,20.0160051 C2.11682483,20.0843081 2.23301793,20.1521162 2.35392828,20.2196768 C2.45572138,20.276101 2.55701793,20.3330202 2.66476966,20.388702 C2.75886621,20.437702 2.8586731,20.4854646 2.95723862,20.5332273 C3.03941793,20.5730707 3.12085241,20.6134091 3.20551448,20.6527576 C3.31202483,20.7020051 3.42151448,20.7507576 3.53249379,20.7995101 C3.61616276,20.8361364 3.70132138,20.8722677 3.78722483,20.9086465 C3.90515586,20.9578939 4.02383172,21.0073889 4.14648,21.0561414 C4.22791448,21.0883131 4.31257655,21.1197424 4.39599724,21.1516667 C4.49754207,21.1907677 4.60653517,21.2281364 4.71105931,21.2662475 L4.71105931,10.7448586 L6.36259034,10.7448586 L6.36259034,21.8099495 C7.83263172,22.2467424 9.51445241,22.6387424 11.3795007,22.9738232 C11.3976248,22.9767929 11.4162455,22.9800101 11.4343697,22.9834747 C11.8102593,23.0505404 12.1935972,23.1151313 12.5833903,23.1777424 C12.6499283,23.1883838 12.717211,23.1987778 12.7839972,23.2094192 C13.1338179,23.2643586 13.4888524,23.3175657 13.849349,23.3687929 C13.9327697,23.3806717 14.0156938,23.3925505 14.0998593,23.4044293 C14.4625903,23.4546667 14.8305352,23.5029242 15.2031972,23.5494495 C15.2543421,23.5556364 15.3049903,23.5623182 15.3558869,23.5685051 L15.3558869,12.9451566 L19.6088524,12.9451566 L19.6088524,23.9835202 C20.1294869,24.0223737 20.6545903,24.0587525 21.1876386,24.0904293 C21.2804938,24.0961212 21.3738455,24.1010707 21.466949,24.1062677 C22.093349,24.1416566 22.7254593,24.1730859 23.3672524,24.1980808 C23.3737076,24.1983283 23.3799145,24.1985758 23.3861214,24.1988232 C24.0182317,24.2230758 24.6587834,24.2406465 25.3040524,24.2540101 C25.446811,24.2569798 25.5898179,24.259702 25.7330731,24.2621768 C26.3771007,24.2730657 27.0246041,24.2807374 27.6800524,24.2807374 C28.3012386,24.2807374 28.9157214,24.2740556 29.5267283,24.2641566 C29.6699834,24.2616818 29.8127421,24.2587121 29.9555007,24.2557424 C30.5421766,24.2441111 31.12488,24.2290152 31.7006317,24.2084747 C31.7157766,24.2077323 31.7311697,24.2074848 31.7460662,24.2069899 C32.3861214,24.1837273 33.0177352,24.1542778 33.6428938,24.1203737 C33.6900662,24.1181465 33.7364938,24.1151768 33.7836662,24.1124545 C34.0992248,24.0951313 34.4088248,24.074096 34.7201628,24.053803 L34.7201628,11.5266313 L40.9449352,11.5266313 L40.9449352,23.4465 C42.2131283,23.2757424 43.4232248,23.0819697 44.5613214,22.8661717 C44.57448,22.863697 44.5873903,22.8612222 44.600549,22.8587475 C44.994811,22.7835152 45.3801352,22.7060556 45.7570179,22.6256263 C45.7860662,22.6196869 45.8148662,22.6135 45.8436662,22.6073131 C46.2250179,22.5256465 46.59768,22.4417525 46.9599145,22.3551364 C46.9643834,22.3541465 46.9691007,22.3531566 46.9735697,22.3519192 C48.2223972,22.0532172 49.3537903,21.7250657 50.3568248,21.373404 L50.3568248,9.84454545 L52.0083559,9.84454545 L52.0083559,20.717596 C53.5034731,20.0419899 54.5514455,19.2978333 55.0417903,18.5081414 C55.0467559,18.4999747 55.0494869,18.4910657 55.0547007,18.482899 C55.1177628,18.3784646 55.1736248,18.2735354 55.2173214,18.1678636 C55.2374317,18.1188636 55.2468662,18.0693687 55.2627559,18.0203687 C55.2843559,17.9542929 55.3104248,17.8887121 55.3238317,17.8223889 C55.3479145,17.7063232 55.3598317,17.5897626 55.3598317,17.4722121 L55.3598317,16.2640404 L55.3598317,15.8235354 L55.3598317,14.9049091 L55.3598317,14.6153636 L55.3598317,13.543303 L55.3598317,13.2562323 L55.3598317,12.7991465 L55.3598317,11.8946263 L55.3598317,11.5912222 L55.3598317,11.1504697 L55.3598317,10.2318434 L55.3598317,9.94229798 L55.3598317,8.87023737 L55.3598317,8.58316667 L55.3598317,7.22156061 L55.3481628,7.2245303 Z" id="Fill-31" fill="#E9A12A"></path>
                    <g id="Group-35" transform="translate(0.000000, 0.055682)">
                        <mask id="mask-20" fill="white">
                            <use xlink:href="#path-19"></use>
                        </mask>
                        <g id="Clip-34"></g>
                        <path d="M55.4544745,7.0001697 C55.4544745,10.760301 43.0617848,13.8086949 27.7744469,13.8086949 C12.4873572,13.8086949 0.0944193103,10.760301 0.0944193103,7.0001697 C0.0944193103,3.24003838 12.4873572,0.191644444 27.7744469,0.191644444 C43.0617848,0.191644444 55.4544745,3.24003838 55.4544745,7.0001697" id="Fill-33" fill="#F8B32A" mask="url(#mask-20)"></path>
                    </g>
                    <path d="M52.4304248,7.05585152 C52.4304248,9.89661414 41.3915834,12.1993667 27.7743972,12.1993667 C14.1574593,12.1993667 3.11861793,9.89661414 3.11861793,7.05585152 C3.11861793,4.21508889 14.1574593,1.91233636 27.7743972,1.91233636 C41.3915834,1.91233636 52.4304248,4.21508889 52.4304248,7.05585152" id="Fill-36" fill="#FECF75"></path>
                    <path d="M49.1139807,7.05585152 C49.1139807,9.14973535 39.5600772,10.8469172 27.7744221,10.8469172 C15.9890152,10.8469172 6.43511172,9.14973535 6.43511172,7.05585152 C6.43511172,4.96221515 15.9890152,3.26478586 27.7744221,3.26478586 C39.5600772,3.26478586 49.1139807,4.96221515 49.1139807,7.05585152" id="Fill-38" fill="#F8B32A"></path>
                    <path d="M44.968469,6.95772778 C44.968469,8.49009141 37.1840276,9.73216717 27.5817103,9.73216717 C17.9791448,9.73216717 10.1949517,8.49009141 10.1949517,6.95772778 C10.1949517,5.42561162 17.9791448,4.18328838 27.5817103,4.18328838 C37.1840276,4.18328838 44.968469,5.42561162 44.968469,6.95772778" id="Fill-40" fill="#FECF75"></path>
                </g>
                <g id="Page-1" transform="translate(331.000000, 540.000000)">
                    <polygon id="Fill-1" fill="#F1706F" points="18.8403122 -4.15048544e-05 5.62899787e-05 13.8083468 25.8972461 56.9861235 65.9952716 26.4763201 53.613165 6.67476917"></polygon>
                    <polygon id="Fill-2" fill="#F0575A" points="25.8972601 56.986165 17.0731023 17.0856117 7.03624733e-05 13.8083883"></polygon>
                    <polygon id="Fill-3" fill="#C02026" points="25.4794337 56.9059777 65.9952716 26.476417 48.9220989 23.1991937"></polygon>
                    <polygon id="Fill-4" fill="#E13C39" points="25.4794337 56.9059777 48.9220989 23.1991937 17.0730883 17.085667"></polygon>
                    <polygon id="Fill-5" fill="#F05756" points="36.2067557 3.33350388 17.073229 17.085584 48.9220989 23.1991107"></polygon>
                    <polygon id="Fill-6" fill="#EC4F4F" points="48.9221693 23.1991383 65.995342 26.4763617 53.6130947 6.67481068"></polygon>
                    <polygon id="Fill-7" fill="#E33E3A" points="18.8403122 -4.15048544e-05 17.0730883 17.0855701 36.2067557 3.33349005"></polygon>
                    <polygon id="Fill-8" fill="#E33E3A" points="53.613151 6.67482451 48.9222256 23.1990138 36.2067416 3.33354539"></polygon>
                    <path d="M19.730313,17.3444913 C17.487861,16.9140859 17.7300486,13.4254646 17.7567864,13.1075374 L17.759038,13.0960544 C17.759038,13.0960544 17.7573493,13.1011733 17.7572085,13.1015883 C17.7581936,13.0914888 17.7596009,13.076132 17.7596009,13.076132 L17.7496094,13.1260762 C17.6527906,13.4307218 16.5423301,16.752632 14.299878,16.3220883 C14.299878,16.3220883 16.827861,17.5719379 16.3042235,20.4039524 L16.2966243,20.4421369 C16.2978908,20.4354961 16.3001424,20.4298238 16.3015497,20.4233214 C16.2990166,20.4367413 16.2988759,20.4486393 16.2962021,20.4620592 L16.3114004,20.3852752 C16.9099036,17.5675107 19.730313,17.3444913 19.730313,17.3444913" id="Fill-9" fill="#FEFEFE"></path>
                </g>
            </g>
        </g>
    </g>
</svg>