<?xml version="1.0" encoding="UTF-8" standalone="no"?>
<svg width="165px" height="611px" viewBox="0 0 165 611" version="1.1" xmlns="http://www.w3.org/2000/svg" xmlns:xlink="http://www.w3.org/1999/xlink">
    <!-- Generator: Sketch 49.3 (51167) - http://www.bohemiancoding.com/sketch -->
    <title>Group 2</title>
    <desc>Created with Sketch.</desc>
    <defs></defs>
    <g id="About-Us" stroke="none" stroke-width="1" fill="none" fill-rule="evenodd">
        <g transform="translate(-76.000000, -232.000000)" id="Group-2">
            <g transform="translate(75.000000, 232.000000)">
                <path d="M82.9890863,606.933684 C61.8410333,606.933684 44.3575321,600.049443 31.0243869,586.471651 C17.8360487,573.041828 8.80779819,553.374787 4.18915496,528.017742 C2.55384774,519.037082 0.677584753,504.747408 1.02792432,487.670405 C1.03532037,487.321261 1.0407701,487.072704 1.0407701,486.933279 C1.0407701,485.361159 3.19224428,484.149057 8.01719858,483.002978 C12.1391382,482.02351 18.0263999,481.145794 25.5154919,480.392746 C40.8716535,478.849753 61.2824363,478 82.9890863,478 C104.695736,478 125.106519,478.849753 140.462681,480.392746 C147.951773,481.145794 153.839035,482.02351 157.960974,483.002978 C162.785928,484.149057 164.937792,485.361159 164.937792,486.933279 C164.937792,487.072704 164.942852,487.320872 164.950248,487.670405 C165.300588,504.747408 163.424325,519.037082 161.789018,528.017742 C157.170375,553.374787 148.141735,573.041828 134.953397,586.472039 C121.620251,600.049443 104.137139,606.933684 82.9890863,606.933684" id="Fill-226" fill="#1D2F63"></path>
                <g id="Page-1" transform="translate(1.000000, 0.000000)">
                    <g id="Group-221" transform="translate(24.816636, 2.143344)" fill="#99C577">
                        <path d="M23.9959244,26.8849298 C21.422875,31.5791541 18.9958003,36.8411749 16.7294926,42.6500201 C5.98107486,70.1990233 0.0615040565,106.843644 0.0615040565,145.83363 C0.0615040565,165.447075 1.55278279,191.307447 4.10597967,219.033547 C19.64315,180.767482 24.257122,130.608762 25.3638058,94.7936982 C26.4159923,60.7356193 24.5786559,34.1777356 23.9959244,26.8849298" id="Fill-217"></path>
                        <path d="M56.635699,111.490526 C59.7054521,54.5100922 56.1631298,6.67498733 55.6551375,0.299899065 C48.4260752,0.534085981 41.3877534,4.3109811 34.7231272,11.5362106 C31.4735331,15.0587236 28.3839274,19.3272947 25.4694915,24.2941545 C25.9397251,30.1736831 28.0273596,58.9953736 26.9198973,94.8415065 C25.7828508,131.638757 20.9489434,183.539315 4.41486238,222.342495 C6.51845682,244.571222 9.28691789,267.874568 12.5053707,290.037272 C26.087257,269.506886 36.8146544,241.768358 44.3952239,207.548329 C50.5900059,179.584547 54.7084421,147.266364 56.635699,111.490526" id="Fill-218"></path>
                        <path d="M96.0146832,42.6501367 C94.6654866,39.1924814 93.2586787,35.9325063 91.7989305,32.8663277 C92.9694539,47.6694264 96.6737109,103.068419 92.3738766,165.740411 C89.4318029,208.623414 83.373264,246.477418 74.3672017,278.25033 C63.1380402,317.863649 47.2610405,348.096675 27.1760734,368.12451 C29.705525,378.380189 32.2914203,387.440465 34.8878257,395.098726 C42.0308601,416.1705 49.4600051,427.308554 56.3718154,427.308554 C63.2836257,427.308554 70.7127708,416.1705 77.8561945,395.098726 C84.1806021,376.443001 90.4446735,349.482766 95.9730317,317.133125 C105.655249,260.468047 112.682672,188.426249 112.682672,145.833746 C112.682672,106.843761 106.763101,70.1991398 96.0146832,42.6501367" id="Fill-219"></path>
                        <path d="M90.818914,165.655785 C95.8202058,92.7933614 89.9835487,29.7780509 89.9236017,29.1500571 C89.9216554,29.1306386 89.9243803,29.1116085 89.923991,29.09219 C86.254768,22.025027 82.2737428,16.1466636 78.0206205,11.5363271 C71.3956994,4.35420665 64.4013646,0.580806854 57.2174573,0.306229491 C57.7632085,7.20484008 61.2448052,54.876053 58.1906227,111.574142 C56.2586947,147.433868 52.1285805,179.837492 45.915503,207.883609 C38.1395218,242.986013 27.0551673,271.335835 12.9715169,292.146236 C12.932201,292.204491 12.8862676,292.254591 12.835663,292.298477 C14.0863753,300.799501 15.402095,309.119933 16.7711441,317.133164 C19.9000657,335.442464 23.2644933,352.022742 26.7421973,366.350477 C46.319172,346.511388 61.8357113,316.74596 72.8655685,277.83792 C81.8428251,246.171033 87.8834577,208.427714 90.818914,165.655785" id="Fill-220"></path>
                    </g>
                    <path d="M81.1961204,2.40599813 C73.7155922,2.40599813 66.4320327,6.19027227 59.5474711,13.6539607 C52.8151125,20.9522037 46.7612449,31.42032 41.5536419,44.7678091 C30.8052241,72.3168123 24.8856533,108.961433 24.8856533,147.951419 C24.8856533,190.54431 31.9134649,262.586108 41.5956826,319.251186 C47.1232624,351.600827 53.387723,378.561061 59.7121307,397.216399 C66.8551651,418.288561 74.2843101,429.426615 81.1961204,429.426615 C88.1079307,429.426615 95.5370758,418.288561 102.68011,397.216399 C109.004518,378.561061 115.268978,351.600827 120.796558,319.251186 C130.478776,262.586108 137.506588,190.54431 137.506588,147.951419 C137.506588,108.961433 131.587017,72.3168123 120.838599,44.7678091 C115.630996,31.42032 109.577128,20.9522037 102.84477,13.6539607 C95.9602081,6.19027227 88.6766486,2.40599813 81.1961204,2.40599813 M81.1961204,430.980094 C73.444663,430.980094 65.7196756,419.787668 58.2372011,397.714289 C51.8871019,378.982831 45.6020102,351.941039 40.0604168,319.512171 C30.3653533,262.771749 23.3285886,190.620042 23.3285886,147.951419 C23.3285886,108.773074 29.2859182,71.9284426 40.1028468,44.2042847 C51.0096959,16.2486586 65.6036743,0.852519418 81.1961204,0.852519418 C96.7885665,0.852519418 111.382545,16.2486586 122.289394,44.2042847 C133.106323,71.9284426 139.063652,108.773074 139.063652,147.951419 C139.063652,190.620042 132.026887,262.771749 122.331824,319.512171 C116.790231,351.941039 110.505139,378.982831 104.15504,397.714289 C96.6725652,419.787668 88.9475779,430.980094 81.1961204,430.980094" id="Fill-222" fill="#99C577"></path>
                    <path d="M111.365417,600.135361 C107.580193,601.7603 103.993105,603.55884 99.9139847,604.420244 C95.5343509,605.344564 91.0605147,605.844784 86.5870678,605.965179 C80.6523156,606.124799 74.7362482,605.60516 68.8871345,604.650159 C68.7310388,604.704531 68.554312,604.723949 68.3577325,604.685112 C65.3611615,604.089741 62.3622548,603.511459 59.4046104,602.743264 C59.2594141,602.705204 59.1399094,602.644618 59.0425928,602.569663 C56.5882696,601.931571 54.1658661,601.185901 51.8139199,600.218861 C51.7991278,600.212259 51.7870605,600.203714 51.7726577,600.196724 C31.6779589,601.131918 18.0232798,602.962693 18.0232798,605.068821 C18.0232798,608.124902 46.7779833,610.602701 82.2486962,610.602701 C117.719798,610.602701 146.474502,608.124902 146.474502,605.068821 C146.474502,602.915312 132.201668,601.049972 111.365417,600.135361" id="Fill-223" fill="#313270"></path>
                    <path d="M136.421002,491.616756 C136.421002,493.761334 111.39975,495.500453 80.5344458,495.500453 C49.6687518,495.500453 24.6475003,493.761334 24.6475003,491.616756 C24.6475003,489.471791 49.6687518,487.73306 80.5344458,487.73306 C111.39975,487.73306 136.421002,489.471791 136.421002,491.616756" id="Fill-224" fill="#5051BC"></path>
                    <path d="M82.2487351,479.663786 C60.5926897,479.663786 40.2367933,480.510821 24.9308471,482.049153 C2.12101677,484.340922 1.85748357,487.016789 1.85748357,487.043587 C1.85748357,487.070384 2.12101677,489.746252 24.9308471,492.038409 C40.2364041,493.576353 60.5923004,494.423388 82.2487351,494.423388 C103.90517,494.423388 124.261066,493.576353 139.566623,492.038409 C162.376453,489.746252 162.640376,487.070384 162.640376,487.043587 C162.640376,487.016789 162.376453,484.340922 139.566623,482.049153 C124.260677,480.510821 103.904781,479.663786 82.2487351,479.663786 M82.2487351,495.976866 C60.5416958,495.976866 40.1309129,495.126725 24.7751407,493.584121 C17.2860486,492.83146 11.3987869,491.953745 7.27684733,490.974276 C2.45189303,489.827809 0.30041885,488.615707 0.30041885,487.043587 C0.30041885,485.471466 2.45189303,484.259365 7.27684733,483.113286 C11.3987869,482.133817 17.2860486,481.256102 24.7751407,480.503053 C40.1313022,478.96006 60.5420851,478.110308 82.2487351,478.110308 C103.955385,478.110308 124.366168,478.96006 139.72233,480.503053 C147.211422,481.256102 153.098683,482.133817 157.220623,483.113286 C162.045577,484.259365 164.197441,485.471466 164.197441,487.043587 C164.197441,488.615707 162.045577,489.827809 157.220623,490.974276 C153.098683,491.953745 147.211422,492.83146 139.72233,493.584121 C124.366557,495.126725 103.955774,495.976866 82.2487351,495.976866" id="Fill-225" fill="#595AC3"></path>
                    <path d="M82.2487351,479.663786 C60.5926897,479.663786 40.2367933,480.510821 24.9308471,482.049153 C2.12101677,484.340922 1.85748357,487.016789 1.85748357,487.043587 C1.85748357,487.189226 1.85203384,487.448268 1.84463779,487.812559 C1.49663382,504.760623 3.35810469,518.94 4.9809554,527.849977 C9.54276577,552.896326 18.4301019,572.290731 31.3961691,585.494912 C44.4256867,598.763174 61.5347139,605.490513 82.2487351,605.490513 C102.962756,605.490513 120.071783,598.763174 133.100912,585.494912 C146.067368,572.290731 154.954704,552.896326 159.516515,527.849977 C161.139366,518.939612 163.000836,504.760623 162.652832,487.812559 C162.645436,487.448268 162.640376,487.189226 162.640376,487.043587 C162.640376,487.016789 162.376453,484.340922 139.566623,482.049153 C124.260677,480.510821 103.904781,479.663786 82.2487351,479.663786 M82.2487351,607.043992 C61.1006821,607.043992 43.6171808,600.159751 30.2840356,586.581959 C17.0956975,573.152135 8.06744694,553.485095 3.44880371,528.12805 C1.81349649,519.14739 -0.0627664965,504.857716 0.287573066,487.780713 C0.294969123,487.431568 0.30041885,487.183012 0.30041885,487.043587 C0.30041885,485.471466 2.45189303,484.259365 7.27684733,483.113286 C11.3987869,482.133817 17.2860486,481.256102 24.7751407,480.503053 C40.1313022,478.96006 60.5420851,478.110308 82.2487351,478.110308 C103.955385,478.110308 124.366168,478.96006 139.72233,480.503053 C147.211422,481.256102 153.098683,482.133817 157.220623,483.113286 C162.045577,484.259365 164.197441,485.471466 164.197441,487.043587 C164.197441,487.183012 164.202501,487.43118 164.209897,487.780713 C164.560237,504.857716 162.683974,519.14739 161.048666,528.12805 C156.430023,553.485095 147.401383,573.152135 134.213045,586.582347 C120.8799,600.159751 103.396788,607.043992 82.2487351,607.043992" id="Fill-226" fill="#595AC3"></path>
                    <path d="M37.1497568,294.606373 C36.9998893,294.606373 36.8484648,294.563652 36.7149465,294.473162 C36.3587679,294.233149 36.2649548,293.750406 36.5055213,293.395048 C50.4774523,272.749315 61.4835643,244.582416 69.2171155,209.676526 C75.4122867,181.715851 79.5307229,149.400387 81.4587583,113.628433 C84.7429971,52.6947838 80.463794,2.19895826 80.4205854,1.69601952 C80.3832159,1.26881288 80.7008571,0.892482658 81.1286606,0.855199169 C81.5576319,0.81869242 81.9344416,1.13482534 81.9714219,1.56242035 C82.015409,2.06613583 86.3027867,52.6528399 83.0146552,113.691737 C81.0827272,149.551851 76.9530023,181.955087 70.7399248,210.001592 C62.9635543,245.103997 51.8795891,273.453818 37.7955494,294.264219 C37.6452927,294.486366 37.400055,294.606373 37.1497568,294.606373" id="Fill-227" fill="#99C577"></path>
                    <path d="M28.2673643,225.534981 C28.1645981,225.534981 28.060664,225.514397 27.9602333,225.471676 C27.5651282,225.301959 27.3829516,224.845625 27.5522824,224.451041 C57.9535818,153.87495 49.7793813,39.4134729 48.7470473,26.5941666 C48.7124027,26.1665715 49.0323795,25.7917948 49.4605723,25.7576183 C49.8895436,25.7203348 50.2647962,26.0422933 50.2990516,26.4698883 C51.3344996,39.3280316 59.5320561,154.144478 28.9832248,225.064665 C28.8563241,225.358661 28.5690456,225.534981 28.2673643,225.534981" id="Fill-228" fill="#99C577"></path>
                    <path d="M51.1968162,370.726829 C50.9967334,370.726829 50.7966506,370.650321 50.6444475,370.497303 C50.3415984,370.19321 50.3431555,369.701145 50.6483402,369.398994 C70.6620715,349.563789 86.4900237,319.467081 97.6927151,279.945417 C106.670361,248.275423 112.709826,210.528221 115.644504,167.752408 C120.64346,94.8919261 114.807581,31.8956457 114.748024,31.2676519 C114.70754,30.8408336 115.021678,30.4617848 115.449481,30.4213944 C115.885459,30.3802272 116.257598,30.6944183 116.298081,31.1216249 C116.357639,31.7507838 122.205585,94.872896 117.198454,167.858433 C114.255991,210.741436 108.197841,248.595052 99.1913899,280.367963 C87.9143486,320.149835 71.9513211,350.474904 51.7452922,370.501187 C51.5938677,370.651874 51.395342,370.726829 51.1968162,370.726829" id="Fill-229" fill="#99C577"></path>
                    <path d="M81.5853866,492.674947 C80.5102334,492.674947 79.6390557,491.805776 79.6390557,490.733099 L79.6390557,430.203354 C79.6390557,429.130677 80.5102334,428.261506 81.5853866,428.261506 C82.6605398,428.261506 83.5317175,429.130677 83.5317175,430.203354 L83.5317175,490.733099 C83.5317175,491.805776 82.6605398,492.674947 81.5853866,492.674947" id="Fill-230" fill="#99C577"></path>
                    <path d="M86.7173162,493.419413 C86.7173162,494.116537 84.3209936,494.681615 81.3649062,494.681615 C78.4084296,494.681615 76.0124963,494.116537 76.0124963,493.419413 C76.0124963,492.72229 78.3761205,491.056572 81.3322079,491.056572 C84.2882953,491.056572 86.7173162,492.72229 86.7173162,493.419413" id="Fill-231" fill="#5051BC"></path>
                    <path d="M90.9992442,491.477565 C90.9992442,492.174688 84.7102598,492.739766 81.7541724,492.739766 C78.7976958,492.739766 72.5091006,492.174688 72.5091006,491.477565 C72.5091006,490.780441 78.6030627,482.188927 81.5595393,482.188927 C84.5156267,482.188927 90.9992442,490.780441 90.9992442,491.477565" id="Fill-232" fill="#99C577"></path>
                    <path d="M82.6976758,473.273862 C82.2757112,473.273862 81.9292643,472.937534 81.919922,472.5146 C81.6579458,460.907395 87.4860391,450.782986 87.7340016,450.357721 C87.9500444,449.986828 88.4265062,449.861773 88.7986446,450.07693 C89.1700046,450.292863 89.2961268,450.768228 89.0800841,451.139121 C89.0213049,451.239709 83.2247422,461.322174 83.4762081,472.479646 C83.4859398,472.908795 83.1453319,473.264153 82.715582,473.273474 C82.7093538,473.273862 82.703904,473.273862 82.6976758,473.273862" id="Fill-233" fill="#99C577"></path>
                    <path d="M80.3620787,449.971682 C79.9424498,449.971682 79.5963921,449.63846 79.5843249,449.217468 C79.3379194,440.6244 75.7726304,437.799399 75.7364287,437.771825 C75.3950422,437.51084 75.3308133,437.023437 75.5924002,436.682836 C75.8543763,436.342236 76.3425161,436.278155 76.6839026,436.53914 C76.8547904,436.669632 80.8731852,439.848826 81.1406111,449.172417 C81.1526783,449.601565 80.814406,449.959254 80.3850454,449.971293 C80.3772601,449.971682 80.369864,449.971682 80.3620787,449.971682" id="Fill-234" fill="#99C577"></path>
                    <path d="M81.3842917,433.692778 C79.628312,433.692778 78.2051548,430.829329 78.2051548,427.296718 C78.2051548,423.764884 79.628312,420.900658 81.3842917,420.900658 C83.1398822,420.900658 84.5630393,423.764884 84.5630393,427.296718 C84.5630393,430.829329 83.1398822,433.692778 81.3842917,433.692778" id="Fill-235" fill="#99C577"></path>
                    <path d="M81.001137,434.340579 C79.600168,435.396944 76.7340011,433.969297 74.5988761,431.151675 C72.4637511,428.333665 71.8681739,425.193308 73.2687536,424.136942 C74.668944,423.080577 77.5355002,424.508224 79.6706252,427.325846 C81.8057502,430.143468 82.4017167,433.283825 81.001137,434.340579" id="Fill-236" fill="#99C577"></path>
                    <path d="M81.7674853,434.340579 C83.168065,435.396944 86.0342319,433.969297 88.1693569,431.151675 C90.3048712,428.333665 90.9004484,425.193308 89.4998687,424.136942 C88.0996783,423.080577 85.2331221,424.508224 83.0979971,427.325846 C80.9628721,430.143468 80.3669056,433.283825 81.7674853,434.340579" id="Fill-237" fill="#99C577"></path>
                </g>
            </g>
        </g>
    </g>
</svg>