<?xml version="1.0" encoding="UTF-8"?>
<svg width="26px" height="26px" viewBox="0 0 26 26" version="1.1" xmlns="http://www.w3.org/2000/svg" xmlns:xlink="http://www.w3.org/1999/xlink">
    <!-- Generator: Sketch 51.3 (57544) - http://www.bohemiancoding.com/sketch -->
    <title>users</title>
    <desc>Created with Sketch.</desc>
    <defs>
        <filter x="-1.1%" y="-0.7%" width="102.1%" height="101.9%" filterUnits="objectBoundingBox" id="filter-1">
            <feOffset dx="0" dy="2" in="SourceAlpha" result="shadowOffsetOuter1"></feOffset>
            <feGaussianBlur stdDeviation="2" in="shadowOffsetOuter1" result="shadowBlurOuter1"></feGaussianBlur>
            <feColorMatrix values="0 0 0 0 0   0 0 0 0 0   0 0 0 0 0  0 0 0 0.1 0" type="matrix" in="shadowBlurOuter1" result="shadowMatrixOuter1"></feColorMatrix>
            <feMerge>
                <feMergeNode in="shadowMatrixOuter1"></feMergeNode>
                <feMergeNode in="SourceGraphic"></feMergeNode>
            </feMerge>
        </filter>
    </defs>
    <g id="---▶︎--Sign-Up-Pages" stroke="none" stroke-width="1" fill="none" fill-rule="evenodd">
        <g id="profile-signup---Desktop" transform="translate(-445.000000, -1236.000000)" fill="#000000">
            <g id="Profile-Component---Family" filter="url(#filter-1)" transform="translate(437.000000, 1063.000000)">
                <g id="Side-Navigation" transform="translate(1.000000, 50.000000)">
                    <g id="Group-13" transform="translate(0.000000, 119.000000)">
                        <path d="M27.1926042,20.0151136 L24.3415625,18.6696023 C24.2744792,18.6326136 24.2004687,18.5423295 24.1363021,18.4242045 L26.0405208,18.4226136 C26.0733333,18.4257955 26.8579167,18.50375 27.4875521,18.2082386 C27.7252604,18.0964773 27.9017188,17.8757386 27.9731771,17.6025 C28.0457292,17.3260795 28.0001562,17.03375 27.8492188,16.7990909 C27.3052604,15.9555114 26.0361458,13.7477273 25.9964062,11.5105114 C25.9949479,11.4719318 25.879375,7.66568182 22.4344271,7.63426136 C21.9276562,7.63903409 21.4591667,7.73369318 21.031875,7.90630682 C20.9392708,7.64698864 20.8025521,7.378125 20.5972917,7.12318182 C19.999375,6.37744318 19.0266667,6 17.7076042,6 C16.3889063,6 15.4176563,6.37744318 14.8182813,7.12318182 C14.1273958,7.98227273 14.1915625,9.02471591 14.2086979,9.19892045 L14.2086979,10.8924432 C14.0220312,11.1239205 13.9166667,11.420625 13.9166667,11.7264773 L13.9166667,12.9992045 C13.9166667,13.3873864 14.0774479,13.7477273 14.3538021,13.98875 C14.6203125,15.1429545 15.1799479,16.0131818 15.375,16.2911932 L15.375,17.344375 C15.375,17.6522159 15.2211458,17.935 14.9732292,18.0825568 L12.3715625,19.6313068 C11.5253646,20.1348295 11,21.0997159 11,22.1513068 L11,23.5 L28.5,23.5 L28.5,22.3239205 C28.5,21.3403409 27.9986979,20.4565909 27.1926042,20.0151136 Z M23.8329687,22.8628409 L11.5840625,22.8628409 L11.5840625,22.1513068 C11.5840625,21.334375 11.9927604,20.5822727 12.6504687,20.1909091 L15.2525,18.6417614 C15.6881771,18.3824432 15.9590625,17.8852841 15.9590625,17.344375 L15.9590625,16.0660795 L15.8905208,15.9773864 C15.8835937,15.9678409 15.1686458,15.0248295 14.8966667,13.7294318 L14.8693229,13.6033523 L14.7697917,13.5333523 C14.6002604,13.4140341 14.5007292,13.2151705 14.5007292,13.0007955 L14.5007292,11.7264773 C14.5007292,11.5494886 14.5689062,11.3816477 14.6957812,11.2575568 L14.7909375,11.1625 L14.7909375,9.18181818 L14.7898437,9.14005682 C14.7883854,9.13210227 14.6884896,8.24954545 15.256875,7.54278409 C15.7410417,6.94142045 16.5657292,6.63715909 17.7076042,6.63715909 C18.8469271,6.63715909 19.6701562,6.93823864 20.1543229,7.53642045 C20.3953125,7.833125 20.5163542,8.16403409 20.5761458,8.44840909 C20.5801563,8.47028409 20.5859896,8.49215909 20.5889063,8.51522727 C20.5929167,8.53710227 20.5972917,8.56056818 20.6016667,8.58204545 C20.6045833,8.60710227 20.6085937,8.63017045 20.6115104,8.65363636 C20.6129688,8.67073864 20.6158854,8.68784091 20.6173437,8.70335227 C20.6217187,8.74352273 20.6257292,8.78090909 20.6271875,8.81670455 C20.6286458,8.81988636 20.6286458,8.82147727 20.6286458,8.82465909 C20.6301042,8.85886364 20.6315625,8.89147727 20.6330208,8.92090909 C20.6330208,8.926875 20.6330208,8.93164773 20.6330208,8.93801136 C20.6330208,8.96426136 20.6330208,8.98931818 20.6330208,9.01079545 L20.6330208,9.02034091 C20.6315625,9.09471591 20.6271875,9.14005682 20.6271875,9.14125 L20.6242708,11.1625 L20.72125,11.2591477 C20.8466667,11.3816477 20.9163021,11.5494886 20.9163021,11.7264773 L20.9163021,13.0007955 C20.9163021,13.2772159 20.7496875,13.5210227 20.5017708,13.6049432 L20.3566667,13.6530682 L20.3096354,13.8101705 C20.1145833,14.4719886 19.8367708,15.0840909 19.4838542,15.6277841 C19.3967187,15.7614205 19.3128646,15.8811364 19.2388542,15.9710227 L19.1659375,16.0613068 L19.1659375,17.3742045 C19.1659375,17.4549432 19.1746875,17.5340909 19.1859896,17.6116477 C19.1874479,17.6271591 19.1918229,17.6442614 19.1947396,17.6597727 C19.2060417,17.7238068 19.2217188,17.7874432 19.2403125,17.8478977 C19.2443229,17.8618182 19.2486979,17.8757386 19.2545312,17.8900568 C19.2771354,17.9564773 19.3026562,18.0221023 19.3340104,18.0825568 C19.3369271,18.0901136 19.3413021,18.0964773 19.3442187,18.1044318 C19.386875,18.1851705 19.4353646,18.2627273 19.4907812,18.3343182 L19.5578646,18.4242045 L19.5691667,18.4242045 C19.6686979,18.5315909 19.7842708,18.6246591 19.9151562,18.69625 L22.7009375,20.2155682 C23.4002083,20.5961932 23.8329687,21.3622159 23.8329687,22.21375 L23.8329687,22.8628409 Z M27.9159375,22.8628409 L24.4170313,22.8628409 L24.4170313,22.21375 C24.4170313,21.12 23.8588542,20.1364205 22.9627083,19.6468182 L20.961875,18.5546591 C21.0118229,18.4321591 21.0176563,18.2921591 20.9746354,18.1553409 C20.9035417,17.9318182 20.716875,17.7874432 20.4992188,17.7874432 L19.8524479,17.7874432 C19.8396875,17.7607955 19.8313021,17.7329545 19.8196354,17.7051136 C19.8054167,17.6693182 19.7882813,17.6335227 19.7784375,17.5945455 C19.7598438,17.5233523 19.75,17.4501705 19.75,17.3742045 L19.75,16.2991477 C19.8170833,16.2088636 19.8867188,16.1078409 19.9592708,15.9960795 C20.3209375,15.4396591 20.6100521,14.82 20.8211458,14.1502273 C21.2323958,13.9453977 21.5003646,13.5007386 21.5003646,13.0007955 L21.5003646,11.7264773 C21.5003646,11.420625 21.395,11.1239205 21.2083333,10.8924432 L21.2083333,9.19892045 C21.215625,9.11977273 21.2323958,8.86005682 21.1842708,8.51840909 C21.5601562,8.35852273 21.9801563,8.27460227 22.4344271,8.27142045 C25.3055208,8.29607955 25.4094271,11.3927841 25.4123437,11.5232386 C25.4564583,13.9358523 26.7966667,16.2725 27.3719792,17.1642045 C27.4219271,17.2421591 27.4361458,17.3368182 27.4135417,17.4282955 C27.3989583,17.4796023 27.3606771,17.5746591 27.2567708,17.624375 C26.7667708,17.8542614 26.1017708,17.7890341 26.0675,17.7874432 L24.0608333,17.7874432 C23.8730729,17.7874432 23.7020833,17.89125 23.6021875,18.0654545 C23.5041146,18.2380682 23.4953646,18.4508523 23.578125,18.6326136 C23.6692708,18.8330682 23.8300521,19.1015341 24.0951042,19.2463068 L26.9392188,20.5886364 C27.5415104,20.9211364 27.9159375,21.5861364 27.9159375,22.3239205 L27.9159375,22.8628409 Z" id="users"></path>
                    </g>
                </g>
            </g>
        </g>
    </g>
</svg>